<?xml version="1.0" encoding="UTF-8"?>
<svg id="_Слой_1" data-name="Слой 1" xmlns="http://www.w3.org/2000/svg" viewBox="0 0 169.58 80">
  <defs>
    <style>
      .cls-1 {
        fill: #fcde9c;
      }

      .cls-1, .cls-2, .cls-3 {
        stroke-width: 0px;
      }

      .cls-2 {
        fill: #ad8712;
      }

      .cls-3 {
        fill: #464703;
      }
    </style>
  </defs>
  <path class="cls-2" d="m58.37,21.63h-.16c-.11,0-.19-.05-.24-.16-.16.22-.27.44-.32.69-.05.24-.19.47-.4.69,0,.11.03.2.08.28.05.08.08.18.08.28v.49c-.11,0-.22-.08-.32-.24-.11-.16-.22-.3-.32-.4-.11.59-.27,1.05-.49,1.38-.22.32-.22.78,0,1.38,0,.11-.08.26-.24.45-.16.19-.3.39-.4.61-.11.27-.13.61-.08,1.01.05.41.11.74.16,1.01-.38.16-.62.49-.73.97-.11.49-.16.86-.16,1.13,0,.32.01.54.04.65.03.11.07.19.12.24.05.05.11.11.16.16.05.05.11.16.16.32-.11.43-.11.93,0,1.5.11.57.16,1.12.16,1.66.16.22.34.4.53.57.19.16.39.24.61.24l-.32.49c-.05.11.03.22.24.32,0,.05-.08.22-.24.49.05.27.13.62.24,1.05.11.43.27.65.49.65.38,0,.46.16.24.49l.49.49c.11-.11.19-.2.24-.28.05-.08.13-.17.24-.28-.43.65-.7,1.36-.81,2.14-.11.78-.05,1.39.16,1.82v-.08l-.24-.24c-.43.59-.85,1.24-1.25,1.94-.4.7-.77,1.43-1.09,2.18.16.16.35.26.57.28.21.03.43.04.65.04-.43,1.57-.5,3.25-.2,5.06.3,1.81.55,3.58.77,5.3.05.05.01.15-.12.28-.14.14-.26.26-.36.36-.05.22-.01.47.12.77.13.3.2.61.2.93-.05,0-.11-.03-.16-.08-.11-.11-.19-.16-.24-.16-.11.22-.1.45.04.69.13.24.2.5.2.77,0,.22-.07.53-.2.93-.14.4-.23.74-.28,1.01-.11.11-.19.18-.24.2-.05.03-.14.09-.24.2.11.43.08.84-.08,1.21-.16.38-.34.77-.53,1.17-.19.4-.36.81-.53,1.21-.16.4-.19.82-.08,1.25-.27.43-.46.79-.57,1.09-.11.3-.03.71.24,1.25.05.11.01.21-.12.32-.14.11-.18.22-.12.32.16.27.21.62.16,1.05-.05.43-.08.86-.08,1.29-.54.11-1.16.2-1.86.28-.7.08-1.19.12-1.46.12s-.69-.07-1.25-.2c-.57-.13-.98-.2-1.25-.2s-.4.07-.4.2-.14.2-.4.2-.36-.04-.28-.12.07-.15-.04-.2c-.49-.11-1.09-.15-1.82-.12-.73.03-1.23.04-1.5.04-.11,0-.32.03-.65.08-.32.05-.66.09-1.01.12-.35.03-.68.07-.97.12-.3.05-.5.08-.61.08-.27,0-.72-.04-1.33-.12-.62-.08-1.17-.12-1.66-.12,0-.11-.08-.2-.24-.28s-.3-.15-.4-.2c-.22-.05-.44-.11-.69-.16-.24-.05-.5-.08-.77-.08-.43,0-.65.13-.65.4-.05,0-.08-.03-.08-.08,0-.11.05-.22.16-.32,0-.16-.24-.24-.73-.24-.27,0-.46-.04-.57-.12-.11-.08-.22-.15-.32-.2-.76-.16-1.36-.15-1.82.04-.46.19-.9.28-1.34.28-.22,0-.47-.13-.77-.4-.3-.27-.58-.46-.85-.57-.59-.16-1.23-.28-1.9-.36-.68-.08-1.34-.15-1.98-.2-.7-.05-1.47-.09-2.31-.12-.84-.03-1.71-.09-2.63-.2.05.11.08.19.08.24,0,.16-.14.24-.4.24-.11,0-.62-.01-1.54-.04-.92-.03-1.92-.05-2.99-.08-1.08-.03-2.08-.05-2.99-.08-.92-.03-1.43-.04-1.54-.04-.22,0-.57-.01-1.05-.04-.49-.03-.94-.09-1.38-.2-.32-.11-.62-.35-.89-.73-.27-.05-.59-.08-.97-.08s-.78-.05-1.21-.16c-.11-.11-.11-.26,0-.45.11-.19.16-.42.16-.69l-.4-.4c-.32-.32-.59-.49-.81-.49.11-.76.22-1.54.32-2.35.11-.81.11-1.54,0-2.18-.05-.27-.19-.51-.4-.73-.22-.21-.38-.43-.49-.65-.05-.11-.04-.19.04-.24s.15-.13.2-.24c-.05-.21-.15-.46-.28-.73-.13-.27-.2-.51-.2-.73,0-.27.09-.53.28-.77.19-.24.34-.44.45-.61.16-.38.19-1.02.08-1.94-.11-.92-.11-1.67,0-2.27.11-.43.3-1.02.57-1.78.27-.75.4-1.24.4-1.46,0-.27-.09-.51-.28-.73-.19-.21-.34-.43-.45-.65-.11,0-.21.08-.32.24-.11.16-.22.3-.32.41,0-.27-.03-.51-.08-.73-.05-.21-.11-.4-.16-.57-.05-.21-.11-.38-.16-.49,0-.27.04-.41.12-.41s.18-.05.28-.16v-8.17c.49,1.24.77,2.52.85,3.84.08,1.32.23,2.55.44,3.68.49-.65.73-1.24.73-1.78,0-.11-.04-.38-.12-.81-.08-.43-.17-.88-.28-1.33-.11-.46-.2-.9-.28-1.34-.08-.43-.12-.7-.12-.81,0-.27.03-.41.08-.41s.11-.05.16-.16c.05-.59.12-1.17.2-1.74s.23-1.15.45-1.74c.16-.38.46-.85.89-1.42s.65-.98.65-1.25-.07-.58-.2-.93c-.14-.35-.2-.69-.2-1.01-.11-.27-.31-.54-.61-.81-.3-.27-.58-.43-.85-.49v-3.56c.22-.38.46-.92.73-1.62.11-.21.09-.47-.04-.77-.13-.3-.15-.58-.04-.85.11-.27.3-.47.57-.61.27-.13.4-.34.4-.61,0-.21-.04-.38-.12-.49-.08-.11-.15-.27-.2-.49-.11-.32-.15-.73-.12-1.21.03-.49.07-.94.12-1.38-.16-.21-.31-.46-.44-.73-.13-.27-.2-.54-.2-.81s.15-.57.45-.89c.3-.32.45-.62.45-.89.11-.7.13-1.42.08-2.14-.05-.73-.03-1.44.08-2.14.11,0,.26-.01.44-.04.19-.03.36-.09.53-.2.11-.43.38-.94.81-1.54.11-.27.17-.55.2-.85.03-.3-.15-.53-.53-.69-.05-.11,0-.23.16-.36.16-.13.3-.25.4-.36.7,0,1.55.04,2.55.12,1,.08,1.95.18,2.87.28.92.11,1.74.2,2.47.28.73.08,1.15.12,1.25.12.27,0,.59-.04.97-.12.38-.08.7-.12.97-.12.21,0,.47.07.77.2.3.13.58.2.85.2s.51-.07.73-.2c.22-.13.46-.2.73-.2s.82.15,1.66.45c.84.3,1.55.55,2.14.77,0-.16.07-.34.2-.53.13-.19.26-.34.36-.45-.27.59-.28,1.01-.04,1.25.24.24.61.36,1.09.36.21,0,.7.03,1.46.08.75.05,1.38.05,1.86,0,.32.16.7.35,1.13.57.43.22.75.32.97.32.11,0,.46-.01,1.05-.04.59-.03,1.27-.04,2.02-.04s1.54.01,2.35.04c.81.03,1.51.07,2.1.12.49.05,1.04.19,1.66.41.62.22,1.06.32,1.33.32s.39-.03.36-.08c-.03-.05.01-.13.12-.24.11-.05.17-.04.2.04.03.08.17.12.45.12s.55.04.85.12c.3.08.53.18.69.28l.49-.4c.11.27.32.39.65.36.32-.03.65.01.97.12.11,0,.24.07.4.2.16.13.38.2.65.2.43.11.88.12,1.33.04.46-.08.93-.12,1.42-.12.21,0,.43.07.65.2.22.14.46.2.73.2s.62-.01,1.05-.04c.43-.03.81-.09,1.13-.2.05.22.13.36.24.45.11.08.21.18.32.28.11.11.19.24.24.4.05.16.05.4,0,.73.11.16.43.16.97,0,0,.22-.1.45-.28.69-.19.24-.28.5-.28.77s.09.85.28,1.74c.19.89.42,1.69.69,2.39Zm-13.11-1.7c0-.27-.04-.71-.12-1.33-.08-.62-.18-1.15-.28-1.58h-7.61c-.16,0-.42.01-.77.04-.35.03-.73.05-1.13.08-.4.03-.78.05-1.13.08-.35.03-.58.04-.69.04-.27,0-.59.07-.97.2-.38.13-.7.2-.97.2s-.38-.07-.32-.2c.05-.13-.05-.2-.32-.2s-.44.05-.53.16-.18.19-.28.24c-.86.05-1.59.03-2.19-.08-.59-.11-1.13.11-1.62.65-.11-.11-.1-.2.04-.28.13-.08.07-.12-.2-.12-.11,0-.72.01-1.82.04-1.11.03-2.32.05-3.64.08-1.32.03-2.54.05-3.64.08-1.11.03-1.71.04-1.82.04-.27,0-.5.03-.69.08-.19.05-.39.08-.61.08-.27,0-.34.07-.2.2.13.14.09.2-.12.2-.27,0-.57-.03-.89-.08s-.65-.03-.97.08c-.59-.16-1.19-.16-1.78,0h-.49v4.37c.21.11.47.16.77.16s.53.05.69.16c1.29.65,1.98,1.31,2.06,1.98.08.67.12,1.39.12,2.14v1.05c0,.43-.05.86-.16,1.29l-.4-.41-.49,24.2h.24c-.11.92-.18,1.92-.2,2.99-.03,1.08-.01,2.13.04,3.16-.11-.11-.16-.17-.16-.2s-.13-.04-.4-.04c-.76,0-1.39.23-1.9.69-.51.46-1.07.93-1.66,1.42.21.22.4.4.57.57.16.16.24.38.24.65s-.08.47-.24.61c-.16.14-.32.18-.49.12v.81c.11,0,.23.03.36.08.13.05.25.13.36.24-.16.49-.14.92.08,1.29h.73c.27,0,.49.05.65.16l-.08.16-.08.08c-.22-.11-.4-.13-.57-.08-.16.05-.38.08-.65.08-.22,0-.36-.13-.44-.41-.08-.27-.18-.46-.28-.57.16-.05.2-.16.12-.32-.08-.16-.22-.32-.4-.49-.19-.16-.39-.31-.61-.45-.22-.13-.35-.2-.4-.2v2.59l.4.41c1.02.11,2.09.16,3.2.16h3.2l-.16.16c1.24.11,2.51.19,3.8.24,1.29.05,2.62.08,3.97.08.43,0,.78-.13,1.05-.41.11.11.16.24.16.41s.13.24.4.24c.11,0,.36-.03.77-.08.4-.05.86-.11,1.38-.16.51-.05,1.04-.11,1.58-.16.54-.05,1.02-.08,1.46-.08-.11-.11-.2-.16-.28-.16h-.53c-.27,0-.38-.04-.32-.12.05-.08.08-.17.08-.28.43-.11.84-.03,1.21.24.38.27.59.41.65.41.27,0,.66-.01,1.17-.04.51-.03.98-.04,1.42-.04v-3.72c0-.27-.07-.49-.2-.65-.14-.16-.2-.3-.2-.4h-.28c-.08,0-.18-.05-.28-.16.11-.11.27-.16.49-.16-.22,0-.46-.13-.73-.4.38-.16.65-.13.81.08.16.22.3.35.4.4v-1.94c-.11-.05-.35-.07-.73-.04-.38.03-1.08.04-2.1.04.21.11.46.23.73.36.27.14.51.34.73.61-.11.11-.26.15-.45.12-.19-.03-.39-.07-.61-.12.21.11.28.22.2.32-.08.11-.01.27.2.49-.59.11-1.04.01-1.33-.28-.3-.3-.66-.58-1.09-.85.16-.16.11-.41-.16-.73,0,.11-.05.22-.16.32-.05.05-.08.11-.08.16.21.32.46.57.73.73.27.16.46.38.57.65-.11,0-.3.03-.57.08-.27.05-.54.08-.81.08-.22,0-.38-.13-.49-.4-.11-.27-.16-.46-.16-.57-.22-.49-.35-.97-.4-1.46-.05-.49-.14-1-.24-1.54l.16-13.27c.7-.11,1.35-.13,1.94-.08.59.05,1.16.08,1.7.08.11-.21.12-.4.04-.57s-.07-.3.04-.4c.22.22.4.38.57.49-.27.27-.4.43-.4.49.11-.11.21-.19.32-.24.11-.05.3-.08.57-.08s.85.04,1.74.12,1.71.2,2.47.36c.11.16.13.27.08.32.32.27.77.49,1.34.65.57.16.93.38,1.09.65.22.38.35.76.4,1.13.05.38.13.73.24,1.05-.27.11-.55.19-.85.24-.3.05-.58.08-.85.08s-.53-.13-.77-.4c-.24-.27-.44-.58-.61-.93-.16-.35-.28-.7-.36-1.05-.08-.35-.07-.61.04-.77-1.24,0-2.56-.04-3.96-.12-1.4-.08-2.78-.07-4.13.04l.24,8.09c.11-.21.19-.4.24-.57.05-.16.13-.19.24-.08,0-.11-.03-.19-.08-.24-.05-.05-.11-.13-.16-.24.05-.81.07-1.63.04-2.47-.03-.83.01-1.66.12-2.47.22,1.13.34,2.24.36,3.32.03,1.08-.01,2.02-.12,2.83.05.11.12.22.2.32.08.11.17.22.28.32-.38.38-.54.7-.49.97.05.27.13.43.24.49v-.57c0-.16.05-.3.16-.4l.32.24c-.11,0-.16.11-.16.32v.49c.05-.32.11-.92.16-1.78.05-.86.08-1.78.08-2.75s-.01-1.9-.04-2.79c-.03-.89-.07-1.5-.12-1.82h3.48c.81,0,1.4.01,1.78.04.38.03.62.04.73.04s.19-.03.24-.08c0,.05.03.34.08.85.05.51.16,1.07.32,1.66.16.59.38,1.13.65,1.62.27.49.65.73,1.13.73.43,0,.73-.09.89-.28.16-.19.35-.28.57-.28.27,0,.45.03.53.08.08.05.2.08.36.08-.11-.32-.14-.67-.08-1.05.05-.38.13-.7.24-.97.32,0,.63-.01.93-.04.3-.03.58-.01.85.04v-14.97c-1.29,0-2.19.08-2.67.24-.05.32-.12.65-.2.97-.08.32-.12.62-.12.89,0,.43-.14.78-.4,1.05s-.59.5-.97.69c-.38.19-.76.34-1.13.45-.38.11-.67.19-.89.24.22,0,.42.05.61.16.19.11.39.16.61.16.54,0,.97-.21,1.29-.65,0,.49-.28.84-.85,1.05-.57.22-1.21.35-1.94.4-.73.05-1.44.07-2.14.04-.7-.03-1.24-.04-1.62-.04h-1.66c-.84,0-1.63-.05-2.39-.16.43-.27.75-.58.97-.93.21-.35.49-.66.81-.93h1.54l.24.24.4-.4c.27.11.61.16,1.01.16h1.01c.38,0,.85-.01,1.42-.04.57-.03,1.12-.13,1.66-.32.54-.19.98-.5,1.33-.93.35-.43.53-1.02.53-1.78v-.73c-.22,0-.49-.04-.81-.12-.32-.08-.7-.12-1.13-.12-.11.43-.2.88-.28,1.33-.08.46-.07.82.04,1.09.11,0,.19-.04.24-.12.05-.08.13-.17.24-.28l.08.16v.08c-.92.54-1.62.81-2.1.81-.27,0-.97.01-2.1.04-1.13.03-2.27.07-3.4.12,0,.11.04.2.12.28.08.08.01.12-.2.12-.11-1.02-.2-2.02-.28-2.99-.08-.97-.07-1.86.04-2.67l.16-.16.65.16v-1.38c.05-.27.04-.92-.04-1.94-.08-1.02-.18-1.89-.28-2.59.21-.21.35-.36.4-.44.05-.08.21-.12.49-.12s.47.07.61.2c.13.14.34.2.61.2h.77c.24,0,.44-.05.61-.16l.4.32h2.06c.67,0,1.28.03,1.82.08.11,0,.3.12.57.36.27.24.55.53.85.85.3.32.55.65.77.97.21.32.32.57.32.73,0,.27-.03.38-.08.32-.05-.05-.08.05-.08.32v.81h3.88c.27.05.78,0,1.54-.16.75-.16,1.35-.24,1.78-.24-.16-.81-.24-1.69-.24-2.63s.04-1.87.12-2.79c.08-.92.16-1.82.24-2.71.08-.89.12-1.71.12-2.47Zm-35.61,2.67c1.02-.27,1.65-.38,1.86-.32.21.05.46.08.73.08.16.16.35.24.57.24h-3.16Zm3.64-2.83c-.49-.11-1.04-.12-1.66-.04-.62.08-1.2.12-1.74.12v-.81h1.05c.27,0,.62.07,1.05.2.43.13.86.31,1.29.53Zm14.97,46.53c-.81.05-1.69.07-2.63.04-.94-.03-1.85-.09-2.71-.2-.16.22-.11.32.16.32-.54,0-1.17.01-1.9.04-.73.03-1.44.04-2.14.04s-1.31.01-1.82.04c-.51.03-.82.04-.93.04-.27,0-.51-.04-.73-.12-.22-.08-.46-.12-.73-.12-1.35-.11-2.31-.16-2.87-.16s-1.07-.05-1.5-.16h9.39c.11,0,.35-.03.73-.08.38-.05.77-.11,1.17-.16s.78-.11,1.13-.16c.35-.05.61-.08.77-.08.75,0,1.55.03,2.39.08.84.05,1.58.27,2.23.65ZM12.16,25.68v-.73h-.32v.73h.32Zm.08,35.04c-.11.32-.16.66-.16,1.01s-.08.69-.24,1.01c.05-.32.11-.7.16-1.13.05-.43.13-.73.24-.89Zm.32-34.63v-.97h-.32v.97h.32Zm10.84,41.43h-.73v-.41h.73v.41Zm.57-.24h-.49v-.32h.49v.32Zm2.67-.49c-.49.22-1.27.32-2.35.32.32,0,.69-.03,1.09-.08.4-.05.82-.13,1.25-.24Zm-1.7-30.91l-.24,1.78h-.32l.16-1.78h.4Zm.32,4.53c-.11,0-.23-.01-.36-.04-.14-.03-.26.01-.36.12v-1.54c0,.22.09.46.28.73.19.27.34.51.44.73Zm-.16,9.14h-.32l-.24-.65.32-.16.24.81Zm2.51-5.34c-.11.11-.23.23-.36.36-.13.13-.31.2-.53.2-.16,0-.35-.08-.57-.24-.22-.16-.38-.11-.49.16h-.24c-.11,0-.22.05-.32.16.21-.22.19-.43-.08-.65.81,0,1.39.03,1.74.08.35.05.63.03.85-.08Zm-1.46,8.98v-.57h-.4v.57h.4Zm0,1.46v-.57h-.4v.57h.4Zm0,1.78v-.73h-.4v.73h.4Zm.89,1.29c-.11-.11-.23-.24-.36-.4-.14-.16-.26-.24-.36-.24l-.24.65c0,.27.09.66.28,1.17.19.51.34.98.44,1.42l.24-2.59Zm-.49-1.46c-.11-.32-.15-.65-.12-.97.03-.32-.01-.59-.12-.81-.11.27-.12.59-.04.97.08.38.17.65.28.81Zm1.94,17.56c-.54,0-.94-.24-1.21-.73h.73c0,.16.16.41.49.73Zm.57-12.46v-.32h-1.13v.32h1.13Zm-.16-17.07l-.08.32-.73-.24v-.32l.81.24Zm1.78,22.17h-.57v-.32h.57v.32Zm.57-4.85h-.89v-.32h.89v.32Zm1.29,12.54c-.11-.11-.23-.19-.36-.24-.14-.05-.2-.19-.2-.4.05.05.11.13.16.24.11.21.24.35.4.41Zm2.91-28.32c-.11-.05-.15-.17-.12-.36.03-.19-.01-.34-.12-.45.32.32.4.59.24.81Zm1.54-17.8l-.49-.57-.16.24.49.49.16-.16Zm6.23,10.44c0-.27-.03-.82-.08-1.66-.05-.84-.03-1.55.08-2.14h-2.19c.38,3.13.51,6,.4,8.62-.11,2.62-.16,5.35-.16,8.21-.05.11-.11.19-.16.24l-.08.08h-2.18c-.11.22-.16.45-.16.69s.05.36.16.36c.43,0,.9-.01,1.42-.04.51-.03,1.01-.01,1.5.04l1.46-14.4Zm-3.08,11.82v-.32h-.73v.32h.73Zm2.59-29.78l-.32.81-.24-.16.24-.65h.32Zm13.76,7.2h-.4v-.73h.4v.73Z"/>
  <path class="cls-3" d="m110.89,46.88c-.16.27-.24.68-.24,1.21s-.05,1-.16,1.38c-.16.54-.41,1.04-.73,1.5-.32.46-.59.96-.81,1.5.21.22.49.32.81.32,0,.22-.04.47-.12.77-.08.3-.12.58-.12.85,0,.76.13,1.83.41,3.24.27,1.4.32,2.64.16,3.72.05.11.11.14.16.08s.08.05.08.32-.03.45-.08.53c-.05.08-.13.18-.24.28.16.22.21.54.16.97-.05.43-.16.92-.32,1.46-.16.54-.35,1.09-.57,1.66-.22.57-.38,1.09-.49,1.58-.11.49-.16,1.02-.16,1.62s.05,1.19.16,1.78c.05.21.05.43,0,.65-.05.21-.08.43-.08.65-.32,0-.58.07-.77.2-.19.13-.34.31-.45.53-.11.21-.24.43-.41.65-.16.21-.38.43-.65.65-.27.21-.68.36-1.21.45-.54.08-1.05.17-1.54.28-.11.05-.18.16-.2.32-.03.16-.09.35-.2.57-.22.16-.62.24-1.21.24-.27,0-.73-.07-1.38-.2-.65-.14-1.11-.2-1.38-.2-.16,0-.41-.04-.73-.12-.32-.08-.66-.17-1.01-.28-.35-.11-.69-.2-1.01-.28-.32-.08-.54-.12-.65-.12-.27,0-.61.04-1.01.12-.4.08-.74.12-1.01.12s-.61.04-1.01.12c-.4.08-.77.09-1.09.04-.22-.05-.42-.13-.61-.24-.19-.11-.42-.16-.69-.16-.81,0-1.36.11-1.66.32-.3.21-.51.44-.65.69-.14.24-.28.47-.44.69-.16.21-.49.32-.97.32h-2.43c-.16,0-.54-.14-1.13-.41-.59-.27-1.23-.59-1.9-.97-.67-.38-1.31-.73-1.9-1.05-.59-.32-1-.57-1.21-.73-.32-.27-.78-.4-1.38-.4s-1.13-.11-1.62-.32c-.49-.22-1.05-.47-1.7-.77-.65-.3-1.25-.59-1.82-.89-.57-.3-1.07-.55-1.5-.77-.43-.22-.7-.32-.81-.32-.27,0-.34.03-.2.08.13.05.07.08-.2.08-.22,0-.46-.03-.73-.08-.27-.05-.51-.11-.73-.16-.11-.11-.2-.26-.28-.45-.08-.19-.26-.34-.53-.45-.27-.11-.63-.28-1.09-.53-.46-.24-.82-.36-1.09-.36s-.39.04-.36.12c.03.08-.09.12-.36.12-.22,0-.46-.11-.73-.32-.27-.22-.54-.35-.81-.4.11-.59.04-1.06-.2-1.42-.24-.35-.66-.53-1.25-.53,0-.49.04-1.01.12-1.58.08-.57.12-1.1.12-1.62s-.09-1.02-.28-1.54c-.19-.51-.58-.98-1.17-1.42,0-.11.13-.24.4-.4-.11-.27-.27-.59-.49-.97-.22-.38-.32-.67-.32-.89,0-.16.13-.38.4-.65s.27-.7,0-1.29v-3.07c0-.11.07-.35.2-.73.13-.38.27-.77.4-1.17.13-.4.27-.79.4-1.17.13-.38.2-.65.2-.81,0-.11-.11-.28-.32-.53-.22-.24-.46-.53-.73-.85-.27-.32-.55-.65-.85-.97-.3-.32-.55-.62-.77-.89.22-.11.43-.21.65-.32.21-.11.46-.16.73-.16.59,0,.98-.25,1.17-.77.19-.51.28-.85.28-1.01,0-.21-.08-.77-.24-1.66-.16-.89-.3-1.66-.4-2.31,0-.16-.11-.34-.32-.53-.22-.19-.43-.34-.65-.45.43-.32.62-.77.57-1.33-.05-.57-.03-1.09.08-1.58.05-.11.16-.3.32-.57.16-.27.24-.54.24-.81.32-.43.67-.89,1.05-1.38.38-.49.57-.86.57-1.13s-.11-.65-.32-1.13c-.22-.49-.27-.89-.16-1.21-.27-.32-.54-.63-.81-.93-.27-.3-.62-.58-1.05-.85-.11-.16-.08-.51.08-1.05s.24-.84.24-.89c0-.27-.14-.63-.4-1.09-.27-.46-.4-.82-.4-1.09,0-.21.09-.46.28-.73.19-.27.36-.51.53-.73.11-.11.07-.3-.12-.57-.19-.27-.28-.54-.28-.81,0-.43.09-.66.28-.69.19-.03.5-.25.93-.69-.22-.54-.43-1.17-.65-1.9-.22-.73-.24-1.44-.08-2.14-.16-.43-.38-.88-.65-1.33-.27-.46-.4-.82-.4-1.09,0-.32.13-.61.4-.85.27-.24.51-.49.73-.73.21-.24.32-.49.32-.73s-.27-.47-.81-.69v-3.4c.65.27,1.05.41,1.21.41.38-.22.54-.51.49-.89.27-.32.49-.49.65-.49s.24-.24.24-.73c0-.11-.07-.34-.2-.69-.14-.35-.42-.66-.85-.93.38-.11.67-.23.89-.36.21-.13.39-.26.53-.36.13-.11.27-.2.4-.28.13-.08.34-.12.61-.12.49,0,.88.12,1.17.36.3.24.55.5.77.77.21.27.43.53.65.77.22.24.51.36.89.36.27,0,.46-.04.57-.12.11-.08.3-.12.57-.12.11,0,.36.04.77.12.4.08.86.18,1.38.28.51.11,1.04.24,1.58.4.54.16,1,.32,1.38.49.49.27.97.74,1.46,1.42.49.68,1.08,1.25,1.78,1.74.27.11.51.16.73.16s.43.05.65.16c.43.11.84.31,1.21.61.38.3.78.58,1.21.85.11.05.15.11.12.16-.03.05.09.08.36.08.11,0,.34-.11.69-.32.35-.21.73-.47,1.13-.77.4-.3.78-.55,1.13-.77.35-.22.58-.32.69-.32.21,0,.53.07.93.2.4.14.74.2,1.01.2.21,0,.57.08,1.05.24s.86.3,1.13.4c.05.11.11.23.16.36.05.14.13.26.24.36.59.16.94.42,1.05.77.11.35.32.69.65,1.01.54.16,1.08.22,1.62.16.54-.05,1.16.22,1.86.81-.38.27-.53.84-.45,1.7.08.86.09,1.59.04,2.18h-1.29c-.11.11-.16.24-.16.4s-.05.35-.16.57c.16.16.39.27.69.32.3.05.58.22.85.49.11.27.19.59.24.97.05.38.13.73.24,1.05l-.4,22.98c.21.32.32.54.32.65,0-.11-.08-.23-.24-.36-.16-.13-.3-.31-.4-.53-.11.11-.19.22-.24.32-.05.11-.08.3-.08.57,0,.11.08.12.24.04.16-.08.19-.12.08-.12-.27,0-.35.01-.24.04.11.03.16.09.16.2.21.32.43.69.65,1.09.21.4.32.74.32,1.01v.89l-16.67-26.7c-.05.05-.08.11-.08.16-.05.05-.08.14-.08.24-.27-.75-.74-1.69-1.42-2.79-.68-1.11-1.31-2.06-1.9-2.87h-1.13c-.16.22-.14.32.08.32-.32-.05-.55-.07-.69-.04-.14.03-.36.12-.69.28.11-.11.13-.21.08-.32-.05-.11-.14-.11-.24,0-.27-.11-.5-.13-.69-.08-.19.05-.34.14-.44.24-.11,0-.3-.03-.57-.08-.27-.05-.68-.09-1.21-.12-.54-.03-1.29-.04-2.27-.04.05.16.05.39,0,.69-.05.3-.08.59-.08.89s.05.55.16.77c.11.22.3.32.57.32,0,.22-.08.47-.24.77-.16.3-.3.55-.4.77v3.4c.16.11.38.16.65.16,0,.92-.01,1.75-.04,2.51-.03.76-.1,1.54-.2,2.35l.08-.08c0-.05.01-.09.04-.12.03-.03.04-.07.04-.12v.65l-.24.24c0,.97.01,2.08.04,3.32.03,1.24.07,2.43.12,3.56.05,1.13.09,2.13.12,2.99.03.86.04,1.38.04,1.54v22.33c0,.22-.04.4-.12.57-.08.16-.12.35-.12.57.54.16,1.16.24,1.86.24-.27.05-.58.16-.93.32-.35.16-.58.38-.69.65.05.16.26.35.61.57.35.22.75.4,1.21.57.46.16.92.31,1.38.44.46.14.85.2,1.17.2.27,0,.86.03,1.78.08.92.05,1.78.03,2.59-.08-.05-.65-.11-1.42-.16-2.31-.05-.89-.11-1.75-.16-2.59-.05-.84-.09-1.56-.12-2.18-.03-.62-.04-1.01-.04-1.17,0-.11.09-.21.28-.32.19-.11.34-.16.44-.16l.4.24-.73-14.08c0-.49.04-.82.12-1.01.08-.19.15-.39.2-.61.05-.21.09-.53.12-.93.03-.4-.01-1.04-.12-1.9-.05-.27-.04-.61.04-1.01s.07-.9-.04-1.5l9.23,14c.27.32.55.77.85,1.33.3.57.58,1.04.85,1.42.27.27.55.55.85.85.3.3.58.55.85.77l-.16.16c.43.81.85,1.55,1.25,2.23.4.67.88,1.39,1.42,2.14.7.92,1.39,1.93,2.06,3.03.67,1.11,1.31,2.09,1.9,2.95.11.16.24.24.41.24h.65c.27,0,.54-.03.81-.08.27-.05.54-.03.81.08l.49-.4c.21.11.45.23.69.36.24.13.5.2.77.2s.36-.07.28-.2c-.08-.13.01-.2.28-.2s.35.07.24.2c-.11.13-.03.2.24.2s.4-.07.4-.2.13-.2.4-.2.38.04.32.12c-.05.08.05.12.32.12s.36-.04.28-.12.01-.12.28-.12h2.1v-19.91c.16-.32.27-.54.32-.65.05-.11.03-.27-.08-.49-.05,0-.08.03-.08.08-.05.05-.08.13-.08.24,0-.27-.11-.49-.32-.65h.16c.11,0,.21.05.32.16.11-.11.16-.21.16-.32v-.32.16c0,.11.08.19.24.24l-.32-27.19c.11-.38.19-.84.24-1.38.05-.54.13-1.05.24-1.54.27.05.65.24,1.13.57.49.32.86.67,1.13,1.05.27.38.38.9.32,1.58-.05.68-.03,1.31.08,1.9,0,.22.07.42.2.61.13.19.2.39.2.61.05.49.19,1,.41,1.54.21.54.39,1.09.53,1.66.13.57.19,1.12.16,1.66-.03.54-.23,1.03-.61,1.46.32.22.59.32.81.32,0,.22-.07.38-.2.49-.14.11-.2.3-.2.57s.08.78.24,1.54c.16.76.35,1.43.57,2.02h-.24c-.05.05-.15.22-.28.49-.14.27-.18.62-.12,1.05-.11-.11-.18-.19-.2-.24-.03-.05-.09-.13-.2-.24-.27.43-.43.81-.49,1.13-.05.16-.03.36.08.61.11.24.11.45,0,.61-.27.65-.35,1.29-.24,1.94-.11.16-.26.46-.44.89-.19.43-.28.78-.28,1.05s.07.46.2.57c.13.11.25.22.36.32.05.43.04.97-.04,1.62s.2,1.21.85,1.7c.05.27.07.7.04,1.29-.03.59.28,1.19.93,1.78h.24Zm-35.36,28.24c-.11-.22-.24-.47-.4-.77-.16-.3-.38-.55-.65-.77h-5.26c-.27,0-.57-.23-.89-.69-.32-.46-.62-.8-.89-1.01-.32-.22-.84-.38-1.54-.49-.7-.11-1.43-.22-2.19-.32-.27-.05-.54-.19-.81-.41-.27-.22-.54-.32-.81-.32-.22,0-.39.11-.53.32-.14.22-.26.32-.36.32-.11-.49-.28-.99-.53-1.5-.24-.51-.58-.82-1.01-.93-.11.11-.22.3-.32.57-.11.27-.19.58-.24.93-.05.35-.09.7-.12,1.05-.03.35-.04.61-.04.77,0,.38.19.85.57,1.42.38.57.84,1.17,1.38,1.82.43.05.84.07,1.21.04.38-.03.78.01,1.21.12.11.11.24.19.4.24.16.05.3.13.4.24.92.05,1.93.11,3.03.16,1.1.05,1.79.08,2.06.08s.5-.03.69-.08c.19-.05.42-.08.69-.08h1.9c1,0,1.87-.03,2.63-.08.11-.11.17-.22.2-.32.03-.11.09-.22.2-.32Zm-13.68-2.27l-.24.16-.24-.24.16-.24.32.32Zm29.21-35.28l-15.13-24.2h-12.06v20.8l-.4-.24-.65,14.24c0,.27.05.54.16.81.11.27.22.51.32.73,0-.27.08-.54.24-.81.16-.27.21-.51.16-.73-.43-.11-.54-.23-.32-.36.22-.13.38-.23.49-.28.05.22.11.63.16,1.25.05.62.09,1.29.12,2.02.03.73.04,1.39.04,1.98v6.15c0,.27.08.57.23.89.15.32.29.59.42.81v-.69c0-.24.05-.47.16-.69.16.16.24.49.24.97V14.51h9.6c.91,1.24,1.73,2.42,2.46,3.52.73,1.11,1.47,2.28,2.22,3.52.21.38.48.85.81,1.42.32.57.64,1.11.97,1.62.32.51.6.96.85,1.33.24.38.39.57.44.57.27,0,.33.07.2.2-.13.14-.15.2-.04.2l.32.32c.43,1.13,1.03,2.21,1.81,3.24.78,1.03,1.47,2.16,2.06,3.4.27.59.67,1.31,1.21,2.14.54.84,1.1,1.63,1.69,2.39.05.11.05.22,0,.32-.05.11-.08.22-.08.32.11-.11.23-.2.36-.28.13-.08.26-.07.36.04-.43-.54-.76-1.21-.97-2.02-.22-.81-.46-1.21-.73-1.21-.11,0-.22.03-.32.08-.11.05-.16.14-.16.24l.24-.24c-.65-1.08-1.29-2.18-1.94-3.32-.65-1.13-1.29-2.16-1.94-3.08.32.22.65.54.97.97.32.43.65.9.97,1.42.32.51.65,1.03.97,1.54s.65.96.97,1.33c.11.32.27.61.49.85.21.24.32.53.32.85.27-.27.4-.27.4,0-.11.11-.12.22-.04.32s.12.22.12.32c0-.11-.04-.17-.12-.2-.08-.03.01-.04.28-.04s.38.15.32.45c-.05.3-.03.55.08.77,0-.11.08-.2.24-.28s.3-.07.4.04Zm-26.95,9.31h-.4v-1.78h.4v1.78Zm2.91-4.05c-.05-.97-.18-2.16-.36-3.56-.19-1.4-.15-2.56.12-3.48-.38.76-.55,1.78-.53,3.08.03,1.29.04,2.37.04,3.24-.05.59-.11,1.25-.16,1.98-.05.73-.11,1.44-.16,2.14-.05.7-.09,1.31-.12,1.82-.03.51-.04.82-.04.93,0,.27.08.4.24.4s.21.05.16.16c-.11.11-.16.26-.16.44s-.03.34-.08.45c.05.22.11.43.16.65.05.22.13.4.24.57.11-.97.17-1.9.2-2.79.03-.89.01-1.71-.04-2.47.21-.49.31-.9.28-1.25-.03-.35-.07-.69-.12-1.01-.05-.32-.09-.62-.12-.89-.03-.27.04-.54.2-.81l.16.32c0,.05.03.08.08.08Zm-.08-23.47h-.4v-.57h.4v.57Zm0,2.99h-.4v-.73h.4v.73Zm.16,21.69v-.97h-.32v.97h.32Zm6.64-35.77c-.43-.54-.86-.82-1.29-.85-.43-.03-.86-.15-1.29-.36.27.22.66.45,1.17.69.51.24.98.42,1.42.53Zm-.24,56.32v-.41l-1.94-.16v.32l1.94.24Zm2.59-28.16c-.43-.65-.97-1.39-1.62-2.23-.65-.84-1.13-1.77-1.46-2.79-.43-1.13-.57-2.33-.4-3.6.16-1.27.24-2.47.24-3.6.21.76.67,1.7,1.38,2.83.7,1.13,1.19,2.19,1.46,3.16.27.97.38,1.98.32,3.04-.05,1.05-.03,2.12.08,3.2Zm3.4,0l-1.29-1.94-.24.16,1.21,1.94.32-.16Zm5.02-8.09l-.24.16-.24-.24.16-.24.32.32Zm.24,4.13l-.24-.57-.32.08.24.49h.32Zm.81,1.86h-.32l-.24-.49.32-.16.24.65Zm5.66,4.13l-.32.16-.4-.73.24-.16.49.73Zm2.35,5.1c-.43-.59-.84-1.25-1.21-1.98-.38-.73-.78-1.34-1.21-1.82l-.4.08c.43.76.93,1.52,1.5,2.31s.9,1.42,1.01,1.9c0-.11.05-.21.16-.32l.16-.16Zm-1.78-5.02l-.4-.97-.32.08.49.89h.24Zm.24,1.62v-.49h-.4v.49h.4Zm1.21,1.54l-.32-.32-.24.24.32.24.24-.16Zm1.62-2.35h-.4v-.49h.4v.49Zm0,10.52v-.49h-.4v.49h.4Zm2.43.49c0-.27-.11-.3-.32-.08h-.24c-.22.11-.32.26-.32.44s-.05.39-.16.61c.05-.11.04-.24-.04-.41-.08-.16-.18-.35-.28-.57l-.08.08c-.05.05-.08.11-.08.16.05.11.05.27,0,.49-.05.22-.08.46-.08.73-.11-.27-.19-.61-.24-1.01-.05-.4-.19-.82-.4-1.25l.49.4c.11-.11.16-.21.16-.32s.05-.27.16-.49c.21.16.43.49.65.97l.08-.08c.11-.11.16-.19.16-.24,0,.11.07.18.2.2.13.03.25.15.36.36Zm-.65-2.18c-.11-.16-.19-.13-.24.08-.05.22-.08.43-.08.65-.11-.16-.23-.38-.36-.65-.14-.27-.23-.54-.28-.81-.11-.59-.11-1.55,0-2.87.11-1.32.13-2.44.08-3.36,0-.05-.03-.08-.08-.08-.11,0-.19.03-.24.08.05-.11.15-.35.28-.73.13-.38.07-.62-.2-.73.05-.92.09-1.89.12-2.91.03-1.02.04-2.05.04-3.08h-.08c-.05,0-.08.05-.08.16.16-.27.24-.69.24-1.25s.03-.98.08-1.25v-6.72h.32v20.47c0,.27.05.63.16,1.09.11.46.11.9,0,1.33.05.11.09.2.12.28.03.08.09.18.2.28Zm-.57,1.21h-.32l-.24.89h.32l.24-.89Zm1.54,6.39c-.16-.43-.38-.96-.65-1.58-.27-.62-.38-1.06-.32-1.33v-.73c.21.59.42,1.2.61,1.82.19.62.31,1.23.36,1.82Zm7.77-5.1v-.73h-.4v.73h.4Zm0,1.21h-.4v-.49h.4v.49Zm.57,1.21v-2.51h-.32v2.51h.32Z"/>
  <path class="cls-1" d="m166.56,58.69c.38.59.49,1.34.32,2.23-.16.89-.35,1.58-.57,2.06.11.16.08.46-.08.89-.16.43-.27.81-.32,1.13-.16.76-.41,1.57-.73,2.43-.05.11-.04.24.04.4s.17.35.28.57c-.38.54-.57,1.05-.57,1.54,0,.21.03.5.08.85.05.35.11.69.16,1.01.11.11.23.17.36.2.13.03.2.17.2.44s-.03.49-.08.65c-.05.16-.08.35-.08.57-.05.05-.08.11-.08.16v.32h-.32c-.11,0-.22-.05-.32-.16-.11.11-.24.25-.4.45-.16.19-.38.28-.65.28-.43.11-.94.17-1.54.2-.59.03-1.03.04-1.29.04-.49,0-.94-.13-1.38-.4l-.57.65c-.11,0-.19-.08-.24-.24s-.13-.3-.24-.4c-.43.21-.85.35-1.25.4-.41.05-.78.08-1.13.08h-1.09c-.38,0-.76.08-1.13.24-1.08.38-1.88.55-2.39.53-.51-.03-1.09-.04-1.74-.04-.27,0-.77-.09-1.5-.28-.73-.19-1.23-.28-1.5-.28s-.43.08-.49.24c-.05.16-.08.3-.08.41v-.08c0-.11.03-.19.08-.24-.11-.32-.43-.53-.97-.61-.54-.08-1.03-.12-1.46-.12-.27,0-.67.13-1.21.41-.54.27-.94.4-1.21.4s-.54-.13-.81-.4-.57-.46-.89-.57c-.76-.11-1.57-.18-2.43-.2-.86-.03-1.43-.04-1.7-.04s-.92.01-1.94.04c-1.03.03-1.89.09-2.59.2-.27.11-.5.23-.69.36-.19.13-.42.2-.69.2h-1.78c-.92,0-1.7.03-2.35.08-.11.05-.18.12-.2.2-.03.08-.18.09-.45.04h-5.99c-.22-.11-.46-.22-.73-.32-.59-.22-1.32-.35-2.18-.41-.11-.22-.15-.46-.12-.73.03-.27.01-.51-.04-.73-.27-.49-.65-.67-1.13-.57.05-.76.07-1.53.04-2.31-.03-.78-.01-1.58.04-2.39-.11-.27-.24-.53-.4-.77-.16-.24-.38-.53-.65-.85,0-.11.03-.25.08-.44.05-.19.11-.34.16-.45-.11-.21-.24-.46-.4-.73-.16-.27-.24-.54-.24-.81,0-.22.07-.43.2-.65.13-.22.23-.43.28-.65.05-.11,0-.3-.16-.57.11-.59.11-1.24,0-1.94-.11-.7-.11-1.38,0-2.02.05-.7.15-1.38.28-2.02.13-.65.25-1.35.36-2.1-.43-.32-.82-.74-1.17-1.25-.35-.51-.63-.98-.85-1.42.75-.16,1.28-.51,1.58-1.05.3-.54.45-1.1.45-1.7,0-.21-.07-.71-.2-1.5-.14-.78-.26-1.52-.36-2.23,0-.21-.11-.4-.32-.57-.22-.16-.32-.38-.32-.65s.04-.44.12-.53.15-.17.2-.28c.05-.43.09-.92.12-1.46.03-.54.09-1,.2-1.38.05-.32.16-.67.32-1.05.16-.38.32-.77.49-1.17.16-.41.3-.75.41-1.05.11-.3.16-.53.16-.69,0-.21-.08-.57-.24-1.05s-.3-.94-.4-1.38c-.11-.27-.31-.5-.61-.69-.3-.19-.55-.28-.77-.28,0-.38.07-.82.2-1.33.13-.51.12-1.04-.04-1.58-.05-.11-.16-.27-.32-.49s-.24-.46-.24-.73c0-.32.09-.66.28-1.01.19-.35.2-.85.04-1.5.11-.16.11-.49,0-.97.16-.21.32-.47.49-.77.16-.3.24-.58.24-.85,0-.21-.07-.73-.2-1.54-.14-.81-.23-1.51-.28-2.1-.05-.16-.23-.39-.53-.69-.3-.3-.45-.58-.45-.85s.08-.55.24-.85c.16-.3.32-.59.49-.89.16-.3.26-.59.28-.89.03-.3-.09-.58-.36-.85v-3.56h.65c.27-.32.53-.75.77-1.29.24-.54.36-.94.36-1.21s-.09-.51-.28-.73c-.19-.21-.36-.38-.53-.49,0-.11.08-.21.24-.32.16-.11.3-.22.4-.32.38-.05.89-.15,1.54-.28.65-.13,1.1-.2,1.38-.2.11,0,.4.03.89.08s1.01.09,1.58.12c.57.03,1.1.07,1.62.12.51.05.82.08.93.08.16,0,.47-.01.93-.04.46-.03.94-.05,1.46-.08.51-.03,1-.05,1.46-.08.46-.03.74-.04.85-.04.21,0,.59-.09,1.13-.28.54-.19.94-.28,1.21-.28s.71.12,1.34.36c.62.24,1.2.47,1.74.69.16-.43.21-.84.16-1.21.11.16.2.39.28.69.08.3.23.58.45.85.11.05.19.07.24.04.05-.03.22-.04.49-.04.11,0,.31.01.61.04.3.03.34-.09.12-.36.16.11.54.16,1.13.16h.73c.27,0,.54.03.81.08.38.05.75.19,1.13.41.38.22.7.32.97.32.11,0,.31-.03.61-.08.3-.05.61-.09.93-.12.32-.03.62-.07.89-.12.27-.05.49-.08.65-.08h2.51c.27,0,.57-.07.89-.2.32-.13.62-.2.89-.2.21,0,.47.09.77.28.3.19.58.28.85.28s.73-.07,1.38-.2c.65-.13,1.11-.2,1.38-.2.21,0,.44.07.69.2.24.14.47.2.69.2.27,0,.38-.07.32-.2-.05-.13.05-.2.32-.2s.41.07.41.2.13.2.4.2.4-.03.4-.08.13-.08.41-.08.61.07,1.01.2c.41.14.74.2,1.01.2.21,0,.51-.07.89-.2.38-.13.67-.2.89-.2.27,0,.5.07.69.2.19.14.42.2.69.2.21,0,.38-.07.49-.2.11-.13.27-.2.49-.2.27,0,.39.07.36.2-.03.14.09.2.36.2s.38-.08.32-.24c-.05-.16-.03-.3.08-.41.11.11.19.26.24.45.05.19.19.39.4.61h.24c.21.27.27.62.16,1.05.21.11.44.18.69.2.24.03.42.04.53.04-.16.43-.31.76-.45.97-.14.22-.15.49-.04.81.05.11.12.22.2.32.08.11.15.22.2.32.16.49.2.99.12,1.5-.08.51.12,1.01.61,1.5,0,.11-.07.19-.2.24-.13.05-.23.13-.28.24-.11.22-.19.45-.24.69-.05.24-.14.47-.24.69.21.54.21.97,0,1.29,0-.21-.05-.38-.16-.49-.11-.11-.22-.21-.32-.32-.11.43-.19.9-.24,1.42-.05.51-.08.9-.08,1.17s.07.63.2,1.09c.13.46.2.82.2,1.09v9.31c0,.27.11.43.32.49.21.05.38.08.49.08-.11.38,0,.65.32.81,0,.11-.07.22-.2.32-.14.11-.26.22-.36.32.27.43.55.86.85,1.29.3.43.61.86.93,1.29.11,0,.21-.05.32-.16.11-.11.21-.11.32,0-.43.38-.65.99-.65,1.82s.08,1.55.24,2.14c-.05,0-.11-.03-.16-.08-.11-.11-.22-.16-.32-.16-.27.81-.55,1.61-.85,2.39-.3.78-.61,1.58-.93,2.39.11.11.15.19.12.24-.03.05.09.08.36.08h.73c-.05.38-.07.88-.04,1.5.03.62.05,1.24.08,1.86.03.62.07,1.17.12,1.66.05.49.08.81.08.97,0,.22.07.4.2.57.13.16.23.35.28.57.05.11.05.22,0,.32-.05.11-.11.22-.16.32.16.54.36,1.28.61,2.22.24.95.23,1.63-.04,2.06l-.08,1.78Zm-4.05-28v-.89c0-.49-.01-1.05-.04-1.7-.03-.65-.05-1.32-.08-2.02-.03-.7-.07-1.29-.12-1.78-.11-.59-.39-1.29-.85-2.1-.46-.81-.88-1.46-1.25-1.94-.22-.27-.54-.55-.97-.85-.43-.3-.76-.58-.97-.85-.27-.11-.46-.2-.57-.28-.11-.08-.27-.12-.49-.12-.27,0-.4.01-.4.04s-.05.09-.16.2c-.05-.27-.23-.53-.53-.77-.3-.24-.62-.45-.97-.61-.35-.16-.7-.27-1.05-.32-.35-.05-.61-.08-.77-.08-.32-.05-.76-.17-1.29-.36-.54-.19-1.08-.36-1.62-.53-.54-.16-1.01-.31-1.42-.44-.4-.13-.63-.2-.69-.2-.11,0-.16.03-.16.08s.03.09.08.12.08.07.08.12-.08.08-.24.08c-.27,0-.3-.07-.08-.2.21-.13.19-.2-.08-.2s-.63.07-1.09.2c-.46.13-.85.18-1.17.12-.22-.05-.43-.11-.65-.16-.22-.05-.41-.03-.57.08h-.97c-.27,0-.28-.07-.04-.2.24-.13.23-.2-.04-.2s-.38.07-.32.2c.05.13-.05.2-.32.2s-.63-.07-1.09-.2c-.46-.13-.82-.2-1.09-.2s-.58.09-.93.28c-.35.19-.66.28-.93.28s-.69-.03-1.25-.08c-.57-.05-.99-.08-1.25-.08s-.36-.07-.28-.2c.08-.13.09-.23.04-.28-.16-.05-.32-.11-.49-.16-.16-.05-.3-.13-.41-.24h-1.86c-.7,0-1.38-.01-2.02-.04-.65-.03-1.21-.05-1.7-.08-.49-.03-.78-.04-.89-.04-.27,0-.73.07-1.38.2-.65.13-1.11.2-1.38.2-.11,0-.46-.01-1.05-.04s-1.29-.04-2.1-.04-1.65-.01-2.51-.04c-.86-.03-1.62-.04-2.27-.04-.11.22-.2.46-.28.73-.08.27-.12.54-.12.81v5.83c0,.27.01.93.04,1.98.03,1.05.04,1.96.04,2.71v1.7c0,.7.01,1.38.04,2.02.03.65.04,1.24.04,1.78v6.96c0,.27-.01.88-.04,1.82-.03.94.01,1.77.12,2.47.05.32.16.69.32,1.09.16.4.24.72.24.93,0,.38-.11.67-.32.89-.22-.38-.3-.65-.24-.81,0,.11-.04.35-.12.73-.08.38-.12,1.4-.12,3.08.11.22.35.43.73.65,0-.11-.07-.21-.2-.32-.13-.11-.2-.21-.2-.32.16-.11.32-.16.49-.16.22.59.24,1.21.08,1.86-.27-.43-.4-.75-.4-.97-.11.43-.23.82-.36,1.17-.14.35-.15.66-.04.93-.11.22-.35.32-.73.32,0,1.03.01,1.73.04,2.1.03.38.04.68.04.89.11-.65.15-1.21.12-1.7-.03-.49.2-.94.69-1.38.11.22.12.38.04.49-.08.11-.18.22-.28.32.43-.11.75,0,.97.32-.11.11-.23.14-.36.08-.13-.05-.26-.08-.36-.08.11,0,.13.05.08.16-.05.11.05.16.32.16.21,0,.32.08.32.24,0,.05-.03.11-.08.16.11-.54.13-1.05.08-1.54-.05-.49-.08-1-.08-1.54.05.11.11.18.16.2.05.03.08.07.08.12v.08-2.99c-.22.11-.38.15-.49.12-.11-.03-.22-.09-.32-.2v-1.38l.16-.16c.05,0,.09.01.12.04.03.03.07.04.12.04l.08.08v.81c0,.16.03.3.08.4.11-2.1.19-3.9.24-5.38.05-1.48.11-2.75.16-3.8s.09-1.96.12-2.71c.03-.75.04-1.46.04-2.1.05-.92.08-2,.08-3.24s.05-2.37.16-3.4l.32.41v37.63h6.07c.27,0,.57-.03.89-.08.32-.05.59-.11.81-.16h11.09c-.11,0-.19-.07-.24-.2-.05-.13-.03-.26.08-.36.43.11.75.14.97.08.21-.05.54-.13.97-.24l.73.57c0-.11-.01-.23-.04-.36-.03-.13.09-.2.36-.2s.59.03.97.08c.38.05.73.14,1.05.24.11.05.11.11,0,.16-.11.05-.03.08.24.08s.38-.07.32-.2c-.05-.13-.03-.25.08-.36.27.27.57.38.89.32.32-.05.59-.05.81,0-.27,0-.3-.11-.08-.32.32.11.63.16.93.16h.85c.21,0,.32-.05.32-.16,0-.05-.03-.11-.08-.16.21.11.47.12.77.04.3-.08.58-.12.85-.12s.61-.09,1.01-.28c.41-.19.74-.28,1.01-.28.43,0,.73.08.89.24-.7.22-1.4.42-2.1.61-.7.19-1.35.28-1.94.28h3.08c.32,0,.81-.08,1.46-.24.65-.16,1.28-.38,1.9-.65.62-.27,1.17-.55,1.66-.85.49-.3.75-.55.81-.77-.76.27-1.62.59-2.59.97-.97.38-1.59.57-1.86.57-.43,0-.7-.08-.81-.24.86-.21,1.77-.53,2.71-.93.94-.4,1.83-.92,2.67-1.54.84-.62,1.56-1.31,2.18-2.06.62-.75,1.01-1.62,1.17-2.59-.05-.49-.08-.98-.08-1.5s.05-.98.16-1.42c.21.76.62,1.29,1.21,1.62.11-.38.2-.84.28-1.38.08-.54.16-1.05.24-1.54s.13-.92.16-1.29c.03-.38.04-.62.04-.73,0-.65-.05-1.08-.16-1.29-.54-1.13-1.15-2.35-1.82-3.64-.67-1.29-1.2-2.19-1.58-2.67-.54-.65-1.17-1.16-1.9-1.54-.73-.38-1.5-.66-2.31-.85-.81-.19-1.62-.35-2.43-.49-.81-.13-1.54-.28-2.19-.44,1.02-.32,2.05-.66,3.08-1.01,1.02-.35,2.05-.74,3.08-1.17l.4.41c1.02-.92,2.04-1.83,3.04-2.75,1-.92,1.93-1.83,2.79-2.75-.05-.21-.04-.46.04-.73.08-.27.12-.54.12-.81Zm-.24,28.32c0-.05-.1-.09-.28-.12-.19-.03-.34-.07-.45-.12-.27.65-.74,1.39-1.42,2.23-.68.84-1.42,1.58-2.23,2.23-.43.38-.96.74-1.58,1.09-.62.35-1.09.58-1.42.69-.32.11-.82.27-1.5.49-.67.22-1.4.43-2.18.65-.78.22-1.55.39-2.31.53-.76.13-1.38.2-1.86.2-.11,0-.35.01-.73.04-.38.03-.77.05-1.17.08-.4.03-.8.05-1.17.08-.38.03-.65.04-.81.04l-11.9-.24c-.27,0-.55-.03-.85-.08-.3-.05-.55-.08-.77-.08-.27,0-.54.03-.81.08-.27.05-.54.08-.81.08s-.78.01-1.54.04c-.76.03-1.38.01-1.86-.04l-.49-.32v.24c0,.05-.13.08-.4.08s-.39-.03-.36-.08.01-.11-.04-.16c-.32-.05-.72-.09-1.17-.12-.46-.03-.8-.04-1.01-.04-.27,0-.66.01-1.17.04-.51.03-.93-.01-1.25-.12v-.57c0,.11-.05.16-.16.16l-.08.08c-.11-.21-.09-.43.04-.65.13-.21.15-.38.04-.49v-1.7l.16-.24v-.49c-.11.11-.22.16-.32.16-.05.05-.11.08-.16.08,0,.05-.01.12-.04.2-.03.08-.05.27-.08.57-.03.3-.05.73-.08,1.29-.03.57-.04,1.33-.04,2.31.38,0,.65.11.81.32-.32.16-.67.13-1.05-.08-.11-.49-.15-.96-.12-1.42.03-.46-.04-.9-.2-1.33.16-.11.24-.27.24-.49v-.49c0,.27-.05.49-.16.65-.11-.21-.23-.39-.36-.53-.14-.13-.18-.31-.12-.53v4.86h15.05l15.86.4c1.56,0,3.09-.15,4.57-.45,1.48-.3,2.76-.69,3.84-1.17.32-.21.49-.46.49-.73-.22,0-.46-.01-.73-.04-.27-.03-.49.01-.65.12.11,0,.2.03.28.08s.07.13-.04.24c-.11,0-.27-.11-.49-.32,1.46-.92,2.87-1.93,4.25-3.04,1.38-1.1,2.31-2.49,2.79-4.17Zm-44.43-4.21h-.24l-.24.65.24.16.24-.81Zm.65,7.44c-.11-1.02-.14-2.01-.08-2.95.05-.94.03-1.71-.08-2.31-.22,1.13-.27,1.96-.16,2.47.11.51.03.9-.24,1.17l-.32-.16h-.16c.16.27.24.49.24.65,0-.11.03-.19.08-.24.05-.05.11-.08.16-.08.11.32.24.58.4.77.16.19.21.42.16.69Zm-.65,0v-.57h-.32v.57h.32Zm0,1.21v-.57h-.32v.57h.32Zm.65-6.8l-.49-.73-.24.16.4.73.32-.16Zm0-.49v-.97h-.32v.97h.32Zm5.18,11.41h-4.61v-.32h4.61v.32Zm2.19-.81v-.32h-1.38v.32h1.38Zm17.24-32.85c0,.81-.28,1.44-.85,1.9-.57.46-1.15.69-1.74.69h-2.67v-12.87h2.02c.27-.05.32-.01.16.12-.16.14-.11.2.16.2s.39-.03.36-.08.09-.08.36-.08c.75,0,1.31.22,1.66.65.35.43.53.89.53,1.38,0,.27-.11.43-.32.49-.22.05-.38.13-.49.24-.05.11.21.3.81.57v2.35c-.22,0-.38-.01-.49-.04-.11-.03-.22.01-.32.12.11.11.24.16.4.16h.41c0,.27-.08.5-.24.69-.16.19-.24.39-.24.61,0-.21-.04-.34-.12-.36-.08-.03-.18-.09-.28-.2-.11.11-.15.16-.12.16.03,0,.04.14.04.41s.03.45.08.53c.05.08.27.07.65-.04v1.38c-.11-.11-.16-.24-.16-.41s-.11-.3-.32-.4c-.11.11-.15.14-.12.08.03-.05.04.05.04.32s.04.43.12.49c.08.05.17.11.28.16.11.05.2.12.28.2s.12.28.12.61Zm0,17.32c0,.27-.04.5-.12.69-.08.19-.12.39-.12.61-.11-.11-.16-.21-.16-.32v-.32c-.11-.11-.19-.17-.24-.2-.05-.03-.14-.09-.24-.2l-.16.16v.97c.11.11.16.19.16.24s.13.08.41.08.38,0,.32,0-.03-.05.08-.16c-.11.27-.16.57-.16.89v.97c.27.32.39.77.36,1.33-.03.57-.2,1.08-.53,1.54-.32.46-.76.82-1.29,1.09-.54.27-1.16.27-1.86,0l-1.7.16v-16.91h2.27c.54-.05,1.17.09,1.9.44.73.35,1.09.82,1.09,1.42v5.75c-.11-.11-.3-.17-.57-.2-.27-.03-.41-.09-.41-.2l-.24.32.49.49.08-.08c.11,0,.16-.05.16-.16,0,.05.01.13.04.24.03.11-.04.27-.2.49.16.11.31.22.45.32.13.11.2.3.2.57Zm-4.29-36.25v-.32h-.73v.32h.73Zm-.08,10.76l-.32-.16-.24.57.32.08.24-.49Zm1.13-11.17v-.32h-1.38v.32h1.38Zm1.46,31.4c0-.27-.08-.53-.24-.77-.16-.24-.24-.42-.24-.53-.22,0-.39-.03-.53-.08-.14-.05-.26-.08-.36-.08.11,0,.17.12.2.36.03.24.09.42.2.53.11,0,.19-.03.24-.08.05,0,.11-.03.16-.08,0,.22.03.39.08.53s.03.31-.08.53c-.11,0-.19-.07-.24-.2-.05-.13-.14-.2-.24-.2,0,.11.05.19.16.24.11.05.03.08-.24.08-.22,0-.35-.03-.41-.08-.05,0-.08-.03-.08-.08,0,.92.01,1.81.04,2.67.03.86-.01,1.62-.12,2.27-.11.59-.32,1.2-.65,1.82-.32.62-.49,1.04-.49,1.25v.89c.27-.05.47-.03.61.08.13.11.23.27.28.49.05.22.09.44.12.69.03.24.09.42.2.53.11,0,.23-.03.36-.08s.26-.03.36.08c0-.81-.01-1.67-.04-2.59-.03-.92.01-1.75.12-2.51.05-.49.13-1.02.24-1.62.11-.59.2-1.17.28-1.74s.15-1.06.2-1.5c.05-.43.08-.7.08-.81Zm-2.19-13.19l-.32-.32-.24.16.32.32.24-.16Zm1.13,42.89c-.11.11-.27.19-.49.24-.22.05-.38.08-.49.08-.11-.16-.16-.43-.16-.81.11.11.27.19.49.24.21.05.43.13.65.24Zm1.21-49.04c0-.16-.05-.3-.16-.4-.05-.05-.08-.11-.08-.16-.11,0-.19.03-.24.08-.05.05-.13.13-.24.24-.27-.27-.49-.32-.65-.16-.11.11-.2.15-.28.12-.08-.03-.18-.04-.28-.04.11,0,.19.12.24.36.05.24.03.42-.08.53.16,0,.27-.03.32-.08.05,0,.11-.03.16-.08.11.11.12.2.04.28-.08.08-.12.18-.12.28.11-.21.19-.4.24-.57.05-.16.13-.3.24-.4.16.11.32.14.49.08.16-.05.3-.08.41-.08Zm-1.21,38.68v-.32h-.57v.32h.57Zm1.7-10.6c.05-.21.04-.49-.04-.81-.08-.32-.12-.59-.12-.81-.11.32-.26.67-.45,1.05-.19.38-.28.7-.28.97s.07.41.2.41h.36c0-.11.04-.24.12-.41.08-.16.15-.3.2-.4Zm.08,10.6v-.32h-.97v.32h.97Zm0-32.29l-.24-1.13c-.11.22-.22.5-.32.85-.11.35-.16.66-.16.93l.73-.65Zm.32,15.86v-.57h-.32v.57h.32Zm.24-21.28l-.49.57c.11,0,.24-.07.41-.2.16-.13.19-.25.08-.36Zm.08,25.81v-.32h-.57v.32h.57Zm-.16,1.13v-.97h-.32v.97h.32Zm.32,10.76v-.32h-.57v.32h.57Zm1.62,10.6c-.59-.27-.85-.38-.77-.32.08.05.01-.05-.2-.32.21,0,.4.08.57.24l.41.41Zm10.6-9.63l-1.13.65-.16-.24,1.13-.65.16.24Zm5.1-34.15l-.24,1.54h-.32l.24-1.54h.32Zm.57,19.42l-.16,1.54h-.41l.24-1.54h.32Zm2.83-23.63c-.11.11-.16.26-.16.45v.44c.21-.59.21-1.27,0-2.02-.22-.75-.35-1.43-.4-2.02l-.24,2.59c.11.11.24.2.4.28.16.08.3.18.41.28Z"/>
</svg>