<?xml version="1.0" encoding="utf-8"?>
<!-- Generator: Adobe Illustrator 28.0.0, SVG Export Plug-In . SVG Version: 6.00 Build 0)  -->
<svg version="1.1" id="Слой_1" xmlns="http://www.w3.org/2000/svg" xmlns:xlink="http://www.w3.org/1999/xlink" x="0px" y="0px"
	 viewBox="0 0 800 800" style="enable-background:new 0 0 800 800;" xml:space="preserve">
<style type="text/css">
	.st0{fill:none;stroke:#464703;stroke-width:66.6667;stroke-linecap:round;stroke-linejoin:round;stroke-miterlimit:133.3333;}
</style>
<path class="st0" d="M468.3,200c32.6,6.4,62.5,22.3,85.9,45.7c23.5,23.5,39.4,53.4,45.7,85.9 M468.3,66.7
	c67.6,7.5,130.7,37.8,178.9,85.9c48.2,48.1,78.5,111.1,86.1,178.8 M616.7,700C331.3,700,100,468.7,100,183.3
	c0-12.9,0.5-25.6,1.4-38.3c1.1-14.5,1.6-21.8,5.4-28.4c3.1-5.5,8.7-10.7,14.4-13.4c6.9-3.3,14.9-3.3,30.9-3.3H246
	c13.5,0,20.2,0,26,2.2c5.1,2,9.6,5.1,13.2,9.3c4.1,4.7,6.4,11,11,23.6L335,242c5.4,14.7,8,22.1,7.6,29.1c-0.4,6.2-2.5,12.1-6.1,17.1
	c-4,5.7-10.8,9.7-24.2,17.8l-45.6,27.4c40.1,88.3,111.7,160,200,200l27.4-45.6c8.1-13.4,12.1-20.1,17.8-24.2c5-3.6,11-5.7,17.1-6.1
	c7-0.5,14.3,2.2,29.1,7.6l106.9,38.9c12.6,4.6,19,6.9,23.6,11c4.1,3.6,7.3,8.1,9.3,13.2c2.2,5.8,2.2,12.5,2.2,26v93.9
	c0,16,0,24-3.3,30.9c-2.7,5.7-7.9,11.3-13.4,14.4c-6.6,3.8-13.9,4.3-28.4,5.4C642.3,699.5,629.5,700,616.7,700z"/>
</svg>
