<?xml version="1.0" encoding="UTF-8"?>
<svg id="_Слой_1" data-name="Слой 1" xmlns="http://www.w3.org/2000/svg" viewBox="0 0 180.68 194.59">
  <defs>
    <style>
      .cls-1 {
        fill: #ea4f50;
      }

      .cls-1, .cls-2 {
        stroke-width: 0px;
      }

      .cls-2 {
        fill: #fff;
      }

      .cls-3 {
        fill: none;
        stroke: #000;
        stroke-linecap: round;
        stroke-linejoin: round;
        stroke-width: 3px;
      }
    </style>
  </defs>
  <path class="cls-2" d="m138.68,90.74h-8.65v-56.5c0-6.31-2.9-16.5-13.52-16.5-12.48,0-13.34,9.33-13.34,9.33v-13.06c0-5.6-3.59-10.9-12.05-10.9s-12.34,5.88-12.34,10.76v12.77c-2.15-5.16-5.88-8.32-13.92-8.32s-12.63,6.03-12.63,12.34v23.52s-2.3-5.31-9.47-5.31-9.7,5.45-9.7,9.18v72.46c0,33.66,27.29,60.95,60.95,60.95h0c33.66,0,60.95-27.29,60.95-60.95v-23.48c0-9-7.3-16.3-16.3-16.3Z"/>
  <path class="cls-1" d="m131.31,90.74h-8.65v-56.5c0-6.31-2.9-16.5-13.52-16.5-12.48,0-13.34,9.33-13.34,9.33v-13.06c0-5.6-3.59-10.9-12.05-10.9s-12.34,5.88-12.34,10.76v12.77c-2.15-5.16-5.88-8.32-13.92-8.32s-12.63,6.03-12.63,12.34v23.52s-2.3-5.31-9.47-5.31-9.7,5.45-9.7,9.18v72.46c0,33.66,27.29,60.95,60.95,60.95h0c33.66,0,60.95-27.29,60.95-60.95v-23.48c0-9-7.3-16.3-16.3-16.3Z"/>
  <g>
    <path class="cls-3" d="m130.03,34.25v56.5h8.65c9,0,16.3,7.3,16.3,16.3v23.48c0,33.66-27.29,60.95-60.95,60.95h0c-33.66,0-60.95-27.29-60.95-60.95V58.06c0-3.73,2.52-9.18,9.7-9.18s9.47,5.31,9.47,5.31v-23.52c0-6.32,4.59-12.34,12.63-12.34s11.76,3.16,13.92,8.32v-12.77c0-4.88,3.87-10.76,12.34-10.76s12.05,5.31,12.05,10.9v13.06s.86-9.33,13.34-9.33c10.62,0,13.52,10.19,13.52,16.5Z"/>
    <line class="cls-3" x1="52.24" y1="54.19" x2="52.24" y2="93.36"/>
    <line class="cls-3" x1="78.78" y1="23.92" x2="78.78" y2="90.63"/>
    <line class="cls-3" x1="103.03" y1="23.92" x2="103.03" y2="90.63"/>
    <path class="cls-3" d="m87.51,157.14s6.14-39.27,47.37-38.78c0,0-23.25.49-31.85-10.83-7.27-9.57-4.53-16.79,3.08-16.79h23.92"/>
  </g>
</svg>