<?xml version="1.0" encoding="UTF-8"?>
<svg id="_Слой_1" data-name="Слой 1" xmlns="http://www.w3.org/2000/svg" viewBox="0 0 170.08 170.08">
  <defs>
    <style>
      .cls-1 {
        fill: #fef4de;
      }

      .cls-1, .cls-2 {
        stroke-width: 0px;
      }

      .cls-2 {
        fill: #46471c;
      }

      .cls-3 {
        opacity: .92;
      }
    </style>
  </defs>
  <rect class="cls-1" x="1.04" y=".52" width="169.04" height="169.04" rx="18.43" ry="18.43" transform="translate(170.6 -.52) rotate(90)"/>
  <g>
    <circle class="cls-2" cx="19.7" cy="147.3" r="10.33"/>
    <circle class="cls-2" cx="148.23" cy="19.9" r="10.33" transform="translate(105.62 163.26) rotate(-81.1)"/>
  </g>
  <g class="cls-3">
    <path class="cls-1" d="m20.28,116.63c-.25-.16-.52-.47-.82-.51-2.21-.32-3.44-1.76-4.33-3.63-.1-.2-.73-1.06-.22-1.25-1.64-2.34-2.15-4.92-.59-7.62-.49-.14-.65-1.87-2.06-1.81-.66.03-1.39-.91-2.03-1.47-.5-.43-.91-.96-1.4-1.47.68-1.32.34-2.31-1.16-3.15-1.29-.72-2.11-1.74-2.18-3.3-.07-1.46-.38-2.92-.3-4.36.06-1.14,1.44-9.43-.11-10.59-1.15-.87-2.03-2.11-2.94-3.25-.37-.46-.65-1.1-.71-1.68-.14-1.25-.38-2.39-1.2-3.43-.31-.39-.11-1.18-.14-1.79-.03-.5-.05-1-.06-1.33.48-.62.81-1.4,1.39-1.72.8-.43,1.78-.67,2.7-.72,1.91-.12,3.82-.07,5.74-.07.38,0,.84.02,1.12.22,1.11.81,2.06-.12,3.07-.23.17-.02.43-.32.44-.5.04-1.33,1.06-2.31,1.27-3.52.14-.85-.23-1.81-.5-2.68-.06-.19-.66-.22-.93-.29-.11-.5-.17-1.03-.36-1.51-.69-1.81.16-4.21,2.16-5.38,1.38-.81,1.91-1.81,1.82-3.41-.06-1.16.05-2.37.46-3.51.08-.23.07-.6-.07-.79-1.03-1.43-.61-3.01-.55-4.57.03-.87-.19-1.77-.03-2.61.34-1.74-.06-3.75,1.79-5,1.72-1.16,3.47-1.07,5.31-.43,1.01.35,2.03.69,3.05,1.02,1.34.43,2.21,1.37,2.94,2.55.86,1.4,1.78,2.79,2.85,4.03.88,1.02,3.52.59,4.45-.43.48-.53,1.31-.72,1.82-1.22,3.58-3.48,7.94-5.86,12.2-8.32,3.9-2.25,7.93-4.33,12.09-6.03,3.18-1.3,6.62-2.09,10.01-2.76,6.79-1.34,13.67-2.29,20.6-2.23,6.92.06,13.87.38,20.48,2.69,3.29,1.15,6.56,2.55,9.55,4.31,3.31,1.95,6.3,4.45,9.42,6.72,1.44,1.04,2.91,2.04,4.29,3.16.7.57,1.18,1.4,1.8,2.06.35.37,1.56,1.6,1.79,1.91,1.67,2.13,3.42,4.19,5.03,6.36.93,1.26,1.65,2.67,2.41,4.04,1.32,2.4,2.59,4.84,3.92,7.24.2.36,2.66,5.78,2.82,6.25.72,2.2,1.38,4.42,2.15,6.6.16.45.65,2.53.97,3.39.26.68.17,1.49.3,2.23.29,1.67,1.15,5.98.68,6.18.02,2.99.09,6.04.03,9.09-.03,1.39.11,2.8-.21,4.2-.14.63-.28,3.35-.39,4.22-.17,1.34-.37,2.67-.53,4-.04.36.03.73.04,1.01-.26.99-.55,1.93-.76,2.89-.59,2.67-1.15,5.34-1.71,8.01-.07.33-.37,1.46-.44,1.72-.79,3.12-2.08,6.05-3.53,8.91-.62,1.21-.28,2.18.42,3.32,1,1.62,1.79,3.38,1.58,5.46-.07.66.54,1.72,1.14,2.05,2.49,1.4,4.43,3.26,6.01,5.65.78,1.18,2.11,2.02,3.26,2.92,1.3,1.03,2.28,2.27,2.42,3.93.14,1.64.27,3.36-.02,4.96-.73,3.98-5.8,6.1-9.3,4.03-1.75-1.03-2.6-2.93-2.26-4.99.28-1.67-.37-2.44-1.84-3.16-1.19-.58-2.22-1.57-3.17-2.53-.79-.8-1.6-1.14-2.68-.97-1.8.28-3.43-.1-4.94-1.15-1.28-.9-2.38-.66-3.52.39-2.19,2.01-4.35,4.06-6.71,5.85-2.58,1.95-5.28,3.76-8.09,5.35-2.75,1.56-5.65,2.83-8.72,3.79-3.17.99-6.37,1.78-9.58,2.55-1.19.29-1.91,1.03-2.05,2.32-.26,2.32-1.83,3.36-3.92,3.83-1.78.4-3.16-.2-4.23-1.68-.87-1.21-2.09-1.43-3.36-.62-2.02,1.3-4,1.3-6.05.11-.99-.58-1.99-.51-2.91.23-1.58,1.27-3.48,1.24-5.31,1.11-1.28-.09-2.2-1.04-2.77-2.23-.9-1.87-2.3-2.39-4.18-1.49-1.19.57-2.34.64-3.57.12-.55-.23-1.19-.32-1.8-.32-1.81,0-3.2-.85-3.67-2.59-.39-1.44-1.24-2.19-2.61-2.63-4.62-1.47-8.46-4.41-12.61-6.78-4.9-2.81-9.04-6.56-13.05-10.48-.97-.95-1.64-2.22-2.64-3.14-1.03-.95-1.62-2.18-2.47-3.24-.89-1.11-1.55-2.41-2.45-3.52-1.22-1.5-1.76-3.37-2.87-4.92-.34-.48-1.26-2.22-1.44-2.6-.65-1.4-1.32-2.79-2.05-4.14-.11-.2-.79-.9-.64-1.24Zm12.03-72.54h0c.1-1.12.21-2.24.32-3.52-.49.16-.71.23-.93.3-1.44.47-2.62-.37-2.73-1.86-.08-1.02-.3-2.02-.47-3.06-.59.14-1.02.24-1.45.35-.27-1.34-.52-2.58-.8-3.99-.62.52-.96.81-1.32,1.11-.44-.45-.74-.89-1.16-1.14-.81-.48-1.66-.9-2.54-1.24-.17-.07-.74.34-.76.55-.09,1.31-.07,2.62-.09,3.93-.01.85-.04,1.71-.06,2.73.3.21.8.56,1.33.93-.11.36-.22.67-.31.97,1.43,1.08,2.28,3.28,4.69,2.05.05.3.13.46.1.59-.11.52-.1,1.27-.43,1.5-.69.47-1.15-.11-1.54-.71-.38-.58-2.46-1.13-3.1-.84-.23.1-.44.42-.5.67-.31,1.38-.48,2.76.95,3.86-.53.27-.92.48-1.67.87,1.24.67,2.27,1.22,3.3,1.77-.12.3-.24.61-.35.91.29.22.64.34.69.55.11.46.07.97.09,1.45-.37-.05-.85.04-1.07-.17-.37-.34-.6-.85-.84-1.31-.35-.67-.63-1.4-1.72-1.29.49,1.28-.26,1.37-1.15,1.37-.58,0-1.23-.1-1.71.14-.38.18-.86,1.07-.76,1.18.85.99,1.83,1.88,2.77,2.8.15-.14.3-.27.45-.41-.8-.89-1.6-1.78-2.56-2.85,1.6-.19,2.82-.33,4.1-.48.11.22.23.5.39.75.58.93,1.69,1.38,2.56,1.05,1.68-.63,2.68.18,2.47,2.06-1.91-.25-3.43-1.87-5.42-1.77-.04.12-.08.25-.13.37,1.65.7,3.29,1.4,5.03,2.14-1.15.75-3.14.7-3.67.06-.2-.24-.51-.47-.81-.52-.61-.1-1.24-.12-1.85-.07-.42.04-.82.25-1.23.39.03.13.06.27.1.4.94.07,1.89.14,2.85.22.15.33.3.67.37.85.95.02,1.77.05,2.59.07.02.17.05.34.07.5-.84.29-1.68.57-2.82.96.49.37.91.7,1.31,1-.9.9-2.56,1.38-3.1.78-.67-.74-1.54-.67-2.07-.22-.37.31-.49,1.34-.27,1.85.48,1.1.63,2.13.1,3.34.96.63,1.9,1.26,2.9,1.92-.15.27-.3.56-.48.89-1.45-.79-2.82-1.56-4.22-2.28-1.13-.58-1.57-.3-1.74,1.01-.04.3-.24.82-.37.82-.33,0-.67-.22-.99-.38-.24-.13-.57-.49-.67-.43-1.35.84-2.2.09-3.03-.86-.15-.18-.47-.21-.78-.34-1.01,2.13-1.81.11-2.7.06-.4.25-.82.37-1.23.38-.3,0-.6-.18-.9-.2-.35-.02-.7.04-1.06.06.09.31.13.65.29.92.6.98,1.24,1.94,1.9,2.95-.36.15-.65.27-1.1.46,1.38,2.14,3.22,3.17,5.75,2.98.05.15.09.29.14.44-.36.15-.71.3-1.07.45.07.09.14.18.21.27.35.13.71.25,1.2.43-.41.26-.67.42-.92.59-.54.37-.62.82-.08,1.21,1.2.85,1.04,1.81.4,2.92-.25.44-.31.99-.46,1.49.62.17,1.23.43,1.85.47.37.02.78-.26,1.15-.46.56-.31,1.1-.66,1.48-.9.54.29,1.1.75,1.26.64.51-.35.92-.89,1.27-1.42.18-.26.03-.77.23-.99.23-.26.67-.32,1.03-.47.12.31.43.77.32.92-1.09,1.46-1.83,3.33-4.17,3.33-1.12,0-2.23.39-3.36.61.56,1.79.37,2.24-1.11,2.98-.31.15-.65.31-.85.56-.16.19-.25.72-.15.79.97.67.47,1.5.34,2.31-.1.63-.09,1.27-.14,1.97,1.79.08,3.21-.49,4.55-1.3.54-.33.96-.49,1.24.4-.96.61-1.93,1.23-3.24,2.05,1.73.23,1.57,1.02,1.34,1.98-.18.78-.06,1.62-.08,2.8,2.28-.71,4.21-1.31,6.42-1.99-.24,2.2,1.37,4.1.24,6.23-.06.12-.05.31,0,.44.42,1.01-.2,1.6-.85,2.19-.42.39-.94.73-1.22,1.21-.22.37-.26,1.31-.17,1.34,1.42.47,1.03,1.64,1.12,2.63.09,1.03.34,1.97,1.29,2.37.91-.6,1.71-1.13,2.59-1.71.23.5.35.74.45.98.88,2.27,1.57,4.63,2.67,6.79,3.77,7.47,7.98,14.67,14.13,20.51,1.88,1.78,3.68,3.71,5.8,5.15,4.25,2.89,8.59,5.67,13.08,8.16,2.61,1.45,5.55,2.3,8.37,3.35.82.3,1.27.58.94,1.55-.19.54-.16,1.16-.26,1.99,1.09-1.48,2.42-.73,3.53-1.06,0,.7,0,1.26,0,1.94.8-.44,1.38-1.04,1.85-.97,1.64.26,3.4-.61,4.95.52.36.27.83.46,1.27.55,1.81.35,1.64,1.95,2.16,3.27.38-.31.77-.63,1.36-1.11.04,0,.42-.08.79-.15-.13-.23-.26-.46-.52-.94.78-.19,1.55-.62,2.2-.48,1.68.35,3.4.76,4.94,1.49,1.46.7,2.63.78,3.75-.43,1.33-1.44,3.17-1.13,4.82-1.43.25-.05.55.17.93.3-.27.26-.46.45-.75.74.63,0,1.08,0,1.6,0,0,.34,0,.62,0,.94.41-.11.77-.21,1.13-.31.04.79.07,1.52.11,2.25.7-1.28,1.11-2.61,1.56-3.93.14-.41.27-1,.57-1.13.9-.4,1.88-.64,2.84-.9,3.32-.88,6.64-1.72,9.96-2.61,4.13-1.11,7.91-2.98,11.5-5.3,5.19-3.34,10.28-6.78,14.04-11.8.52-.69.94-1.46,1.47-2.31.17.09.61.2.91.47,1.04.92,2.09,1.83,3.03,2.85,1.07,1.16,2.34,1.46,3.77,1.11,2.04-.5,3.75.27,4.83,1.77,1.95,2.71,5.3,2.3,7.7,3.9.08.05.23.03.34.01.87-.15,1.38.35,1.79,1,.89,1.43.57,2.93.03,4.33-.17.44-.95.72-1.5.88-.18.05-.53-.55-.82-.83-.13-.13-.31-.35-.41-.32-.19.05-.41.23-.48.4-.26.71.01,1.27.73,1.43,1.73.38,3.73-.26,3.73-2.46,0-.58.03-1.16.04-1.74.02-1.37-.54-2.35-1.63-3.26-1.56-1.3-3.15-2.67-4.31-4.31-1.73-2.45-4.11-3.83-6.77-4.82-1.22-.45-2.13-1.06-2.59-2.26-.32-.83-.64-1.66-.82-2.53-.22-1.09-.75-1.82-1.82-2.19-.29-.1-.49-.47-.74-.71.34-.26.66-.69,1.02-.73.99-.12,1.66.41,2.1,1.3.65,1.3,1.22,1.73,2.08,1.67q-1.06-1.32-.73-2.19c-1.17-.64-2.35-1.28-3.56-1.93.27-.53.46-.95.7-1.35,2.15-3.68,4.05-7.48,5.17-11.6,2.79-10.31,4.54-20.76,4.21-31.49-.09-2.81,0-5.65-.42-8.42-.82-5.56-2.4-10.97-4.75-16.06-2.09-4.52-4.51-8.89-7.01-13.2-2.54-4.38-5.92-8.13-9.79-11.38-2.57-2.16-5.27-4.19-7.97-6.19-4.85-3.6-10.09-6.48-15.99-7.92-6.23-1.52-12.61-1.9-19-1.77-6.67.14-13.25,1.18-19.8,2.39-3.22.6-6.42,1.33-9.37,2.88-3.14,1.65-6.29,3.27-9.46,4.87-5.66,2.86-10.83,6.42-15.54,10.66q-1.27,1.14-2.94.87c-.43,1.07-.88,2.18-1.31,3.25-.47.32-.99.68-1.5,1.04.04.05.07.1.11.15-.38.05-.75.11-1.13.16Z"/>
    <path class="cls-2" d="m32.31,44.09c.38-.05.75-.11,1.13-.16-.04-.05-.07-.1-.11-.15.52-.36,1.04-.72,1.5-1.04.43-1.07.88-2.18,1.31-3.25q1.67.27,2.94-.87c4.71-4.24,9.88-7.8,15.54-10.66,3.17-1.6,6.32-3.22,9.46-4.87,2.95-1.55,6.15-2.28,9.37-2.88,6.55-1.21,13.13-2.26,19.8-2.39,6.39-.13,12.77.25,19,1.77,5.9,1.44,11.14,4.32,15.99,7.92,2.7,2.01,5.4,4.03,7.97,6.19,3.87,3.25,7.25,7,9.79,11.38,2.5,4.31,4.92,8.69,7.01,13.2,2.35,5.09,3.93,10.5,4.75,16.06.41,2.77.33,5.61.42,8.42.33,10.73-1.42,21.18-4.21,31.49-1.12,4.12-3.02,7.92-5.17,11.6-.23.4-.43.82-.7,1.35,1.21.66,2.39,1.3,3.56,1.93q-.33.87.73,2.19c-.85.06-1.43-.37-2.08-1.67-.44-.89-1.12-1.42-2.1-1.3-.37.05-.68.48-1.02.73.24.24.44.61.74.71,1.07.37,1.6,1.1,1.82,2.19.18.86.51,1.7.82,2.53.46,1.2,1.37,1.81,2.59,2.26,2.66.99,5.03,2.37,6.77,4.82,1.16,1.64,2.75,3.01,4.31,4.31,1.09.9,1.65,1.89,1.63,3.26,0,.58-.04,1.16-.04,1.74,0,2.2-1.99,2.84-3.73,2.46-.72-.16-.99-.72-.73-1.43.07-.18.29-.35.48-.4.1-.03.29.19.41.32.28.29.64.88.82.83.55-.15,1.33-.44,1.5-.88.54-1.4.86-2.9-.03-4.33-.41-.66-.92-1.16-1.79-1-.11.02-.26.04-.34-.01-2.41-1.59-5.76-1.18-7.7-3.9-1.08-1.5-2.79-2.27-4.83-1.77-1.42.35-2.7.05-3.77-1.11-.94-1.02-1.99-1.93-3.03-2.85-.3-.26-.73-.38-.91-.47-.53.85-.95,1.62-1.47,2.31-3.76,5.02-8.86,8.45-14.04,11.8-3.59,2.32-7.37,4.19-11.5,5.3-3.31.89-6.64,1.73-9.96,2.61-.96.26-1.94.5-2.84.9-.3.13-.43.73-.57,1.13-.45,1.32-.86,2.66-1.56,3.93-.04-.73-.07-1.46-.11-2.25-.36.1-.71.2-1.13.31,0-.32,0-.6,0-.94-.52,0-.97,0-1.6,0,.29-.29.48-.48.75-.74-.38-.13-.68-.34-.93-.3-1.65.31-3.49,0-4.82,1.43-1.12,1.21-2.28,1.12-3.75.43-1.54-.73-3.26-1.14-4.94-1.49-.65-.13-1.42.29-2.2.48.26.47.39.71.52.94-.38.07-.75.15-.79.15-.59.48-.98.8-1.36,1.11-.52-1.32-.35-2.92-2.16-3.27-.44-.09-.91-.28-1.27-.55-1.55-1.13-3.31-.26-4.95-.52-.47-.07-1.05.53-1.85.97,0-.68,0-1.24,0-1.94-1.11.33-2.44-.42-3.53,1.06.1-.83.07-1.44.26-1.99.33-.97-.12-1.25-.94-1.55-2.82-1.05-5.77-1.9-8.37-3.35-4.49-2.5-8.84-5.27-13.08-8.16-2.12-1.45-3.93-3.37-5.8-5.15-6.14-5.84-10.35-13.04-14.13-20.51-1.09-2.16-1.79-4.52-2.67-6.79-.1-.25-.22-.48-.45-.98-.88.58-1.68,1.11-2.59,1.71-.96-.4-1.21-1.34-1.29-2.37-.08-.99.31-2.16-1.12-2.63-.09-.03-.05-.96.17-1.34.28-.48.8-.82,1.22-1.21.64-.59,1.27-1.18.85-2.19-.05-.13-.07-.33,0-.44,1.14-2.13-.48-4.02-.24-6.23-2.2.68-4.14,1.29-6.42,1.99.02-1.17-.1-2.02.08-2.8.23-.97.39-1.75-1.34-1.98,1.3-.83,2.28-1.45,3.24-2.05-.27-.89-.7-.73-1.24-.4-1.34.81-2.76,1.37-4.55,1.3.04-.7.04-1.34.14-1.97.13-.81.63-1.64-.34-2.31-.1-.07,0-.6.15-.79.2-.25.55-.4.85-.56,1.48-.74,1.67-1.19,1.11-2.98,1.13-.22,2.25-.61,3.36-.61,2.34,0,3.08-1.87,4.17-3.33.11-.15-.2-.6-.32-.92-.35.15-.79.22-1.03.47-.2.22-.06.72-.23.99-.35.53-.76,1.07-1.27,1.42-.16.11-.72-.35-1.26-.64-.38.23-.92.59-1.48.9-.36.2-.78.49-1.15.46-.62-.04-1.23-.3-1.85-.47.15-.5.21-1.05.46-1.49.65-1.11.8-2.07-.4-2.92-.55-.39-.46-.84.08-1.21.25-.17.51-.33.92-.59-.49-.18-.85-.3-1.2-.43-.07-.09-.14-.18-.21-.27.36-.15.71-.3,1.07-.45-.05-.15-.09-.29-.14-.44-2.54.18-4.37-.84-5.75-2.98.45-.19.74-.31,1.1-.46-.65-1.01-1.3-1.97-1.9-2.95-.16-.27-.2-.61-.29-.92.35-.02.71-.09,1.06-.06.3.02.6.21.9.2.42-.01.83-.13,1.23-.38.89.05,1.69,2.07,2.7-.06.3.13.62.16.78.34.83.95,1.68,1.7,3.03.86.09-.06.42.31.67.43.32.16.66.38.99.38.13,0,.33-.52.37-.82.17-1.3.61-1.59,1.74-1.01,1.39.72,2.76,1.49,4.22,2.28.18-.33.33-.61.48-.89-1-.66-1.95-1.29-2.9-1.92.53-1.21.38-2.23-.1-3.34-.22-.51-.1-1.54.27-1.85.53-.45,1.4-.52,2.07.22.54.6,2.21.12,3.1-.78-.4-.31-.82-.63-1.31-1,1.14-.39,1.98-.67,2.82-.96-.02-.17-.05-.34-.07-.5-.82-.02-1.64-.04-2.59-.07-.08-.17-.23-.52-.37-.85-.97-.07-1.91-.15-2.85-.22-.03-.13-.06-.27-.1-.4.41-.14.81-.35,1.23-.39.61-.05,1.24-.03,1.85.07.29.05.61.28.81.52.53.64,2.52.69,3.67-.06-1.74-.74-3.38-1.44-5.03-2.14.04-.12.08-.25.13-.37,1.99-.1,3.52,1.52,5.42,1.77.21-1.88-.79-2.69-2.47-2.06-.87.32-1.98-.13-2.56-1.05-.16-.25-.28-.53-.39-.75-1.28.15-2.5.29-4.1.48.96,1.07,1.76,1.96,2.56,2.85-.15.14-.3.27-.45.41-.94-.92-1.91-1.81-2.77-2.8-.1-.11.38-1,.76-1.18.48-.23,1.13-.13,1.71-.14.89,0,1.65-.09,1.15-1.37,1.08-.11,1.37.61,1.72,1.29.24.46.47.97.84,1.31.22.2.71.12,1.07.17-.02-.49.02-.99-.09-1.45-.05-.2-.4-.33-.69-.55.12-.3.23-.6.35-.91-1.02-.55-2.06-1.1-3.3-1.77.74-.39,1.14-.59,1.67-.87-1.44-1.1-1.26-2.48-.95-3.86.06-.25.27-.57.5-.67.64-.29,2.72.26,3.1.84.4.6.86,1.18,1.54.71.33-.23.32-.98.43-1.5.03-.14-.04-.29-.1-.59-2.41,1.24-3.26-.97-4.69-2.05.1-.3.2-.61.31-.97-.54-.37-1.04-.72-1.33-.93.02-1.03.04-1.88.06-2.73.02-1.31,0-2.62.09-3.93.01-.21.59-.62.76-.55.88.34,1.73.76,2.54,1.24.42.25.71.69,1.16,1.14.36-.3.7-.58,1.32-1.11.28,1.41.53,2.65.8,3.99.42-.1.85-.2,1.45-.35.16,1.04.39,2.04.47,3.06.11,1.49,1.29,2.33,2.73,1.86.22-.07.44-.14.93-.3-.12,1.28-.22,2.41-.33,3.53-.22-.6-.44-1.2-.72-1.95-.68-.23-1.63-.54-2.56-.89-1.57-.58-1.89-.4-2.04,1.29-.05.6.25,1.42-.04,1.77-.89,1.07.04,1.02.61,1.23.72.27,1.46.53,2.26.83-.41.67-.68,1.12-.94,1.55,1.2,1.12,2.57,1.14,4.26,1.12-.4-.53-.62-.83-.86-1.11-.96-1.11-1.94-2.2-2.88-3.33-.2-.25-.26-.61-.39-.92.1-.05.2-.09.3-.14,1.41,1.45,2.81,2.91,4.25,4.4.67-1.29.31-2.44-.83-2.82-.64-.21-.87-.45-.42-1.04Zm23.67,13.23c-.13.48-.25.96-.4,1.49-.92-.52-.81-1.99-2.13-1.77.62,1.25,1.15,2.39,1.76,3.48.17.3.59.45.9.67.18-.35.5-.7.53-1.06.06-.73-.04-1.47-.09-2.37-.06-.04-.32-.24-.57-.43.36-2.4-.15-4.52-2.04-6.16-.64-.56-1.05-1.05-.56-1.92.1-.17-.13-.53-.21-.79-.26.16-.7.26-.76.48-.19.69-.16,1.45-.38,2.13-.28.88.1,1.42.59,2.07.87,1.16,1.57,2.44,2.4,3.63.19.27.63.37.95.56Zm43.48-21.87c.21.71.3,1.16.48,1.58.6,1.38,1.28,2.73,1.86,4.11,2.4,5.73,4.8,11.47,7.17,17.22,2.73,6.64,5.49,13.26,8.1,19.94,1.92,4.92,3.56,9.96,5.41,14.91,1.76,4.7,3.69,9.34,5.44,14.04.89,2.38,1.49,4.87,2.33,7.28.25.73.74,1.46,1.31,1.98.75.69,1.68.39,2.13-.37,2.29-3.81,2.83-8.29,4.71-12.25.18-.37.2-.82.26-1.24.32-2.01.65-4.02.95-6.03.32-2.13.89-4.28.84-6.41-.13-5.44-.12-10.91-1.35-16.26-.33-1.43-.45-2.92-.95-4.28-2.07-5.64-4.83-10.91-8.17-15.93-3.89-5.83-8.84-10.38-15.04-13.41-3.96-1.93-8.29-3.12-12.49-4.56-.84-.29-1.81-.2-3-.3Zm-34.8,93.91c1.34-.65,1.34-2.81,3.4-3.05-1.25,1.46-2.36,2.77-2.64,4.71.48-.19.81-.33,1.12-.45.27.79.52,1.52.77,2.26.13,0,.26.01.39.02.23-.53.46-1.05.73-1.66.57.32,1.29.72,2.23,1.26-.55.37-.94.64-1.33.9.59,1.03,1.19,1.31,2.92,1.35.15-.25.29-.49.47-.81.2.45.36.8.53,1.17.93-.05,1.93.13,2.72-.19.92-.37,1.25-.17,1.53.64.18.51.39,1.01.58,1.48.57-.45.94-.94,1.41-1.06.9-.23.52-.68.51-1.23-.52.2-.87.38-1.24.44-.16.03-.44-.16-.51-.31-.07-.16-.02-.5.1-.59.58-.44,1.2-.82,1.58-1.06.58.9,1.02,1.81,1.67,2.54.41.46,1.1.72,1.71.92.4.13.97.18,1.31-.02,1.78-1.02,3.52-2.13,5.24-3.2.16.87.14.83-4.18,3.63-1.72,1.12-3.53,1.68-5.65,1.31.03.1.06.2.09.3.7.46,1.39.92,2.05,1.35.3,0,.66.02,1.03.03.1.09.21.17.31.26-.95.22-.97.61-.43,1.07q-1.29.22-1.04.86c.51-.05,1.01-.1,1.51-.15.01.1.02.2.04.29-.86.47-1.72.93-2.57,1.4.04.1.07.19.11.29.29.07.58.15.91.23-.32.34-.55.58-.77.8.8,1.38,1.52-.02,2.29-.02-.07.32-.12.58-.19.91.83-.36,1.54-.67,2.25-.97.05.08.1.17.15.25-.46.47-.91.94-1.37,1.41.49.02.81-.15,1.13-.33.91-.5,1.64-.19,2.42.41.42.33,1.08.6,1.57.52.58-.1,1.24-.47,1-1.39-.05-.2.23-.49.39-.8.75.79.32,2.77,2.24,1.95.06-.68.12-1.32.18-1.96,1.09,2.17,2.68,1.4,3.99.88.21.43.35.72.4.81.85-.89,1.56-1.62,2.47-2.57-1,.27-1.76.48-2.52.69-.03-.1-.07-.2-.1-.29.59-.37,1.19-.73,2.01-1.24-.46-.01-.65-.05-.82-.02-1.01.21-1.6-.1-1.82-1.19-.06-.28-.63-.55-1.01-.66-.84-.24-1.7-.38-2.11-1.33.74,0,1.46.18,2.03-.04.6-.23,1.2-.75,1.54-1.3.78-1.23-.04-2.07-1.19-2.87.91-.38,1.63-.69,2.34-.99-.12-.36-.24-.69-.35-1.02.07-.06.15-.13.22-.19.74.53,1.47,1.06,2.39,1.72-.66.09-1.09.16-1.76.25.26.51.45.89.66,1.31-.11.22-.3.6-.5,1.01.92-.04,1.63-.08,2.34-.11-.07-.11-.13-.21-.2-.32.54-.47,1.05-.97,1.62-1.39.83-.6,1.76-1.08,2.54-1.74.34-.29.41-.9.6-1.36.7-.72.68-.73,1.32-1.98.1-.2.49-.34.76-.36,1.43-.14,1.54-.28,1.05-1.75,1.4-.59,2.66-1.4,3.31-2.65-.62-.52-1.1-1-1.66-1.35-.59-.38-1.51-1.06-1.84-.86-1.48.86-2.55.09-3.74-.52-.5-.26-1.08-.53-1.62-.53-2.32,0-4.64.05-6.95.18-.52.03-1.02.41-1.52.63.05.14.1.27.15.41.83-.12,1.65-.24,2.48-.36.03.09.06.19.08.28-.83.29-1.67.57-2.5.86.01.07.02.14.04.21.38.05.76.11,1.29.18-.52.99-2.38.76-1.91,2.4.3,1.03.36,2.13.55,3.39-.11.06-.46.35-.85.42-.18.03-.65-.54-.62-.58.95-1.37-.03-2.69-.09-4.02-.03-.65-.24-1.42-1.3-1.22-.22.04-.52-.38-.7-.51.49-.41.87-.73,1.15-.97-1.05-.19-1.9-.34-2.75-.5-.14-.03-.29-.09-.43-.08-1.19.09-1.8-.72-1.4-1.83.1-.27.09-.57.1-.66-.53-.27-.89-.45-1.3-.66-.15.09-.41.26-.67.43-.05-.05-.09-.09-.14-.14.18-.37.37-.75.6-1.21-.5.02-.89.04-1.27.06-.04-.08-.09-.16-.13-.24.69-.49,1.38-.99,2.13-1.53-.1-.63-.47-.73-1.09-.29-.5.36-1.01.69-1.76,1.19.17-.64.25-.91.32-1.18-.09-.05-.17-.11-.26-.16-.49.52-.99,1.04-1.69,1.79-.04-.91-.08-1.55-.12-2.4-.86.73-1.56,1.33-2.26,1.93-.09-.09-.18-.17-.26-.26.42-.45.83-.9,1.26-1.34.52-.53.86-1.03-.11-1.56-.12.26-.24.5-.38.8-.52-1.79-1.45-2.15-2.53-1.05-.18-.14-.34-.37-.54-.42-1.19-.29-2.02-1.02-2.69-2.03-.19-.29-.71-.37-1.08-.55-.11.09-.21.18-.32.27.24.87.54,1.73.71,2.61.07.36-.15.77-.23,1.16-.28-.14-.61-.22-.84-.42-.96-.8-1.81-.54-2.15.66-.11.38-.25.78-.49,1.09-.34.43-.81.75-1.19,1.16-.37.39-.68.84-.95,1.16-.45-.62-.78-1.08-1.15-1.58.41-.24.89-.48,1.33-.79.75-.54,1.83-.99,2.09-1.72.31-.86-.12-1.98-.22-2.98-.28.09-.76.12-.79.27-.38,1.59-2.02,2.05-2.85,3.22-.09.13-.45.08-.68.11.02-.23-.05-.55.08-.68.6-.58,1.2-1.19,1.89-1.64.63-.41.72-.81.35-1.42-.7.15-1.37.29-2.03.42-.54-1.65.8-3.19,2.51-2.95.73-1.99.76-4.01.21-6.03-.46-1.71-1.42-2.45-3.18-2.58-.15-.01-.29-.12-.67-.28,1.16-.22,2.05-.39,3.06-.58-.62-.89-1.89-.75-2.05-1.95.91.22,1.67.52,2.43.57.76.04,1.53-.17,2.45-.3.02-.14.09-.54.17-1.05-.9-.06-1.69-.12-2.48-.18-.02-.1-.05-.2-.07-.31,1.4-.59,3.59-.24,3.4-2.92.65,1.45,1.29.79,1.89.26.25-.23.47-.51.62-.82,1.14-2.32,2.29-4.64,3.39-6.98.69-1.46.58-1.63-1.22-2,.41-.39.72-.67,1.13-1.07-.37-.21-.69-.39-1.06-.6.21-.33.39-.61.53-.84-.76-.92-1.49-1.81-2.22-2.7-.14.07-.28.14-.42.21.03.68-.1,1.43.13,2.03.53,1.33.17,2.32-.76,3.28-1.43,1.47-2.8,3.04-4.8,3.72-1,.34-2.09,1.17-3.17.04-.11-.12-.55-.05-.76.07-1.41.8-2.8,1.62-4.19,2.46-.19.11-.39.33-.43.53-.28,1.4-.7,2.81-.66,4.2.01.51,1.15.98,1.76,1.48.04.03.03.13.09.42-.67,0-1.31-.09-1.92.02-.47.09-.88.43-1.32.66.23.42.43.86.7,1.26.2.29.49.51.73.76.03.1.07.21.1.31-2.01-.43-2.27.76-2.39,2.11-.03.31-.12.61-.18.91-.3,1.47-.57,2.95-.91,4.42-.26,1.13-.62,2.24-.93,3.35.03.17.41.42.72.74.52.51,1,1.06,1.53,1.63.14-.11.03,0-.09.07-1.1.7-1.13.86-.3,1.84.49.59,1,1.16,1.46,1.7-.19.47-.34.85-.49,1.23.08.04.16.09.23.13.38-.28.75-.55,1.13-.83.07.06.14.12.21.18-.42.64-.85,1.28-1.1,1.66.7.99,1.24,1.76,1.87,2.64.36-.33.77-.72,1.19-1.11.08.07.15.14.23.2-.49.89-.97,1.79-1.54,2.82.64.1.96.15.98.15.39.64.65,1.06.91,1.49.3-.37.59-.74.89-1.12-.08-.08-.17-.16-.25-.24.41-.09.83-.17,1.46-.31-.84,1.38-2.17,2.46-1.02,4.15Zm-24.47-31.48c.1-1.28.22-2.29.25-3.31.01-.34-.19-.68-.3-1.02-.13.03-.26.05-.39.08-.11.92,0,1.96-1.24,2.21-.12.03-.14.46-.25.69-.24.54-.51,1.07-.74,1.61-.2.47-.6.99-.52,1.41.4,2.11.83,4.22,1.43,6.28,1.92,6.7,5.31,12.63,9.72,18,.45.55.91,1.1,1.55,1.87.31-.73.57-1.23.74-1.75,1.21-3.74,2.41-7.49,3.61-11.24,1.42-4.45,2.83-8.9,4.26-13.34.22-.7.18-1.24-.62-1.45-1.29-.33-2.08-1.08-2.12-2.52-.45.02-.8.1-1.13.04-1.28-.19-3.26.79-3.16-1.81-1.08-.85-.68-2.05-.68-3.11,0-2.91-1.5-4.2-4.42-3.8-.93.13-1.89.08-2.83.16-.27.02-.52.22-.9.39.36.29.58.47.88.71-.74.99-.23,1.35.69,1.89.74.44,1.45,1.39,1.62,2.22.34,1.66.72,3.36.33,5.11-.18.83,0,1.76-.29,2.54-.14.39-1.07.86-1.42.73-.69-.26-1.46-.82-1.77-1.46-.44-.9-.76-1.61-2.3-1.15Zm62.27-16.26c-.46-1.1-.91-2.11-1.3-3.13-3.3-8.64-6.59-17.29-9.9-25.93-.11-.28-.24-.63-.46-.76-1.05-.6-2.85.07-3.18,1.27-1.25,4.49-2.45,9-3.67,13.51-.19.7.12,1.15.75,1.34,1.98.61,2.78,2.18,3.21,4,.64,2.67.25,5.28-.59,7.85-.16.48-.21.99-.31,1.49.13.06.27.12.4.18,1.18-3.17,3.18-5.51,6.72-5.07,3.22.4,5.86,1.99,6.27,5.79.75-.2,1.3-.34,2.05-.54Zm.79,65.54c-.85.35-1.58.95-2.22.87-4.72-.61-9.27.85-13.93.98-3.06.09-6.05.56-8.9-1.1-1.45-.84-3.05-1.55-4.67-1.96-2.03-.51-3.87-1.13-5.28-2.8-.58-.7-.74-1.03.17-1.43.25-.11.43-.36.64-.55-1.07-.02-2.1.14-2.29,1.21-.24,1.34-.28,2.73-.31,4.1-.02.92.54,1.24,1.26.69.7-.54,1.27-.28,1.57.23.42.69.6,1.52.84,2.31.15.5.19,1.02.32,1.72.65-.57,1.05-.94,1.46-1.28.72-.59,3.11-.79,3.58-.15.53.74,1.2,1.73,1.08,2.51-.2,1.28-.44,2.75-2.05,3.37-1.8.69-3.03-.22-4.11-1.33-.72-.75-1.3-1.3-2.42-1.03-.31.07-.72-.34-1.11-.49-.3-.12-.63-.18-.94-.27-.05.12-.11.24-.16.36.32.37.59.81.97,1.1.95.72,1.93,1.4,2.93,2.05.37.24.82.42,1.25.52,2.1.46,4.2.78,6.06,2.1.93.65,2.31.96,3.47.91,2.47-.09,4.82.09,7.17.94.93.34,2.09.39,3.06.18,3.35-.71,6.66-1.6,9.99-2.43.71-.18,1.45-.29,2.1-.6.73-.34.85-1.58.24-1.67-1.28-.2-1.4-1.12-1.63-2.35-.51.46-.88.75-1.18,1.09-.56.63-1.04,1.35-1.65,1.93-.69.65-1.51.52-2.24.03-.59-.4-1.27-2.9-1.14-3.64.12-.65.12-1.32.17-1.98.36-.85,1.11-1,2.01-.6.67.3,1.37.55,2.01.9.92.5,1.72.62,2.27-.25-.15-.48-.36-.85-.35-1.22,0-.14.52-.34.81-.37.62-.05,1.22,0,1.5-.78.33-.88-.07-1.46-.38-1.82Zm-12.2-42.12c1.05.98,2.07.91,2.8-.43,1.2-2.23,2.22-4.56,3.33-6.83.33-.67.88-1.27,1.05-1.97.5-2.13.92-4.29,1.26-6.46.17-1.06.15-2.16.1-3.24-.04-.97-.23-1.93-.37-3.04-.79-.27-.76-.26-.23-1.32.14-.28.18-.67.12-.99-.32-1.97-1.2-2.45-3.33-1.86-1.73-1.8-3.3-2.12-5.15-.78-2.32,1.67-2.85,4.42-4.1,7,1.77-.31,1.45-2.02,2.43-2.73.55.72-.28,2.31,1.46,2.3-.29.16-.58.31-1.05.56.64.38,1.12.65,1.59.93,0,.06,0,.13,0,.19-.47-.07-.94-.15-1.35-.21.38,1.72.71,3.17,1.06,4.75-.02-.01.11.06.25.12,1.46.59,1.51.79.36,1.8-.7.62-1.11,1.26-1.06,2.29.09,1.73-.14,3.39-1.54,4.73-.59.57-1.01,1.44-.54,2.53.33-.5.52-.95.84-1.25.86-.79,1.74-1.59,2.71-2.24.32-.22.97-.09,1.41.06.57.2,1.07.58,1.8,1-.13.46-.36,1.14-.49,1.84-.41,2.14-1.31,3.03-3.35,3.21Zm-20.44-51.59c1.45.74,1.9.58,2.35-.98,1.4-4.85,2.76-9.72,4.11-14.59.35-1.28.12-1.53-1.15-1.13-3.52,1.13-7.09,2.16-10.49,3.6-2.1.88-3.92,2.42-5.89,3.68.34.46.56.77.78,1.08-.7,1.26-.93,2.54-.3,4.04.39-.29.74-.49,1.04-.77.56-.53,1.06-1.13,1.65-1.63.26-.22.75-.44,1-.34.9.36,1.53-.02,2.25-.47,1.49-.94,3.04-.36,4.83-.32-.88,1.39-1.56,2.47-2.33,3.68.13.11.46.38.85.7-.65,1.26-.53,2.97-2.72,2.99-1.79.02-1.81.27-1.46,2.16.58.08,1.18.17,1.59.22.38.67.68,1.2,1.12,1.99.23-.89.28-1.45.54-1.87.07-.11.79.18,1.33.32.26-.69.57-1.49.91-2.38Zm23.63,52.12c.12.07.25.14.37.2.46-.41.86-.92,1.38-1.19.54-.27,1.4-.59,1.76-.35.39.26.46,1.14.47,1.76,0,.65-.24,1.3-.37,1.95.14.09.28.18.41.27.16-.3.33-.59.48-.9.93-1.92,1.81-3.88,2.82-5.76.7-1.31,1.78-2.45,1.62-4.1-.02-.21.1-.47.23-.64.77-.99.73-2.27,1.31-3.39.9-1.72,1.1-3.81,1.68-6.07.12.57.18.97.3,1.35.14.45.32.9.58,1.61.79-2.15.77-2.6-.15-5.26-.35-1.03-3.35-2.83-4.42-2.62-.27.05-.55.27-.75.48-1.11,1.15-1.39,2.56-1.42,4.13-.04,2.12,0,4.3-.52,6.32-.78,3-1.97,5.9-3.11,8.79-.29.72-1.06,1.25-1.58,1.89-.39.48-.72,1.01-1.08,1.52Zm26.12,28.28c-.16-.58-.44-1.03-.36-1.41.28-1.5-.42-2.65-1.36-3.57-.98-.96-2.2-1.68-3.33-2.49-.61-.44-1.3-.64-1.82.09-.34.49-.63,1.08-.73,1.67-.2,1.27-.88,2.15-1.8,2.99-1.41,1.31-2.77,2.68-4.02,4.13-1.37,1.6-2.61,3.31-3.87,5.01-.16.22-.2.73-.06.9.15.18.65.25.9.14,3.52-1.45,7.01-2.97,10.53-4.41,2.08-.85,3.44-3.04,5.91-3.06Zm-4.58-30.94c.16-.02.31-.03.47-.05-.03-.66.06-1.36-.12-1.99-.65-2.29-.54-4.6-.42-6.93.05-.99-.58-1.54-1.51-1.77-.48-.12-1-.18-1.44-.4-1.83-.88-2.17-.71-3.78.58-1.48,1.18-2.43,3.08-4.89,3.38.62.45.97.7,1.11.8-.3.69-.55,1.33-.85,1.94-.52,1.04-1.14,2.03-1.58,3.11-.18.44,0,1.04.06,1.56.05.4.32.83.23,1.19-.34,1.39-.78,2.76-1.27,4.44.54-.34,1.12-.51,1.36-.9,1.21-1.93,2.33-3.93,3.51-5.89.47-.79.97-1.58,1.56-2.27.54-.62,1.14-.37,1.46.52.41,1.13,1.24,1.36,2.03.46.7-.8,1.26-1.73,1.95-2.71-.04,0,.18.04.42.1-.91,2.2.68,3.4,1.7,4.81Zm-32.24-26.53c.82,1.19,1.6,2.32,2.44,3.54-.52.24-.82.37-1.06.49-.09,1.16-.16,2.23-.24,3.31.13.02.26.04.39.06.96-2.76,2.02-5.5,1.81-8.58.19-.15.43-.33.84-.65-.78-.03-1.3-.05-1.83-.07q1.14-.55,1.05-1.28c-.34.09-.67.19-1,.28-.93.23-1.38-.15-1.12-1,.31.22.61.42,1.06.74.36-.54.69-1.03,1.02-1.51-.59-.39-1.13-.93-1.77-1.15-.78-.27-1.95-.65-2.4-.29-.73.58-1.06.33-1.74-.02.54-.49.97-.88,1.41-1.28-1.31-1.23-3.21-1.46-4.53-.57-1.57,1.05-3.11,2.16-4.67,3.23-.9.62-1.33,1.49-1.4,2.54-.02.31.17.62.27.94.1,0,.2,0,.3,0,.44-.88.89-1.75,1.36-2.68.15.36.3.7.44,1.03.04-.1.07-.2.11-.31.74.14,1.48.28,2.25.43.25-1.06-.19-2.42,1.52-3-.01.51.05.94-.04,1.34-.56,2.45-.54,4.91-.13,7.37.07.41.3.79.55,1.39.72-.98,1.28-1.74,1.87-2.54.38.28.65.48.79.59.86-.81,1.68-1.57,2.47-2.32Zm-48.89-21.37c1.03-.05,1.76-.13,2.5-.11.5.02,1.02.13,1.5.29.25.08.45.34.65.54.75.81,1.43,1.7,2.26,2.43.34.3,1.06.46,1.46.31.27-.11.26-.88.4-1.43-.78-.07-1.49.08-1.87-.21-1.32-.98-2.06-2.42-2.35-4.01-.06-.35.58-.99,1.04-1.22.39-.2.97.04,1.47.01.35-.02.84-.04,1.02-.27.46-.56.93-.64,1.51-.29.75.45,1.11-.05,1.5-.57.42-.57.15-.89-.3-1.24-.23-.18-.5-.45-.56-.72-.46-2.19-2.5-2.45-4.31-3.73-.21,1.39-.49,2.45-.5,3.51,0,.84-.08,1.57-.81,2.03-.96.61-1.05,1.4-.75,2.4.17.56.16,1.17.23,1.77-.64-.86-1.04-1.72-1.56-2.5-.16-.24-.68-.46-.95-.38-.92.26-1.54-.09-2.16-.71-.77-.76-1.53-.68-2.18.11.96,1.39,1.92,2.78,2.76,4Zm34.15,6.12c-.08-.11-.17-.22-.25-.33-.57-.02-1.16-.17-1.69-.03-.53.14-1.35.51-1.42.89-.23,1.29-1.07,1.78-2.11,2.21-.63.26-1.22.6-1.95.96,1.49,2.61.24,4.45-2.01,6.26,1.11.38,2.01,1.04,2.61.83,1.58-.53,2.94-.46,4.18.58,1.62-1.74.53-3.99,1.29-5.85.01-.03-.09-.11-.17-.19-.38.07-.78.14-1.16.2-.56-1.48-.38-2.05.61-3.04.76-.76,1.39-1.65,2.07-2.49ZM21.84,31.87c-1.8,2.29-.11,4.21.02,6.2,0,.14.29.24.4.4.15.21.35.43.38.67.34,2.33,1.47,2.99,3.81,1.98-1.08-1.99-2.16-3.97-3.24-5.95.14-.08.29-.16.43-.25,1.14,1.78,2.28,3.55,3.42,5.33.26-.11.61-.15.73-.33.23-.36.49-.83.44-1.22-.06-.45-.37-1.15-.68-1.22-.96-.2-1.26-.76-1.35-1.61-.06-.53-.19-1.05-.28-1.57-.07.06-.14.13-.22.19-1.29-.88-2.59-1.76-3.85-2.62Zm-8.5,41.4c-1.34-.79-2.52-1.51-3.73-2.19-1.15-.64-2.71-.44-3.55-1.8,1.21.18,2.35.54,3.46.97,1.18.45,2.33.96,3.8,1.57.05-.95.39-1.89.06-2.35-.42-.59-1.27-1.04-2.26-.61-.36.16-.96-.24-1.45-.4-.45-.16-1.01-.6-1.32-.47-1.02.44-1.7.1-2.38-.32-.83-.06-1.66-.12-2.66-.19.65,1,1.18,1.9,1.78,2.74.47.65.74,1.19-.39,1.5,1.1.93,2.12,1.48,3.48,1.42.55-.03,1.51.27,1.63.64.34,1.07.89.9,1.58.56.65-.32,1.27-.69,1.95-1.07Zm60.48,67.44c.48.29.99.6,1.51.91-.06.13-.12.27-.18.4-.34-.12-.67-.27-1.02-.34-.24-.04-.71.04-.71.07-.03.73-.26,1.62.08,2.14.44.68,1.26.48,1.79-.3.2.47.36.86.54,1.3.38-.12.73-.23,1.14-.37.28,1.19,1.18,1.51,2.19,1.51.4,0,.81-.3,1.37-.53-.45-.2-.72-.33-1.02-.47.27-.25.49-.47.69-.66-.49-.21-.92-.4-1.61-.7.74-.29,1.14-.44,1.69-.66-.59-.38-1.01-.65-1.41-.92.29-.59.56-1.13.91-1.83-.53.03-.89.16-1.04.03-1.13-.92-1.99-.38-2.92.36-.13.1-.95-.29-1.01-.55-.2-.87-.16-1.78-.29-2.68-.19-1.27-.75-1.61-1.57-1.82-.35.48-.65.88-.94,1.27,1.78-.01,1.73.76,1.13,2.16.19.1.39.2.59.31.17.09.33.19.5.28-.5.23-.95.31-1.39.26-1.44-.14-1.5-.1-1.54,1.47.84-.22,1.68-.44,2.52-.66Zm-19.24-74.78c-.13,0-.26-.02-.38-.03-.19.48-.5.94-.56,1.43-.18,1.64.12,3.17.92,4.68,1.29,2.43,3.25,4.49,3.81,7.33.41,2.09,1.11,4.12-.34,6.12,2.45-.49,3.04-1.65,1.95-3.71-.08-.16-.07-.37-.08-.56-.06-.83-.11-1.66-.16-2.49,0-.06.06-.12.1-.19.29,0,.57,0,.86,0,.14-.18.28-.36.42-.54-.33-.09-.67-.14-.97-.29-.21-.1-.4-.31-.51-.52-1.26-2.38-2.43-4.81-3.77-7.14-.64-1.1-1.26-2.1-1.05-3.43.03-.21-.15-.45-.24-.68Zm-15.35,17.3c1.1,1.01,2.02,1.89,2.99,2.72.18.16.63.26.79.15.98-.69,1.92-1.45,2.93-2.23-1.07-.72-1.86-.91-2.74.01-.26.28-1.11.3-1.51.1-1.7-.86-2.42-2.69-1.95-4.58.15-.6.25-1.21.44-1.8.32-1-.32-1.42-1.06-1.56-.68-.13-1.59-.42-1.85.74-.25,1.13-.44,2.29-.83,3.36-.56,1.51-.29,2.54,1.01,3.61.92.76,1.27.76,1.79-.53Zm-14.11,18.39c-1.47.77-.31,2.15-.61,3.19-.13.01-.26.03-.38.04-.18-.68-.36-1.36-.58-2.17-.44.29-.83.56-1.22.83.12.03.24.07.35.1-.02.95-.03,1.89-.06,2.83-.02.5-.37,1.09.5,1.28,1.04.22,1.57.98,2.04,1.88.25.48.82.79,1.24,1.18.23-.48.55-.94.67-1.45.27-1.12-.3-2.44.67-3.15-.28-.97-.73-1.79-.7-2.59.04-.88-.23-1.28-.97-1.55-.33-.12-.63-.28-.94-.42Zm-5.87,7.09c-.42-1.37.22-2.07.57-2.93.71-1.73,1.86-3,3.22-4.18.39-.34.59-.89.87-1.34-.1-.07-.2-.14-.3-.22-1.3.67-2.6,1.33-3.88,2.03-.2.11-.44.4-.42.58.16,1.47-.85,2.23-1.75,3.09-.26.25-.62.63-.58.89.18,1.28.47,2.54.73,3.81.14.68.48.92,1.16.59,1.59-.77,2.96-1.69,2.92-3.75,0-.45.23-.9.27-1.35.03-.39-.05-.8-.08-1.2-.32.27-.73.47-.94.81-.59.94-1.1,1.93-1.79,3.17Zm4.29-19.43c.6-.55,1.15-1.02,1.66-1.53.4-.4.68-1.1,1.14-1.24,1.12-.33.85-.9.46-1.54-.55-.9-.6-1.67.24-2.48.67-.65.33-2.17-.51-2.57-.86,2.12-1.73,4.24-2.59,6.36-.13-.01-.26-.03-.4-.04.02-.38-.06-.79.07-1.12.59-1.54,1.24-3.06,1.85-4.6.1-.24.08-.53.11-.8-.13-.07-.27-.15-.4-.22-.75.98-1.5,1.95-2.22,2.95-.07.1.02.38.1.54.45.84.06,1.36-.6,1.85-.94.69-1.13,2.03-.42,2.9.43.53.95.99,1.5,1.56Zm-5.81-11.28c.49,1.2.36,2.09-.54,2.85-.35.29-.55.77-.82,1.16.41.26.79.62,1.23.76.36.11.81-.04,1.22-.09.52-.06,1.1-.3,1.55-.16,1.01.32,1.49-.27,2-.9.5-.61.98-1.25,1.5-1.85.28-.32.62-.58.94-.87-.08-.1-.15-.21-.23-.31-.81.47-1.61.95-2.42,1.42-.83.48-1.6,1.26-2.64.61,1.86-1,3.71-2,5.55-2.99-.03-.11-.05-.23-.08-.34-1.08-.42-2.16-.85-3.26-1.28-.52,2.22-.52,2.21-2.65,1.95-.39-.05-.8.03-1.35.06Zm-3.15,16.13c-.08-.09-.17-.18-.25-.27.81-1.96,3.32-2.35,4.35-4.11-.07-.1-.14-.2-.21-.3-.67.18-1.35.36-2.07.56-.11-.38-.2-.69-.31-1.05-.66.12-1.26.23-2.03.37.48,1.65.11,2.94-1.37,3.3-.19,1.51-.34,2.76-.49,3.96,1.56.38,2.79-.07,3.8-1.09.83-.83,1.63-1.7,2.35-2.62.2-.25.07-.75.09-1.14-.35.06-.76.03-1.02.21-.97.69-1.9,1.45-2.84,2.18Zm1.44-19.25c-2.08-1.06-2.34-.99-3.37.62-.12.19-.29.39-.49.48-.66.3-1.34.56-1.97.82-.1,1.19-.2,2.36-.29,3.54-.02.29-.12.77,0,.83.27.13.66.15.95.06.36-.11.7-.34.99-.59.84-.73,1.7-1.07,2.74-.14.37-1.35.68-2.57,2.29-2.82.34-.05.54-.99.86-1.63-2.46-.07-3.87,1.55-5.61,2.4-.09-.14-.18-.27-.27-.41,1.34-1.02,2.68-2.03,4.17-3.17Zm18.92-5.33c0,.11-.02.23-.02.34.5.07,1.01.19,1.51.19.93,0,1.92-.29,2.76-.03,2.95.89,5.9,1.11,8.93.66.98-.14,1.71.29,2.08,1.28.19.51.49.98.81,1.6.53-.88.91-1.59,1.37-2.25.46-.67.29-1.19-.19-1.76-1.3-1.55-2.98-1.71-4.84-1.53-2.21.22-4.42.83-6.64.06-.07-.02-.18.08-.35.17.76,1.04,1.8,1.23,2.9,1.13,1.46-.13,2.92-.33,4.37-.55,1.35-.2,2.56.03,3.48,1.09.24.28.26.74.38,1.12-.36-.13-.87-.15-1.06-.41-.67-.93-1.56-1.03-2.57-.92-2.96.3-5.9.46-8.86-.22-1.29-.3-2.72-.7-4.06.02Zm11.75-17.08c-1.35,1.25-1.69,1.17-2.66-.45-1.28.16-2.5.31-3.85.48-.5,1.21.12,2.3,1.42,3.01.98.54,2.54.2,2.95,1.77.04.16.8.29,1.14.17.62-.21,1.18-.61,1.92-1.02-1.03-.53-1.84-.94-2.64-1.35.05-.12.09-.24.14-.36,1.01.32,2.03.64,3.13.99-.06-1.32-.29-2.48-1.54-3.25Zm-19.57-1.27c-1.24-1.63-2.46-3.24-3.68-4.85.12-.1.24-.21.37-.31.3.31.61.61.89.93.83.96,1.63,1.95,2.49,2.89.24.26.64.36,1.17.63-.16-1.29.08-2.42-1.3-2.82-.17-.05-.32-.33-.41-.53-.7-1.68-2.59-2.04-3.69-3.3-.18-.2-.74-.1-1.11-.08-.6.03-.83.31-.83.97.02,1.28.79,2.02,1.73,2.66-.38.32-.72.6-1.26,1.04.79.24,1.33.32,1.79.56.33.17.73.52.79.85.3,1.66,1.36,2.22,3.05,1.35Zm-12.48,32.51c-.03-.11-.06-.21-.09-.32-.91.13-1.81.29-2.72.37-.6.05-.77.35-.99.89-.33.81-.95,1.5-1.44,2.24-.15.23-.39.44-.43.69-.16.93-.29,1.88-.34,2.82-.01.25.41.75.47.73.99-.37,1.95-.79,2.91-1.24.41-.19.8-.46,1.15-.76.36-.3.7-.64.97-1.01.5-.68.95-1.39,1.42-2.09.14.02.27.03.41.05-.3-.32-.61-.65-1.04-1.1-1.19,1.31-2.27,2.49-3.35,3.68.86-1.74.86-4,3.08-4.94Zm14.75,9.75c-.11.03-.23.07-.34.1.24,1.03.33,2.13.78,3.06.28.58,1.11,1.29,1.66,1.27.96-.04.66-1.1.75-1.78.02-.11-.03-.24,0-.35.16-.68.38-1.34.47-2.02.05-.41.03-.96-.21-1.24-.75-.92-.73-1.19.22-1.78.42-.26.97-.73.99-1.13.06-.84-.39-1.56-1.27-1.87-1.25-.45-1.62-.3-1.75,1.01-.19,1.85-1.33,3.64-.49,5.64-.27-.3-.54-.6-.81-.89Zm-2.48-9.89c.26.57.42.99.63,1.39.62,1.18.32,2.01-.86,2.57-.37.17-.64.53-.97.79-.75.59-1.5,1.18-2.27,1.77-.08.06-.21.05-.3.07-.26-.26-.49-.5-.84-.84-.08.48-.24.84-.17,1.14.11.46.27,1.07.61,1.25.27.14.85-.23,1.26-.43.41-.2.76-.53,1.17-.71,1.81-.78,3.01-2.25,4.19-3.73.19-.23.17-.64.22-.96.15-.97.09-2.01.45-2.89,1.02-2.5,1.07-2.52-1.52-3-.11-.02-.22.02-.61.06.17,1.12.35,2.21.52,3.35-.47.05-.88.1-1.53.18Zm17.28,16.37c1.09-.86,1.34-2.05.85-3.31-.14-.37-.38-1.01-.22-1.15,1.05-.98.17-1.63-.27-2.39-.19-.33-.3-.73-.33-1.1-.03-.37.14-.75.09-1.11-.02-.12-.62-.3-.66-.25-.25.36-.52.76-.58,1.17-.21,1.31-.32,2.63-.49,4.09-1.06-1.65-.17-3.31-.19-4.92-1.5.19-1.68.67-1.41,2.01.21,1.06.02,2.19,0,3.37,1.07.15,1.64.79,1.94,1.91.17.63.83,1.14,1.27,1.7Zm-16.49-39.8c-1.92-2.31-2.68-2.42-3.58-.51-.72,1.54-1.69,2.43-3.43,2.38-.55-.01-.9.22-.74.86.25,1.05.05,1.98-.67,2.8-.14.16-.12.46-.16.6,2.11.14,3.53-.83,4.46-2.44-.1-.45-.34-1.04-.23-1.12.33-.23.8-.32,1.22-.33.33,0,.66.23.99.27.69.09,1.28-.04,1.52-1.09-.93.05-1.74.08-2.56.12,0-.05.02-.1.03-.16,1-.45,2.01-.89,3.15-1.4Zm3.12-5.67c.61,1.57,1.6,2.62,3.35,3-.02-.42-.04-.75-.05-1.09-.86-.18-2,.1-2.06-1.22-.04-.87.07-1.75.11-2.43-1.02-.51-1.9-.94-2.79-1.39-1.1-.55-1.8-.18-1.7,1.03.06.69.43,1.35.68,2.09-.18.29-.41.68-.71,1.17.46.27.83.54,1.24.7.75.31,1.94.2,1.34,1.63-.04.08.18.37.33.42.87.32,1.75.6,2.63.89-.9-1.69-2.65-2.72-2.36-4.81Zm-15.61,16.86c.34.4.84.8,1.08,1.32.37.83.56,1.74.84,2.67.44-.18.66-.25.86-.36,1.05-.55.97-.56.15-1.43-.53-.56-.78-1.39-1.16-2.09.12-.08.24-.16.36-.24.24.25.48.5.71.75.58.62,1.16,1.23,1.74,1.85.49.51.97.33,1.21-.18.17-.35.21-.94.03-1.24-.29-.46-.78-.96-1.26-1.07-.58-.13-.93-.25-.98-.86-.16-1.94-1.85-2.34-3.18-2.98-.8-.39-1.15.15-.91,1.07.23.91.35,1.86.52,2.78Zm22.93-21.47c.14.07.28.14.42.21.3-.54.69-1.06.86-1.63.17-.6.14-1.24-.75-1.41-.13-.03-.27-.68-.18-.98.13-.47.5-.87.68-1.34.2-.53.3-1.1.47-1.78-.68.11-1.08.18-1.53.26-.16-.56-.24-1.06-.44-1.52-.18-.42-.47-.79-.71-1.18-.38.36-.81.69-1.13,1.09-.14.18-.04.53-.1.79-.1.44-.28.87-.36,1.31-.07.39-.15.83-.03,1.19.16.5.59.93.74,1.43.11.38.1.93-.11,1.24-.71,1.08-.35,2.23,1.11,2.75-.09-1.78-.17-3.49-.25-5.21.11-.01.21-.02.32-.04.33,1.6.66,3.21.99,4.81Zm36.3,30.84c-.2-.06-.4-.11-.6-.17-1.68,1.78-3.4,3.53-5.01,5.38-.36.41-.48,1.15-.44,1.73.02.3.63.81.95.8,1.84-.07,3.47-1.56,3.85-3.35.13-.59.32-1.17.5-1.82.36.25.65.45.93.66.11-.04.22-.08.32-.13-.17-1.03-.34-2.07-.51-3.1Zm-27.28-23.03c-.98.41-1.76.63-2.42,1.04-.67.41-.7.99.06,1.43.27.16.53.33.81.45,1.76.76,3.23,1.8,3.78,3.77.01.05.12.08.19.13.81-.6,1.47-1.1.37-2.16-.41-.39-.3-1.32-.45-2.07,1.97.55,2.38-1.67,4.07-1.46-.93-1.34-1.99-.73-2.8-.85-.31.64-.59,1.2-.87,1.77q-.38-1.95-1.71-2.31c-1.07,1.26-.64,2.43.31,3.62-.78-.37-1.54-.73-1.89-1.33-.2-.35.26-1.08.53-2.02Zm-11.68,40.96c1.38-.79,2.23-1.76,2.29-3.27,0-.2.16-.51.33-.59,1-.47.89-1.14.45-1.93-.14-.26-.17-.58-.26-.91.29-.25.56-.49.93-.82-.32-.18-.69-.45-.73-.4-.77.8-1.51,1.64-2.25,2.47-.43-1.22.62-1.98,1.28-2.91-.97-.39-1.7.19-1.78.72-.28,1.83-2.17,3.37-1.03,5.45.1.19.02.47.1.68.2.52.45,1.02.67,1.5Zm-5.89-30.96c1.1.6,2.07,1,1.29,2.3-.4.67-.91,1.5.12,2.08.64.36,2.1-.45,2.37-1.22.06-.18.04-.39.11-.57.08-.18.21-.35.34-.5.31-.38.64-.76.95-1.14.37-.46.8-.88,1.07-1.39.2-.36.19-.84.28-1.26-.36-.03-.77-.18-1.06-.06-.37.15-.71.48-.96.82-.6.82-1.14,1.69-1.79,2.67-.23-2.11,1.23-3.12,2.41-4.26-.93-1.05-1.44-1-1.83.15-.33.95-.93,1.56-1.94,1.79-.39.09-.76.33-1.36.6Zm49.8-15.14c-.3,2.11-1.32,2.9-3.14,2.83-.76-.03-1.05.63-.85,1.69,1.94-.71,3.77-1.38,5.6-2.05.05.13.1.27.15.4-1.39.67-2.77,1.34-4.29,2.07,1.4.81,2.81.58,3.67-.12.78-.64,1.55-.85,2.38-1.15.33-.12.74-.5.81-.82.15-.76.11-1.56.15-2.5-1.58.39-3,1.6-4.47-.35Zm-27.36-6.59c.13.02.27.05.4.07.16-.41.37-.8.47-1.22.17-.71.2-1.45.41-2.14.39-1.26-.02-2.29-.84-3.18-.89-.97-1.65-.76-2.15.48-.26.64-.61,1.24-.78,1.58.1,1.46.16,2.76.28,4.04.1.98.52,1.77,1.69,2.28-.13-1.85-.41-3.52.66-5.02-.05,1.04-.1,2.07-.15,3.11Zm10.98,9.5c-.06.14-.12.28-.18.43-.67-.11-1.39-.42-2-.27-.58.14-1.04.76-1.55,1.17.43.39.83.84,1.32,1.15.19.12.61,0,.86-.13.66-.34.99-.08,1.25.52.2.47.49.9.74,1.35.71-.43,1.23-.84,1.82-1.08.63-.25,1.33-.35,1.99-.51.07-.11.13-.21.2-.32-.94-.64-1.88-1.28-2.81-1.93-.18-.13-.42-.26-.5-.44-.59-1.44-1.95-1.09-3.05-1.33-.17-.04-.41.3-.73.54,1.02.33,1.83.59,2.64.85Zm.4,6.08c-.75-.4-1.45-.79-2.15-1.17.58-1.09.57-1.06-.78-1.53-.42-.14-.82-.45-1.12-.78-.31-.34-.48-.8-.67-1.14-1.31,1.17-1.97,3.59-1.14,4.69.62.83,1.97,1.29,3.08,1.5,1.04.19,2.11-.29,2.79-1.58Zm-23,5.25c1.65,1.5,3.23,1.02,4.82.63,1.27-.32,1.59-.87,1.13-2.13-.53-1.45-1.83-1.8-3.11-2.1-.37-.09-1.05.1-1.23.39-.63,1.04-1.11,2.17-1.61,3.21Zm24.81,65.94c-.3,1.38-.61,2.64-.82,3.92-.04.25.22.65.45.81,1.37.94,2.89,1.39,4.56,1.33.5-2.55-.82-4.52-4.19-6.06Zm-7.21-76.55c.09.07.18.14.27.21.5-.6,1.15-1.14,1.48-1.82.56-1.16,1.4-1.42,2.56-1.25.39.06.95.05,1.19-.18,1.05-1,2.39-1.09,3.68-1.42.31-.08.66-.59.71-.94.1-.72-1.75-1.84-2.68-1.71-.91.13-1.84.19-2.74.37-.76.15-1.56.35-1.6,1.35,1.48-.16,2.89-.31,4.29-.47.03.2.06.39.09.59-.51.12-1.01.32-1.52.35-1.57.1-3,.56-3.96,1.84-.7.94-1.19,2.04-1.78,3.07Zm-13.73-10.58c-.07-.03.18.07.43.15.86.28,1.86.36,1.34,1.8-.22.61.24,1.14,1.07,1.13,1.16-.01,2.27-.57,2.26-1.22,0-.14-.07-.36-.17-.4-1.4-.63-1.12-1.76-.89-2.88.13-.66-.05-.94-.78-1.09-.57-.12-1.17-.51-1.55-.95-.49-.57-1.06-1.24-1.67-.8-.39.29-.33,1.28-.34,1.96,0,.66.17,1.32.3,2.3Zm11.32,5.54c-.17-1.26-.32-2.42-.48-3.58.13-.02.26-.04.39-.06.34,1.3.69,2.61,1.04,3.94,1.26-.74,1.33-1.22.52-2.2-.23-.28-.44-.7-.4-1.03.11-1.02.35-2.03.52-2.99-.38-.15-.95-.24-1.33-.54-.4-.32-.61-.88-.96-1.29-.18-.22-.58-.53-.69-.46-.25.14-.49.47-.55.76-.19.94-.32,1.89-.43,2.84-.02.16.16.33.22.51.28.86.64,1.71.78,2.59.13.84.43,1.36,1.38,1.53Zm-37.23,43.67c.15.45.59,1.25.68,2.09.11,1.02.67,1.09,1.32.8.49-.21.84-.73,1.26-1.1.58-.51,1.18-.99,1.73-1.53.23-.23.53-.65.46-.88-.07-.25-.58-.58-.83-.53-.75.14-1.47.45-2.33.74.25-.79.51-1.54.71-2.3.14-.51.32-1.17-.49-1.26-.65-.07-1.27.06-1.48.93-.23.95-.62,1.85-1.03,3.03Zm31.07-28.1c.31-.16.59-.22.73-.38,2.01-2.42,4.62-3.02,7.58-2.44,1.35.26,1.94,1.42,1.44,2.66-.47,1.15-.99,2.28-1.55,3.57.41.03.93.21,1.09.04.76-.79,1.62-1.57,2.07-2.53.7-1.47-.27-3.44-1.76-4.19-1.68-.85-3.45-.66-5.22-.51-1.59.13-3.87,2.04-4.37,3.8Zm-21.42,25.28c-.19,0-.38-.02-.56-.03-.35.92-.71,1.84-1.06,2.76-.13-.04-.26-.08-.38-.12.25-1.29.51-2.58.81-4.11-.79.41-1.31.68-1.66.87.11.92.48,1.77.21,2.3-.57,1.12-1.39,2.07.02,3.12.03.02-.02.15-.01.22.05.99.56,1.65,1.56,1.63.92-.02,1.54-1.21,1.35-2.27-.08-.45-.1-.92-.12-1.38-.06-1-.1-2-.15-2.99Zm14.59-13.37c-.25,2.1,2.82,4.88,4.5,4.42.23-.06.39-.39.58-.6.07-.08.13-.16.29-.36.15.27.28.5.44.8.4-.56.66-.93.85-1.21.59-.03,1.08-.05,1.6-.08-.14-1.09-.74-1.31-1.57-1.2-1.55.2-3.04.17-4.43-.73-.65-.42-1.41-.66-2.25-1.04Zm31.24-12.59c-.81-1.25-1.56-2.39-2.35-3.61-1.25,1.44-1.22,1.82-.11,2.73.23.19.33.58.41.9.09.4.1.82.13,1.1.64.18,1.14.33,1.65.46,1.67.44,2.46-.28,2.12-1.92-.16-.76,0-1.65-1.03-1.94-.02-1.38-1.18-.94-1.97-1.48.34,1.42,1.67,2.26,1.15,3.74Zm35.09,86.38c-.21-.31-.27-.51-.38-.55-1.6-.54-3.21-1.08-4.83-1.55-.18-.05-.66.27-.67.42-.04,1.09-.09,2.2.06,3.28.09.65.61.9,1.32.52.82-.43,1.71-.72,2.55-1.11.64-.3,1.26-.65,1.94-1.01Zm-26.4-73.46c-.43.11-.93.27-1.45.36-1.25.23-1.78.91-1.43,2.11.27.9.73,1.74,1.13,2.67,1.02-.5,1.84-1.77,3.23-.55.06-1.91.45-3.62-1.48-4.6Zm-59.75-12.24c1.7.23,2.93.22,3.42-1.53.85.79,1.49.76,2.09-.11.14-.2.68-.12,1.04-.19.54-.1,1.31-.05,1.57-.38.48-.61.66-1.45.96-2.19-.1-.05-.19-.1-.29-.15-1.83.83-3.65,1.65-5.48,2.48-.06-.06-.11-.11-.17-.17.21-.34.43-.69.7-1.12-.82.04-1.52.07-1.93.09-.69,1.17-1.24,2.12-1.92,3.27Zm14.75,19.74c1.34-1.29,2.48.47,3.57-.23-.25-1.11-.9-1.46-1.97-1.2-.39.09-.97.19-1.22-.02-1.24-1-2.51-.4-3.76-.17-.35.06-.63.44-.95.67.27.24.5.54.8.7.78.41,1.55.92,2.39,1.09,1.37.29,2.78.36,4.18.47.15.01.32-.32.49-.49-.16-.13-.31-.35-.49-.39-.91-.16-1.82-.28-3.03-.45Zm4.19-27.42c-.09.15-.19.3-.28.45.78.54,1.56,1.08,2.34,1.63-.01.11-.02.23-.04.34-2.07.1-4.14.2-6.21.3,0,.16-.01.32-.02.48.57.12,1.14.34,1.71.35,1.16,0,2.32-.07,3.47-.17,1.47-.12,2.64.44,3.63,1.45.3.3.51.68.84,1.11.16-.51.27-.85.38-1.2.39.25.52.57.64.89.08.21.16.42.24.63.11-.06.22-.13.33-.19.05-1.63-1.01-2.54-2.25-3.32-1-.64-2-1.29-3.03-1.89-.56-.33-1.17-.58-1.76-.86Zm2.94,27.01c1.81.39,3.76-.58,5.42.87,1.65,1.45,1.18,3.42,1.5,5.37,1.6-2.27.73-5.71-1.64-7.26-1.63-1.07-4.26-.6-5.28,1.03Zm11.92.02c.11.04.23.09.34.13.18-.32.4-.63.51-.97.13-.39.08-.85.23-1.23.79-1.99.27-3.89-.39-5.76-.26-.73-1.03-.95-1.48-.42-.62.72-.96,1.67-1.38,2.54-.05.1.13.31.2.47.75-.4,1.41-.76,2.08-1.12-.1.76-.59,1.29-.58,1.81.04,1.52.29,3.04.46,4.56Zm14.26-30.91c-.36.48-.65,1.25-1.12,1.4-1.23.39-1.13,1.16-.88,2.46,1.25-1.14,2.34-2.13,3.42-3.11.07.09.15.17.22.26-.59.82-1.19,1.65-1.78,2.47.11.1.23.2.34.3.54-1.15,2.16-.77,2.6-2.19.36-1.14,1.05-2.2.33-3.28-1.12.6-2.11,1.14-3.14,1.69Zm-50.47,28.57c-.08-.14-.15-.29-.23-.43-.89.3-1.8.57-2.67.92-.23.1-.51.46-.51.7.01,1.33.1,2.66.17,3.97,1.52.1,3.25-.73,3.63-1.8.16-.43-.09-1.01-.16-1.57-.86.58-1.51,1.01-2.15,1.44-.12-.13-.24-.27-.36-.4.76-.94,1.52-1.88,2.28-2.82Zm53.22,66.61c-1.11.99-2.19,1.96-3.33,2.98.85.92,1.7,2.03,3.1,1.78.54-.1,1.27-1.04,1.3-1.63.06-1.09.6-2.56-1.07-3.12Zm-2.24-81.22c-.98-2.04-1.9-3.95-2.86-5.96-.68.65-1.37,1.33-2.19,2.11,1.72.22,1.62.24,1.84,1.68.12.79.52,1.61,1.02,2.24,1.02,1.31,1.31,1.25,2.2-.07Zm-21.4-14.99c.1,1.56,1.23,2.09,2.71,2.14.28,0,.61-.06.82-.22.11-.08.1-.52-.02-.67-1.05-1.41-2.13-2.78-3.31-4.32-.41.47-.93.97-1.3,1.56-.21.33-.3.85-.2,1.23.04.16.7.16,1.31.28Zm-6.87,28.57c-.41-.19-.85-.29-1.15-.55-.38-.32-.94-.8-.9-1.16.19-2.06,1.54-3.59,2.75-5.12.35-.43,1.41-.29,2.15-.42.06-.01.1-.1.15-.15-.59-1.05-2.27-1.18-3.2-.18-.69.73-1.34,1.5-1.9,2.33-1.16,1.71-.96,4.2.33,5.42.7.66,1.25.6,1.77-.18Zm9.71,3.02c1.48-2.25.59-5.62-1.52-6.95-1.39-.88-3.54-.64-4.37.65.52.04.96.18,1.36.1,2.19-.48,3.1.37,3.88,2.63.23.68.2,1.45.31,2.17.06.37.18.73.34,1.39Zm25.22-25.41c0,.12-.01.23-.02.35-1.44.51-3.13-.11-4.6.79,1.98,1.59,3.79.97,5.57.05.47-.24.86-.64,1.44-1.09-1.14-.47-2.01-.87-2.91-1.17-.27-.09-.64.14-.97.19-.68.11-1.37.19-2.05.29-.47.07-.93.17-1.39.25.03.19.05.38.08.57,1.62-.08,3.24-.16,4.86-.24Zm-39.05,11.06c1.43.79,2.84,1.57,4.32,2.39.94.03,2.09.07,3.31.11,0-.2,0-.54.02-.87.07-.94-.19-1.28-1.29-1.29-1.67-.02-3.35-.36-5.01-.67-.62-.11-1.13-.29-1.36.33Zm58.04,80.77c-1.3,1.21-1.33,3.06.21,4.04.22.14.72.16.87.01.9-.9,1.74-1.86,2.62-2.83-1.37-.45-2.46-.82-3.7-1.23ZM58.71,49.86s.41-.24.42-.46c.08-1.37-.65-2.78.2-4.12-.69-.65-.33-1.29-.09-2.01.12-.35-.12-.83-.2-1.25-.43.18-.99.26-1.24.58-.24.3-.34.96-.17,1.27.57,1.03.31,1.87-.16,2.83-.23.48-.2,1.21,0,1.73.18.49.72.84,1.24,1.42Zm31.16,53.22c.35.55,1.02,1.22,2.12,1.04,1.18-.19,1.11-1.2,1.2-2.07.04-.34.21-.76.07-1.01-.29-.5-.74-.91-1.12-1.35-.3.3-.68.55-.9.9-.46.73-.84,1.51-1.37,2.48Zm-49.05-26.72c1.72-1.61,1.71-2.31-.01-3.34-1.21-.72-2.55-.85-3.91-.52-.72.18-1.42.45-2.13.69.01.16.03.33.04.49,2.21-.25,4.44-.55,6.4,1.1-.38.29-.69.52-1.04.78.22.27.41.5.64.8Zm21.7-28.63c.99,1.08,1.82.63,2.69.32.35-.12,1.01-.11,1.15.09.43.66.9.59,1.33.19.53-.49.95-1.08,1.38-1.66.02-.03-.34-.5-.5-.48-.81.08-1.62.2-2.41.39-.84.21-1.66.51-2.49.77-.39.12-.77.25-1.15.38Zm.2,101.89c0,.12.01.25.02.37,1.55.32,3.11.64,4.91,1.01-.03-.61-.02-1.32-.12-2.01-.03-.23-.35-.58-.56-.59-1.57-.11-3.03.21-4.25,1.23Zm-27.67-93.64c-.11.94-.26,1.73-.28,2.52,0,.37.23.74.36,1.11.34-.12.86-.15.98-.38.28-.56.38-1.21.56-1.88.43-.13.99-.3,1.6-.48-.93-1.33-1.56-1.47-3.22-.88Zm12.43,17.89c.17,1.3.75,2.06,1.97,1.97.96-.06,1.92-.26,2.85-.5.28-.07.47-.48.7-.74-.3-.15-.6-.39-.92-.43-1.25-.15-2.6.55-3.78-.46-.12-.1-.49.09-.83.15Zm16.66-11.42c.45-1.46,2.1-2.89,3.12-2.64,1,.24,1.94.7,2.93,1,.27.08.62-.08.94-.12-.16-.24-.26-.57-.48-.72-1.61-1.03-3.4-.89-5.15-.64-1.53.21-2.09,1.57-1.34,3.13Zm-6.87-6.67c1.69-1.57,1.39-3.71,2.43-5.26-2.5.98-3.01,2.1-2.43,5.26Zm38.56,66.77c2.51-.12,5.02-.24,7.52-.37-2.57-.95-5.08-.81-7.52.37Zm-35.66-48.42c.18.07.36.13.55.2.18-.4.62-.96.49-1.18-.23-.38-.79-.56-1.24-.78-.15-.08-.39-.06-.56-.01-.68.19-1.12.51-.63,1.31.34.56.54,1.21.95,1.71.41.5.99.86,1.5,1.28l.27-.3c-.44-.74-.88-1.48-1.32-2.22Zm-34.97-4.58c.15-.53.29-1.02.4-1.4-1.23.06-2.25.11-3.34.16-.54,1.44-.48,1.55,2.03,2.85-.18-.84-.31-1.41-.48-2.21.42.18.8.34,1.39.6Zm37.06,75.29c-.01,1.19.56,1.57,1.47,1.52.5-.03,1.04-.04,1.47-.25.33-.16.53-.62.78-.94-.3-.22-.6-.64-.9-.64-.91.01-1.82.19-2.82.31Zm-8.79-79.74c-1.1.07-2.31,1.26-2.29,2.18.02.79.59,1.06,1.38,1.18.3-1.13.59-2.2.91-3.36Zm14.33,87.64c1.11.09,1.59-.59,1.6-1.2.02-1.15-.24-2.31-.44-3.46,0-.06-.49-.03-1.1-.07,1.5,1.74.31,3.16-.06,4.74ZM27.34,63.33c1.09-.52,1.96-.9,2.77-1.37.17-.1.21-.82.12-.86-.42-.2-.96-.44-1.36-.33-.38.11-.69.6-.93.99-.23.37-.32.83-.6,1.57Zm69.5,45.76c.26-1.24.49-2.36.73-3.49-.15-.06-.3-.13-.45-.19-.34.57-.66,1.16-1.03,1.71-.87,1.28-.87,1.32.75,1.97Zm-45.68-47.63c.03.12.07.24.1.36.59.09,1.18.22,1.78.25.42.02,1.17-.04,1.2-.17.1-.48-.06-1.02-.1-1.38-1.15.37-2.07.66-2.98.95Zm20.97,53.36c.74-.23,1.62-.28,1.71-.57.26-.86-.33-1.5-1.14-2.13-.18.85-.32,1.53-.56,2.7Zm30.01,24.24c-.85-.03-1.55-.09-2.25-.06-.44.02-.88.18-1.32.27-.02.15-.05.29-.07.44.35.17.75.55,1.06.49.96-.18,1.97-.38,2.58-1.14Zm-61.99-48.06c.77-.34,1.45-.63,2.21-.96-.03-.25-.07-.57-.12-.89-2.51.44-2.76.68-2.09,1.85Zm17.98-24.64c.04-.14.08-.28.12-.42-.34-.16-.73-.52-1.01-.45-.92.24-1.41.9-1.5,2.01.89-.43,1.65-.79,2.4-1.15Zm26.52,18.48c-1.29.32-2.22.55-3.32.82.96.73,1.86.8,2.74.29.26-.15.34-.62.57-1.1Zm17.17,18.87c-.29,1.1-.58,2.19-.86,3.29,1.27-.77,1.62-2.19.86-3.29Zm-10.79,18.3c-.25-.78-.43-1.34-.68-2.13-.4.93-.74,1.73-1.09,2.53.1.06.2.12.31.17.52-.2,1.03-.41,1.46-.58Zm-62.21-32.97c-.84,1.58-.38,3.74.41,3.86-.12-1.17-.25-2.36-.41-3.86Zm-7.35-.69c-.75.46-1.65.67-1.74,1.91.92-.49,2.26-.24,1.74-1.91Zm-2.11-12.92c-1.03.18-1.1.88-1.15,1.55,0,.09.44.35.6.3.96-.31.6-1.05.55-1.85Zm78.25,33.2c.02,1.96-1.67,1.23-2.55,1.76.55.1,1.04.11,1.54.1,1.36-.04,1.51-.27,1.02-1.86Zm-49.53-32.02c-.04.22-.07.44-.11.66.83.1,1.65.2,2.48.3.03-.17.05-.35.08-.52-.82-.15-1.64-.3-2.45-.45Zm5.97-1.18c.22-.04.44-.09.66-.13-.11-.49-.21-.98-.35-1.46,0-.03-.46.04-.46.05.04.52.1,1.03.16,1.54Z"/>
    <path class="cls-1" d="m99.46,35.45c1.18.11,2.15.02,3,.3,4.19,1.44,8.52,2.63,12.49,4.56,6.2,3.02,11.15,7.57,15.04,13.41,3.35,5.03,6.11,10.29,8.17,15.93.5,1.36.62,2.86.95,4.28,1.23,5.35,1.22,10.82,1.35,16.26.05,2.13-.52,4.27-.84,6.41-.3,2.01-.63,4.02-.95,6.03-.07.42-.09.87-.26,1.24-1.88,3.97-2.42,8.44-4.71,12.25-.46.76-1.38,1.06-2.13.37-.57-.53-1.06-1.25-1.31-1.98-.84-2.4-1.44-4.89-2.33-7.28-1.75-4.7-3.68-9.34-5.44-14.04-1.85-4.95-3.5-9.98-5.41-14.91-2.6-6.68-5.37-13.31-8.1-19.94-2.36-5.75-4.76-11.48-7.17-17.22-.58-1.39-1.26-2.74-1.86-4.11-.18-.41-.27-.87-.48-1.58Z"/>
    <path class="cls-1" d="m64.66,129.35c-1.16-1.69.17-2.77,1.02-4.15-.63.13-1.04.22-1.46.31.08.08.17.16.25.24-.3.37-.59.74-.89,1.12-.26-.43-.52-.85-.91-1.49-.02,0-.34-.05-.98-.15.57-1.04,1.05-1.93,1.54-2.82-.08-.07-.15-.14-.23-.2-.42.39-.83.77-1.19,1.11-.63-.89-1.17-1.66-1.87-2.64.25-.38.67-1.02,1.1-1.66-.07-.06-.14-.12-.21-.18-.38.28-.75.55-1.13.83-.08-.04-.16-.09-.23-.13.15-.38.3-.76.49-1.23-.46-.54-.96-1.11-1.46-1.7-.83-.98-.8-1.14.3-1.84.12-.08.23-.18.09-.07-.53-.57-1.01-1.12-1.53-1.63-.32-.31-.7-.56-.72-.74.31-1.12.67-2.22.93-3.35.34-1.46.61-2.94.91-4.42.06-.3.15-.6.18-.91.12-1.35.38-2.54,2.39-2.11-.03-.1-.07-.21-.1-.31-.25-.25-.54-.47-.73-.76-.27-.39-.47-.84-.7-1.26.44-.23.86-.57,1.32-.66.61-.11,1.25-.02,1.92-.02-.06-.28-.05-.38-.09-.42-.62-.5-1.75-.97-1.76-1.48-.03-1.4.38-2.8.66-4.2.04-.2.24-.41.43-.53,1.39-.84,2.78-1.66,4.19-2.46.21-.12.64-.19.76-.07,1.09,1.13,2.18.29,3.17-.04,2-.68,3.37-2.25,4.8-3.72.93-.96,1.29-1.95.76-3.28-.24-.6-.1-1.35-.13-2.03.14-.07.28-.14.42-.21.73.89,1.46,1.78,2.22,2.7-.15.23-.32.51-.53.84.37.21.69.39,1.06.6-.41.39-.72.68-1.13,1.07,1.79.37,1.9.54,1.22,2-1.1,2.34-2.25,4.66-3.39,6.98-.15.3-.37.59-.62.82-.6.54-1.24,1.2-1.89-.26.19,2.68-1.99,2.32-3.4,2.92.02.1.05.2.07.31.79.06,1.59.11,2.48.18-.09.52-.15.92-.17,1.05-.92.12-1.69.34-2.45.3-.77-.04-1.52-.34-2.43-.57.16,1.2,1.43,1.06,2.05,1.95-1,.19-1.9.36-3.06.58.38.16.52.27.67.28,1.76.13,2.72.87,3.18,2.58.55,2.03.52,4.05-.21,6.03-1.71-.24-3.05,1.3-2.51,2.95.66-.14,1.33-.28,2.03-.42.37.61.27,1.01-.35,1.42-.69.46-1.29,1.06-1.89,1.64-.13.12-.06.45-.08.68.23-.03.59.02.68-.11.83-1.17,2.47-1.63,2.85-3.22.03-.14.52-.18.79-.27.11,1.01.53,2.12.22,2.98-.26.73-1.34,1.18-2.09,1.72-.43.31-.92.55-1.33.79.36.5.7.96,1.15,1.58.26-.33.58-.77.95-1.16.38-.41.84-.73,1.19-1.16.24-.3.38-.71.49-1.09.34-1.2,1.19-1.46,2.15-.66.23.19.56.28.84.42.09-.39.3-.8.23-1.16-.17-.88-.46-1.74-.71-2.61.11-.09.21-.18.32-.27.37.18.89.26,1.08.55.67,1.01,1.49,1.73,2.69,2.03.2.05.36.28.55.42,1.08-1.1,2.01-.74,2.53,1.05.14-.3.26-.55.38-.8.97.52.63,1.03.11,1.56-.43.44-.84.89-1.26,1.34.09.09.18.17.26.26.7-.6,1.4-1.2,2.26-1.93.04.85.07,1.48.12,2.4.71-.75,1.2-1.27,1.69-1.79.09.05.17.11.26.16-.07.27-.14.53-.32,1.18.74-.5,1.26-.83,1.76-1.19.62-.44.99-.34,1.09.29-.75.54-1.44,1.03-2.13,1.53.04.08.09.16.13.24.38-.02.77-.04,1.27-.06-.23.46-.41.84-.6,1.21.05.05.09.09.14.14.26-.17.52-.33.67-.43.41.21.78.39,1.3.66-.01.08,0,.39-.1.66-.4,1.11.21,1.92,1.4,1.83.14-.01.28.06.43.08.85.15,1.71.31,2.75.5-.29.24-.66.56-1.15.97.17.13.48.55.7.51,1.06-.21,1.28.57,1.3,1.22.05,1.33,1.03,2.66.09,4.02-.03.04.44.61.62.58.39-.07.74-.36.85-.42-.2-1.25-.26-2.35-.55-3.39-.47-1.64,1.39-1.42,1.91-2.4-.53-.07-.91-.13-1.29-.18-.01-.07-.02-.14-.04-.21.83-.29,1.67-.57,2.5-.86-.03-.09-.06-.19-.08-.28-.83.12-1.65.24-2.48.36-.05-.14-.1-.27-.15-.41.51-.22,1.01-.6,1.52-.63,2.32-.12,4.64-.18,6.95-.18.54,0,1.12.28,1.62.53,1.19.61,2.26,1.39,3.74.52.34-.2,1.25.49,1.84.86.56.35,1.03.83,1.66,1.35-.65,1.25-1.91,2.06-3.31,2.65.49,1.47.38,1.62-1.05,1.75-.27.03-.66.16-.76.36-.64,1.25-.62,1.27-1.32,1.98-.19.46-.26,1.08-.6,1.36-.78.66-1.71,1.14-2.54,1.74-.57.42-1.09.92-1.62,1.39.07.11.13.21.2.32-.71.03-1.42.07-2.34.11.2-.4.39-.79.5-1.01-.21-.42-.4-.8-.66-1.31.67-.1,1.11-.16,1.76-.25-.92-.66-1.65-1.19-2.39-1.72-.07.06-.15.13-.22.19.11.33.23.66.35,1.02-.71.3-1.43.6-2.34.99,1.15.8,1.96,1.64,1.19,2.87-.35.55-.94,1.07-1.54,1.3-.57.22-1.29.04-2.03.04.41.95,1.27,1.09,2.11,1.33.38.11.95.38,1.01.66.22,1.08.81,1.4,1.82,1.19.17-.04.36,0,.82.02-.82.51-1.41.87-2.01,1.24.03.1.07.2.1.29.76-.21,1.52-.41,2.52-.69-.91.95-1.62,1.68-2.47,2.57-.04-.09-.18-.38-.4-.81-1.32.52-2.9,1.29-3.99-.88-.06.64-.12,1.27-.18,1.96-1.92.82-1.49-1.16-2.24-1.95-.16.31-.44.6-.39.8.24.91-.42,1.29-1,1.39-.49.08-1.15-.19-1.57-.52-.77-.6-1.5-.9-2.42-.41-.32.17-.64.35-1.13.33.46-.47.91-.94,1.37-1.41-.05-.08-.1-.17-.15-.25-.71.31-1.42.61-2.25.97.07-.33.13-.59.19-.91-.77,0-1.49,1.4-2.29.02.22-.22.45-.46.77-.8-.33-.08-.62-.16-.91-.23-.04-.1-.07-.19-.11-.29.86-.47,1.72-.93,2.57-1.4-.01-.1-.02-.2-.04-.29-.5.05-1,.1-1.51.15q-.25-.63,1.04-.86c-.54-.46-.52-.85.43-1.07-.1-.09-.21-.17-.31-.26-.36,0-.72-.02-1.03-.03-.66-.43-1.35-.89-2.05-1.35-.03-.1-.06-.2-.09-.3,2.12.37,3.93-.2,5.65-1.31,4.32-2.8,4.34-2.77,4.18-3.63-1.73,1.06-3.46,2.17-5.24,3.2-.34.19-.91.15-1.31.02-.61-.21-1.3-.47-1.71-.92-.65-.73-1.1-1.64-1.67-2.54-.38.25-1,.63-1.58,1.06-.12.09-.17.43-.1.59.07.16.36.34.51.31.37-.06.72-.25,1.24-.44.02.54.4.99-.51,1.23-.47.12-.84.62-1.41,1.06-.18-.46-.4-.97-.58-1.48-.28-.81-.62-1.01-1.53-.64-.79.32-1.78.15-2.72.19-.17-.38-.33-.72-.53-1.17-.19.32-.33.56-.47.81-1.73-.04-2.33-.32-2.92-1.35.38-.26.77-.52,1.33-.9-.95-.53-1.66-.94-2.23-1.26-.27.61-.5,1.13-.73,1.66-.13,0-.26-.01-.39-.02-.25-.73-.5-1.46-.77-2.26-.31.13-.64.26-1.12.45.28-1.94,1.39-3.25,2.64-4.71-2.06.24-2.06,2.39-3.4,3.05Zm26.76,13.95c.61-.96,1.66-1.66,1.24-3.06-.13-.43.09-.97.15-1.46.12,0,.23,0,.35,0-.22-.25-.43-.49-.7-.79,1.68-1.2-.31-2.23-.09-3.42.98,0,2.23.78,2.63-.93-.72-.51-1.44-1.02-2.4-1.7-.67.78-1.3,1.53-2,2.35.31.2.45.27.55.36.1.09.16.22.39.57-2.71-.05-4.07,1.5-5.12,3.81.66.02,1.15.03,1.81.05.4.34.37,1.62,1.56,1.14.54,1.04,1.05,2.02,1.62,3.11Zm-25.61-31.35c-.82.47-1.45.79-2.03,1.2-.24.17-.35.51-.52.78.21.11.42.3.62.3.78,0,1.57-.06,2.67-.11-.27-.78-.51-1.48-.74-2.17Zm6.14,15.98c-.09-.09-.19-.19-.28-.28-1.22.65-2.08,1.61-2.47,3.1.38.11.69.19.79.22.24-.63.35-1.21.65-1.65.35-.52.87-.93,1.32-1.39Zm8.98,6.48c1.84-.47,2.39-1.11,1.88-1.84-.56.26-1.11.51-1.78.83-.02.17-.05.53-.09,1.01Zm-5.13-20.37c-.17.04-.34.08-.51.13.37,1.03.75,2.06,1.12,3.08.12-.04.24-.08.36-.12-.32-1.03-.65-2.06-.97-3.09Zm27.41,9.51c-.84.22-1.47.39-2.11.56,0,.11-.01.22-.02.32.62.14,1.24.28,1.95.44.06-.47.11-.79.18-1.31Zm.64,11.36c.12-.03.23-.05.35-.08.34-.92-.04-1.61-.74-2.19-.11.03-.22.07-.33.1.24.72.48,1.44.72,2.17Zm-42-12.72c.08-1.72-.23-2.17-1.2-1.91.42.67.81,1.29,1.2,1.91Zm42.2,9.59c.46-.38.73-.7,1.07-.85.38-.16.83-.17,1.47-.28-1.18-.71-1.8.02-2.47.44-.12.07-.05.44-.07.68Zm7.04-5.6c-.48-.21-.83-.36-1.38-.6.17.77.28,1.29.46,2.1.4-.65.61-1,.92-1.51Z"/>
    <path class="cls-1" d="m40.19,97.87c1.54-.46,1.86.25,2.3,1.15.31.64,1.08,1.19,1.77,1.46.35.14,1.28-.34,1.42-.73.28-.78.1-1.71.29-2.54.39-1.75,0-3.45-.33-5.11-.17-.84-.88-1.79-1.62-2.22-.92-.54-1.43-.91-.69-1.89-.29-.24-.52-.42-.88-.71.38-.17.63-.37.9-.39.94-.08,1.9-.03,2.83-.16,2.93-.4,4.42.89,4.42,3.8,0,1.06-.4,2.27.68,3.11-.09,2.6,1.88,1.62,3.16,1.81.33.05.69-.02,1.13-.04.03,1.44.82,2.19,2.12,2.52.8.2.84.75.62,1.45-1.43,4.44-2.84,8.89-4.26,13.34-1.2,3.75-2.39,7.5-3.61,11.24-.17.53-.43,1.02-.74,1.75-.64-.76-1.1-1.31-1.55-1.87-4.41-5.36-7.8-11.29-9.72-18-.59-2.06-1.03-4.17-1.43-6.28-.08-.42.32-.95.52-1.41.24-.54.51-1.07.74-1.61.1-.23.12-.67.25-.69,1.25-.25,1.13-1.3,1.24-2.21.13-.03.26-.05.39-.08.11.34.31.68.3,1.02-.03,1.02-.15,2.03-.25,3.31Z"/>
    <path class="cls-1" d="m102.46,81.61c-.75.2-1.3.34-2.05.54-.41-3.8-3.05-5.39-6.27-5.79-3.54-.44-5.54,1.9-6.72,5.07-.13-.06-.27-.12-.4-.18.1-.5.15-1.01.31-1.49.84-2.57,1.22-5.18.59-7.85-.43-1.82-1.23-3.39-3.21-4-.63-.2-.94-.64-.75-1.34,1.22-4.5,2.41-9.01,3.67-13.51.33-1.19,2.13-1.87,3.18-1.27.23.13.36.48.46.76,3.3,8.64,6.59,17.29,9.9,25.93.39,1.03.84,2.03,1.3,3.13Z"/>
    <path class="cls-1" d="m103.25,147.15c.31.36.7.93.38,1.82-.29.77-.88.72-1.5.78-.3.03-.81.23-.81.37-.01.37.19.75.35,1.22-.55.87-1.35.76-2.27.25-.64-.35-1.34-.6-2.01-.9-.9-.4-1.65-.25-2.01.6-.05.66-.04,1.33-.17,1.98-.14.74.55,3.25,1.14,3.64.73.49,1.55.62,2.24-.03.61-.58,1.08-1.3,1.65-1.93.31-.34.68-.63,1.18-1.09.24,1.23.36,2.15,1.63,2.35.61.09.48,1.33-.24,1.67-.65.31-1.39.42-2.1.6-3.33.83-6.64,1.71-9.99,2.43-.97.21-2.14.16-3.06-.18-2.35-.85-4.7-1.04-7.17-.94-1.16.04-2.55-.26-3.47-.91-1.87-1.32-3.96-1.64-6.06-2.1-.44-.1-.88-.27-1.25-.52-1-.65-1.98-1.32-2.93-2.05-.38-.29-.65-.73-.97-1.1.05-.12.11-.24.16-.36.31.09.64.15.94.27.38.15.8.57,1.11.49,1.12-.27,1.7.28,2.42,1.03,1.07,1.11,2.31,2.02,4.11,1.33,1.61-.62,1.85-2.09,2.05-3.37.12-.77-.55-1.77-1.08-2.51-.47-.64-2.86-.44-3.58.15-.42.34-.81.71-1.46,1.28-.12-.69-.17-1.22-.32-1.72-.23-.79-.42-1.62-.84-2.31-.31-.51-.87-.76-1.57-.23-.72.55-1.28.23-1.26-.69.03-1.37.07-2.76.31-4.1.19-1.07,1.22-1.23,2.29-1.21-.21.19-.4.44-.64.55-.91.4-.75.73-.17,1.43,1.41,1.68,3.25,2.29,5.28,2.8,1.62.41,3.22,1.12,4.67,1.96,2.85,1.65,5.84,1.19,8.9,1.1,4.66-.14,9.21-1.6,13.93-.98.64.08,1.37-.51,2.22-.87Zm-13.55,11.26c1.94-.08,3.3-1.67,3.24-3.78-.06-2-1.35-3.47-2.98-3.4-1.76.08-3.48,2.11-3.43,4.04.05,1.8,1.46,3.21,3.17,3.14Zm-7.32-7.41c-3.02.08-4.54,1.96-3.99,4.45.31,1.39,1.28,2.43,2.6,2.67.8.14,1.86-.3,2.59-.8,1.08-.73,1.4-3.67.59-4.69-.57-.71-1.36-1.25-1.79-1.63Z"/>
    <path class="cls-1" d="m91.05,105.03c2.04-.18,2.95-1.06,3.35-3.21.13-.7.36-1.38.49-1.84-.73-.42-1.23-.8-1.8-1-.43-.15-1.09-.27-1.41-.06-.97.65-1.85,1.44-2.71,2.24-.33.3-.51.75-.84,1.25-.46-1.09-.05-1.97.54-2.53,1.4-1.34,1.64-3,1.54-4.73-.06-1.04.36-1.67,1.06-2.29,1.15-1.02,1.1-1.22-.36-1.8-.14-.06-.28-.13-.25-.12-.35-1.58-.68-3.04-1.06-4.75.4.06.87.14,1.35.21,0-.06,0-.13,0-.19-.47-.28-.95-.56-1.59-.93.47-.25.76-.41,1.05-.56-1.74.01-.9-1.57-1.46-2.3-.98.72-.66,2.42-2.43,2.73,1.25-2.58,1.78-5.33,4.1-7,1.86-1.34,3.43-1.02,5.15.78,2.13-.6,3.01-.12,3.33,1.86.05.32.02.71-.12.99-.53,1.06-.55,1.05.23,1.32.14,1.1.33,2.07.37,3.04.05,1.08.07,2.18-.1,3.24-.34,2.17-.76,4.32-1.26,6.46-.16.7-.72,1.3-1.05,1.97-1.11,2.28-2.13,4.6-3.33,6.83-.72,1.34-1.75,1.41-2.8.43Zm1.95-11.57c1.65-.69,2.37,1.41,4.01.97-1.22-1.78-2.91-2.26-4.01-.97Z"/>
    <path class="cls-1" d="m70.62,53.44c-.34.89-.65,1.69-.91,2.38-.54-.14-1.27-.43-1.33-.32-.26.43-.31.98-.54,1.87-.44-.79-.75-1.32-1.12-1.99-.41-.06-1.01-.14-1.59-.22-.35-1.89-.32-2.14,1.46-2.16,2.2-.02,2.08-1.74,2.72-2.99-.39-.32-.72-.6-.85-.7.77-1.21,1.45-2.29,2.33-3.68-1.78-.04-3.34-.62-4.83.32-.72.45-1.35.83-2.25.47-.25-.1-.74.12-1,.34-.59.5-1.09,1.1-1.65,1.63-.29.27-.64.48-1.04.77-.63-1.5-.4-2.78.3-4.04-.22-.31-.45-.62-.78-1.08,1.97-1.26,3.79-2.8,5.89-3.68,3.4-1.43,6.97-2.47,10.49-3.6,1.27-.41,1.51-.15,1.15,1.13-1.34,4.87-2.7,9.74-4.11,14.59-.45,1.55-.9,1.72-2.35.98Z"/>
    <path class="cls-1" d="m94.25,105.56c.36-.51.69-1.03,1.08-1.52.52-.64,1.29-1.16,1.58-1.89,1.14-2.89,2.33-5.79,3.11-8.79.52-2.02.47-4.21.52-6.32.03-1.57.31-2.98,1.42-4.13.2-.21.48-.42.75-.48,1.07-.21,4.06,1.59,4.42,2.62.92,2.66.95,3.11.15,5.26-.26-.72-.44-1.16-.58-1.61-.11-.38-.18-.78-.3-1.35-.58,2.25-.78,4.34-1.68,6.07-.58,1.12-.54,2.4-1.31,3.39-.14.17-.25.43-.23.64.16,1.65-.91,2.79-1.62,4.1-1.01,1.88-1.88,3.84-2.82,5.76-.15.3-.32.6-.48.9-.14-.09-.28-.18-.41-.27.14-.65.38-1.3.37-1.95,0-.61-.08-1.5-.47-1.76-.36-.24-1.22.08-1.76.35-.53.26-.93.78-1.38,1.19-.12-.07-.25-.14-.37-.2Zm5.84-8.56c-.05.18-.1.35-.15.53.65.2,1.3.4,1.95.6.05-.18.11-.36.16-.54-.65-.19-1.3-.39-1.95-.58Z"/>
    <path class="cls-1" d="m120.37,133.84c-2.47.03-3.83,2.21-5.91,3.06-3.52,1.44-7.02,2.96-10.53,4.41-.25.1-.75.04-.9-.14-.15-.18-.1-.69.06-.9,1.26-1.69,2.5-3.41,3.87-5.01,1.25-1.46,2.61-2.82,4.02-4.13.91-.85,1.59-1.73,1.8-2.99.09-.58.38-1.18.73-1.67.51-.73,1.2-.53,1.82-.09,1.13.81,2.35,1.53,3.33,2.49.94.92,1.65,2.07,1.36,3.57-.07.38.2.83.36,1.41Z"/>
    <path class="cls-1" d="m115.8,102.9c-1.02-1.42-2.61-2.61-1.7-4.81-.25-.06-.46-.11-.42-.1-.7.98-1.25,1.91-1.95,2.71-.8.9-1.62.67-2.03-.46-.32-.89-.93-1.14-1.46-.52-.6.69-1.09,1.48-1.56,2.27-1.18,1.96-2.29,3.95-3.51,5.89-.24.39-.82.56-1.36.9.49-1.68.93-3.05,1.27-4.44.09-.36-.18-.79-.23-1.19-.06-.52-.24-1.12-.06-1.56.43-1.07,1.06-2.07,1.58-3.11.3-.61.55-1.25.85-1.94-.14-.1-.48-.35-1.11-.8,2.47-.31,3.42-2.2,4.89-3.38,1.61-1.28,1.96-1.46,3.78-.58.44.21.95.28,1.44.4.93.23,1.56.77,1.51,1.77-.12,2.33-.22,4.64.42,6.93.18.62.09,1.32.12,1.99-.16.02-.31.03-.47.05Zm-4.93-7.43c-2.26-1.72-3.81-1.57-4.47.7.95-.57,1.69-1.01,2.43-1.45.12.14.25.29.37.43-.44.2-.88.4-1.45.67.94.21,1.41.44,1.83.36.45-.09.85-.46,1.3-.72Z"/>
    <path class="cls-1" d="m83.56,76.37c-.79.75-1.61,1.51-2.47,2.32-.14-.11-.41-.31-.79-.59-.59.81-1.15,1.56-1.87,2.54-.24-.61-.48-.99-.55-1.39-.41-2.46-.43-4.92.13-7.37.09-.4.03-.83.04-1.34-1.71.58-1.27,1.95-1.52,3-.77-.15-1.51-.29-2.25-.43-.04.1-.07.2-.11.31-.14-.34-.29-.68-.44-1.03-.47.93-.92,1.81-1.36,2.68-.1,0-.2,0-.3,0-.09-.31-.29-.63-.27-.94.06-1.05.5-1.93,1.4-2.54,1.56-1.07,3.1-2.18,4.67-3.23,1.33-.89,3.23-.66,4.53.57-.44.4-.87.79-1.41,1.28.69.36,1.01.6,1.74.02.45-.36,1.63.03,2.4.29.65.22,1.19.75,1.77,1.15-.33.49-.66.98-1.02,1.51-.45-.32-.75-.53-1.06-.74-.26.85.19,1.23,1.12,1,.33-.08.66-.18,1-.28q.1.74-1.05,1.28c.53.02,1.05.04,1.83.07-.41.32-.65.51-.84.65.21,3.08-.85,5.81-1.81,8.58-.13-.02-.26-.04-.39-.06.08-1.07.16-2.14.24-3.31.25-.11.54-.25,1.06-.49-.84-1.22-1.62-2.35-2.44-3.54Z"/>
    <path class="cls-1" d="m34.67,55c-.84-1.22-1.8-2.6-2.76-4,.65-.79,1.42-.87,2.18-.11.62.62,1.24.98,2.16.71.27-.08.79.14.95.38.52.78.92,1.63,1.56,2.5-.07-.59-.06-1.21-.23-1.77-.31-1-.22-1.79.75-2.4.73-.46.8-1.19.81-2.03.01-1.06.29-2.12.5-3.51,1.81,1.28,3.85,1.54,4.31,3.73.06.27.32.53.56.72.45.35.72.68.3,1.24-.39.52-.74,1.03-1.5.57-.58-.35-1.04-.27-1.51.29-.18.22-.67.25-1.02.27-.5.03-1.08-.21-1.47-.01-.46.23-1.11.88-1.04,1.22.29,1.58,1.04,3.03,2.35,4.01.39.29,1.1.14,1.87.21-.14.55-.13,1.33-.4,1.43-.4.16-1.12,0-1.46-.31-.83-.73-1.51-1.62-2.26-2.43-.19-.21-.4-.46-.65-.54-.48-.16-1-.27-1.5-.29-.73-.02-1.47.06-2.5.11Z"/>
    <path class="cls-1" d="m68.81,61.12c-.69.83-1.31,1.73-2.07,2.49-.99.99-1.17,1.57-.61,3.04.38-.07.78-.14,1.16-.2.08.08.18.16.17.19-.76,1.86.33,4.11-1.29,5.85-1.24-1.04-2.59-1.11-4.18-.58-.61.2-1.5-.45-2.61-.83,2.25-1.81,3.51-3.65,2.01-6.26.73-.36,1.33-.7,1.95-.96,1.04-.43,1.88-.92,2.11-2.21.07-.38.88-.74,1.42-.89.52-.14,1.12,0,1.69.03.08.11.17.22.25.33Z"/>
    <path class="cls-1" d="m21.84,31.87c1.27.86,2.56,1.74,3.85,2.62.07-.06.14-.13.22-.19.1.52.23,1.04.28,1.57.1.85.39,1.41,1.35,1.61.31.06.63.77.68,1.22.05.39-.21.85-.44,1.22-.12.19-.47.22-.73.33-1.14-1.78-2.28-3.56-3.42-5.33-.14.08-.29.16-.43.25,1.08,1.98,2.15,3.96,3.24,5.95-2.34,1.01-3.47.35-3.81-1.98-.03-.24-.23-.46-.38-.67-.11-.15-.39-.26-.4-.4-.13-1.99-1.81-3.91-.02-6.2Z"/>
    <path class="cls-1" d="m13.35,73.27c-.68.37-1.3.75-1.95,1.07-.68.33-1.24.51-1.58-.56-.11-.36-1.07-.66-1.63-.64-1.36.07-2.38-.49-3.48-1.42,1.13-.31.85-.85.39-1.5-.61-.84-1.13-1.74-1.78-2.74,1,.07,1.83.13,2.66.19.68.42,1.36.76,2.38.32.31-.14.87.31,1.32.47.48.17,1.09.56,1.45.4.99-.43,1.84.01,2.26.61.33.46,0,1.4-.06,2.35-1.48-.61-2.63-1.12-3.8-1.57-1.12-.43-2.26-.79-3.46-.97.84,1.36,2.4,1.16,3.55,1.8,1.21.67,2.39,1.4,3.73,2.19Z"/>
    <path class="cls-1" d="m73.83,140.71c-.85.22-1.68.44-2.52.66.05-1.57.1-1.61,1.54-1.47.44.04.89-.03,1.39-.26-.17-.09-.33-.19-.5-.28-.2-.11-.4-.21-.59-.31.61-1.4.65-2.17-1.13-2.16.29-.4.59-.79.94-1.27.82.21,1.38.55,1.57,1.82.13.9.09,1.81.29,2.68.06.26.89.65,1.01.55.92-.75,1.79-1.28,2.92-.36.15.12.51,0,1.04-.03-.35.7-.62,1.25-.91,1.83.4.26.82.53,1.41.92-.56.22-.95.37-1.69.66.69.3,1.12.49,1.61.7-.2.19-.43.41-.69.66.31.14.58.26,1.02.47-.56.23-.96.53-1.37.53-1.01,0-1.91-.32-2.19-1.51-.41.13-.77.24-1.14.37-.18-.44-.34-.83-.54-1.3-.53.78-1.35.98-1.79.3-.34-.52-.11-1.42-.08-2.14,0-.04.48-.12.71-.07.35.06.68.22,1.02.34.06-.13.12-.27.18-.4-.52-.31-1.03-.62-1.51-.91Z"/>
    <path class="cls-1" d="m54.59,65.93c.08.23.27.47.24.68-.21,1.33.41,2.33,1.05,3.43,1.35,2.33,2.52,4.76,3.77,7.14.11.21.3.42.51.52.3.15.64.2.97.29-.14.18-.28.36-.42.54-.29,0-.57,0-.86,0-.04.07-.1.13-.1.19.05.83.1,1.66.16,2.49.01.19,0,.4.08.56,1.09,2.06.51,3.23-1.95,3.71,1.46-2,.75-4.03.34-6.12-.55-2.85-2.52-4.9-3.81-7.33-.8-1.51-1.1-3.04-.92-4.68.05-.49.36-.96.56-1.43.13,0,.26.02.38.03Z"/>
    <path class="cls-1" d="m39.24,83.22c-.52,1.29-.87,1.29-1.79.53-1.3-1.07-1.57-2.1-1.01-3.61.4-1.08.59-2.23.83-3.36.26-1.17,1.17-.87,1.85-.74.74.14,1.37.57,1.06,1.56-.19.59-.29,1.2-.44,1.8-.47,1.89.25,3.72,1.95,4.58.4.2,1.25.18,1.51-.1.88-.92,1.67-.73,2.74-.01-1.01.78-1.95,1.54-2.93,2.23-.16.11-.6,0-.79-.15-.97-.83-1.89-1.71-2.99-2.72Z"/>
    <path class="cls-1" d="m32.31,44.09c-.45.59-.21.83.42,1.04,1.14.38,1.5,1.53.83,2.82-1.44-1.49-2.85-2.94-4.25-4.4-.1.05-.2.09-.3.14.13.31.19.68.39.92.94,1.13,1.92,2.22,2.88,3.33.24.28.45.59.86,1.11-1.69.01-3.06,0-4.26-1.12.26-.43.53-.88.94-1.55-.8-.29-1.54-.55-2.26-.83-.56-.21-1.5-.16-.61-1.23.29-.35,0-1.17.04-1.77.14-1.69.47-1.87,2.04-1.29.93.35,1.88.65,2.56.89.28.75.5,1.35.72,1.95,0,0,0-.01,0-.01Z"/>
    <path class="cls-1" d="m25.13,101.62c.31.14.61.3.94.42.74.27,1.01.67.97,1.55-.04.8.42,1.63.7,2.59-.97.71-.4,2.03-.67,3.15-.12.51-.44.97-.67,1.45-.42-.39-.99-.7-1.24-1.18-.47-.9-1-1.66-2.04-1.88-.86-.18-.51-.77-.5-1.28.03-.94.04-1.89.06-2.83-.12-.03-.24-.07-.35-.1.39-.27.78-.53,1.22-.83.22.82.4,1.5.58,2.17.13-.01.26-.03.38-.04.31-1.04-.86-2.42.61-3.19Z"/>
    <path class="cls-1" d="m19.26,108.71c.69-1.24,1.2-2.23,1.79-3.17.21-.33.62-.54.94-.81.03.4.12.8.08,1.2-.04.46-.28.91-.27,1.35.04,2.06-1.33,2.98-2.92,3.75-.68.33-1.02.09-1.16-.59-.25-1.27-.55-2.53-.73-3.81-.04-.27.32-.65.58-.89.9-.86,1.91-1.62,1.75-3.09-.02-.18.23-.48.42-.58,1.28-.7,2.59-1.36,3.88-2.03.1.07.2.14.3.22-.29.45-.48,1-.87,1.34-1.36,1.18-2.51,2.45-3.22,4.18-.36.86-1,1.56-.57,2.93Z"/>
    <path class="cls-1" d="m23.55,89.27c-.55-.56-1.07-1.03-1.5-1.56-.71-.87-.52-2.21.42-2.9.66-.49,1.05-1.01.6-1.85-.08-.16-.18-.43-.1-.54.72-1,1.48-1.97,2.22-2.95.13.07.27.15.4.22-.03.27-.02.56-.11.8-.61,1.54-1.26,3.06-1.85,4.6-.13.33-.05.75-.07,1.12.13.01.26.03.4.04.86-2.12,1.73-4.24,2.59-6.36.84.4,1.18,1.92.51,2.57-.84.81-.79,1.57-.24,2.48.39.64.66,1.21-.46,1.54-.46.14-.74.84-1.14,1.24-.51.51-1.06.98-1.66,1.53Z"/>
    <path class="cls-1" d="m17.74,78c.54-.03.95-.1,1.35-.06,2.13.26,2.13.27,2.65-1.95,1.1.43,2.18.86,3.26,1.28.03.11.05.23.08.34-1.85.99-3.69,1.99-5.55,2.99,1.04.65,1.81-.13,2.64-.61.81-.47,1.62-.94,2.42-1.42.08.1.15.21.23.31-.31.29-.66.55-.94.87-.52.6-1,1.23-1.5,1.85-.51.63-.99,1.22-2,.9-.45-.14-1.03.1-1.55.16-.41.05-.85.2-1.22.09-.45-.14-.83-.49-1.23-.76.27-.39.47-.87.82-1.16.9-.75,1.03-1.65.54-2.85Z"/>
    <path class="cls-1" d="m14.6,94.13c.94-.73,1.86-1.5,2.84-2.18.26-.18.68-.15,1.02-.21-.02.39.1.89-.09,1.14-.72.92-1.52,1.79-2.35,2.62-1.01,1.02-2.24,1.47-3.8,1.09.15-1.2.3-2.45.49-3.96,1.48-.36,1.85-1.65,1.37-3.3.77-.14,1.37-.25,2.03-.37.1.36.2.68.31,1.05.72-.2,1.4-.38,2.07-.56.07.1.14.2.21.3-1.03,1.76-3.54,2.15-4.35,4.11.08.09.17.18.25.27Z"/>
    <path class="cls-1" d="m16.04,74.88c-1.49,1.13-2.83,2.15-4.17,3.17.09.14.18.27.27.41,1.74-.85,3.15-2.47,5.61-2.4-.32.64-.52,1.58-.86,1.63-1.62.24-1.92,1.47-2.29,2.82-1.04-.93-1.9-.59-2.74.14-.29.25-.63.48-.99.59-.29.09-.69.07-.95-.06-.11-.06-.02-.54,0-.83.09-1.18.2-2.35.29-3.54.64-.26,1.32-.52,1.97-.82.2-.09.37-.29.49-.48,1.03-1.62,1.28-1.69,3.37-.62Z"/>
    <path class="cls-1" d="m34.96,69.55c1.34-.72,2.77-.32,4.06-.02,2.96.69,5.9.53,8.86.22,1.01-.1,1.9,0,2.57.92.18.26.7.28,1.06.41-.12-.38-.14-.85-.38-1.12-.92-1.06-2.13-1.29-3.48-1.09-1.45.21-2.91.41-4.37.55-1.1.1-2.14-.09-2.9-1.13.17-.09.28-.19.35-.17,2.22.77,4.44.16,6.64-.06,1.86-.19,3.54-.02,4.84,1.53.48.57.65,1.09.19,1.76-.45.66-.84,1.37-1.37,2.25-.32-.62-.62-1.09-.81-1.6-.37-.99-1.11-1.42-2.08-1.28-3.03.44-5.99.23-8.93-.66-.84-.25-1.84.04-2.76.03-.5,0-1.01-.13-1.51-.19,0-.11.02-.23.02-.34Z"/>
    <path class="cls-1" d="m46.71,52.48c1.25.77,1.48,1.93,1.54,3.25-1.1-.35-2.11-.67-3.13-.99-.05.12-.09.24-.14.36.8.41,1.61.82,2.64,1.35-.74.41-1.3.81-1.92,1.02-.34.11-1.1-.01-1.14-.17-.41-1.57-1.97-1.23-2.95-1.77-1.3-.71-1.92-1.8-1.42-3.01,1.35-.17,2.57-.32,3.85-.48.98,1.62,1.31,1.71,2.66.45Z"/>
    <path class="cls-1" d="m27.14,51.21c-1.7.87-2.76.31-3.05-1.35-.06-.33-.46-.68-.79-.85-.46-.24-1-.33-1.79-.56.53-.44.87-.72,1.26-1.04-.94-.64-1.71-1.38-1.73-2.66,0-.66.23-.94.83-.97.38-.02.94-.12,1.11.08,1.1,1.26,2.99,1.61,3.69,3.3.08.2.23.48.41.53,1.38.4,1.13,1.53,1.3,2.82-.53-.28-.93-.38-1.17-.63-.86-.93-1.66-1.93-2.49-2.89-.28-.32-.59-.62-.89-.93-.12.1-.24.21-.37.31,1.22,1.61,2.44,3.22,3.68,4.85Z"/>
    <path class="cls-1" d="m14.66,83.72c-2.22.94-2.22,3.2-3.08,4.94,1.08-1.19,2.16-2.37,3.35-3.68.43.46.74.78,1.04,1.1-.14-.02-.27-.03-.41-.05-.47.7-.92,1.41-1.42,2.09-.28.37-.62.71-.97,1.01-.35.29-.74.56-1.15.76-.95.45-1.92.87-2.91,1.24-.07.02-.48-.48-.47-.73.05-.94.18-1.89.34-2.82.04-.25.28-.46.43-.69.49-.74,1.11-1.43,1.44-2.24.22-.54.39-.83.99-.89.91-.08,1.81-.24,2.72-.37.03.11.06.21.09.32Z"/>
    <path class="cls-1" d="m29.41,93.47c.27.3.54.6.81.89-.83-1.99.3-3.78.49-5.64.13-1.31.5-1.46,1.75-1.01.88.31,1.33,1.03,1.27,1.87-.03.41-.57.87-.99,1.13-.95.59-.97.86-.22,1.78.23.29.26.84.21,1.24-.09.68-.31,1.35-.47,2.02-.03.11.02.23,0,.35-.09.69.21,1.75-.75,1.78-.56.02-1.38-.69-1.66-1.27-.45-.93-.54-2.03-.78-3.06.11-.03.23-.07.34-.1Z"/>
    <path class="cls-1" d="m26.93,83.58c.65-.07,1.06-.12,1.53-.18-.18-1.14-.35-2.23-.52-3.35.39-.04.5-.08.61-.06,2.59.48,2.55.5,1.52,3-.36.88-.31,1.92-.45,2.89-.05.33-.04.73-.22.96-1.17,1.49-2.37,2.95-4.19,3.73-.41.18-.76.51-1.17.71-.41.2-.99.58-1.26.43-.34-.18-.5-.8-.61-1.25-.07-.3.09-.66.17-1.14.34.35.58.58.84.84.09-.02.22-.01.3-.07.76-.58,1.51-1.17,2.27-1.77.33-.26.61-.62.97-.79,1.18-.56,1.48-1.39.86-2.57-.21-.4-.38-.82-.63-1.39Z"/>
    <path class="cls-1" d="m44.21,99.95c-.44-.56-1.1-1.06-1.27-1.7-.3-1.12-.87-1.76-1.94-1.91.01-1.17.2-2.31,0-3.37-.27-1.34-.09-1.82,1.41-2.01.02,1.61-.87,3.27.19,4.92.17-1.45.29-2.78.49-4.09.07-.42.34-.81.58-1.17.04-.05.64.13.66.25.05.36-.12.75-.09,1.11.03.38.14.78.33,1.1.44.76,1.32,1.41.27,2.39-.15.14.08.78.22,1.15.49,1.26.24,2.45-.85,3.31Z"/>
    <path class="cls-1" d="m27.71,60.15c-1.14.51-2.15.95-3.15,1.4,0,.05-.02.1-.03.16.82-.04,1.63-.08,2.56-.12-.24,1.05-.83,1.18-1.52,1.09-.34-.05-.67-.28-.99-.27-.42.01-.89.1-1.22.33-.11.08.13.67.23,1.12-.93,1.61-2.35,2.59-4.46,2.44.03-.14.01-.44.16-.6.73-.82.93-1.75.67-2.8-.15-.64.19-.87.74-.86,1.74.05,2.71-.84,3.43-2.38.89-1.91,1.66-1.8,3.58.51Z"/>
    <path class="cls-1" d="m30.83,54.47c-.29,2.08,1.45,3.12,2.36,4.81-.88-.29-1.76-.57-2.63-.89-.15-.05-.36-.34-.33-.42.59-1.43-.59-1.32-1.34-1.63-.41-.17-.78-.44-1.24-.7.3-.5.54-.88.71-1.17-.25-.74-.62-1.41-.68-2.09-.1-1.2.6-1.58,1.7-1.03.88.45,1.77.88,2.79,1.39-.03.68-.15,1.56-.11,2.43.06,1.32,1.2,1.04,2.06,1.22.02.34.03.66.05,1.09-1.75-.38-2.75-1.43-3.35-3Z"/>
    <path class="cls-1" d="m15.22,71.33c-.17-.92-.29-1.86-.52-2.78-.23-.92.11-1.46.91-1.07,1.33.64,3.02,1.04,3.18,2.98.05.61.4.73.98.86.49.11.98.61,1.26,1.07.19.3.14.89-.03,1.24-.24.5-.72.69-1.21.18-.58-.61-1.16-1.23-1.74-1.85-.24-.25-.48-.5-.71-.75-.12.08-.24.16-.36.24.38.71.62,1.54,1.16,2.09.83.86.9.88-.15,1.43-.2.11-.42.18-.86.36-.28-.93-.47-1.84-.84-2.67-.23-.52-.74-.92-1.08-1.32Z"/>
    <path class="cls-1" d="m38.14,49.86c-.33-1.6-.66-3.21-.99-4.81-.11.01-.21.02-.32.04.08,1.71.17,3.43.25,5.21-1.46-.53-1.82-1.67-1.11-2.75.2-.31.22-.86.11-1.24-.15-.51-.58-.93-.74-1.43-.12-.36-.04-.8.03-1.19.08-.44.26-.87.36-1.31.06-.26-.04-.61.1-.79.32-.41.75-.73,1.13-1.09.24.39.54.76.71,1.18.19.45.28.95.44,1.52.46-.08.85-.14,1.53-.26-.17.68-.27,1.25-.47,1.78-.18.47-.55.86-.68,1.34-.08.3.05.95.18.98.89.18.92.81.75,1.41-.17.58-.56,1.09-.86,1.63-.14-.07-.28-.14-.42-.21Z"/>
    <path class="cls-1" d="m74.45,80.7c.17,1.03.34,2.07.51,3.1-.11.04-.22.08-.32.13-.29-.2-.57-.4-.93-.66-.18.64-.37,1.22-.5,1.82-.38,1.78-2.01,3.28-3.85,3.35-.33.01-.93-.5-.95-.8-.04-.57.08-1.32.44-1.73,1.61-1.84,3.33-3.59,5.01-5.38.2.06.4.11.6.17Z"/>
    <path class="cls-1" d="m47.16,57.67c-.27.94-.73,1.68-.53,2.02.35.6,1.11.96,1.89,1.33-.95-1.2-1.39-2.36-.31-3.62q1.33.36,1.71,2.31c.28-.57.56-1.13.87-1.77.81.12,1.87-.49,2.8.85-1.69-.2-2.09,2.02-4.07,1.46.14.75.04,1.68.45,2.07,1.1,1.06.43,1.56-.37,2.16-.07-.05-.18-.07-.19-.13-.55-1.97-2.02-3.01-3.78-3.77-.28-.12-.54-.29-.81-.45-.77-.44-.73-1.02-.06-1.43.66-.41,1.44-.63,2.42-1.04Z"/>
    <path class="cls-1" d="m35.48,98.63c-.22-.48-.47-.98-.67-1.5-.08-.21,0-.49-.1-.68-1.14-2.09.74-3.62,1.03-5.45.08-.53.82-1.11,1.78-.72-.66.94-1.7,1.69-1.28,2.91.75-.83,1.48-1.67,2.25-2.47.04-.05.41.22.73.4-.37.33-.65.57-.93.82.09.33.11.65.26.91.44.8.55,1.47-.45,1.93-.17.08-.32.38-.33.59-.06,1.51-.91,2.47-2.29,3.27Z"/>
    <path class="cls-1" d="m29.59,67.67c.6-.28.96-.52,1.36-.6,1.01-.23,1.61-.84,1.94-1.79.4-1.15.91-1.2,1.83-.15-1.18,1.14-2.64,2.15-2.41,4.26.65-.98,1.19-1.85,1.79-2.67.24-.33.59-.66.96-.82.3-.12.7.03,1.06.06-.09.42-.08.9-.28,1.26-.28.51-.7.94-1.07,1.39-.31.38-.64.76-.95,1.14-.13.16-.26.32-.34.5-.07.17-.05.39-.11.57-.28.77-1.73,1.58-2.37,1.22-1.03-.58-.53-1.41-.12-2.08.78-1.29-.19-1.69-1.29-2.3Z"/>
    <path class="cls-1" d="m79.39,52.54c1.48,1.95,2.89.74,4.47.35-.04.94,0,1.74-.15,2.5-.06.32-.47.7-.81.82-.84.31-1.61.52-2.38,1.15-.86.71-2.27.93-3.67.12,1.52-.73,2.9-1.4,4.29-2.07-.05-.13-.1-.27-.15-.4-1.83.67-3.66,1.34-5.6,2.05-.2-1.06.09-1.73.85-1.69,1.83.07,2.84-.72,3.14-2.83Z"/>
    <path class="cls-1" d="m52.03,45.95c.05-1.04.1-2.07.15-3.11-1.07,1.5-.79,3.17-.66,5.02-1.17-.52-1.59-1.31-1.69-2.28-.13-1.29-.18-2.58-.28-4.04.17-.35.52-.95.78-1.58.5-1.24,1.26-1.45,2.15-.48.82.89,1.23,1.92.84,3.18-.21.69-.24,1.44-.41,2.14-.1.42-.31.82-.47,1.22-.13-.02-.27-.05-.4-.07Z"/>
    <path class="cls-1" d="m63.01,55.45c-.81-.26-1.62-.52-2.64-.85.32-.25.57-.58.73-.54,1.09.24,2.46-.11,3.05,1.33.08.18.31.32.5.44.93.65,1.87,1.29,2.81,1.93-.07.11-.13.21-.2.32-.67.16-1.36.25-1.99.51-.59.24-1.11.65-1.82,1.08-.25-.45-.53-.88-.74-1.35-.26-.6-.59-.86-1.25-.52-.25.13-.67.25-.86.13-.49-.31-.88-.75-1.32-1.15.51-.41.98-1.03,1.55-1.17.61-.15,1.33.16,2,.27.06-.14.12-.28.18-.43Z"/>
    <path class="cls-1" d="m63.41,61.53c-.68,1.28-1.75,1.77-2.79,1.58-1.11-.21-2.46-.68-3.08-1.5-.83-1.1-.17-3.52,1.14-4.69.2.35.37.81.67,1.14.3.33.7.64,1.12.78,1.35.46,1.36.43.78,1.53.7.38,1.41.76,2.15,1.17Z"/>
    <path class="cls-1" d="m40.4,66.79c.51-1.04.98-2.17,1.61-3.21.17-.28.85-.47,1.23-.39,1.28.29,2.58.65,3.11,2.1.46,1.26.14,1.81-1.13,2.13-1.59.4-3.17.87-4.82-.63Z"/>
    <path class="cls-1" d="m65.21,132.73c3.37,1.55,4.7,3.51,4.19,6.06-1.66.06-3.19-.39-4.56-1.33-.24-.16-.5-.57-.45-.81.21-1.28.52-2.54.82-3.92Z"/>
    <path class="cls-1" d="m58,56.18c.59-1.03,1.08-2.13,1.78-3.07.96-1.28,2.38-1.75,3.96-1.84.51-.03,1.01-.23,1.52-.35-.03-.2-.06-.39-.09-.59-1.4.15-2.81.3-4.29.47.04-1,.84-1.2,1.6-1.35.9-.18,1.83-.24,2.74-.37.93-.13,2.78,1,2.68,1.71-.05.35-.4.86-.71.94-1.29.33-2.63.41-3.68,1.42-.24.23-.8.23-1.19.18-1.16-.17-2,.1-2.56,1.25-.33.69-.98,1.22-1.48,1.82-.09-.07-.18-.14-.27-.21Z"/>
    <path class="cls-1" d="m44.28,45.61c-.14-.98-.31-1.64-.3-2.3,0-.68-.05-1.67.34-1.96.6-.44,1.18.22,1.67.8.38.45.99.84,1.55.95.72.15.91.43.78,1.09-.23,1.12-.51,2.26.89,2.88.1.04.17.26.17.4.01.65-1.1,1.21-2.26,1.22-.83.01-1.29-.52-1.07-1.13.52-1.43-.48-1.51-1.34-1.8-.25-.08-.5-.17-.43-.15Zm2.74.7c.16-.07.32-.14.47-.22-.46-.76-.93-1.52-1.39-2.28-.15.09-.29.18-.44.27.45.74.91,1.49,1.36,2.23Z"/>
    <path class="cls-1" d="m55.6,51.14c-.96-.17-1.26-.7-1.38-1.53-.13-.88-.5-1.73-.78-2.59-.06-.18-.24-.35-.22-.51.11-.95.24-1.9.43-2.84.06-.29.3-.62.55-.76.11-.06.51.25.69.46.35.41.56.97.96,1.29.38.31.95.4,1.33.54-.18.96-.41,1.97-.52,2.99-.04.33.17.76.4,1.03.81.98.74,1.46-.52,2.2-.35-1.33-.69-2.63-1.04-3.94-.13.02-.26.04-.39.06.16,1.16.31,2.33.48,3.58Z"/>
    <path class="cls-1" d="m18.38,94.81c.41-1.17.81-2.08,1.03-3.03.21-.87.82-1,1.48-.93.81.09.62.75.49,1.26-.2.76-.46,1.51-.71,2.3.86-.29,1.58-.6,2.33-.74.25-.05.76.28.83.53.07.23-.23.64-.46.88-.55.54-1.15,1.02-1.73,1.53-.42.37-.77.89-1.26,1.1-.65.28-1.21.22-1.32-.8-.09-.84-.52-1.65-.68-2.09Z"/>
    <path class="cls-1" d="m49.44,66.71c.49-1.76,2.78-3.66,4.37-3.8,1.77-.15,3.54-.33,5.22.51,1.49.75,2.46,2.73,1.76,4.19-.46.96-1.31,1.75-2.07,2.53-.16.16-.68-.02-1.09-.04.56-1.29,1.08-2.42,1.55-3.57.5-1.24-.09-2.4-1.44-2.66-2.96-.58-5.56.02-7.58,2.44-.14.17-.41.22-.73.38Z"/>
    <path class="cls-1" d="m28.03,91.99c.05,1,.09,2,.15,2.99.03.46.04.93.12,1.38.19,1.05-.43,2.25-1.35,2.27-1,.02-1.5-.64-1.56-1.63,0-.08.05-.2.01-.22-1.4-1.05-.58-2-.02-3.12.27-.53-.1-1.38-.21-2.3.35-.18.87-.46,1.66-.87-.3,1.53-.56,2.82-.81,4.11.13.04.26.08.38.12.35-.92.71-1.84,1.06-2.76.19,0,.38.02.56.03Z"/>
    <path class="cls-1" d="m42.62,78.62c.84.38,1.6.62,2.25,1.04,1.39.9,2.88.93,4.43.73.84-.11,1.44.11,1.57,1.2-.52.03-1.01.05-1.6.08-.2.28-.46.65-.85,1.21-.16-.3-.29-.53-.44-.8-.16.21-.22.29-.29.36-.19.21-.35.54-.58.6-1.68.46-4.74-2.32-4.5-4.42Z"/>
    <path class="cls-1" d="m73.86,66.03c.52-1.48-.81-2.32-1.15-3.74.79.53,1.95.1,1.97,1.48,1.03.28.87,1.18,1.03,1.94.34,1.64-.44,2.36-2.12,1.92-.51-.13-1.01-.28-1.65-.46-.03-.29-.03-.71-.13-1.1-.08-.32-.18-.71-.41-.9-1.11-.92-1.14-1.3.11-2.73.79,1.21,1.54,2.36,2.35,3.61Z"/>
    <path class="cls-1" d="m108.95,152.41c-.68.36-1.3.71-1.94,1.01-.84.39-1.73.68-2.55,1.11-.72.38-1.23.13-1.32-.52-.15-1.08-.1-2.19-.06-3.28,0-.16.49-.48.67-.42,1.62.48,3.22,1.01,4.83,1.55.11.04.17.24.38.55Z"/>
    <path class="cls-1" d="m82.55,78.95c1.92.98,1.54,2.69,1.48,4.6-1.39-1.23-2.2.05-3.23.55-.4-.93-.86-1.77-1.13-2.67-.35-1.2.18-1.88,1.43-2.11.52-.1,1.03-.26,1.45-.36Z"/>
    <path class="cls-1" d="m22.79,66.71c.68-1.15,1.23-2.1,1.92-3.27.4-.02,1.1-.05,1.93-.09-.27.43-.48.78-.7,1.12.06.06.11.11.17.17,1.83-.83,3.65-1.65,5.48-2.48.1.05.19.1.29.15-.3.74-.48,1.59-.96,2.19-.26.33-1.03.27-1.57.38-.35.07-.89-.01-1.04.19-.6.86-1.24.9-2.09.11-.49,1.75-1.72,1.76-3.42,1.53Z"/>
    <path class="cls-1" d="m37.55,86.44c1.21.17,2.12.29,3.03.45.18.03.33.25.49.39-.16.17-.34.5-.49.49-1.4-.11-2.81-.18-4.18-.47-.84-.18-1.61-.68-2.39-1.09-.31-.16-.54-.46-.8-.7.31-.23.6-.61.95-.67,1.25-.23,2.52-.84,3.76.17.25.2.83.11,1.22.02,1.07-.26,1.72.09,1.97,1.2-1.09.69-2.23-1.06-3.57.23Z"/>
    <path class="cls-1" d="m41.73,59.02c.59.29,1.2.53,1.76.86,1.02.6,2.02,1.25,3.03,1.89,1.24.79,2.29,1.69,2.25,3.32-.11.06-.22.13-.33.19-.08-.21-.15-.42-.24-.63-.13-.32-.26-.64-.64-.89-.11.35-.22.69-.38,1.2-.33-.44-.54-.81-.84-1.11-1-1-2.17-1.57-3.63-1.45-1.15.1-2.31.18-3.47.17-.57,0-1.14-.23-1.71-.35,0-.16.01-.32.02-.48,2.07-.1,4.14-.2,6.21-.3.01-.11.02-.23.04-.34-.78-.54-1.56-1.08-2.34-1.63.09-.15.19-.3.28-.45Z"/>
    <path class="cls-1" d="m55.98,57.31c-.33-.18-.77-.28-.96-.55-.83-1.19-1.54-2.47-2.4-3.63-.49-.66-.87-1.2-.59-2.07.22-.68.19-1.44.38-2.13.06-.21.49-.32.76-.48.08.27.31.62.21.79-.49.87-.09,1.36.56,1.92,1.88,1.64,2.4,3.76,2.04,6.16h0Z"/>
    <path class="cls-1" d="m44.68,86.03c1.02-1.62,3.65-2.09,5.28-1.03,2.37,1.56,3.24,5,1.64,7.26-.32-1.95.15-3.92-1.5-5.37-1.66-1.46-3.61-.48-5.42-.87Z"/>
    <path class="cls-1" d="m56.6,86.05c-.17-1.52-.41-3.03-.46-4.56-.01-.52.48-1.05.58-1.81-.67.36-1.34.72-2.08,1.12-.07-.16-.25-.37-.2-.47.42-.87.77-1.82,1.38-2.54.45-.52,1.22-.31,1.48.42.66,1.87,1.18,3.77.39,5.76-.15.38-.1.83-.23,1.23-.11.34-.34.65-.51.97-.11-.04-.23-.09-.34-.13Z"/>
    <path class="cls-1" d="m70.86,55.13c1.03-.56,2.02-1.09,3.14-1.69.72,1.08.03,2.13-.33,3.28-.44,1.41-2.06,1.04-2.6,2.19-.11-.1-.23-.2-.34-.3.59-.82,1.19-1.64,1.78-2.47-.07-.09-.15-.17-.22-.26-1.09.99-2.17,1.97-3.42,3.11-.25-1.3-.36-2.07.88-2.46.48-.15.76-.92,1.12-1.4Z"/>
    <path class="cls-1" d="m20.39,83.7c-.76.94-1.52,1.88-2.28,2.82.12.13.24.27.36.4.64-.43,1.28-.86,2.15-1.44.07.56.31,1.13.16,1.57-.38,1.07-2.11,1.9-3.63,1.8-.06-1.31-.16-2.64-.17-3.97,0-.24.28-.6.51-.7.87-.35,1.78-.62,2.67-.92.08.14.15.29.23.43Z"/>
    <path class="cls-1" d="m73.61,150.31c1.67.57,1.13,2.03,1.07,3.12-.03.59-.76,1.54-1.3,1.63-1.4.26-2.25-.85-3.1-1.78,1.14-1.02,2.22-1.99,3.33-2.98Z"/>
    <path class="cls-1" d="m71.37,69.09c-.88,1.31-1.17,1.38-2.2.07-.49-.63-.9-1.45-1.02-2.24-.22-1.44-.12-1.46-1.84-1.68.82-.79,1.51-1.46,2.19-2.11.97,2.01,1.89,3.93,2.86,5.96Z"/>
    <path class="cls-1" d="m49.96,54.09c-.61-.12-1.27-.12-1.31-.28-.1-.37-.01-.9.2-1.23.37-.59.9-1.09,1.3-1.56,1.18,1.53,2.26,2.91,3.31,4.32.12.16.13.59.02.67-.21.16-.54.23-.82.22-1.48-.05-2.61-.58-2.71-2.14Z"/>
    <path class="cls-1" d="m43.1,82.66c-.52.78-1.08.84-1.77.18-1.29-1.22-1.49-3.71-.33-5.42.56-.83,1.21-1.6,1.9-2.33.94-.99,2.62-.87,3.2.18-.05.05-.09.14-.15.15-.73.13-1.8,0-2.15.42-1.21,1.52-2.57,3.05-2.75,5.12-.03.36.53.84.9,1.16.3.26.74.36,1.15.55Z"/>
    <path class="cls-1" d="m52.8,85.68c-.16-.66-.28-1.02-.34-1.39-.11-.72-.08-1.49-.31-2.17-.78-2.26-1.69-3.11-3.88-2.63-.4.09-.84-.05-1.36-.1.83-1.29,2.98-1.53,4.37-.65,2.11,1.33,3.01,4.69,1.52,6.95Z"/>
    <path class="cls-1" d="m78.02,60.26c-1.62.08-3.24.16-4.86.24-.03-.19-.05-.38-.08-.57.46-.09.93-.18,1.39-.25.68-.1,1.37-.18,2.05-.29.33-.05.7-.28.97-.19.9.3,1.77.7,2.91,1.17-.58.45-.97.84-1.44,1.09-1.78.92-3.59,1.54-5.57-.05,1.47-.91,3.16-.28,4.6-.79,0-.12.01-.23.02-.35Z"/>
    <path class="cls-1" d="m38.97,71.32c.23-.63.73-.45,1.36-.33,1.66.31,3.33.65,5.01.67,1.1,0,1.36.35,1.29,1.29-.02.33-.02.66-.02.87-1.23-.04-2.37-.08-3.31-.11-1.48-.82-2.89-1.6-4.32-2.39Z"/>
    <path class="cls-1" d="m97.01,152.09c1.24.41,2.33.77,3.7,1.23-.88.97-1.72,1.93-2.62,2.83-.15.15-.65.12-.87-.01-1.54-.98-1.51-2.83-.21-4.04Z"/>
    <path class="cls-1" d="m58.71,49.86c-.53-.58-1.07-.93-1.24-1.42-.19-.52-.22-1.25,0-1.73.47-.96.74-1.81.16-2.83-.17-.31-.07-.98.17-1.27.26-.32.82-.4,1.24-.58.08.42.32.9.2,1.25-.24.71-.61,1.36.09,2.01-.86,1.34-.12,2.75-.2,4.12-.01.21-.38.41-.42.46Z"/>
    <path class="cls-1" d="m89.87,103.08c.53-.97.91-1.75,1.37-2.48.22-.35.59-.61.9-.9.38.44.84.85,1.12,1.35.14.24-.04.66-.07,1.01-.09.87-.03,1.88-1.2,2.07-1.1.18-1.77-.49-2.12-1.04Z"/>
    <path class="cls-1" d="m40.82,76.36c-.24-.3-.43-.53-.64-.8.34-.26.66-.49,1.04-.78-1.96-1.65-4.19-1.34-6.4-1.1-.01-.16-.03-.33-.04-.49.71-.23,1.41-.51,2.13-.69,1.36-.34,2.69-.2,3.91.52,1.73,1.02,1.73,1.73.01,3.34Z"/>
    <path class="cls-1" d="m62.52,47.73c.38-.13.77-.26,1.15-.38.83-.26,1.65-.56,2.49-.77.79-.19,1.6-.32,2.41-.39.16-.02.52.45.5.48-.43.58-.85,1.17-1.38,1.66-.44.4-.91.47-1.33-.19-.13-.2-.8-.21-1.15-.09-.87.31-1.7.76-2.69-.32Z"/>
    <path class="cls-1" d="m62.72,149.62c1.22-1.02,2.68-1.33,4.25-1.23.21.01.52.37.56.59.1.69.09,1.4.12,2.01-1.8-.37-3.35-.69-4.91-1.01,0-.12-.01-.25-.02-.37Z"/>
    <path class="cls-1" d="m35.04,55.98c1.66-.59,2.29-.45,3.22.88-.62.19-1.18.35-1.6.48-.18.67-.28,1.32-.56,1.88-.12.23-.64.26-.98.38-.13-.37-.37-.75-.36-1.11.02-.79.17-1.58.28-2.52Z"/>
    <path class="cls-1" d="m47.47,73.88c.33-.07.71-.26.83-.15,1.17,1.02,2.52.31,3.78.46.32.04.61.28.92.43-.23.26-.42.67-.7.74-.93.24-1.89.43-2.85.5-1.23.08-1.8-.68-1.97-1.97Z"/>
    <path class="cls-1" d="m64.13,62.45c-.75-1.56-.18-2.92,1.34-3.13,1.75-.24,3.55-.38,5.15.64.22.14.32.47.48.72-.31.05-.66.21-.94.12-.99-.3-1.93-.76-2.93-1-1.02-.25-2.67,1.18-3.12,2.64Z"/>
    <path class="cls-1" d="m57.26,55.78c-.59-3.17-.07-4.28,2.43-5.26-1.03,1.56-.74,3.69-2.43,5.26Z"/>
    <path class="cls-1" d="m55.97,57.32c.26.19.52.39.57.43.04.9.14,1.64.09,2.37-.03.37-.34.71-.53,1.06-.31-.22-.73-.38-.9-.67-.61-1.09-1.14-2.23-1.76-3.48,1.31-.22,1.2,1.25,2.13,1.77.14-.53.27-1.01.4-1.49,0,0,0,0,0,0Z"/>
    <path class="cls-1" d="m95.82,122.55c2.45-1.17,4.95-1.32,7.52-.37-2.51.12-5.02.24-7.52.37Z"/>
    <path class="cls-1" d="m60.15,74.13c.44.74.88,1.48,1.32,2.22l-.27.3c-.51-.42-1.09-.78-1.5-1.28-.41-.5-.61-1.15-.95-1.71-.49-.8-.05-1.11.63-1.31.18-.05.41-.07.56.01.45.22,1.01.41,1.24.78.13.21-.31.77-.49,1.18-.18-.07-.36-.13-.55-.2Z"/>
    <path class="cls-1" d="m25.18,69.55c-.59-.25-.97-.42-1.39-.6.17.8.3,1.37.48,2.21-2.51-1.3-2.57-1.42-2.03-2.85,1.09-.05,2.11-.1,3.34-.16-.11.38-.25.87-.4,1.4Z"/>
    <path class="cls-1" d="m62.24,144.84c1-.12,1.91-.3,2.82-.31.3,0,.6.41.9.64-.25.32-.45.78-.78.94-.43.21-.97.23-1.47.25-.91.05-1.48-.32-1.47-1.52Z"/>
    <path class="cls-1" d="m53.45,65.1c-.31,1.16-.6,2.23-.91,3.36-.79-.12-1.36-.39-1.38-1.18-.02-.92,1.19-2.11,2.29-2.18Z"/>
    <path class="cls-1" d="m67.78,152.74c.37-1.57,1.57-2.99.06-4.74.61.03,1.09.01,1.1.07.2,1.15.46,2.31.44,3.46-.01.61-.49,1.29-1.6,1.2Z"/>
    <path class="cls-1" d="m27.34,63.33c.27-.74.37-1.2.6-1.57.24-.39.55-.89.93-.99.4-.11.94.13,1.36.33.09.04.04.76-.12.86-.81.48-1.68.85-2.77,1.37Z"/>
    <path class="cls-1" d="m96.84,109.09c-1.62-.65-1.63-.7-.75-1.97.37-.55.69-1.14,1.03-1.71.15.06.3.13.45.19-.23,1.12-.47,2.25-.73,3.49Z"/>
    <path class="cls-1" d="m51.16,61.46c.91-.29,1.82-.58,2.98-.95.04.37.19.9.1,1.38-.03.14-.78.19-1.2.17-.6-.03-1.19-.16-1.78-.25-.03-.12-.07-.24-.1-.36Z"/>
    <path class="cls-1" d="m72.13,114.82c.24-1.17.39-1.85.56-2.7.81.64,1.4,1.28,1.14,2.13-.09.29-.97.34-1.71.57Z"/>
    <path class="cls-1" d="m102.14,139.06c-.61.76-1.62.96-2.58,1.14-.31.06-.7-.31-1.06-.49.02-.15.05-.29.07-.44.44-.1.87-.25,1.32-.27.7-.03,1.4.03,2.25.06Z"/>
    <path class="cls-1" d="m40.15,90.99c-.67-1.17-.42-1.4,2.09-1.85.04.32.08.64.12.89-.76.33-1.44.62-2.21.96Z"/>
    <path class="cls-1" d="m58.14,66.36c-.75.36-1.5.72-2.4,1.15.09-1.11.58-1.77,1.5-2.01.28-.07.67.29,1.01.45-.04.14-.08.28-.12.42Z"/>
    <path class="cls-1" d="m84.65,84.83c-.24.48-.31.95-.57,1.1-.89.52-1.78.44-2.74-.29,1.09-.27,2.03-.5,3.32-.82Z"/>
    <path class="cls-1" d="m101.83,103.71c.76,1.09.4,2.52-.86,3.29.29-1.1.58-2.19.86-3.29Z"/>
    <path class="cls-1" d="m91.03,122c-.43.17-.95.37-1.46.58-.1-.06-.2-.12-.31-.17.34-.8.69-1.6,1.09-2.53.25.79.43,1.35.68,2.13Z"/>
    <path class="cls-1" d="m28.82,89.03c.16,1.51.29,2.7.41,3.86-.79-.12-1.25-2.28-.41-3.86Z"/>
    <path class="cls-1" d="m21.48,88.34c.53,1.67-.81,1.42-1.74,1.91.09-1.25.98-1.45,1.74-1.91Z"/>
    <path class="cls-1" d="m19.37,75.42c.05.79.42,1.54-.55,1.85-.16.05-.61-.21-.6-.3.05-.66.12-1.37,1.15-1.55Z"/>
    <path class="cls-1" d="m97.61,108.62c.5,1.59.34,1.82-1.02,1.86-.49.01-.99,0-1.54-.1.88-.53,2.58.2,2.55-1.76Z"/>
    <path class="cls-1" d="m48.09,76.6c.82.15,1.64.3,2.45.45-.03.17-.05.35-.08.52-.83-.1-1.65-.2-2.48-.3.04-.22.07-.44.11-.66Z"/>
    <path class="cls-1" d="m54.06,75.42c-.06-.51-.12-1.03-.16-1.54,0,0,.46-.08.46-.05.14.48.24.97.35,1.46-.22.04-.44.09-.66.13Z"/>
    <path class="cls-2" d="m91.42,143.3c-.57-1.09-1.08-2.07-1.62-3.11-1.19.49-1.15-.8-1.56-1.14-.66-.02-1.16-.03-1.81-.05,1.05-2.31,2.41-3.86,5.12-3.81-.24-.35-.3-.48-.39-.57-.1-.1-.24-.16-.55-.36.7-.82,1.34-1.57,2-2.35.96.68,1.67,1.19,2.4,1.7-.4,1.71-1.65.94-2.63.93-.22,1.2,1.77,2.22.09,3.42.26.3.48.55.7.79-.12,0-.23,0-.35,0-.06.49-.28,1.03-.15,1.46.42,1.4-.64,2.1-1.24,3.06Z"/>
    <path class="cls-2" d="m65.81,111.95c.24.69.48,1.39.74,2.17-1.1.05-1.89.12-2.67.11-.21,0-.42-.2-.62-.3.17-.27.28-.61.52-.78.58-.41,1.22-.73,2.03-1.2Z"/>
    <path class="cls-2" d="m71.95,127.93c-.45.46-.97.87-1.32,1.39-.3.45-.41,1.02-.65,1.65-.1-.03-.41-.12-.79-.22.39-1.49,1.25-2.45,2.47-3.1.09.09.19.19.28.28Z"/>
    <path class="cls-2" d="m80.93,134.41c.05-.48.08-.85.09-1.01.68-.31,1.22-.56,1.78-.83.52.73-.03,1.37-1.88,1.84Z"/>
    <path class="cls-2" d="m75.8,114.05c.32,1.03.65,2.06.97,3.09-.12.04-.24.08-.36.12-.37-1.03-.75-2.06-1.12-3.08.17-.04.34-.08.51-.13Z"/>
    <path class="cls-2" d="m103.21,123.56c-.07.52-.11.84-.18,1.31-.71-.16-1.33-.3-1.95-.44,0-.11.01-.22.02-.32.63-.17,1.27-.33,2.11-.56Z"/>
    <path class="cls-2" d="m103.84,134.92c-.24-.72-.48-1.44-.72-2.17.11-.03.22-.07.33-.1.71.58,1.09,1.27.74,2.19-.12.03-.23.05-.35.08Z"/>
    <path class="cls-2" d="m61.84,122.2c-.39-.62-.78-1.24-1.2-1.91.97-.26,1.28.19,1.2,1.91Z"/>
    <path class="cls-2" d="m104.04,131.78c.02-.24-.05-.61.07-.68.67-.42,1.29-1.15,2.47-.44-.64.11-1.09.11-1.47.28-.34.15-.61.47-1.07.85Z"/>
    <path class="cls-2" d="m111.08,126.18c-.31.5-.52.85-.92,1.51-.18-.81-.29-1.33-.46-2.1.54.24.89.39,1.38.6Z"/>
    <path class="cls-2" d="m89.7,158.41c-1.7.07-3.12-1.34-3.17-3.14-.05-1.94,1.67-3.96,3.43-4.04,1.62-.08,2.91,1.4,2.98,3.4.07,2.11-1.3,3.7-3.24,3.78Zm-1.01-5.28c.64.51,1.29.96,1.84,1.51.26.26.53.75.46,1.05-.08.36-.53.64-.82.95-.09-.05-.17-.1-.26-.16.26-1.28-.64-1.73-1.49-2.19-.64-.34-1.43.07-1.22.7.29.85.81,1.77,1.5,2.3.75.56,2.28,0,2.78-.71.79-1.13.86-2.57.15-3.45-.67-.84-1.82-.92-2.95,0Z"/>
    <path class="cls-2" d="m82.38,150.99c.43.38,1.22.92,1.79,1.63.82,1.02.49,3.96-.59,4.69-.73.49-1.79.94-2.59.8-1.33-.24-2.3-1.28-2.6-2.67-.55-2.49.97-4.37,3.99-4.45Zm-1.38,3.06c-1.57.79-1.6.81-.51,2.28.28.38.78.85,1.18.84,1.3-.03,2.06-1.17,2.12-2.94.03-.94-.94-2.18-1.88-2.39-.9-.2-2,.94-1.77,1.83.27.12.54.24.87.37Z"/>
    <path class="cls-2" d="m93,93.45c1.1-1.29,2.79-.81,4.01.97-1.63.44-2.35-1.66-4.01-.97Z"/>
    <path class="cls-2" d="m100.09,96.99c.65.19,1.3.39,1.95.58-.05.18-.11.36-.16.54-.65-.2-1.3-.4-1.95-.6.05-.18.1-.35.15-.53Z"/>
    <path class="cls-2" d="m110.87,95.47c-.45.26-.84.64-1.3.72-.41.08-.89-.16-1.83-.36.58-.27,1.02-.47,1.45-.67-.12-.14-.25-.29-.37-.43-.74.44-1.48.88-2.43,1.45.66-2.27,2.21-2.42,4.47-.7Z"/>
    <path class="cls-2" d="m47.02,46.3c-.45-.74-.91-1.49-1.36-2.23.15-.09.29-.18.44-.27.46.76.93,1.52,1.39,2.28-.16.07-.32.14-.47.22Z"/>
    <path class="cls-1" d="m88.69,153.12c1.14-.92,2.29-.83,2.95,0,.7.89.64,2.33-.15,3.45-.5.71-2.04,1.27-2.78.71-.7-.52-1.21-1.45-1.5-2.3-.21-.63.58-1.04,1.22-.7.85.46,1.75.91,1.49,2.19.09.05.17.1.26.16.29-.31.74-.59.82-.95.07-.31-.2-.79-.46-1.05-.55-.54-1.2-.99-1.84-1.51Z"/>
    <path class="cls-1" d="m80.99,154.06c-.32-.14-.59-.26-.87-.37-.23-.88.87-2.03,1.77-1.83.94.21,1.91,1.45,1.88,2.39-.06,1.76-.82,2.91-2.12,2.94-.39,0-.9-.46-1.18-.84-1.09-1.47-1.06-1.49.51-2.28Z"/>
  </g>
</svg>