<?xml version="1.0" encoding="UTF-8"?>
<svg id="_Слой_1" data-name="Слой 1" xmlns="http://www.w3.org/2000/svg" viewBox="0 0 130.39 116.22">
  <defs>
    <style>
      .cls-1 {
        fill: none;
        opacity: .83;
        stroke: #fff;
        stroke-miterlimit: 10;
      }

      .cls-2 {
        fill: #fff;
        fill-rule: evenodd;
      }

      .cls-2, .cls-3 {
        stroke-width: 0px;
      }

      .cls-3 {
        fill: #4a4a75;
      }
    </style>
  </defs>
  <g>
    <rect class="cls-3" x=".02" y="1.03" width="130.36" height="114.16" rx="8.55" ry="8.55"/>
    <rect class="cls-1" x=".02" y="1.03" width="130.36" height="114.16" rx="8.95" ry="8.95"/>
  </g>
  <g>
    <g>
      <g>
        <path class="cls-2" d="m51.05,41.28s-.06-.03-.09-.05c-.21-.14-.33-.36-.36-.59-.24-.77-.23-2.14-.22-3.93.02-3.51.06-8.91-.83-13.84-1.21-1.14-5.28-3.89-14.41-1.27-6.21,1.79-12.34,4.91-16.88,9.45-3.63,3.63-6.23,8.16-7.04,13.63,1.71,7.44,6.21,14.03,9.4,18.69.82,1.19,1.55,2.27,2.13,3.2,3,4.81,3.8,7.27,3.99,8.39,13.01-1.18,27.17-6.57,30.25-7.78.03-1.27.4-6.86,4.29-14.92,1.98-4.09,2.85-7.25,2.91-9.61.07-2.48-.76-4-2.12-4.71-1.43-.75-3.44-.88-5.39-.29-1.74.53-3.42,1.63-4.6,3.36-.23.35-.68.46-1.05.27h0Zm-15.58,22.91s-12.1-2.24-14.96-12.31c-.52-1.85-.56-3.27-.26-4.34.36-1.27,1.17-2.04,2.22-2.48.99-.41,2.18-.5,3.39-.4,1.99.16,4.05.85,5.24,1.42.48-2.45,2.35-9.94,7.31-10.59.78-.1,1.52.07,2.19.48,1.24.76,2.25,2.36,2.83,4.5.57,2.07.75,4.67.4,7.53-.63,5.03-2.95,10.87-7.86,16.03-.13.14-.32.19-.5.16h0Zm-13.9-12.6c-.47-1.64-.51-2.86-.26-3.74.25-.9.83-1.45,1.58-1.76.81-.33,1.83-.4,2.88-.32,2.3.19,4.67,1.1,5.42,1.62.25.17.59.11.76-.14.05-.07.08-.15.09-.23,0-.03,1.4-9.77,6.5-10.44.52-.07,1.02.05,1.47.33,1.01.62,1.84,1.98,2.35,3.85.53,1.94.7,4.39.36,7.11-.6,4.75-2.77,10.28-7.35,15.18-1.8-.4-11.4-2.94-13.82-11.47h0Zm27.66-30.34c-2.13-1.37-6.55-2.96-14.38-.71-6.37,1.83-12.67,5.05-17.35,9.73-3.16,3.16-5.58,6.98-6.78,11.48-.46-3.84-.09-7.86,1.64-11.93,1.81-4.25,4.8-7.9,8.31-10.8,3.81-3.15,8.21-5.4,12.37-6.57,4.09-1.15,7.9-1.24,10.61-.08,1,.43,1.85,1.03,2.5,1.81,1.49,1.8,2.46,4.31,3.1,7.07h0Zm-22.59,54.82c13.28-1.17,27.78-6.69,30.81-7.9.11.06.24.09.37.09.68,0,1.27.13,1.79.36l.04.02c1.22.57,2.07,1.76,2.64,3.25.6,1.58.86,3.49.86,5.39,0,2.6-.49,5.15-1.27,6.81-.91,1.94-6.52,3.6-12.9,4.69-8.04,1.38-17.15,1.78-19.92.7-2.37-.92-3.69-2.5-4.43-4.24-.77-1.8-.94-3.82-1.01-5.49-.12-2.8,2.55-3.38,2.56-3.38.19-.04.36-.15.47-.3h0Zm25.39-39.36c0,.83-.09,1.5-.17,2,1.27-1.3,2.8-2.17,4.37-2.65,2.35-.71,4.82-.54,6.62.41,1.91,1,3.09,3.01,3,6.21-.07,2.58-.99,5.98-3.08,10.28-3.36,6.94-3.99,11.89-4.11,13.7.59.08,1.13.24,1.63.47l.05.02c1.64.77,2.77,2.28,3.47,4.16.67,1.78.97,3.89.97,5.97,0,2.82-.55,5.64-1.43,7.51-1.17,2.49-7.27,4.44-14.12,5.61-8.27,1.42-17.78,1.79-20.79.61-2.86-1.11-4.45-3.02-5.35-5.13-.87-2.05-1.06-4.25-1.14-6.07-.13-3.12,2.06-4.39,3.19-4.84-.14-.76-.81-2.78-3.8-7.55-.57-.91-1.29-1.97-2.09-3.14-5.39-7.89-14.4-21.08-8.43-35.11,1.92-4.51,5.08-8.37,8.77-11.42,3.99-3.3,8.6-5.66,12.97-6.88,4.43-1.24,8.64-1.32,11.7-.01,1.24.53,2.3,1.28,3.12,2.27,4.74,5.73,4.67,17.45,4.63,23.57Z"/>
        <path class="cls-2" d="m49.04,76.44c2.12-.58,4.25-1.69,6.28-2.56.02,0,.03-.02.05-.02.02,0,.04-.01.06-.02.69-.29,1.33-.54,2.06-.75,1.58-.47,2.69-1.09,3.76-2.35.14-.17.26-.33.39-.51.02-.01.3-.41.36-.48.03-.03.06-.06.09-.09.01-.01-.03,0-.05,0-.02,0-.04,0-.06-.02,0,0-.02-.01-.02-.02,0-.02.07.06.07.06.14.15.38.62.56.57.24-.07.03-.76-.02-.89-.05-.11-.1-.19-.19-.27-.03-.05-.11-.07-.16-.1-.07-.03-.12-.04-.19-.04-.13,0-.22.03-.34.09-.06.01-.19.14-.24.18-.17.15-.32.31-.47.48-.14.14-.28.29-.42.43-1.06,1.05-1.88,1.54-3.34,1.95-.78.2-1.48.45-2.22.76-.02,0-.04.02-.06.03-.02,0-.04.01-.06.02-2.06.88-3.98,1.94-6.12,2.68-.36.12-2.72.66-2.75.94.07.64,2.76,0,3.03-.06h0Zm2.87-24.73c-.23-2.42-.36-4.8-.44-7.24,0-.02,0-.05,0-.07,0-.03,0-.05,0-.08,0-.15,0-.3-.02-.45v-.33c.06-.44.14-.88.25-1.33,0,0,0-.02,0-.03,0,0,0-.02,0-.03,0-.01,0-.03.01-.05.15-.68.33-1.27.64-1.89.03-.09.2-.34.27-.44.21-.29.76-.78.65-1.07-.24-.52-1.18.3-1.37.48-.15.17-.28.34-.4.53-.04.07-.09.14-.12.21,0-.62,0-1.23.02-1.85,0-.04,0-.08,0-.12.02-.62.07-1.24.09-1.86,0-.19.04-.41.06-.61,0-.07.02-.13.02-.2,0-.09,0-.14-.05-.22-.08-.11-.18-.04-.26.02-.08.06-.13.13-.18.21-.13.2-.21.43-.27.66-.19.61-.27,1.29-.33,1.93,0,.03,0,.09-.01.12-.17,1.87-.17,3.84-.13,5.73-.04.42-.06.84-.06,1.21,0,.22-.03.75.14,1.01.1,1.96.25,4.02.56,5.87.04.23.29,1.93.83,1.7.4-.19.12-1.44.08-1.82Z"/>
      </g>
      <path class="cls-2" d="m28.53,60.82c0-.28.03-.71.14-.92.15-.05-.06-.04.1.05.24.13-.18.06.26.1-.11.21-.31.64-.49.77h0Zm-7.18-7.4h-.07l.06.08v-.08s.72-1.55.72-1.55c-.04.48-.76,1.83-.56,2.26.42-.28,1.74-3.2,2.02-3.91.39-.97,1.36-3.4,1.85-4.06-.06.67-1.49,3.96-1.9,4.79-.13.27-.3.66-.41.93l-.55,1.42c-.1.23-.18.26-.23.47.21.06.11.03.28.14.18-.35.35-.63.54-1.01l1.43-3.36c.55-1.37,1.14-2.7,1.4-4.17.07-.38.08-.34-.06-.62-.2.13-.34.29-.48.51-.12.19-.31.48-.36.69-.32-.15-.37-.06-.56.16l-.43.62c-.05.08-.08.14-.13.22l-.14.21c.02-.27.12-.43.14-.68.17-.3.35-1.04.35-1.5-.2.05-.2.11-.3.27-.13.22-.07.22-.26.37.02-.19,0-.15.07-.28-.33.09-.64.84-.7,1.15-.06.05-.02,0-.09.1-.04.07-.02.02-.07.13-.05.1-.08.22-.12.3-.04.11-.02.04-.06.15-.38.89-1.43,3.44-1.49,4.23.47-.12.9-1.83,1.27-2.25-.02.29-.28.77-.39,1.09l-.84,2.27c-.12.34-.32.85-.33,1.23.17-.11.29-.27.35-.49.07.09.05-.08.07.21h0Zm9.58-6.41l.02-.02s-.03.01-.02.02h0Zm7.89,10.92h-.07s0-.12,0-.14c.04-.13.02-.07.07-.15v.28h0Zm-.07,0l.04.15.03-.15.21-.42c0,.42-.14.63-.14,1.06.18-.2.2-.36.29-.63.08-.25.14-.45.23-.76l1.32-4.53c.76-2.56.55-3.05,1.89-5.36l.21-.28c-.03.35-.17.92-.25,1.3-.59,2.59-.51,1.07-1.29,3.5l-1.04,3.69c-.07.23-.11.43-.16.62-.1.39-.13.33.06.62.34-.18.31-.26.52-.89l.79-2.17c.45-1.2.74-1.94,1.12-3.25.12-.41.22-.73.34-1.14.09-.3.33-.88.13-1.21,0-.32.4-1.48-.02-1.61-.44-.14-.69.78-.97.98.19-.83.7-2.76.7-3.52-.41.11-.13.17-.51.54-.04.04,0-.09-.1.12,0,0-.07.2-.07.21-.05.17-.08.31-.1.47-.17-.14.05-.72.06-1.07,0-.23-.05-.21-.2-.27,0-.31.05-.4.11-.66.02-.08.05-.23.06-.3,0-.05.04.02.03-.17-.01-.15,0-.06-.06-.14.09-.35.18-.11.25-.53.02-.15-.03-.4-.03-.67-.16.06-.11.04-.2.15l-.15.2c0-.33.16-.77.24-1.1.08-.34.25-.82.25-1.16-.04.05-.04.03-.09.12l-2.09,6.65c0-.29.09-.46.14-.71l.48-2.05c.12-.49.21-.85.32-1.37.1-.47.25-.98.25-1.51l.08-.14-.08.14c-.18.26-.5,1.65-.61,2l-1.49,5.06c-.09.34-.3.76-.23,1.04-.27-.12-.11.02-.12-.32,0-.13.04-.05-.02-.32-.31.16-.19.15-.49.49.04-.49.39-1.07.42-1.57,0-.01.02-.05.03-.04l.67-1.85c.12-.37.65-1.75.6-2.04.13-.11.05,0,.14-.18l.23-.69c.12-.35.21-.62.32-.95l.55-1.78c.07-.15.02-.06.08-.14v.85s.02-.05.03-.04c0,0,.02-.04.03-.05,0-.01.04-.08.04-.1l.4-1.58c-.43.11-.13.28-.49.7.02-.28.07-.33.07-.7-.05-.02-.09.02-.14-.05-.13-.17.12-.38-.35-.44h-.08c.09-.4.21-.55.21-1.06-.01.01-.03.02-.03.04l-.18.24c.03-.39.24-.61,0-.99.04-.19.2-.52.28-.7.11-.24.19-.39.31-.68l1.61-3.32c.15-.29.26-.39.26-.8-.8.54-2.15,3.53-2.53,4.45l-.59,1.45s-.04.08-.04.1l-.08.14c0-.29.08-.59-.15-.51-.16.06-.3.27-.34.44l-.07-.14c-.11-.15.05-.06-.14-.14-.14.21-.22.29-.28.59-.04.05-.02,0-.08.12-.04.07-.05.09-.09.19-.07.18-.1.25-.09.45-.15,0-.09.04-.09.23-.13.14-.89,2.24-1.13,2.51.03-.36.91-2.78,1.08-3.29.14-.41.25-.69.25-1.23h-.21l-.62,1.63c-.28.84-1.67,4.69-1.77,5.16l-.1.21s-.01.03-.02.05c0,.02-.02.03-.02.05l-.71,2.05c-.09.23-.27.56-.25.85-.01.01-.04.01-.04.04,0,.02-.03.03-.04.03,0,0-.03.02-.04.03-.52.42-1.23,2.68-1.23,3.42.19-.05.06,0,.21-.07l-.55,1.35c-.1.24-.16.41-.27.65l-.31.68c0-.31.14-.7.21-.99l.82-2.99c.24-.75.06-.55.42-1.41.08-.19.11-.27.18-.45l2.13-5.41c.16-.39,1.36-3.37,1.26-3.77.19-.18,0-.14.11-.49l2.93-6.87c.13-.33.39-.86.24-1.17-.35.23-.39.52-.56.91-.16.36-.3.7-.47,1.08l-2.77,6.48s-.02.02-.03.04l-.31.46s-.02.03-.03.04l-.69.85c.02-.26.14-.63.2-.86.05-.19.06-.21.1-.41.04-.22.08-.23-.08-.35l-3.08,7.49c-.05.09-.04.07-.09.12.06-.66,1.83-5.1,1.83-5.99-.44.12-.64,1.1-.78,1.47l-.62,1.7c-.16.41-1.05,3.24-1.2,3.45,0-.27.2-.9.27-1.14l1.71-5.48c.06-.17.4-1.12-.06-.64-.34.37-1.07,2.55-1.24,3.14-.23.77-.46,1.49-.66,2.23l-.93,3.37c-.09.34-.27.81-.28,1.2-.18-.08-.03-.07-.21,0,.02-.28.12-.42.14-.7-.27.1-.34.45-.58.83l-1.3,2.71c-.09.14-.03.05-.09.12l.9-2.62c.13-.43.27-.42.37-.83l.07-.14c.23,0,.02-.13,0-.14,0-.33.12-.47.14-.78-.32.21-.32.37-.49.71-.2-.09-.14-.07-.42-.07-.04.05-.06.17-.07.21-.15,0-.14.02-.36.34,0,.01-.02.03-.03.04s-.02.03-.03.04l-.29.35c.05-.24.11-.42.18-.65.09-.28.19-.4.12-.69.04-.03.21.02.11-.33-.05-.19-.11-.14-.28-.23.07-.15.13-.41.14-.63-.26.02-.33.12-.48.3-.15.19-.16.29-.37.48-.02.14.03.01-.03.12-.09.19.03.01-.11.16.04-.44.18-.2-.07-.56-.26.06-.31.13-.44.33l-.59,1.1c-.54,1-1.1,2.45-1.58,3.43l-.75,1.79c-.14.38-.87,2.14-.87,2.51.36-.24.41-.79.7-1.13-.03.33-.67,1.51-.85,2.26,0,0,.02-.01.02,0l.15.07c.1,0,.14-.13.23-.3l1.75-3.88c.09-.21.1-.25.19-.44.08-.17.12-.29.19-.45.06-.14.15-.28.21-.42l.42-.84-2.17,5.44c-.16.4-.68,1.54-.71,1.89.21-.15.08-.05.21-.28.05-.08,0-.02.08-.13.01-.02.05-.07.06-.08,0-.01.03-.03.03-.04s.02-.03.03-.04c-.02.28-.12.43-.14.7.18-.13.8-1.41.99-1.62-.02.26-.08.29-.17.54-.08.21-.14.39-.18.59.23-.17.92-1.82,1.1-2.21l.52-1.17c.76-1.7,1.23-2.85,2.21-4.48l.67-1.02c-.03.34-.18.65-.33.94l-2.13,4.7c-.32.66-.22.64-.58.99-.03.03-.09.09-.1.11l-1.08,3.13c.34-.08.11-.05.21,0-.05.27-.02.08-.07.35l-.02.11s0,.04-.01.06c0,.04-.04.17-.06.23-.09.38-.11.43.09.72.24-.07.27-.17.4-.38.11-.19.18-.31.27-.58.27-.81,1.13-2.1,1.37-2.79.1-.27.09-.38.22-.63l2.11-4.51c-.02.94-1.32,3.62-1.73,4.61-.03.07-.03.08-.06.15l-.11.17v-.35c-.24.18-.31.55-.41.85-.17.52-.71,2.75-.71,3.23.39-.19.3.07.52-.4l.84-1.76c.11-.16,0-.06.12-.1-.04.25-.95,3.37-1.09,4.2-.06.32-.03.37.25.45.17-.12.19-.14.21-.42l.28.42c.61-.01.93-.74,1.29-1.46l.3-.55s.02-.03.03-.04l.14.47c-.08.41-.4,1.19-.21,1.57.52-.14.5-1.09.85-1.34,0,.57-.07,1.47.56,1.62-.35-.65-.35-1-.21-1.81l.7-2.56c.12-.44.27-.79.41-1.22.58-1.82,1.13-3.14,1.82-4.87l.5-1.12s.02-.03.03-.05l-.06.57c-.05.34.2.49-.31,1.45l-.05.09c0-.31.12-.62.14-.92l-1.88,6.03c-.06.19-.1.32-.15.47l-.3.98c-.06.22-.13.32-.12.56-.17,0-.09.15-.07.31-.17.16-.23.6-.29.84-.08.33-.2.62-.23.97.24-.17.05.04.18-.24l.17-.32.22-.21c.12-.05-.11-.05.2.07.03-.39.28-.56.26-1.01.16.04.09-.09.09-.28.25-.28.79-2.94,1.08-3.54l.11-.17c0,.41-.19,1.49-.31,1.8-.11.28-.21.47-.3.76l-.17.89-.11.31h0v.02l-.8,2.21c.33.15-.09-.07.18-.05.24.02-.2-.08.04.01.17.07-.12.09.06.04.07-.15.11-.28.17-.47l.19-.45v.3c-.13.18-.09.18,0,.4-.09.04-.14-.11-.15.42-.02.8.46.57.58.07.01.01.03.01.03.04l.04.2c0,.44.1.52.49.33.07-.13.06-.09.05-.28.11-.09.09.16.09-.23l1.69-4.21c-.02.28-.14.48-.19.73-.13.6-.72,1.84-.7,2.23-.01.01-.03.01-.04.04,0,0-.31.65-.34,1.02.33-.24.18-.49.42-.56,0,.1,0,.04-.02.12-.11.48-.16.91-.13,1.37.2-.08.16.03.32-.09.21-.15,1.48-3.78,1.77-4.44.12-.28.22-.51.35-.78.15-.31.14-.41.37-.75.05.08.06-.01.06.15,0,.07-.02.15-.03.17l-.62,1.7c-.09.26-.17.48-.28.71-.21.44-.37.83-.55,1.28l-.48,1.42c.3.03.13-.01.35.14l.8-1.95c.12-.3.68-1.68.89-1.92l-1.48,4.72c.23-.08.05.11.22-.21.66-1.24.44-.7.98-2.05l.82-2.14c.02-.07.03-.1.05-.16.09-.19.06-.11.12-.17-.03.34-.18.55-.21.92l.63-1.2c0,.56-.2.96-.21,1.48.3-.35.35-1.36.63-1.76h0Zm-7.89-10.85v.14c-.23,0-.02-.13,0-.14h0Zm6.83,12.83c0,.33,0,.13-.07.21,0,.23-.03.28-.09.47-.11.31.03.15-.2.3l.29-.77c0-.33,0-.13.07-.21v-.21h.07c0,.36,0,.12-.07.21h0Zm-1.48-10.71h.07l-.38,2.01-.54,1.02c.04-.47.81-2.57.85-3.03h0Zm.07,0v-.21h-.07v.21c-.05.05-.04.03-.09.12l-1.84,4.93c-.1.29-.23.49-.26.8,0-.01-.02-.06-.02-.05,0,.01-.02-.04-.02-.04-.11-.19-.11-.18-.31-.26l2.73-6.64c.05-.09.04-.07.09-.12l-.21,1.27h0Zm3.05-11.07c.18,0,.12,0,.12-.23.08-.07.02,0,.12-.14.05-.08.07-.15.12-.23.12-.23.16-.23.23-.45.23-.1.1-.04.16,0-.09.37-.38.78-.21,1.13l-2.35,6.67c-.17.43-.59,2.05-.76,2.28v-.35c-.36.1-.16.16-.42.35.78-1.96,1.8-4.71,2.37-6.65.12-.4.23-.71.35-1.13.08-.3.31-1.02.26-1.24h0Zm11.62,7.54c-.1.12-.05-.05-.09.15-.01.06,0,.15,0,.21.41,0,.49-.04.63-.3.08-.04.04,0,.13-.07.18-.14.19-.28.29-.47h-.14c.06-.24.07-.16.21-.35.12-.17.12-.16.19-.35l4.83-6.4c.14-.19.2-.25.2-.58-.53.12-1.73,1.88-2.2,2.45-.25.3-.44.57-.68.87l-2.01,2.64c-.23.3-.53.64-.67.97-.05.04-.03,0-.1.09l-.3.47c-.16.28-.3.4-.28.68h0Zm-20.05,8.95c.13.08.2.06.02.21l-.02-.21h0Zm.02.21v.23l-.07-.02c0-.34,0-.13.07-.21h0Zm.16-.28c-.12-.06-.09.11-.09-.16l.09.16h0Zm-8.12.14c-.13-.34.17-.96.27-1.28.3-.9,1.44-3.72,1.84-4.49l.26-.53c.1-.2.15-.32.26-.51.21-.35.35-.63.56-.99l.51-.96s.02-.02.03-.03c.03-.18.27-.96.28-.31.23-.15.16-.2.49-.28.13.6-.61,2.35-.84,2.9l-.88,2.08c-.09.22-.18.44-.35.59-.03.4-.7,1.59-.92,2.02-.12.24-.79,1.71-1.03,1.83-.09.46-.28.6-.63.52,0-.63-.02-.44.14-.56h0Zm7.7-7.33c.13-.08.12-.13.12,0h-.12Zm-2.07-4.51c-.06-.24-.06-.3.05-.59.09-.25.12-.32.45-.33.07.31.05.9-.49.92h0Zm0-23.82c.18.04.25.14.49-.28.52-.91.17-1.34-.28-.42-.13.25-.21.31-.21.71h0Zm20.85,35.73s.13.48.55-.3c.08-.15.22-.42.22-.62,0-.27.02-.03-.07-.21-.44.12-.7.87-.7,1.13h0Zm-27.12-13.18c0,.4-.04.52.21.7.25-.24.35-1.22.35-1.55-.37.1-.56.64-.56.84h0Zm17.26-27.77c.3-.08.92-.72.92-1.27-.37,0-.39.09-.7.5-.47.63-.32.58-.22.77h0Zm-10.78,16.99c0-.46.26-.82.35-1.2h.21c.24,1.02-.56,2-.56,1.2h0Zm.85,58.5c0,.42,0,.42.28.56.24-.46.04-.38.28-.78.15-.26.29-.35.29-.77-.29.02-.39.19-.54.37-.13.15-.3.37-.3.62h0Zm-8.71-40.31c-.01-.23.34-1.06.47-1.18.07-.32.56-1.46.73-1.7.72-.97-.08,1.12-.1,1.18.23-.15.22-.28.49-.35-.02.26-.16.57-.28.78l-.17.21-.52,1c-.07.1-.04.06-.09.1-.08.19-.11.26-.23.43l-.35.64s-.02.03-.03.04c0,.01-.03.02-.04.03-.24.24-.19.23-.41.29,0-.38.18-.82.32-1.16l.2-.32h0ZM40.78,15.01c.39-.1.91-1.11.92-1.55-.28-.06-.33-.08-.68.59-.4.76-.42.68-.23.96h0Zm-5.78,68.44c0,.27-.02.02.07.21.3-.02.24-.07.36-.27.1-.17.16-.26.28-.42.46-.61.45-.59.27-.86-.27.07-.44.31-.61.52-.13.17-.38.57-.38.82h0Zm-1.13-.63c0,.37-.02.09.07.28.32-.09.35-.34.47-.65.12-.3.23-.57.23-.97,0-.27.02-.03-.07-.21-.24.06-.25.13-.47.66-.09.23-.24.62-.24.89h0Zm-2.39-21.85c0-.36,0-.12.07-.21,0,.37,0,.11-.07.21h0Zm.07-.42l.02.02s-.03-.01-.02-.02h0Zm18.74,12.12c0,.13,0,0,.07.14.35-.03.32-.19.51-.68.15-.38.36-.85.19-1.15-.44.12-.78,1.38-.78,1.69h0Zm6.06-2.04c0,.32,0,.28.21.42.23-.17.2-.48.33-.8.08-.18.37-.68.37-.82,0-.72-.92.43-.92,1.2h0Zm-26.55-38.06c.03-.37.25-.71.4-1.01.34-.67.24-.74.66-.75,0,.58-.35,1.75-1.06,1.76h0Zm18.52,40.81c.34-.03.38-.24.54-.8.12-.42.17-.72.17-1.24-.36.03-.42.36-.55.86-.08.3-.26.97-.15,1.18h0Zm6.69-19.87c0,.27-.02.03.07.21.13-.01.2.1.37-.4.07-.2.13-.42.18-.59.07-.21.11-.38.16-.62.06-.3.09-.33-.15-.5-.32.23-.63,1.51-.63,1.9h0Zm.21,16.7c0-.4.77-1.24,1.13-1.27,0,.4-.31.72-.49.98-.14.21-.17.22-.22.55-.03.18-.05.42-.13.58-.35-.09-.28-.33-.28-.85h0Zm-3.45,2.12c0,.27-.02.03.07.21.35-.08.41-.34.64-.91.07-.17.47-.93.37-1.11-.3-.55-1.09,1.59-1.09,1.81h0Zm-33.25-27.91l.07.49h.21c.05-.2.09-.3.14-.5.16-.76.43-1.09.43-1.69,0-.27.02-.03-.07-.21-.36.24-.77,1.39-.77,1.9h0Zm15.57,35.31c0,.08-.77,2.4-1.09,1.81-.09-.17.27-.94.35-1.13.1-.23.14-.35.24-.54.12-.25.11-.32.43-.35.09.19.07-.06.07.21h0Zm23.67-7.82c-.29-.21-.56-1.64.56-2.4.09.19.07-.06.07.21,0,.18-.36.69-.41,1-.08.5.12.93-.23,1.18h0Zm-34.3-25.94l.02.02s-.03-.01-.02-.02h0Zm.07-.14l.02.02s-.03-.01-.02-.02h0Zm.14-.21l-.04.15.04-.15h0Zm12.54,38.76c0,.27-.02.03.07.21.32-.09.33-.36.72-.97.26-.41.54-.74.55-1.14-.39.03-.54.28-.86.76-.16.23-.48.8-.48,1.14h0Zm10.28-9.73c0,.27-.02.02.07.21.38-.1.39-.48.55-1.07.13-.47.27-.85.16-1.32-.34.09-.38.41-.54.95-.1.34-.24.86-.24,1.24h0Zm-15.21-41.51c-.18-.38.44-2.08.92-2.4.21.31.04.57-.25,1.3-.27.67-.26,1.06-.66,1.1h0Zm-9.3,14.24l.02.02s-.03-.01-.02-.02h0Zm36.91,24.67c0,.72.8-.64.85-.7.11-.17.73-1.12.74-1.3.05-.99-1.59,1.7-1.59,2.01h0Zm-9.16-13.25c0,.27-.02.03.07.21.37-.1.5-.71.75-1.22.22-.45.52-.84.52-1.46-.28.02-.13-.04-.3.12-.23.23-1.04,1.93-1.04,2.34h0Zm-10.35,20.51c0,.29.04.44.21.56.29-.43.12-.79.42-1.48.17-.38.49-.97.49-1.48-.2.02-.17-.12-.45.4-.13.24-.22.37-.33.58-.18.35-.35.87-.35,1.41h0Zm-21.76-37.28c-.12.13-.53,1.16-.64,1.41-.02.04-.83,1.69-.09,1.12.21-.16,1.12-2.25,1.06-2.46-.04-.17-.19-.23-.33-.07h0Zm29.58,39.33c.28-.21.27-.81.42-1.41.12-.47.28-.99.28-1.55-.25,0-.28-.15-.48.51l-.38,1.66c-.06.37-.16.56.15.79h0Zm11.41-37.78c0,.27-.02.03.07.21.51-.14,1.04-1.46,1.24-1.93.14-.33.24-.41.24-.82-.62.17-1.55,2.54-1.55,2.54h0Zm-20.99,41.51c0,.19.03.19.07.35h.21c.4-1.7,1.39-2.02,1.41-2.68-.71.02-1.69,1.7-1.69,2.33h0Zm15.57-12.33c0,.19.03.2.07.35h.21c.17-.72.31-1.49.61-2.21.12-.28.22-.39.23-.75-.77.06-1.13,2.03-1.13,2.61h0Zm-20.57.63c0,.36-.03.46.21.63.32-.47.01-.59.52-1.6.29-.59.67-.96.68-1.43-.58.05-1.41,1.61-1.41,2.4h0Zm18.03-10.29c.43-.04.41-.44.8-1.25.12-.25.54-1.25.54-1.5,0-.27.02-.03-.07-.21-.37.1-.58.85-.82,1.36-.19.41-.53,1.18-.45,1.6h0Zm-13.52-33.48c0-.88,1.77-2.81,1.88-2.25.04.19-.71.97-.94,1.29-.49.66-.57,1.12-.86,1.32-.1-.2-.07.11-.07-.35h0Zm-5.14,31.93l.02.02s-.03-.01-.02-.02h0Zm.42-.63c0-.36,0-.12.07-.21,0,.37,0,.1-.07.21h0Zm.63-.14c-.14-.08-.21.01-.07-.14l.07.14h0Zm-.07-.14l-.39-1.03c.09,0,.26-.01.33,0,.31.03.13-.03.16.1.08.36-.09.57-.09.94h0Zm.09-.94l-.09.94.75-1.79c.55-1.4.76-1.57,1.27-3.1.04-.13.06-.17.09-.26l.39-1.17c.08-.24.2-.71.33-.85.02-.29.77-2.31.89-2.66.16-.45.32-.83.48-1.29.14-.4,0-.97.37-1.29-.05-.24.42-1.48.55-1.8.21-.54.46-1.2.59-1.74.13-.55.75-3.64.86-3.84,0-.31.09-.54.16-.85l.38-1.59c.08-.28.22-.49.24-.75-.1.12-.02.03-.12.17-.05.08-.03.06-.08.13-.07.1-.15.19-.22.27-.01.49-1,3.81-1.22,4.48-.09.27-.14.48-.23.76l-1.7,5.84c-.04.16-.05.24-.1.4-.03.11,0,.04-.05.16-.04.1-.04.08-.08.14.15.46-.01-.25.14.21-.08.1.01-.05-.09.12l-.87,2.08c-.31.78-.63,1.5-.92,2.25l-.93,2.24c-.26.64-.46,2.31-.63,2.51,0,.52.02.18-.12.28h0Zm1.1-31.83c.44-.01.42-.19.59-.54.15-.31.26-.49.42-.78,1.12-2,.52-1.97.07-1.13-.33.61-1.08,1.82-1.08,2.44h0Zm.35,45.81c.28-.03.18.08.47-.65.2-.51.89-2.13.8-2.59-.6.16-1.45,2.86-1.27,3.24h0Zm3.1-4.44c0,.19.03.19.07.35h.21c.13-.57.31-1.09.51-1.6.11-.29.61-1.29.61-1.5,0-.27.02-.03-.07-.21-.41.28-.64.78-.85,1.27-.18.42-.49,1.11-.49,1.69h0Zm-23.13-18.61s.02-.06.03-.05c0,.01.02-.04.03-.05,0-.01.04-.08.05-.1,0-.01.02-.03.02-.05l.08-.13c.41-.61,1.38-2.13,1.43-2.73-.31.08-.46.39-.62.65-.18.29-.34.53-.52.82-.1.15-.13.24-.24.4-.12.18-.15.19-.27.36-.1.15-.16.25-.25.38-.15.21-.16.18-.28.45-.01,0-.04,0-.04.02l-.13.14c-.05.08-.07.16-.11.24l.14.28c.23-.06.58-.42.68-.63h0Zm36.79,2.26c.53-.14,1.28-1.73,1.68-2.34.18-.28.4-.58.44-.97-.33.09-.49.4-.68.65-.53.71-.63.86-1.03,1.65-.18.36-.39.52-.4,1.01h0Zm-15.64-23.82c0-.53.1-.7.3-1.04.15-.25.36-.52.53-.74.29-.36.93-1.15,1.35-1.19,0,.31-.04.33-.19.52l-1.15,1.38c-.51.71-.47,1.03-.84,1.06h0Zm-8.85,59.09s-.16-.08-.16.54c.34-.08.11-.05.21,0-.1.45-.17.84.07,1.2.21-.16.17-.28.23-.61.18-1.04.67-1.61.76-2.02.23-.2.29-.4.47-.7.15-.25.35-.5.38-.82-.35.03-.3.18-.56.35.06-.76,1.11-1.79,1.13-2.47-.96.51-1.7,2.71-1.97,3.03l.02.28c-.17.04-.01-.14-.18.2-.04.09-.09.22-.15.35-.1.24-.22.44-.24.68v.16h.52v-.16h-.52Zm22.59-31.32c0-.74.26-1.26.49-1.76.17-.38.47-1.3.92-1.34,0,.67-.71,1.75-.95,2.72-.16.65-.08.72-.39.8l-.07-.42h0Zm-8.45,31.15c0,.13,0,0,.07.14.31-.21.7-1.08.96-1.57.31-.58.59-1.16.59-2.02-.3.08-.3.33-.49.77-.35.79-1.13,1.98-1.13,2.68h0Zm10.64-32.49c-.17-.36.36-1.56.52-1.94.14-.33.28-.58.44-.9.1-.2.29-.78.55-.65.24.11-.49,1.56-.59,1.81-.26.59-.55,1.59-.92,1.69h0Zm-23.31,33.48c0-.54,1.01-3.19,1.69-3.24,0,.45-.2.68-.35.99l-.82,1.72c-.24.6-.1.72-.45.82-.09-.19-.07.09-.07-.28h0Zm19.02-12.05c0,.3-1.13,3.92-1.55,3.52-.09-.09-.09,0-.05-.24l.27-.74c.16-.44.72-1.96.94-2.3.14-.21.11-.22.39-.25h0Zm-24.51-9.87c0,.27-.02.03.07.21.35-.26.51-1.48.7-1.97.28-.71.78-1.39.78-1.9-.25.07-.4.35-.61.66-.18.26-.36.55-.5.84-.28.6-.44,1.32-.44,2.16h0Zm26.62,1.34c0,.25.02.18.14.35.25-.19.25-.53.39-.88.42-1.06,1.16-2.08,1.16-2.72-.32.03-.31.11-.6.59-.18.3-.3.52-.45.82-.22.45-.63,1.18-.63,1.83h0Zm-29.87-6.13c.36-.1.41-.43.59-.75l1.11-1.63c.11-.15.17-.26.29-.41.15-.19.34-.59-.03-.47,0,0-.21.15-.21.15-.47.44-1.11,1.43-1.46,2-.21.36-.29.55-.29,1.12h0Zm12.54,28.05c0,.53.04.39.07.7.25-.07.21-.08.27-.37.05-.24.05-.38.09-.61.2-1.16,1.19-1.99,1.26-2.83-.31.03-.3.1-.62.58-.17.26-.3.46-.48.72-.33.49-.59,1.02-.59,1.8h0Zm18.52-21.43c0-.61.73-1.98,1.06-2.53.16-.26.24-.55.56-.64.09.19.07-.06.07.21,0,.07-.32.79-.38.89l-.82,1.71c-.25.63-.06.68-.42.78-.1-.2-.07.13-.07-.42h0Zm5-12.97c0-.51.57-1.5.8-1.87.04-.07,1.17-1.85,1.13-1.05,0,.14-.85,1.47-.98,1.69-.57.94-.53,1.48-.89,1.72-.1-.2-.07.14-.07-.49h0Zm-20.99-6.95c-.17-.14-.14.15-.14-.24l.07.09s.06.13.07.15h0Zm-.07-.45c0-.18.11-.01.04,0,0,0-.04.2-.04,0h0Zm.07-.21c0-.18.11-.01.04,0,0,0-.04.2-.04,0h0Zm.07-.28l.02.02s-.03-.01-.02-.02h0Zm-.42,1.41c.06-.11.02-.09.07.02l-.07-.02h0Zm8.17-31.79c0,.37-.02.09.07.28.32-.09.31-.27.56-.78.21-.43,1.36-2.45,1.31-2.69-.2-.9-1.94,2.95-1.94,3.18h0Zm1.2,39.89c.37-.1.32-.35.56-.85.4-.81,1.13-2.43.71-3.31-.25.19-.24.63-.32,1.02-.29,1.36-.94,2.02-.94,3.14h0Zm-2.04-41.09c.04-.51,2.08-3.85,2.41-3.53.12.12-.08.36-.17.48-.11.18-.18.29-.3.48-.36.54-1.35,2.52-1.94,2.57h0Zm-10.35,57.37c0-.52.47-1.59.65-2.02.14-.33.26-.64.4-.94.32-.66.23-.7.63-.7,0,.58-.52,1.53-.72,2.03-.16.41-.58,1.63-.9,1.84-.09-.19-.07.06-.07-.21h0Zm11.76-54.9c0-.47,1-2.5,1.3-3,.08-.13.45-.92.63-.57.08.16-1.07,2.49-1.27,2.9-.09.18-.16.31-.23.47-.12.26-.08.32-.36.35-.08-.13-.07-.01-.07-.14h0ZM14.86,51.94c0-.73.73-1.63,1.08-2.09.25-.33,1.11-1.64,1.32-1.78.3.54-.74,1.77-1.03,2.15-.24.33-.43.56-.65.9-.26.4-.4.75-.72.83h0Zm29.23,28.76l.07.63c.41-.11.22-.88.75-2.14.25-.58.86-1.66.87-2.02-.38.03-.49.34-.66.6-.19.29-.32.57-.46.87-.24.48-.56,1.34-.56,2.04h0Zm-1.97-12.62c.33.07.4-.08.76-.65.21-.33.38-.64.58-.97.14-.23,1.12-1.9,1.12-2.05,0-.27.02-.03-.07-.21-.55.37-2.36,3.43-2.39,3.88h0Zm0-1.76c0-.56.14-.83.33-1.22.27-.56,1.23-2.51,1.79-2.65.09.19.07-.06.07.21l-1.57,2.87c-.09.18-.14.28-.23.47-.11.23-.08.3-.38.33h0Zm-21.69-2.61c-.22-.41-.11-.83.07-1.27.28-.68,1.36-2.55,2.05-2.61,0,.34-.07.36-.22.56l-.94,1.32c-.68,1.04-.66,1.79-.96,2h0Zm18.45,23.47c0-.54.17-.84.35-1.2.27-.54,1.21-2.53,1.83-2.68,0,.48-.25.78-.44,1.11l-1.08,1.95c-.31.56-.3.79-.66.82h0Zm-21.13-27.49c0-.71,1.07-2.48,1.48-3.17.28-.46.34-.75.7-.78,0,.43-.52,1.37-.75,1.79l-.85,1.55c-.1.2-.16.43-.26.59-.09.15-.32.37-.32.02h0Zm26.98-.7c0-.74.03-.84.22-1.4l.98-2.19c.18-.3.34-.75.7-.85.15.31-.66,1.82-.85,2.18-.24.48-.72,1.71-.84,2.26h-.21Zm2.04-11.77c.39.09.3.11.68-.66.29-.59,1.29-2.85,1.29-3.29,0-.35-.23-.13-.32.02-.12.19-.17.33-.25.53-.27.67-1.35,2.84-1.4,3.39h0Zm-32.12-1.76c0,.45-1.33,2.76-1.67,3.34-.11.18-.51.99-.74.76-.15-.15.34-.95.43-1.14l1.51-2.65c.14-.2.2-.29.47-.31h0Zm10.92-6.77c0-.96.71-2.42,1.1-3.27.17-.36.2-.72.59-.82.16.34-.55,1.79-.7,2.18l-.77,2.26c-.11-.08-.21-.16-.21-.35h0Zm-8.73,17.97c.28-.08.27-.18.4-.45l1.38-2.84c.11-.21.17-.35.28-.56.04-.07.13-.23.15-.29.06-.2.09-.18-.03-.29-.34-.32-1.66,2.74-1.83,3.1-.19.39-.35.76-.35,1.34h0Zm23.53,24.46c0-.72.83-4.1,1.55-4.58.08.13.07.01.07.14l-.71,2.39c-.15.52-.43,1.99-.84,2.26-.09-.19-.07.06-.07-.21h0Zm-24.37-25.65c0-.9.54-1.96.89-2.56.23-.39,1.06-1.84,1.57-1.88-.04.49-1.32,2.16-1.82,3.39-.2.49-.28.95-.64,1.05h0Zm32.05,27.35c-.19-.83.61-3.06.94-3.99.15-.42.3-1,.61-1.08,0,.61-.14.97-.27,1.42-.13.42-.25.81-.38,1.25-.14.49-.55,2.18-.9,2.41h0Zm-1.27-13.46c0,.27-.02.03.07.21.36-.1.27-.42.54-1.08l1.12-2.19c.12-.21.18-.35.3-.55.13-.21.2-.32.22-.62-.55.05-1.15,1.38-1.41,1.83-.31.54-.84,1.58-.84,2.4h0Zm-24.86-5.92c.06-.25.18-.36.28-.56l1.62-3.88h.28c0,.83-.92,2.86-1.34,3.67-.19.36-.38.76-.85.77h0Zm-8.8-12.97c.01-.63,2.24-4.25,2.96-4.44,0,.43-.34.72-.68,1.23-.27.4-.46.7-.71,1.12-.27.44-.96,2.04-1.57,2.09h0Zm9.93,17.9c0-.9.73-1.78,1.17-2.5l1.12-1.62c.1-.13.3-.41.46-.26.16.16-.44.98-.55,1.15l-1.79,2.79c-.15.25-.12.36-.41.44h0Zm-.85-3.38c0-.17.47-1.01.58-1.18.23-.38.39-.75.6-1.17.02-.04,1.29-2.72,1.29-1.74,0,.28-.89,2.04-1.06,2.32-.22.38-.87,1.85-1.33,1.98-.09-.19-.07.06-.07-.21h0Zm29.3-13.74c0-.83,2.22-4.3,2.75-4.65.09.19.07-.06.07.21,0,.33-1.68,2.85-2.04,3.46-.27.45-.46.96-.71,1.12-.07-.13-.07-.01-.07-.14h0Zm-1.9-6.98c0,.7-.68,2.08-.92,2.74-.11.32-.94,2.53-1.2,2.26-.16-.16.74-2.35.87-2.67l.54-1.29c.1-.24.18-.42.29-.62.11-.19.18-.36.42-.42h0Zm-28.39-2.89c0-1.15.44-2.13.84-3.03l.49-1.06c.11-.23.09-.28.36-.35,0,.53-.23.96-.38,1.38-.38,1.06-.62,1.35-.85,2.6-.05.27-.08.47-.11.73-.04.33,0,.49-.28.56-.11-.45-.07-.3-.07-.84h0Zm32.68,27.42c0,.27-.02.03.07.21.3-.2.48-.76.64-1.13.23-.54,1.64-3.45,1.41-3.95-.35.24-.99,1.79-1.19,2.27-.17.42-.93,2.19-.93,2.6h0Zm-17.89-.07c0-.42.36-.94.54-1.29.21-.42.35-.78.56-1.2.24-.48.82-2.05,1.29-2.3.07.13.07.01.07.14,0,.6-1.43,3.44-1.98,4.29-.14.22-.17.34-.48.36h0Zm-8.83-22.55c.16-.05.11-.05.02,0h-.02Zm-.05.14c-.09.39-1.14,2.42-1.5,3.22l-.26.45c.02-.26.61-1.57.75-1.92.16-.4.24-.57.44-.9.14-.24.38-.7.57-.84h0Zm-1.83,3.81c-.07.11-.02.09-.07-.02l.07.02h0Zm-.21,34.82c0-.18,1.45-3.25,1.71-3.78.25-.51.38-.98.75-1.08.08.13.07.01.07.14,0,.36-.91,2.18-1.11,2.63l-.91,1.84c-.17.3-.1.43-.45.46-.09-.19-.07.06-.07-.21h0Zm27.4-16.49c-.13-.27.03-.47.14-.71l1.73-4.05c.17-.39.24-.34.31-.6h.21c0,.57-.75,2.28-1.01,2.87-.21.47-.83,2.34-1.39,2.49h0ZM29.79,23.18c.21-.06.16-.03.3-.2l2.78-4.12c.16-.27.38-.46.23-.75-.27.07-.37.25-.52.46-.68.91-2.77,3.81-2.79,4.61h0Zm32.12,23.89c0-.79-1.69,1.61-1.92,1.89-.18.21-.29.37-.45.61-.26.37-1.24,1.61-1.26,1.91-.04.61.72-.5.93-.76.18-.22.3-.37.47-.59.3-.41,2.23-2.78,2.23-3.05h0Zm-.77-4.23c.08-.05,0-.13.15,0,.13.12.05,0,.02.15-.06.26-1.25,1.88-1.49,2.19-.27.36-1.63,2.25-1.91,2.33-.59.18.36-.99.45-1.12.46-.64,2.29-3.26,2.78-3.56h0Zm-49.24,5.29c-.26-.53,1.05-2.22,1.34-2.61.28-.37,1.47-2.07,1.97-2.11,0,.38-.16.49-.33.73l-2.13,2.87c-.34.5-.54,1.04-.85,1.13h0Zm19.93-12.97c0-.76,1.33-3.37,1.71-4.14.27-.53.42-1.06.75-1.15.15.31-.3,1.14-.43,1.47l-.65,1.39c-.24.47-.42.92-.63,1.41-.22.49-.39,1.17-.68,1.36-.1-.2-.07.11-.07-.35h0Zm15.85,17.06c-.1-1.18.31-2.15.95-3.21.11-.19,1.5-2.49,1.79-2.38.36.15-1.89,2.93-2.36,4.9-.15.62-.09.62-.37.69h0Zm-5,29.11c0-.75.68-2.36.93-3.02l.86-2.1c.03-.07.12-.27.16-.33.12-.18.03-.13.24-.18.15.32-.23,1.23-.35,1.55-.19.49-.37.99-.56,1.48-.2.49-.38.99-.55,1.49-.1.27-.19.51-.28.78-.16.5-.13.54-.36.62-.09-.19-.07.09-.07-.28h0Zm-7.26-44.97c0-.32.2-.71.34-.93l2.26-4.09c.29-.36.84-1.09,1.28-1.19-.08.35-.27.53-.47.79-1.6,2.14-1.74,3.16-2.81,4.8-.17.26-.28.52-.59.6h0Zm-7.18-14.03c0-1.17,1.48-3.27,2.14-4.27.29-.44.63-1.05,1.03-1.09-.03.41-.54,1.1-.75,1.44l-1.27,2.04c-.14.24-.27.46-.38.67-.47.92-.3,1.3-.7,1.41-.09-.19-.07.06-.07-.21h0Zm14.51,1.41c.59-.05,1.64-2.06,1.93-2.51.16-.24.28-.45.44-.69l.88-1.38c.54-.8.42-1.03-.23-.3-.67.76-2.27,3.39-2.89,4.44-.12.2-.12.15-.12.44h0Zm-18.24,60.19c.03-.37,1.2-2.4,1.46-2.91.26-.52.47-.94.75-1.43.47-.84.42-1.21.89-1.22-.01.62-1.05,2.54-1.33,3.03-.27.47-.48.94-.76,1.42l-.63.99c-.17.17-.07.12-.37.12h0Zm20.85-54.06h.21l2.28-4.27c.18-.29.25-.3.25-.73-.54.12-1.42,1.83-1.68,2.27-.36.61-1.22,2.04-1.07,2.74h0Zm-28.39-5.57c-.37.03-.72.63-1.14,1.11-.18.21-.32.41-.5.63-.3.37-2.55,3.18-2.23,3.49.2.2.74-.79.99-1.13l2.5-3.28c.18-.26.37-.44.38-.82h0Zm-1.55,29.11c-.31-.66,2.28-4.3,2.72-4.89.16-.22.26-.43.59-.46,0,.41-.43.95-.75,1.44l-1.7,2.67c-.18.34-.49,1.14-.87,1.24h0Zm26.13,28.19c.26-.07.19-.04.41-.64.58-1.59.68-2.14,1.45-3.98.18-.42.56-1.11.6-1.58-.27.07-.38.29-.52.54-.14.26-.24.43-.38.68l-.69,1.5c-.29.72-.88,2.59-.88,3.48h0Zm-24.51-23.54c0,.16.08.23.22.25.39.04,1.52-2.71,1.73-3.16.13-.27.23-.51.35-.78.18-.42.58-1.12.59-1.59-.38.09-.62.68-.87,1.17l-1.81,3.75c-.09.15-.21.19-.21.36h0Zm34.51-14.66c-.13-.28.05-.53.19-.8.46-.9,2.43-4.42,3.05-4.84.09.19.07-.06.07.21,0,.3-2,3.48-2.39,4.16-.14.25-.26.46-.41.71-.35.59-.15.52-.51.55h0Zm-18.24-7.05c0-1.17.74-2.67,1.21-3.44.28-.46,1.45-2.31,2.1-2.48-.01.47-.5.86-.89,1.44-.33.5-.59.9-.9,1.42-.8,1.32-.84,1.96-1.22,2.79-.11.23-.05.2-.3.27h0Zm-15.29,25.73c0-.32,1.62-3.88,1.95-4.53.41-.82.35-1.23.87-1.25,0,.49-.39,1.24-.56,1.62-.23.52-.44.98-.67,1.52l-1.03,2.22c-.3.6-.18.54-.49.56-.07-.13-.07-.01-.07-.14h0Zm28.53-21c.4-.11.75-.94.94-1.32.47-.94,2.09-4.01,2.09-4.89-.38.1-.62.82-.89,1.36l-1.5,3.15c-.19.4-.63,1.27-.63,1.69h0Zm-20.57,46.38c0-1.51,1.36-3.89,2.04-5.14.18-.32.6-1.24.99-1.34-.01.48-.51,1.31-.7,1.69-.54,1.09-1.08,2.11-1.54,3.25l-.5,1.26c-.12.24-.03.21-.29.27h0Zm23.53-4.09c.23-.02.25.06.48-.57l.81-2.5c.15-.53.99-3.05.82-3.41-.37.1-.53.86-.71,1.47l-1.26,4.17c-.08.31-.26.59-.14.85h0Zm-3.59-51.73c0-1.14,1.7-3.59,2.33-4.65l.69-1.01c.14-.16.11-.17.37-.2-.01.58-1.39,2.59-1.7,3.1-.36.6-.99,1.68-1.25,2.34-.21.51-.11.58-.36.77-.1-.2-.07.11-.07-.35h0Zm-1.76,38.62c0-.78,1.95-4.6,2.59-5.65.09-.15.48-.64.49-.22,0,.23-1.33,2.79-1.53,3.19l-1.32,2.78c-.12.11-.23.14-.23-.1h0Zm-11.76-42.22c0-.69,2.02-3.84,2.56-4.56.38-.5.67-1.18,1.11-1.22,0,.43-.54,1.16-.82,1.58l-1.85,2.95c-.37.61-.56,1.2-.93,1.4-.08-.13-.07-.01-.07-.14h0Zm10-5.78c0-.72,1.21-2.59,1.63-3.3.25-.42,1.54-2.77,2.03-2.9,0,.41-.17.65-.33.94l-2.29,3.84c-.39.65-.64,1.39-1.04,1.42h0Zm7.89,39.05c0-1.63.72-3.1,1.32-4.53.19-.47.99-1.91,1.5-1.95,0,.59-.49,1.06-.78,1.55-.15.24-.3.51-.42.78l-.34.79c-.23.51-.39,1.22-.57,1.76-.34,1.01-.27,1.57-.71,1.61h0Zm-26.34,8.53c0-1.33,1.53-4.01,2.22-5.18.23-.38.67-1.2,1.09-1.31,0,.37-.21.65-.37.9-.53.88-.83,1.55-1.28,2.39l-.82,1.65c-.25.56-.51,1.46-.85,1.55h0Zm38.25-26.15c-.02.73-2.5,3.78-3.07,4.54-.2.27-.35.48-.52.75-.1.15-.4.74-.58.56-.38-.38,2.51-3.91,2.96-4.52.24-.33.85-1.23,1.21-1.33h0Zm-50.93,3.59c.4-.11.56-.74.75-1.08l1.48-2.82c.35-.69,1.15-1.92,1.15-2.65-.43.03-.64.8-1.03,1.44-.55.92-1.59,3.14-2.07,4.13-.13.28-.28.58-.28.99h0Zm34.94-8.88c0-1.7,1.66-4.75,2.73-6.15.35-.47.29-.53.65-.61-.04.52-1,1.98-1.31,2.5-.71,1.19-1.32,2.51-1.72,3.85-.06.21-.09.23-.14.42h-.21Zm-34.02-5.57c.09-.4.75-1.25,1.04-1.71l2.18-3.31c.2-.3.38-.55.58-.83.28-.38.37-.55.71-.63-.03.4-.73,1.41-.97,1.78l-1.09,1.66c-.36.58-1.52,2.29-2.01,2.85-.13.14-.2.18-.44.2h0Zm25.45,8.13c-.12-.1-.09.09-.09-.16l.09.16h0Zm.07-.23c-.11-.09-.14-.02-.02-.14l.02.14h0Zm-12.35,45.67c0-1.07,1.66-4.08,2.3-5.24.16-.29.3-.51.47-.79.22-.37.31-.52.61-.59,0,.55-.5,1.21-.78,1.76l-1.71,3.36c-.27.53-.61,1.56-.82,1.72-.09-.19-.07.06-.07-.21h0Zm30.01-25.37c.33-.09.22-.2.45-.82.53-1.38,2.13-4,2.99-5.4.15-.24.15-.18.15-.55-.54.14-1.92,2.58-2.18,3.03-.3.53-1.74,3.04-1.41,3.73h0Zm-28.25-18.04c0-.27.59-1.61.73-1.88.56-1.12,1.69-3.78,2.28-4.76.11-.18.11-.24.37-.26,0,.4-.16.73-.31,1.03l-2.47,5.28c-.17.35-.16.63-.54.73-.07-.13-.07-.01-.07-.14h0Zm18.95,20.65c0,.9-1.35,3.11-1.77,3.8-.11.18-1.94,3.43-2.11,3.26-.25-.25,1.57-3.25,1.8-3.64.19-.32.35-.58.53-.88.35-.58,1.11-2.25,1.55-2.54h0Zm-20.43,8.6c0,.65-.02.38.07.56.27-.2.36-1.17.68-2,.37-.95,1.32-2.58,1.86-3.5.3-.51.77-1.27.77-1.91-.41.27-1.65,2.52-1.98,3.1-.48.83-1.4,2.49-1.4,3.74h0Zm17.4-46.73c.42-.11.97-1.29,1.17-1.64.37-.61.69-1.15,1.06-1.76.19-.32.34-.57.53-.88.24-.4,1.59-2.58,1.41-2.77-.19-.19-1.06,1.32-1.18,1.51l-2.11,3.52c-.1.17-.16.3-.24.47-.24.45-.63,1.02-.63,1.55h0Zm-18.81,46.09c-.29-.6,2.2-5.15,2.77-6.18.3-.53.44-1.11.89-1.15-.04.51-.59,1.47-.82,1.93l-2.32,4.58c-.35.7-.2.74-.52.82h0Zm1.48-29.04c0-.46.49-1.52.68-2l1.44-3.92c.21-.54.52-1.66.92-1.76,0,.76-.97,3.23-1.28,4.08-.23.65-.45,1.29-.74,1.94-.19.42-.58,1.55-1.01,1.67h0Zm-.07,32.42c0,.13,0,0,.07.14.16-.06.1-.02.19-.16l.7-1.84c.69-1.49,1.64-3.29,2.53-4.66.12-.18.16-.25.27-.43.15-.25.18-.22.18-.6-1.06.56-3.94,6.04-3.94,7.54h0Zm25.57-27.07l3.3-5.3c.2-.32.83-1.51,1.21-1.61.17.35-.71,1.62-.92,1.97-.19.32-.38.62-.58.97l-1.73,2.78c-.21.32-.38.6-.58.9-.36.54-.33.61-.55.55-.16-.04-.16,0-.16-.27h0Zm-6.97-18.33c.02-.7,2.17-4.21,2.71-5.12.21-.35.35-.63.56-.99.21-.35,1-1.98,1.18-1.8.34.34-3.09,6.05-3.73,7.07-.23.37-.42.75-.72.83h0Zm-16.2,45.81c.16-.06.1-.03.19-.16.11-.16.43-1.84,1.72-3.98.39-.64.75-1.26,1.12-1.91.26-.45.91-1.55.91-2.19-.31.08-.92,1.36-1.2,1.83-1.16,1.94-2.74,4.07-2.74,6.42h0Zm.92-48.14c0-.6.74-1.66,1.03-2.21.21-.38.39-.66.6-1.02l2.1-3.47c.4-.6.64-1.23,1.06-1.27,0,.47-.81,1.71-1.08,2.16l-1.2,1.97c-.21.36-.41.68-.61,1.01-.2.33-.39.62-.59.96-.21.36-.41.65-.63,1-.16.25-.37.77-.69.86h0Zm-.56,48.14c.01-.58,1.79-3.65,2.16-4.32.2-.36.39-.67.6-1.02.22-.36.38-.66.61-1.01.35-.55.86-1.56,1.35-1.89-.01.47-.27.83-.46,1.16-.22.37-.37.69-.58,1.04-.42.69-.75,1.36-1.17,2.07-.49.83-1.54,2.8-2.1,3.61-.13.18-.17.31-.4.37h0Zm17.26-39.89c0-1.51,2.85-5.64,3.75-6.96.27-.4.42-.69.76-.72-.01.53-1.35,2.37-1.69,2.96l-2.47,4.36c-.14.24-.09.29-.34.36h0Zm4.23,2.33c-.03.37-.81,1.69-1.06,2.18l-1.6,3.2c-.19.39-.35.63-.54,1.01-.14.28-.97,2.08-1.25,1.8-.16-.16.81-1.91.94-2.17.37-.73.69-1.38,1.06-2.11.19-.38.35-.72.54-1.08.1-.19.19-.3.28-.49.24-.48,1.06-2.28,1.62-2.33h0Zm.77,45.81c-.07-.82.18-1.76.41-2.55.23-.78.45-1.61.74-2.36.3-.78.53-1.5.84-2.26.16-.4.28-.7.45-1.1.15-.36.29-.7.58-.9.05.25.03.3-.06.57-.65,2.03-1.54,4.06-2.18,6.35-.12.43-.23.76-.34,1.21-.16.65-.14.95-.45,1.03h0ZM30.43,28.19c.02-.87,4.45-8.36,5.35-8.6-.14.62-2.12,3.47-2.64,4.34-.34.57-2.22,3.93-2.72,4.26h0Zm12.89-.63c0-.48.29-.85.47-1.22.72-1.45,2.93-4.89,3.8-6.21.31-.47.45-.79.8-.82-.01.45-.34.82-.54,1.15l-3.79,6.22c-.39.65-.38.85-.74.88h0Zm-31.06,16.28c.05.2.04.04,0,.21,0,.02-.06.13-.09.19-.25.49-.93,2.01-1.49,2.04-.31.02-.04-.35.23-.91l.86-1.58c.06-.29.42-.81.56-1.08l2.79-5.31c.27-.52.88-1.84,1.29-1.95,0,.51-.25.85-.42,1.2-.17.35-.33.66-.52,1.03-.36.72-.69,1.32-1.06,2.04l-1.97,3.88c-.1.17-.04.12-.19.23h0Zm7.82-2.47c0-1.1.63-2.79.95-3.92.12-.43.27-.79.38-1.17.23-.84.53-1.63.8-2.44.13-.39.28-.83.4-1.22.18-.55.24-.89.57-.98,0,.71-.42,1.94-.64,2.6l-2.11,6.7c-.09.28-.05.35-.35.43h0Zm-1.41-2.04c.18-.07.15-.03.35-.49l3.09-7.9c.18-.44.43-.75.43-1.33-.43.11-1.09,1.76-1.25,2.14-.52,1.21-2.97,6.88-2.63,7.59h0Zm33.46,46.38c.34-.09.37-.63.51-1.18l2.18-7.96c.14-.49.34-.78.34-1.43-.36.1-.42.52-.64,1.06-.38.94-.94,2.89-1.2,3.88-.23.88-.48,1.77-.71,2.68-.22.89-.49,1.86-.49,2.96h0ZM16.06,40.8c.53-.35,2.29-5.47,2.63-6.53.16-.49.31-.87.48-1.36.15-.45.3-.89.46-1.37.11-.33.38-1.13.38-1.46,0-.27.02-.02-.07-.21-.33.09-.44.72-.61,1.22l-2.94,8.26c-.13.37-.5,1.07-.33,1.44h0Zm36.98,45.18c0-.76.58-2.75.82-3.55l.99-3.38c.49-1.72,1.06-3.25,1.66-4.9.14-.38.41-1.21.7-1.42,0,.64-.26,1.24-.43,1.75-.79,2.37-1.88,5.86-2.54,8.24l-1.18,3.26h0Zm-16.62-33.55l.02.02s-.03-.01-.02-.02h0Zm.14-.21l-.04.15.04-.15Zm0,0c.03-.35.42-1.29.55-1.78l.15-.48c.07-.15.02-.06.08-.14,0,.35-.07.17,0,.49l.02.12c0,.26-.69,1.68-.79,1.79h0Zm.78-2.54c0-.18.11-.01.04,0,0,0-.04.2-.04,0h0Zm.07-.28l.02.02s-.03-.01-.02-.02h0Zm.7-.42c0-.18.11-.01.04,0,0,0-.04.2-.04,0h0Zm.63,0l.04-.15-.04.15h0Zm-.56-.21c0-.18.11-.01.04,0,0,0-.04.2-.04,0h0Zm.21-.14h-.07.07Zm-.07,0l-.08-.14.08.14h0Zm.05-.59l.09.02-.06.08-.03-.11h0Zm-2.04,5.66l.12-.18c.05-.08.08-.17.12-.24.21-.45.47-1.16.73-1.52.08-.11.08-.09.13-.22l.61-1.45c.06-.05.03.03.12-.14.08-.14.06-.11.07-.26.01-.01.03-.05.04-.04.03.06.28-.52.48-.66l-.07.56c-.07.08-.07-.12-.07.21-.13.2.05.11-.04.38-.07.21-.14.11-.25.38l-.34.86c-.24.54-.51,1.06-.75,1.65-.16.4-1.2,3.05-1.38,3.21l-.13.08c.02-.25.1-.33.13-.51.04-.22.01-.31-.07-.46-.09-.17-.07-.12.08-.44.11-.25.45-.98.47-1.2h0Zm2.35-4.16c.1,0,.07-.02.07.09l-.07.05v-.15h0Zm.31-.63c-.15-.07-.12-.02.05-.07l-.05.07h0Zm9.06,7.12c-.34-.74,2-4.98,2.54-6.12.33-.7.15-.38.67-1.1l2.48-3.37c.25-.33.74-1.14,1.15-1.18,0,.44-.17.54-.37.83-.3.45-3.11,4.34-3.46,4.65-.29.26-.19.05-.27.37l-2.46,5.65c-.12.24-.03.21-.29.28h0Zm-37.33-13.82c0-.8.27-1.32.5-1.89.2-.49.47-1.1.74-1.58,1.22-2.17,2.13-3.77,3.54-5.9l.97-1.42c.18-.26.31-.46.5-.7.21-.27.26-.39.57-.55,0,.38-.2.6-.35.85l-1.38,2.14c-1.01,1.65-2.72,4.29-3.53,5.91-.27.54-.56,1.07-.8,1.6l-.49,1.27c-.09.21-.05.22-.28.28h0Zm46.49,43.21c.28-.08.12-.06.3-.18.2-.13.16-.02.25-.18.21-.38,1.46-5.28,1.64-6.04.28-1.14,1.68-6.08,1.68-7.13h-.21l-3.66,13.53h0Zm-2.68,1.76c0-1.06.53-2.88.76-3.96.26-1.24,2.4-10.1,3.4-10.77,0,.54-.87,2.91-1.08,3.64-.75,2.53-1.33,4.94-1.96,7.48-.22.87-.47,1.98-.75,2.84-.1.3-.14.6-.36.77h0Zm1.48-2.04c0-.39.91-2.97,1.1-3.55.62-1.84,1.52-5.22,2.08-7.22.14-.5.81-3.1,1.25-3.4,0,.75-.21,1.31-.39,1.93-.85,2.97-1.62,6.12-2.59,9.03-.17.51-.87,3.04-1.45,3.2h0ZM10.42,38.41c.3-1.31,1.12-2.64,1.71-3.85.83-1.69,2.22-3.43,3.37-4.88l1.88-2.27c.21-.26.38-.48.59-.74l.95-1.16c.13-.16.16-.21.36-.27-.21.91-3.78,5.09-4.72,6.34-2.19,2.92-2.36,3.96-3.84,6.52-.15.26-.05.25-.31.32h0Zm-.56,7.4c.04-.5.61-1.29.91-1.9.31-.62.62-1.16.94-1.81l1.43-2.72c.84-1.7,2.45-4.64,3.48-6.18.32-.48.74-1.24,1.2-1.55-.04.44-1.64,3.06-1.95,3.62l-3.84,7.22c-.18.29-.33.6-.5.91l-1.01,1.74c-.18.28-.33.59-.66.68h0Zm-.56-3.24c.01-.51,1.28-2.93,1.62-3.52,2.38-4.11,3.1-5.08,5.91-9.31l2.37-3.55c.16-.22.17-.33.44-.4-.11.23-.15.41-.29.63l-1.59,2.64c-.24.36-.43.69-.66,1.03l-2.69,4.07c-.92,1.38-1.74,2.73-2.61,4.16-.39.65-2.23,4.03-2.52,4.24h0Zm31.56-4.37c0-.18.11-.01.04,0,0,0-.04.2-.04,0h0Zm-.56-.56l.04-.15-.04.15h0Zm.07-.28l.02.02s-.03-.01-.02-.02h0Zm.07-.14l.02.02s-.03-.01-.02-.02h0Zm.07-.21l.02.02s-.03-.01-.02-.02h0Zm.42-.77h0Zm21.69,37.21c0-.36,0-.12.07-.21,0,.37,0,.11-.07.21Zm0,0l-3.54,11.75c-.12.29.03.14-.19.23-.32-.68,1.57-6.45,1.83-7.4l2.11-6.7c.09-.2.06-.22.29-.28v.02c0,.44-.04.64-.13.97-.42,1.47-.26.8-.12,1.22.06.16.04.35.04.53-.05,5.03-1.58,6.66-2.27,10.85-.05.3-.06.63-.27.78-.56-1.17,1.52-6.6,1.88-8.76.13-.8.37-2.42.37-3.22h0Zm-30.05-13.84l.49.08h-.49v-.08h0Zm16.46,13.63c0-.37.17-.77.3-1.04.08-.17.33-.91.57-.55.13.21-.18.8-.26,1-.15.33-.2.62-.47.8-.04-.07-.14-.17-.14-.21h0Zm2.75-28.05h0Zm-13.74,34.68c.34-.03.4-.34.68-.94.12-.26.5-1.03.27-1.14-.14-.07-.18-.07-.39.32-.22.4-.75,1.37-.57,1.76h0Zm7.61-19.1c.32-.03.33-.19.42-.42.09-.22.17-.42.26-.65.13-.34.47-.98.3-1.32-.6.16-.99,1.9-.99,2.4h0Zm-21.13-24.46c0-.22.35-1.04.43-1.33.14-.47.24-1.1.48-1.28.3.2.2.35.12.76-.09.49-.45,1.85-.97,1.99-.07-.13-.07-.01-.07-.14h0Zm0,43.28c.35-.03.5-.56.8-1.17.2-.41.54-1.09.54-1.51-.48.01-.46.28-.89,1.15-.16.32-.59,1.22-.45,1.53h0Zm3.52,6.63l.02.02s-.03-.01-.02-.02h0Zm.14-.14h0Zm-4.65-3.17c0,.61.37.43.58.23.2-.18.45-.33.47-.66-.25.06-.36.17-.56.28.08-.34.46-.99.63-1.27.24-.4.47-.81.7-1.2l1.08-1.81c.15-.25.26-.33.26-.73-.42.03-.58.48-.97,1.07-.47.7-2.2,3.51-2.2,4.07h0Zm15.5-25.37c0-.36,0-.12.07-.21,0,.37,0,.11-.07.21h0Zm.07-.35c0-.18.11-.01.04,0,0,0-.04.2-.04,0h0Zm3.95-9.09h0Zm-1.06-2.82s.13-.13.14-.14c-.05.58-1.46,6.23-1.64,6.61,0,.01-.02.03-.02.04,0,.01-.02.03-.03.04l.73-3.14c.14-.55.24-1.05.37-1.61.11-.49.21-1.23.38-1.59.07-.08.07.12.07-.21h0Zm-1.55,6.55s0,.12,0,.14c-.04.13-.02.08-.07.15,0-.04,0-.12,0-.14.04-.13.02-.07.07-.15h0Zm-.07.28s0,.12,0,.14c-.04.13-.02.08-.07.15,0-.04,0-.12,0-.14.04-.13.02-.08.07-.15h0Zm-.07.28c0,.47-.52,2.08-.69,2.69-.07.24-.17.71-.3.9,0-.33.58-2.19.7-2.68l.2-.78c.04-.1.04-.08.08-.14h0Zm-.99,3.6c0,.14,0,.12-.03.25,0,.02-.03.09-.04.11-.04.1-.04.08-.08.13,0-.12,0-.12.02-.24,0-.02.03-.09.04-.11.1-.24,0,0,.08-.14h0Zm-.14.49c0,.33,0,.13-.07.21,0-.33,0-.13.07-.21h0Zm-.07.21s0,.11,0,.14c-.04.13-.02.07-.07.15,0-.04,0-.12,0-.14.04-.13.02-.08.07-.15h0Zm-.07.28c0,.33,0,.13-.07.21,0-.33,0-.13.07-.21h0Zm-.07.21s0,.12,0,.14c-.04.13-.02.08-.07.14,0-.04,0-.11,0-.14.04-.13.02-.08.07-.15h0Zm-.07.28c-.07.08-.07-.12-.07.21.07-.08.07.12.07-.21h0Zm-16.76-5.71l-.07.14.07-.14Zm0,0l.04-.15-.04.15h0Zm.07-.28c.11-.11.06.06.05.05,0,0-.17.07-.05-.05h0Zm.07-.14l.04.02s-.06-.01-.04-.02h0Zm.92-1.83c.13-.13-.13.13,0,0h0Zm.07-.14c.12-.13-.13.12,0,0h0Zm.07-.14c.13-.13-.13.13,0,0h0Zm-.84-.07c0-.26-.02-.08.07-.07,0,.17.02,0-.07.07h0Zm.07-.28c.11-.11.06.06.05.05,0,0-.17.07-.05-.05h0Zm.07-.14c.11-.11.06.06.05.05,0,0-.17.07-.05-.05h0Zm1.13-1.55h0Zm1.62-.99l.04-.15-.04.15h0Zm12.54,12.19c.09-.24.24,0,.06,0,0,0-.13.18-.06,0h0Zm-.7,0c0-.18.11-.02.04,0,0,0-.04.2-.04,0h0Zm-1.41-.14l.02.02s-.03-.01-.02-.02h0Zm2.54,0v-.21h.07c0,.37,0,.1-.07.21h0Zm-.28-.07s0,.01,0,.02h0s0,.12,0-.02h0Zm-2.18-.14l.02.02s-.03-.01-.02-.02h0Zm2.25,0c.13-.13-.13.12,0,0h0Zm-2.89-.07c0-.26-.03-.07.14-.14l-.14.14h0Zm.7-.14l.02.02s-.03-.01-.02-.02h0Zm-.56-.14s0,.01,0,.02h0s0,.12,0-.02h0Zm.63-.07c0-.18.11-.02.04,0,0,0-.04.2-.04,0h0Zm.07-.21c0-.17.11-.02.04,0,0,0-.04.2-.04,0h0Zm.14-.35v.21s-.03-.05-.03-.04c0,0-.06-.01.03-.17h0Zm.07-.21c0,.33,0,.13-.07.21,0-.33,0-.13.07-.21h0Zm-.56-.49v.07l-.08-.06h.08Zm2.96-.92c.11-.11.06.06.05.05,0,0-.16.07-.05-.05h0Zm-2.39,1.41c0-.28.3-1.04.42-1.34l.12-.3c.05-.09.05-.07.09-.12l-.5,1.54c-.07.18-.03.11-.14.22h0Zm.63-1.76c.01-.11-.02-.07.03-.19.09-.23.05-.1.11-.17,0,.11.02.07-.03.19-.09.23-.05.1-.12.17h0Zm.21-.56c0,.33,0,.13-.07.21,0-.33,0-.13.07-.21h0Zm.07-.14l-.07.14.07-.14Zm0,0l.04-.15c.03.4.08.04-.04.15h0Zm.92-.14l.02.02s-.03-.01-.02-.02h0Zm.14-.21l-.04.15.04-.15h0Zm-.99.07c-.05-.2.15.01.06.01,0,0,0,0,0,0-.13-.02,0,.15-.05-.01h0Zm.07-.21c.11-.11.06.06.05.05,0,0-.17.07-.05-.05h0Zm.92.14c.01-.18-.02-.08.04-.24.1-.3.02-.06.1-.18l.04.29c-.14.1-.02-.02-.18.14h0Zm-.85-.28c.11-.11.06.06.05.05,0,0-.16.07-.05-.05h0Zm1.06-.35c0,.33,0,.13-.07.21,0-.33,0-.13.07-.21h0Zm-.99.14c.11-.11.06.06.05.05,0,0-.16.07-.05-.05h0Zm.07-.14c.11-.11.06.06.05.05,0,0-.16.07-.05-.05h0Zm.92,0l.05-.22c.02.38.02.11-.05.22h0Zm.07-.35c.04-.18.14,0,.05,0,0,0-.09.18-.05,0h0Zm.07-.21c.04-.18.14,0,.05,0,0,0-.09.18-.05,0h0Zm.14-.35c0,.37,0,.11-.07.21l.07-.21h0Zm0-.14c0-.18.11-.02.04,0,0,0-.04.2-.04,0h0Zm-.71-.07c.11-.11.07.06.05.05,0,0-.17.07-.05-.05h0Zm.77-.14c0-.18.11-.02.04,0,0,0-.04.2-.04,0h0Zm-.7,0l.02.02s-.03-.01-.02-.02h0Zm.07-.14l.02.02s-.03-.01-.02-.02h0Zm.7-.21h.07v.21h-.07v-.21h0Zm-.63.07l.02.02s-.03-.01-.02-.02h0Zm.07-.14c0-.18.11-.02.04,0,0,0-.04.2-.04,0h0Zm.7-.21v.21h-.07c0-.37,0-.11.07-.21h0Zm-.63,0l.02.02s-.03-.01-.02-.02h0Zm.7-.21c0,.34,0,.13-.07.21,0-.34,0-.13.07-.21Zm0,0c.04-.14.01-.11.07-.21,0,.37,0,.1-.07.21h0Zm.07-.28c.05-.3.1-.12.05-.06h0s-.05.09-.04.06h0Zm.07-.21c.05-.3.1-.12.05-.06,0,0,0,0,0,0,0,0-.05.08-.05.05h0Zm.07-.21c.04-.3.11-.11.05-.05h0s-.05.07-.04.05h0Zm.14-.35h0Zm.07-.21v.03s0-.04,0-.03h0Zm-.91-.21l.08.14-.08-.14h0Zm1.34-1.06c-.13.13.13-.13,0,0h0Zm.07-.21c-.13.13.12-.13,0,0h0Zm.07-.35v.21h-.07c0-.37,0-.11.07-.21h0Zm.07-.21c0,.33,0,.13-.07.21,0-.34,0-.13.07-.21h0Zm.07-.21c0,.34,0,.13-.07.21,0-.34,0-.13.07-.21h0Zm-.21-1.13l.02.02s-.03-.01-.02-.02h0Zm.14-.28v.21h-.07c0-.37,0-.11.07-.21h0Zm1.76-.85l-.08-.14.08.14h0Zm-3.17,9.87c.04-.46.33-.98.28-1.4-.07-.53.03-.53.28-1.28.28-.85.57-1.73.85-2.61.16-.5.23-.84.39-1.3.14-.43.29-.88.4-1.29.23-.91.33-1.11.62-1.91l.29-.63c-.01.62-.94,3.28-1.15,3.92-.34,1.02-.92,2.46-1.1,3.55l-.38,1.74c-.07.3-.22,1.01-.46,1.23h0Zm3.1-10.57l.02.02s-.03-.01-.02-.02h0Zm0-.85v.07l-.08-.06h.08Zm-1.62,3.81c.01-.61.93-2.96,1.19-3.67.08-.22.14-.38.23-.62l.27-.57c0,.44-1.25,3.87-1.55,4.58,0,.01-.06.15-.06.15-.07.14-.03.07-.08.13h0Zm1.76-5.07c0,.33,0,.13-.07.21,0-.33,0-.13.07-.21h0Zm-.28-.56l.02.02s-.03-.01-.02-.02h0Zm.14-.28l-.04.15.04-.15h0Zm-13.1,17.69v.28h-.07s0-.1,0-.12c.03-.12.05-.12.07-.16h0Zm.49.07l.02.02s-.03-.01-.02-.02h0Zm.14-.21l-.04.15.04-.15h0Zm-3.52-1.69c.11-.11.06.06.05.05,0,0-.16.07-.05-.05h0Zm1.83-.14l.02.02s-.03-.01-.02-.02h0Zm.14-.21l-.04.15.04-.15h0Zm-1.27-.21l-.04.15.04-.15h0Zm2.04-.42c.11-.11.06.06.05.05,0,0-.17.07-.05-.05h0Zm-3.73,0l.04-.15-.04.15h0Zm8.59-.85v-.21c.26.39.03.18,0,.21h0Zm-5.35-.14l.02.02s-.03-.01-.02-.02h0Zm-2.32-.07l-.07.14.07-.14h0Zm2.47-.21c0,.36,0,.12-.07.21,0-.37,0-.1.07-.21h0Zm-2.47.21l.04-.15-.04.15h0Zm3.59,3.74c.03-.31,1.25-3.89,1.41-4.09,0,.38-.78,2.99-.9,3.19l-.28.55s-.02.03-.02.05l-.2.3h0Zm1.48-4.3c0,.33,0,.13-.07.21,0-.34,0-.13.07-.21h0Zm-4.3,2.04c0-.59.62-1.91.93-2.39l.06-.08c-.02.3-.29.92-.41,1.28-.09.27-.37.95-.57,1.19h0Zm1.06-2.61l-.07.14.07-.14Zm0,0h0Zm-1.62-.07l.02.02s-.03-.01-.02-.02h0Zm5.07-.14c0-.18.11-.01.04,0,0,0-.04.2-.04,0h0Zm-5,0l.02.02s-.03-.01-.02-.02h0Zm.07-.14l.02.02s-.03-.01-.02-.02h0Zm5-.07c0-.18.11-.01.04,0,0,0-.04.2-.04,0h0Zm-4.93-.07c0-.18.11-.01.04,0,0,0-.04.2-.04,0h0Zm5-.14c0-.18.11-.01.04,0,0,0-.04.2-.04,0h0Zm-6.13-.07l-.07.14.07-.14h0Zm1.2,0l.02.02s-.03-.01-.02-.02h0Zm-1.13-.14l-.07.14.07-.14h0Zm6.13,0c.03-.23.13.02.05.01,0,0,0,0,0,0-.02,0-.06.14-.04-.01h0Zm-4.93,0l.02.02s-.03-.01-.02-.02h0Zm-1.2,0l.04-.15-.04.15h0Zm1.27-.14l.02.02s-.03-.01-.02-.02h0Zm4.93-.07c.04-.19.14,0,.05,0,0,0-.09.18-.05,0h0Zm-4.86-.07c0-.18.11-.01.04,0,0,0-.04.2-.04,0h0Zm-1.27,0l.02.02s-.03-.01-.02-.02h0Zm.14-.21l-.04.15.04-.15h0Zm6.13.07c.13-.13-.13.13,0,0h0Zm-3.66,4.09c.02-.24.08-.31.17-.53l1.28-3.3c.09-.25.08-.35.24-.54,0,.31-.22,1.03-.3,1.38l-.11.47c-.19.78-.13.46-.46,1.02l-.82,1.5h0Zm-1.27-4.16l.02.02s-.03-.01-.02-.02h0Zm-1.2,0l.04-.15-.04.15h0Zm6.76-.21c.13.28.06.05-.07.14l.07-.14h0Zm-5.49.07l.02.02s-.03-.01-.02-.02h0Zm2.89-.07c0-.36,0-.12.07-.21,0,.37,0,.1-.07.21h0Zm-2.82-.07l.02.02s-.03-.01-.02-.02h0Zm-1.27,0l.02.02s-.03-.01-.02-.02h0Zm3.31,6.63c0-.35.09-.57.16-.9.06-.29.14-.57.21-.92.05-.26.15-.56.22-.91.07-.3.11-.73.17-.96l1.32-3.12s.02-.03.03-.04c-.02.33-1.81,5.87-1.96,6.43l-.16.41h0Zm-1.97-6.77c0-.18.11-.01.04,0,0,0-.04.2-.04,0h0Zm-1.27,0l.02.02s-.03-.01-.02-.02h0Zm9.65-.07l.02.02s-.03-.01-.02-.02h0Zm-4.3,0l.04-.15-.04.15h0Zm-1.27-.07l.02.02s-.03-.01-.02-.02h0Zm-4.01,0l.02.02s-.03-.01-.02-.02h0Zm9.72-.14l-.04.15.04-.15h0Zm-2.39.07l.02.02s-.03-.01-.02-.02h0Zm-6.06,0l.02.02s-.03-.01-.02-.02h0Zm8.52-.28c0,.34,0,.13-.07.21,0-.34,0-.13.07-.21h0Zm-1.41.14l.02.02s-.03-.01-.02-.02h0Zm-3.03,0l.02.02s-.03-.01-.02-.02h0Zm-4.01,0l.02.02s-.03-.01-.02-.02h0Zm-1.27,0l.02.02s-.03-.01-.02-.02h0Zm7.4-.14l-.04.15.04-.15h0Zm-6.06,0l.02.02s-.03-.01-.02-.02h0Zm-1.27,0l.02.02s-.03-.01-.02-.02h0Zm5.28-.07l.02.02s-.03-.01-.02-.02h0Zm-3.94-.07c0-.18.11-.01.04,0,0,0-.04.2-.04,0h0Zm.07-.21l.02.02s-.03-.01-.02-.02h0Zm.07-.14l.02.02s-.03-.01-.02-.02h0Zm.07-.14c0-.18.11-.01.04,0,0,0-.04.2-.04,0h0Zm-1.27,0l.02.02s-.03-.01-.02-.02h0Zm1.34-.21l.02.02s-.03-.01-.02-.02h0Zm.07-.14l.02.02s-.03-.01-.02-.02h0Zm1.97,0c-.13.13.13-.13,0,0h0Zm-1.9-.14c0-.18.11-.01.04,0,0,0-.04.2-.04,0h0Zm-1.27,0l.02.02s-.03-.01-.02-.02h0Zm3.24,0c-.13.13.12-.13,0,0h0Zm-3.17-.14l.02.02s-.03-.01-.02-.02h0Zm3.24-.14l-.04.15.04-.15h0Zm-1.97.07l.02.02s-.03-.01-.02-.02h0Zm-1.2-.07l.02.02s-.03-.01-.02-.02h0Zm1.27-.07l.02.02s-.03-.01-.02-.02h0Zm.07-.14c0-.18.11-.01.04,0,0,0-.04.2-.04,0h0Zm-1.27,0l.02.02s-.03-.01-.02-.02h0Zm.07-.14l.02.02s-.03-.01-.02-.02h0Zm3.66,0l.04-.15-.04.15h0Zm-2.39-.07l.02.02s-.03-.01-.02-.02h0Zm-1.2-.07l.02.02s-.03-.01-.02-.02h0Zm1.27-.07l.02.02s-.03-.01-.02-.02h0Zm-1.2-.07c0-.18.11-.01.04,0,0,0-.04.2-.04,0h0Zm1.27-.14l.02.02s-.03-.01-.02-.02h0Zm-1.2-.07l.02.02s-.03-.01-.02-.02h0Zm1.27-.07l.02.02s-.03-.01-.02-.02h0Zm-.56-.14l-.07.14.07-.14h0Zm-.63.07l.02.02s-.03-.01-.02-.02h0Zm5.35,3.1c0-.34.73-2.8.94-3.15l.12-.16-.69,2.55c-.11.18-.1.15-.19.38l-.18.38h0Zm-4.65-3.31l-.07.14.07-.14h0Zm-.63.07c0-.18.11-.01.04,0,0,0-.04.2-.04,0h0Zm8.45-.07c.12-.12-.13.13,0,0h0Zm-2.11,0c0-.12-.02-.07.14-.07l-.14.07h0Zm-5.07-.07c.11-.11.06.06.05.05,0,0-.16.07-.05-.05h0Zm-.56-.07l-.07.14.07-.14h0Zm-.63,0l.02.02s-.03-.01-.02-.02h0Zm.63,0l.04-.15-.04.15h0Zm-.56-.14l.02.02s-.03-.01-.02-.02h0Zm1.27-.14c.11-.11.06.06.05.05,0,0-.17.07-.05-.05h0Zm-.56-.07l-.04.15.04-.15h0Zm-.56,0l-.04.15.04-.15h0Zm.63-.14l-.07.14.07-.14h0Zm-.63.14l.04-.15-.04.15h0Zm.7-.28l-.07.14.07-.14h0Zm-.56-.07l-.04.15.04-.15h0Zm.56.07l.04-.15-.04.15h0Zm3.1-.14l.02.02s-.03-.01-.02-.02h0Zm-3.66.07l.04-.15-.04.15h0Zm.63-.21l.02.02s-.03-.01-.02-.02h0Zm-.49-.14l-.04.15.04-.15h0Zm4.02-.21c0,.28-.08.47-.14.71-.14.7-.44,1.66-.29,2.32.22-.15.17-.09.26-.37l.45-1.74c0,.55.18.35-.05.87-.2.44-.01.17-.03.53l-.12.3c-.71,1.05-.9,1.5-1.44,2.66l-.21.42s-.04.07-.05.09l.27-1.42c.26-1.24.58-2.5,1.04-3.68l.31-.68h0Zm-3.45.21l.02.02s-.03-.01-.02-.02h0Zm-.49-.14l-.07.14.07-.14Zm0,0l.04-.15-.04.15h0Zm3.94-.07c0-.36,0-.12.07-.21,0,.37,0,.1-.07.21h0Zm-2.18-.21l.02.02s-.03-.01-.02-.02h0Zm-1.69,0l.02.02s-.03-.01-.02-.02h0Zm3.8-.14l-.04.15.04-.15h0Zm-1.48.14h0Zm6.62-.07l.04-.15-.04.15h0Zm-8.88-.07l.02.02s-.03-.01-.02-.02h0Zm5.99-.28l-.04.15.04-.15h0Zm2.61-.21l.02.02s-.03-.01-.02-.02h0Zm.56-.21c0,.36,0,.12-.07.21,0-.37,0-.11.07-.21h0Zm-.42,0v.14c-.06-.06-.13.13,0-.14h0Zm-4.01-.7l.02.02s-.03-.01-.02-.02h0Zm.07-.21c0-.18.11-.01.04,0,0,0-.04.2-.04,0h0Zm1.2-.35l-.28,1.06c.03-.41.25-.65.28-1.06h0Zm-1.13.14c0-.18.11-.01.04,0,0,0-.04.2-.04,0h0Zm1.2-.35c0,.33,0,.13-.07.21,0-.34,0-.13.07-.21h0Zm-1.13.07c0-.18.11-.01.04,0,0,0-.04.2-.04,0h0Zm1.13-.07l.04-.15-.04.15h0Zm-.99-.28c0,.36,0,.12-.07.21,0-.37,0-.11.07-.21h0Zm1.06,0c0-.18.11-.01.04,0,0,0-.04.2-.04,0h0Zm-.56,0l.02.02s-.03-.01-.02-.02h0Zm-.42-.21c0,.34,0,.13-.07.21,0-.34,0-.13.07-.21h0Zm1.06,0c0-.18.11-.01.04,0,0,0-.04.2-.04,0h0Zm-.56,0l.02.02s-.03-.01-.02-.02h0Zm.07-.14c0-.18.11-.01.04,0,0,0-.04.2-.04,0h0Zm.56-.07l.02.02s-.03-.01-.02-.02h0Zm-.42-.21l-.04.15.04-.15h0Zm.49,0l.02.02s-.03-.01-.02-.02h0Zm-.42-.21c0,.34,0,.13-.07.21,0-.33,0-.13.07-.21h0Zm2.89-5.92l.02.02s-.03-.01-.02-.02h0Zm-2.82,8.95c.02-.3.68-2.2.78-2.53.16-.48,1.5-4.6,1.72-4.97l.61-1.08c.47-.74.29-.69.69-.86-.1.42-.28.8-.43,1.19-.15.38-.32.84-.47,1.22l-2.81,6.92c-.09.14-.03.05-.09.12h0Zm3.8-9.44"/>
    </g>
    <g>
      <g>
        <path class="cls-2" d="m79.35,55.87s.06-.03.09-.06c.21-.14.33-.36.35-.59.24-.77.23-2.14.22-3.93-.02-3.51-.06-8.92.83-13.84,1.22-1.14,5.28-3.89,14.41-1.27,6.21,1.79,12.34,4.91,16.88,9.45,3.63,3.63,6.23,8.16,7.04,13.63-1.71,7.44-6.21,14.03-9.4,18.69-.82,1.19-1.55,2.27-2.13,3.2-3,4.81-3.8,7.27-3.99,8.39-13.01-1.18-27.18-6.57-30.25-7.78-.03-1.27-.39-6.87-4.29-14.92-1.98-4.08-2.85-7.25-2.92-9.61-.07-2.48.77-4,2.12-4.71,1.44-.75,3.44-.88,5.39-.29,1.74.53,3.42,1.62,4.6,3.36.23.34.68.46,1.04.27h0Zm15.58,22.91s12.1-2.24,14.96-12.31c.53-1.85.56-3.27.26-4.34-.36-1.26-1.17-2.04-2.22-2.48-.99-.41-2.18-.5-3.39-.4-1.99.16-4.05.85-5.24,1.42-.48-2.45-2.35-9.94-7.31-10.59-.78-.1-1.52.07-2.18.48-1.25.76-2.25,2.36-2.83,4.5-.57,2.07-.76,4.67-.4,7.53.63,5.03,2.95,10.87,7.85,16.03.13.14.32.19.5.16h0Zm13.9-12.6c.47-1.64.51-2.86.26-3.74-.25-.9-.83-1.45-1.58-1.76-.81-.33-1.83-.4-2.88-.32-2.3.19-4.67,1.1-5.42,1.62-.25.17-.59.11-.76-.14-.05-.07-.08-.15-.09-.23,0-.03-1.4-9.76-6.5-10.44-.52-.07-1.02.05-1.47.33-1.01.62-1.84,1.98-2.35,3.85-.53,1.94-.7,4.39-.36,7.1.59,4.76,2.77,10.28,7.35,15.18,1.8-.4,11.4-2.94,13.82-11.47h0Zm-27.66-30.34c2.13-1.37,6.55-2.96,14.38-.71,6.37,1.83,12.67,5.05,17.35,9.73,3.16,3.16,5.58,6.98,6.78,11.48.47-3.84.09-7.86-1.64-11.93-1.81-4.25-4.8-7.9-8.31-10.8-3.81-3.15-8.21-5.4-12.37-6.57-4.09-1.15-7.9-1.24-10.61-.08-1,.43-1.85,1.03-2.5,1.81-1.49,1.8-2.46,4.31-3.1,7.07h0Zm22.59,54.82c-13.28-1.16-27.77-6.69-30.81-7.9-.11.06-.23.09-.37.09-.68,0-1.27.13-1.79.37l-.04.02c-1.21.57-2.07,1.76-2.64,3.25-.6,1.58-.86,3.49-.86,5.39,0,2.6.48,5.15,1.27,6.81.91,1.94,6.52,3.6,12.91,4.69,8.03,1.38,17.15,1.78,19.92.7,2.37-.92,3.69-2.5,4.43-4.24.76-1.8.94-3.82,1.01-5.49.12-2.8-2.55-3.38-2.56-3.38-.19-.04-.35-.15-.47-.31h0Zm-25.39-39.36c0,.83.09,1.5.17,2-1.26-1.3-2.8-2.17-4.37-2.65-2.35-.71-4.82-.53-6.62.41-1.91,1-3.09,3.02-3,6.21.07,2.58.99,5.98,3.08,10.28,3.36,6.94,3.99,11.89,4.11,13.7-.59.08-1.13.24-1.63.47l-.05.02c-1.64.77-2.77,2.28-3.47,4.15-.67,1.78-.97,3.89-.97,5.97,0,2.83.55,5.64,1.43,7.51,1.17,2.49,7.27,4.44,14.12,5.62,8.27,1.42,17.78,1.78,20.79.61,2.86-1.11,4.45-3.02,5.35-5.13.87-2.05,1.06-4.25,1.14-6.07.13-3.12-2.07-4.39-3.19-4.84.14-.76.81-2.77,3.8-7.55.57-.91,1.29-1.97,2.09-3.14,5.39-7.89,14.41-21.08,8.43-35.11-1.92-4.51-5.08-8.37-8.77-11.42-3.98-3.29-8.61-5.66-12.97-6.88-4.43-1.25-8.64-1.32-11.7-.01-1.24.53-2.3,1.28-3.12,2.27-4.74,5.73-4.66,17.45-4.63,23.57Z"/>
        <path class="cls-2" d="m81.36,91.03c-2.12-.58-4.25-1.69-6.28-2.56-.02,0-.04-.01-.05-.03-.02,0-.04-.01-.05-.02-.69-.29-1.33-.54-2.06-.75-1.58-.47-2.69-1.09-3.76-2.35-.14-.17-.26-.33-.39-.51-.02-.01-.31-.41-.36-.48-.03-.03-.06-.06-.08-.09-.01-.01.02,0,.05,0,.02,0,.04,0,.06-.02,0,0,.02-.01.02-.02,0-.02-.07.06-.07.06-.14.16-.38.62-.56.58-.24-.07-.03-.76.02-.89.05-.11.1-.19.19-.27.04-.04.11-.07.16-.1.07-.03.12-.04.2-.04.13,0,.22.03.34.09.06.01.19.14.24.18.17.15.32.31.47.48.14.14.28.29.42.43,1.06,1.05,1.88,1.54,3.34,1.95.78.2,1.48.45,2.22.76.02,0,.04.02.05.03.02,0,.04.01.06.02,2.06.88,3.98,1.94,6.12,2.68.36.12,2.73.66,2.75.94-.07.64-2.76,0-3.03-.06h0Zm-2.87-24.73c.23-2.42.36-4.8.44-7.24,0-.02,0-.05,0-.07,0-.03,0-.05,0-.08,0-.15.01-.3.02-.45v-.33c-.06-.44-.14-.88-.25-1.33,0,0,0-.02,0-.03,0,0,0-.02-.01-.03,0-.02,0-.03,0-.05-.15-.68-.33-1.27-.64-1.89-.03-.09-.2-.35-.27-.44-.2-.29-.76-.78-.65-1.07.24-.52,1.18.3,1.37.48.15.17.28.33.4.53.04.07.08.14.13.21,0-.62-.01-1.23-.03-1.85,0-.04,0-.08,0-.12-.02-.62-.07-1.24-.09-1.86,0-.19-.04-.41-.06-.61,0-.07-.02-.13-.02-.2,0-.09,0-.15.05-.22.08-.11.18-.04.27.02.08.06.13.13.18.21.13.2.21.43.27.66.19.61.27,1.29.33,1.93,0,.03,0,.09.01.12.17,1.87.17,3.84.13,5.73.04.42.06.84.06,1.21,0,.22.03.75-.14,1.01-.09,1.96-.25,4.02-.56,5.87-.04.23-.29,1.93-.83,1.7-.4-.19-.12-1.43-.08-1.82Z"/>
      </g>
      <path class="cls-2" d="m101.87,75.41c0-.27-.03-.71-.14-.92-.15-.05.06-.04-.1.05-.25.13.18.06-.25.09.11.21.31.64.49.78h0Zm7.18-7.4h.07l-.06.08v-.08s-.72-1.55-.72-1.55c.04.48.76,1.83.56,2.25-.42-.28-1.74-3.2-2.02-3.91-.39-.97-1.36-3.4-1.85-4.06.06.67,1.49,3.96,1.9,4.79.13.27.3.66.41.93l.55,1.42c.1.23.18.26.23.47-.21.06-.11.03-.28.14-.19-.35-.35-.63-.54-1.01l-1.43-3.36c-.55-1.37-1.14-2.7-1.4-4.17-.07-.38-.08-.34.06-.62.2.13.34.29.48.51.12.19.31.48.36.69.32-.15.37-.06.56.16l.43.61c.05.08.08.14.13.22l.15.21c-.02-.27-.12-.42-.14-.68-.17-.3-.35-1.04-.35-1.5.2.05.2.11.3.27.13.22.07.23.26.37-.02-.19,0-.15-.07-.28.33.09.64.84.7,1.15.06.05.02,0,.09.1.04.07.02.02.07.13.05.1.08.22.12.3.04.11.02.04.06.14.38.89,1.43,3.44,1.49,4.23-.47-.13-.9-1.83-1.27-2.26.02.29.28.77.38,1.09l.84,2.27c.12.34.32.85.33,1.23-.17-.12-.29-.27-.35-.49-.07.09-.05-.08-.07.21h0Zm-9.58-6.41l-.02-.02s.03.01.02.02h0Zm-7.89,10.92h.07s0-.12,0-.14c-.04-.13-.02-.08-.07-.15v.28h0Zm.07,0l-.04.15-.03-.15-.21-.42c0,.42.14.63.14,1.06-.18-.2-.2-.36-.29-.63-.08-.25-.14-.45-.23-.76l-1.32-4.53c-.76-2.55-.55-3.05-1.89-5.36l-.21-.28c.03.35.17.92.25,1.3.59,2.59.51,1.06,1.29,3.5l1.03,3.69c.07.23.11.43.16.62.1.39.13.33-.06.62-.34-.18-.31-.25-.52-.89l-.79-2.17c-.45-1.2-.74-1.94-1.12-3.25-.12-.41-.22-.73-.34-1.14-.08-.3-.34-.88-.13-1.21,0-.32-.4-1.48.02-1.61.44-.14.69.78.97.98-.19-.83-.7-2.76-.7-3.52.41.11.13.17.51.54.04.04,0-.09.1.12,0,0,.07.2.07.21.05.17.08.31.1.47.17-.14-.05-.72-.06-1.07,0-.23.05-.21.2-.27,0-.31-.05-.4-.11-.66-.02-.08-.05-.23-.06-.3,0-.05-.04.02-.03-.17.01-.15,0-.06.06-.14-.09-.35-.18-.11-.24-.53-.03-.15.03-.4.03-.67.16.06.11.04.2.15l.15.2c0-.33-.16-.77-.24-1.1-.08-.34-.25-.82-.25-1.16.05.05.05.02.09.12l2.09,6.65c0-.29-.09-.46-.14-.71l-.49-2.05c-.12-.49-.21-.85-.32-1.37-.1-.47-.26-.98-.26-1.51l-.08-.14.08.14c.18.26.5,1.64.61,2l1.49,5.06c.09.34.29.76.22,1.04.27-.12.11.02.12-.32,0-.13-.05-.05.02-.32.31.16.19.15.49.49-.04-.49-.38-1.07-.42-1.57,0-.01-.02-.05-.03-.04l-.67-1.85c-.12-.37-.65-1.75-.6-2.04-.13-.12-.05-.01-.14-.19l-.23-.69c-.12-.35-.21-.61-.32-.95l-.55-1.78c-.07-.15-.03-.06-.07-.14v.85s-.02-.05-.03-.04c0,0-.02-.03-.02-.04,0-.01-.04-.08-.05-.1l-.4-1.58c.43.11.13.28.49.7-.02-.28-.07-.33-.07-.7.05-.02.09.02.14-.05.13-.17-.12-.38.35-.44h.08c-.09-.4-.21-.55-.21-1.06,0,.01.02.02.03.04l.18.24c-.03-.39-.24-.61,0-.99-.04-.18-.2-.52-.28-.7-.11-.24-.19-.39-.31-.68l-1.61-3.32c-.15-.29-.26-.39-.26-.8.8.54,2.15,3.53,2.53,4.45l.59,1.45s.04.08.05.1l.08.14c0-.29-.08-.59.15-.51.16.05.3.27.34.44l.07-.14c.1-.14-.05-.06.14-.14.14.21.22.29.28.59.04.05.02,0,.08.12.04.07.05.09.09.19.07.18.1.25.09.45.15,0,.09.04.09.23.13.14.89,2.24,1.13,2.51-.03-.36-.91-2.78-1.08-3.29-.15-.41-.25-.69-.25-1.23h.21l.62,1.63c.28.84,1.67,4.69,1.77,5.16l.1.21s.01.03.02.05c0,.02.02.03.02.05l.71,2.05c.09.23.26.56.25.86.01.01.04,0,.04.03,0,.02.04.03.04.03.01,0,.03.02.05.03.52.42,1.23,2.68,1.23,3.42-.19-.05-.06,0-.21-.07l.55,1.35c.1.24.16.41.27.65l.31.68c0-.31-.14-.7-.21-.99l-.82-2.99c-.24-.75-.06-.55-.42-1.41-.08-.19-.11-.27-.18-.45l-2.13-5.41c-.16-.39-1.36-3.37-1.26-3.77-.19-.18,0-.14-.11-.49l-2.93-6.87c-.13-.33-.39-.86-.24-1.17.35.23.39.52.57.91.16.36.3.7.47,1.08l2.77,6.48s.02.02.03.04l.31.46s.02.03.03.04l.69.85c-.02-.26-.14-.63-.2-.86-.05-.19-.06-.21-.1-.41-.04-.22-.08-.23.08-.35l3.08,7.49c.05.09.04.07.09.12-.05-.66-1.83-5.1-1.83-5.99.44.12.64,1.1.79,1.47l.62,1.7c.16.41,1.05,3.24,1.2,3.45,0-.27-.2-.9-.27-1.14l-1.71-5.48c-.06-.17-.39-1.13.06-.64.34.37,1.07,2.55,1.24,3.14.23.77.46,1.49.66,2.23l.93,3.37c.09.34.27.81.28,1.2.18-.08.03-.07.21,0-.02-.28-.12-.42-.14-.7.27.1.34.45.58.83l1.3,2.71c.09.14.03.05.09.12l-.9-2.62c-.13-.43-.27-.42-.37-.83l-.07-.14c-.23,0-.01-.13,0-.14,0-.33-.11-.47-.14-.78.32.21.32.37.49.7.2-.09.14-.07.42-.07.05.05.06.17.07.21.15,0,.15.02.36.34,0,.01.02.03.03.04,0,.01.02.03.03.04l.29.35c-.06-.24-.11-.42-.19-.65-.09-.28-.19-.4-.12-.69-.04-.03-.21.02-.11-.33.05-.19.11-.14.28-.23-.08-.15-.14-.41-.14-.63.27.02.33.12.48.3.15.19.16.29.37.48.02.14-.03.01.03.12.09.19-.03.01.11.16-.04-.44-.18-.2.07-.56.26.06.31.13.44.33l.59,1.1c.54,1,1.1,2.46,1.58,3.43l.75,1.79c.14.38.87,2.14.87,2.51-.36-.24-.41-.79-.7-1.13.03.33.67,1.51.84,2.25,0,0-.02,0-.02,0l-.15.07c-.09,0-.14-.13-.23-.3l-1.75-3.88c-.09-.21-.1-.25-.19-.44-.08-.17-.12-.29-.19-.45-.06-.14-.14-.28-.21-.42l-.42-.84,2.17,5.44c.16.4.68,1.54.71,1.89-.21-.15-.08-.05-.21-.28-.05-.08,0-.02-.08-.13,0-.02-.05-.07-.06-.08,0,0-.03-.03-.03-.04,0,0-.02-.03-.03-.04.02.28.12.42.14.7-.18-.13-.8-1.41-.99-1.62.02.26.08.29.17.54.08.21.14.39.19.59-.23-.17-.92-1.82-1.1-2.21l-.52-1.18c-.76-1.7-1.23-2.85-2.21-4.48l-.67-1.02c.03.34.19.65.33.94l2.13,4.7c.32.66.22.65.59.99.03.03.09.09.1.11l1.08,3.13c-.34-.08-.11-.05-.21,0,.05.27.02.08.07.35l.02.11s0,.04.01.06c0,.04.04.17.06.23.09.38.11.43-.09.72-.24-.07-.27-.17-.4-.38-.11-.19-.18-.31-.26-.58-.27-.81-1.13-2.09-1.37-2.79-.1-.27-.09-.38-.22-.63l-2.12-4.51c.02.94,1.32,3.62,1.73,4.61.03.07.03.08.06.15l.11.17v-.35c.24.18.31.55.41.85.17.52.71,2.75.71,3.23-.39-.19-.3.07-.52-.4l-.84-1.76c-.11-.16,0-.06-.12-.09.04.25.95,3.37,1.1,4.2.06.33.03.37-.25.45-.17-.12-.19-.14-.21-.42l-.28.42c-.61-.01-.93-.74-1.29-1.46l-.3-.55s-.02-.03-.03-.04l-.14.47c.08.41.39,1.19.21,1.57-.52-.14-.5-1.09-.85-1.34,0,.57.07,1.47-.56,1.62.35-.65.35-1,.21-1.81l-.7-2.56c-.12-.44-.27-.79-.41-1.22-.58-1.82-1.13-3.14-1.82-4.87l-.5-1.12s-.02-.03-.03-.04l.06.57c.05.34-.2.49.31,1.45l.05.09c0-.31-.12-.62-.14-.92l1.87,6.03c.06.19.1.32.15.47l.3.99c.07.22.13.32.12.56.17,0,.09.15.07.31.17.16.23.6.29.84.08.33.2.62.22.97-.24-.17-.05.04-.18-.24l-.17-.32-.22-.21c-.12-.05.11-.04-.2.07-.03-.39-.28-.56-.26-1.01-.16.04-.09-.09-.09-.28-.25-.28-.79-2.94-1.08-3.54l-.11-.17c0,.41.19,1.49.31,1.8.11.28.21.47.3.76l.17.89.11.3h0v.02l.8,2.21c-.33.15.09-.07-.18-.05-.24.02.2-.08-.04.01-.17.07.12.09-.06.04-.07-.15-.1-.28-.17-.47l-.19-.45v.3c.13.18.09.18,0,.4.09.04.14-.11.15.42.02.8-.46.57-.58.07-.01.01-.03.01-.03.04l-.04.2c0,.44-.1.52-.49.33-.07-.14-.06-.09-.05-.28-.11-.09-.09.16-.09-.23l-1.69-4.21c.02.28.14.48.19.73.13.6.72,1.84.7,2.23.01.01.03.02.04.04,0,0,.31.65.34,1.02-.33-.24-.18-.49-.42-.56,0,.1,0,.04.01.12.11.48.16.91.12,1.36-.2-.08-.16.03-.32-.09-.21-.16-1.48-3.78-1.77-4.44-.12-.28-.22-.51-.35-.78-.15-.32-.14-.41-.37-.75-.05.08-.06,0-.06.15,0,.07.02.14.03.17l.62,1.7c.09.26.17.48.28.71.21.44.37.83.55,1.28l.48,1.42c-.3.03-.13,0-.35.14l-.8-1.95c-.12-.3-.68-1.68-.9-1.93l1.48,4.72c-.23-.08-.05.11-.21-.21-.66-1.24-.44-.7-.98-2.05l-.82-2.14c-.02-.07-.03-.1-.06-.16-.09-.19-.06-.11-.12-.17.03.34.18.55.21.92l-.63-1.2c0,.56.2.96.21,1.48-.3-.35-.35-1.36-.63-1.76h0Zm7.89-10.85v.14c.24,0,.02-.13,0-.14h0Zm-6.83,12.83c0,.34,0,.13.07.21,0,.23.03.28.09.47.11.31-.03.15.2.3l-.29-.77c0-.34,0-.13-.07-.21v-.21h-.07c0,.36,0,.12.07.21h0Zm1.48-10.71h-.07l.37,2.01.54,1.02c-.04-.47-.81-2.57-.85-3.03h0Zm-.07,0v-.21h.07v.21c.05.05.04.03.09.12l1.84,4.93c.1.29.23.49.26.8,0-.01.02-.06.02-.04,0,.01.02-.04.02-.04.11-.19.11-.18.31-.26l-2.73-6.64c-.05-.09-.04-.07-.09-.12l.21,1.27h0Zm-3.05-11.07c-.18,0-.12,0-.12-.23-.08-.07-.02,0-.12-.14-.05-.08-.07-.15-.12-.23-.12-.23-.16-.23-.23-.45-.23-.1-.1-.04-.16,0,.09.36.38.78.21,1.13l2.35,6.67c.17.43.59,2.05.75,2.28v-.35c.36.1.16.16.42.35-.78-1.96-1.8-4.71-2.37-6.65-.12-.4-.23-.71-.35-1.13-.08-.29-.31-1.02-.26-1.24h0Zm-11.62,7.54c.1.12.05-.05.09.15.01.06,0,.15,0,.21-.41,0-.49-.04-.63-.31-.08-.04-.04,0-.13-.07-.18-.14-.19-.28-.29-.47h.14c-.06-.24-.07-.16-.21-.35-.12-.17-.12-.16-.19-.35l-4.83-6.4c-.14-.18-.2-.25-.2-.58.53.12,1.73,1.88,2.2,2.45.25.3.44.57.68.87l2.01,2.64c.23.3.53.64.67.97.05.04.03,0,.1.09l.3.47c.16.28.3.4.28.68h0Zm20.05,8.95c-.13.08-.21.06-.03.21l.03-.21h0Zm-.03.21v.23l.07-.02c0-.33,0-.13-.07-.21h0Zm-.16-.28c.12-.06.09.11.09-.16l-.09.16h0Zm8.12.14c.13-.34-.17-.97-.27-1.28-.3-.9-1.44-3.72-1.84-4.49l-.26-.53c-.1-.2-.15-.32-.26-.51-.21-.35-.35-.63-.57-.99l-.51-.96s-.02-.02-.03-.03c-.04-.18-.27-.96-.28-.3-.23-.15-.16-.21-.49-.28-.13.6.62,2.35.84,2.9l.89,2.07c.09.22.18.44.35.59.03.39.7,1.59.92,2.02.12.24.79,1.71,1.03,1.83.09.46.28.6.63.52,0-.63.02-.44-.14-.56h0Zm-7.7-7.33c-.13-.08-.12-.13-.12,0h.12Zm2.07-4.51c.06-.24.06-.3-.05-.59-.09-.25-.12-.32-.45-.33-.07.31-.05.9.49.92h0Zm0-23.82c-.18.04-.25.14-.49-.28-.52-.91-.18-1.34.28-.42.13.25.21.31.21.71h0Zm-20.85,35.73s-.13.48-.55-.29c-.08-.15-.22-.41-.22-.62,0-.27-.02-.03.07-.21.44.12.7.87.7,1.13h0Zm27.12-13.18c0,.4.04.52-.21.7-.25-.23-.35-1.22-.35-1.55.37.1.56.64.56.85h0Zm-17.26-27.77c-.3-.08-.92-.72-.92-1.27.37,0,.39.09.7.5.47.63.32.58.22.76h0Zm10.78,16.99c0-.46-.26-.82-.35-1.2h-.21c-.24,1.02.56,2,.56,1.2h0Zm-.84,58.5c0,.42,0,.42-.28.56-.24-.46-.04-.38-.28-.78-.15-.26-.29-.35-.29-.77.3.02.39.19.55.37.13.15.3.37.3.62h0Zm8.71-40.31c.01-.23-.34-1.06-.47-1.17-.07-.33-.56-1.46-.73-1.7-.72-.97.08,1.12.1,1.18-.23-.15-.22-.28-.49-.35.02.26.16.57.28.78l.17.21.52,1c.07.1.03.05.09.1.08.19.11.26.23.43l.35.64s.03.03.04.04c.01.01.03.02.04.03.24.24.19.24.41.29,0-.38-.18-.82-.32-1.16l-.2-.32h0Zm-19.84-33.97c-.39-.1-.91-1.11-.91-1.55.29-.06.33-.08.68.59.4.76.42.68.23.96h0Zm5.77,68.44c0,.27.02.03-.07.21-.3-.02-.24-.07-.36-.28-.1-.17-.16-.26-.29-.42-.45-.61-.45-.59-.27-.86.27.07.44.31.61.52.13.17.38.57.38.82h0Zm1.13-.63c0,.37.02.09-.07.28-.32-.09-.35-.34-.48-.65-.12-.3-.23-.57-.23-.97,0-.27-.02-.03.07-.21.24.06.25.13.46.66.09.23.24.62.24.89h0Zm2.4-21.85c0-.36,0-.12-.07-.21,0,.37,0,.1.07.21h0Zm-.07-.42l-.02.02s.03-.01.02-.02h0Zm-18.74,12.12c0,.13,0,0-.07.14-.34-.03-.32-.19-.51-.68-.15-.38-.35-.85-.19-1.15.44.12.77,1.38.77,1.69h0Zm-6.06-2.04c0,.33,0,.28-.21.42-.23-.17-.2-.48-.33-.8-.08-.18-.37-.68-.37-.82,0-.72.91.43.91,1.2h0Zm26.56-38.06c-.03-.37-.25-.71-.4-1.01-.34-.67-.24-.74-.66-.75,0,.58.35,1.75,1.06,1.76h0Zm-18.53,40.81c-.34-.03-.37-.24-.53-.8-.12-.42-.17-.72-.17-1.24.36.03.42.36.55.86.08.3.26.97.15,1.18h0Zm-6.69-19.88c0,.27.02.03-.07.21-.13-.01-.2.1-.37-.4-.07-.2-.13-.42-.18-.59-.07-.21-.11-.38-.16-.62-.06-.3-.09-.33.16-.5.32.23.63,1.51.63,1.9h0Zm-.21,16.7c0-.4-.77-1.24-1.13-1.27,0,.4.31.72.49.99.14.21.17.22.22.55.03.18.05.42.13.58.35-.09.28-.33.28-.85h0Zm3.45,2.12c0,.27.02.03-.07.21-.35-.08-.41-.34-.64-.91-.07-.17-.48-.93-.37-1.11.3-.55,1.09,1.59,1.09,1.81h0Zm33.25-27.91l-.07.49h-.21c-.05-.2-.09-.3-.13-.5-.16-.76-.43-1.09-.43-1.69,0-.27-.02-.03.07-.21.36.24.78,1.39.78,1.9h0Zm-15.57,35.31c0,.08.77,2.4,1.09,1.81.09-.17-.27-.94-.35-1.13-.1-.23-.15-.35-.24-.54-.12-.25-.11-.32-.43-.35-.09.19-.07-.06-.07.21h0Zm-23.67-7.82c.29-.21.56-1.64-.56-2.4-.09.19-.07-.06-.07.21,0,.18.35.69.41,1,.08.5-.12.93.23,1.18h0Zm34.3-25.94l-.02.02s.03-.01.02-.02h0Zm-.07-.14l-.02.02s.03-.01.02-.02h0Zm-.14-.21l.04.15-.04-.15h0Zm-12.54,38.76c0,.27.02.03-.07.21-.32-.09-.33-.36-.72-.97-.26-.41-.54-.74-.55-1.14.39.03.53.28.86.76.16.23.48.8.48,1.14h0Zm-10.28-9.73c0,.27.02.03-.07.21-.38-.1-.39-.48-.55-1.07-.13-.47-.27-.85-.16-1.32.34.09.38.41.53.94.1.34.24.86.24,1.24h0Zm15.21-41.51c.18-.38-.44-2.08-.92-2.4-.21.31-.04.57.25,1.3.27.67.26,1.06.66,1.1h0Zm9.3,14.24l-.02.02s.03-.01.02-.02h0Zm-36.91,24.67c0,.72-.8-.64-.85-.7-.11-.17-.73-1.11-.74-1.3-.05-.99,1.59,1.7,1.59,2.01h0Zm9.16-13.25c0,.27.02.03-.07.21-.37-.1-.5-.71-.75-1.22-.21-.45-.52-.84-.52-1.46.28.02.12-.04.3.12.23.23,1.04,1.93,1.04,2.34h0Zm10.35,20.51c0,.29-.05.44-.21.56-.29-.43-.12-.79-.42-1.48-.17-.38-.49-.97-.49-1.48.2.02.17-.12.45.4.13.24.22.37.33.58.18.35.35.87.35,1.41h0Zm21.76-37.28c.12.13.53,1.16.64,1.41.02.04.83,1.69.09,1.12-.21-.16-1.11-2.25-1.06-2.46.05-.17.19-.23.33-.07h0Zm-29.58,39.33c-.29-.21-.27-.81-.42-1.41-.11-.47-.28-.99-.28-1.55.25,0,.28-.15.48.51l.38,1.66c.06.37.16.56-.16.79h0Zm-11.41-37.78c0,.27.02.03-.07.21-.51-.14-1.04-1.46-1.24-1.93-.14-.33-.24-.41-.24-.82.62.17,1.55,2.54,1.55,2.54h0Zm20.99,41.51c0,.19-.03.19-.07.35h-.21c-.39-1.7-1.39-2.02-1.41-2.68.71.02,1.69,1.71,1.69,2.33h0Zm-15.57-12.33c0,.19-.03.19-.07.35h-.21c-.17-.72-.31-1.5-.61-2.21-.12-.28-.22-.39-.23-.75.77.06,1.13,2.03,1.13,2.61h0Zm20.57.63c0,.36.03.46-.21.63-.32-.47-.01-.59-.52-1.6-.29-.59-.67-.95-.68-1.43.58.05,1.41,1.61,1.41,2.4h0Zm-18.03-10.29c-.43-.04-.41-.44-.8-1.25-.12-.25-.54-1.25-.54-1.5,0-.27-.02-.03.07-.21.37.1.58.85.82,1.36.19.41.53,1.18.45,1.6h0Zm13.52-33.48c0-.88-1.77-2.81-1.88-2.25-.04.19.71.97.94,1.29.49.66.57,1.12.86,1.32.1-.2.07.11.07-.35h0Zm5.14,31.93l-.02.02s.03-.01.02-.02h0Zm-.42-.63c0-.36,0-.12-.07-.21,0,.37,0,.11.07.21h0Zm-.63-.14c.14-.08.21.01.07-.14l-.07.14h0Zm.07-.14l.39-1.03c-.09,0-.26-.01-.33,0-.31.03-.13-.03-.16.1-.08.36.09.57.09.94h0Zm-.09-.94l.09.94-.75-1.79c-.55-1.4-.76-1.57-1.27-3.1-.05-.13-.06-.17-.09-.26l-.39-1.17c-.08-.24-.2-.71-.32-.85-.02-.29-.77-2.31-.89-2.66-.16-.45-.32-.83-.48-1.29-.14-.4,0-.97-.37-1.29.05-.24-.42-1.48-.55-1.8-.21-.54-.46-1.2-.59-1.74-.13-.55-.75-3.64-.86-3.84,0-.31-.09-.54-.16-.85l-.38-1.59c-.08-.28-.22-.49-.24-.75.1.12.02.03.12.17.05.08.03.06.08.13.07.1.15.19.22.27,0,.49,1,3.81,1.22,4.48.09.28.13.48.23.76l1.7,5.84c.04.16.05.24.09.4.03.11,0,.04.05.16.04.1.04.08.08.14-.15.46,0-.25-.14.21.08.09-.01-.05.09.12l.87,2.09c.31.78.63,1.5.92,2.25l.93,2.24c.26.64.46,2.3.63,2.51,0,.51-.02.18.12.28h0Zm-1.1-31.83c-.44,0-.42-.19-.59-.54-.15-.31-.26-.49-.42-.78-1.12-2-.52-1.97-.07-1.13.33.61,1.08,1.82,1.08,2.44h0Zm-.35,45.81c-.28-.03-.18.08-.47-.65-.21-.52-.89-2.14-.79-2.59.6.16,1.45,2.86,1.27,3.24h0Zm-3.1-4.44c0,.19-.03.2-.07.35h-.21c-.13-.57-.31-1.08-.51-1.6-.11-.29-.61-1.29-.61-1.5,0-.27-.02-.03.07-.21.41.28.64.78.85,1.27.18.42.49,1.11.49,1.69h0Zm23.13-18.61s-.02-.06-.03-.05c0,.01-.02-.04-.03-.05,0-.01-.04-.08-.05-.1,0-.01-.02-.03-.03-.05l-.08-.13c-.41-.61-1.38-2.13-1.43-2.73.31.08.46.39.62.65.18.29.34.53.52.82.1.15.13.24.24.4.12.18.15.19.27.36.1.15.16.25.25.38.15.21.16.18.28.45.01,0,.04,0,.04.02l.13.14c.05.08.07.16.11.24l-.14.28c-.23-.06-.58-.41-.68-.63h0Zm-36.79,2.26c-.54-.14-1.28-1.73-1.68-2.34-.18-.28-.4-.58-.44-.97.33.09.49.4.68.65.53.71.63.86,1.03,1.65.18.36.39.53.4,1.01h0Zm15.64-23.82c0-.53-.1-.7-.3-1.04-.15-.25-.36-.52-.53-.74-.29-.36-.93-1.15-1.35-1.19,0,.31.04.33.19.52l1.15,1.39c.51.71.47,1.03.84,1.06h0Zm8.85,59.09s.16-.08.16.54c-.34-.08-.11-.05-.21,0,.1.45.17.84-.07,1.2-.21-.16-.18-.28-.23-.61-.18-1.04-.67-1.61-.76-2.02-.23-.2-.29-.4-.47-.7-.15-.25-.35-.5-.37-.82.35.03.3.18.56.35-.06-.75-1.11-1.79-1.13-2.47.95.51,1.69,2.71,1.97,3.03l-.02.28c.17.04.02-.14.18.19.04.09.09.22.15.35.1.24.22.44.24.68v.16h-.52v-.16h.52Zm-22.59-31.32c0-.74-.26-1.25-.49-1.76-.17-.38-.47-1.3-.92-1.34,0,.67.71,1.75.94,2.72.16.65.08.72.39.8l.07-.42h0Zm8.45,31.15c0,.13,0,0-.07.14-.31-.21-.7-1.08-.97-1.57-.31-.58-.59-1.16-.59-2.02.3.08.3.33.5.77.34.79,1.12,1.98,1.12,2.68h0Zm-10.64-32.49c.17-.36-.36-1.56-.52-1.94-.14-.33-.28-.58-.44-.9-.1-.2-.29-.78-.55-.65-.24.11.49,1.56.6,1.81.26.59.54,1.59.92,1.69h0Zm23.32,33.48c0-.54-1.01-3.19-1.69-3.24,0,.45.2.68.35.99l.82,1.72c.24.6.1.72.45.82.1-.19.07.09.07-.28h0Zm-19.02-12.05c0,.3,1.13,3.92,1.55,3.52.09-.09.09,0,.05-.24l-.27-.74c-.17-.44-.72-1.96-.94-2.3-.14-.21-.11-.22-.39-.25h0Zm24.51-9.87c0,.27.02.03-.07.21-.35-.26-.51-1.48-.7-1.97-.28-.71-.78-1.39-.78-1.9.25.07.4.35.61.66.17.26.36.55.5.84.28.6.45,1.33.45,2.16h0Zm-26.63,1.34c0,.26-.02.18-.14.35-.25-.19-.25-.53-.39-.88-.42-1.06-1.16-2.08-1.16-2.72.32.03.31.11.6.59.18.3.31.52.45.82.22.45.63,1.18.63,1.83h0Zm29.86-6.13c-.36-.1-.41-.42-.59-.75l-1.12-1.63c-.11-.15-.18-.26-.3-.41-.15-.19-.34-.58.03-.47,0,0,.21.15.22.15.47.44,1.11,1.43,1.45,2,.21.36.29.55.29,1.11h0Zm-12.54,28.05c0,.53-.04.39-.07.7-.25-.07-.21-.08-.27-.37-.05-.24-.05-.38-.09-.61-.2-1.16-1.19-1.99-1.26-2.83.31.02.3.1.62.58.17.26.3.46.48.72.33.49.59,1.02.59,1.8h0Zm-18.52-21.43c0-.61-.73-1.98-1.06-2.53-.16-.26-.24-.55-.56-.64-.09.19-.07-.06-.07.21,0,.07.32.79.37.89l.82,1.71c.25.63.06.68.42.78.1-.2.07.13.07-.42h0Zm-5-12.97c0-.51-.57-1.5-.8-1.87-.04-.07-1.17-1.85-1.14-1.05,0,.14.85,1.47.98,1.7.57.94.53,1.48.89,1.72.1-.2.07.14.07-.49h0Zm20.99-6.95c.17-.14.14.15.14-.24l-.07.09s-.06.12-.07.15h0Zm.07-.45c0-.18-.11,0-.04,0,0,0,.04.2.04,0h0Zm-.07-.21c0-.18-.11-.01-.04,0,0,0,.04.2.04,0h0Zm-.07-.28l-.02.02s.03-.01.02-.02h0Zm.42,1.41c-.06-.11-.02-.09-.07.02l.07-.02h0Zm-8.17-31.79c0,.37.02.09-.07.28-.32-.09-.31-.27-.56-.77-.21-.43-1.36-2.45-1.31-2.69.2-.9,1.94,2.95,1.94,3.18h0Zm-1.2,39.89c-.37-.1-.32-.35-.56-.85-.4-.81-1.13-2.43-.7-3.31.25.19.24.63.32,1.01.29,1.36.94,2.02.94,3.14h0Zm2.04-41.09c-.04-.51-2.08-3.85-2.41-3.53-.12.12.08.36.16.48.11.18.18.29.3.48.36.54,1.35,2.52,1.94,2.56h0Zm10.35,57.37c0-.52-.47-1.59-.65-2.02-.14-.33-.26-.64-.4-.94-.32-.66-.23-.7-.63-.7,0,.58.51,1.53.71,2.03.17.41.58,1.63.9,1.84.09-.19.07.06.07-.21h0Zm-11.76-54.9c0-.47-1-2.5-1.3-3-.07-.13-.45-.92-.63-.57-.08.16,1.07,2.49,1.27,2.89.09.18.16.31.23.47.12.26.08.32.35.35.08-.13.07-.01.07-.14h0Zm28.1,33.06c0-.73-.73-1.63-1.08-2.09-.25-.33-1.11-1.64-1.32-1.78-.3.53.74,1.76,1.03,2.14.25.33.43.56.65.9.26.4.4.75.72.83h0Zm-29.23,28.76l-.07.63c-.42-.11-.22-.88-.75-2.14-.24-.58-.86-1.66-.87-2.02.38.03.49.34.66.61.19.29.32.57.47.87.24.48.56,1.34.56,2.05h0Zm1.97-12.62c-.33.07-.4-.08-.76-.65-.21-.33-.38-.64-.58-.97-.14-.23-1.12-1.9-1.12-2.05,0-.27-.02-.03.07-.21.55.37,2.36,3.43,2.39,3.88h0Zm0-1.76c0-.56-.14-.83-.33-1.22-.27-.56-1.23-2.51-1.79-2.65-.09.19-.07-.06-.07.21l1.57,2.87c.09.18.14.28.23.47.11.23.08.3.38.32h0Zm21.7-2.61c.22-.41.11-.83-.07-1.27-.28-.68-1.36-2.55-2.04-2.61,0,.34.07.36.22.56l.93,1.32c.68,1.04.66,1.79.96,2h0Zm-18.45,23.47c0-.54-.17-.84-.35-1.2-.27-.54-1.21-2.53-1.83-2.68,0,.48.25.78.44,1.11l1.08,1.95c.32.56.3.79.66.82h0Zm21.13-27.49c0-.71-1.07-2.48-1.48-3.17-.28-.46-.34-.75-.7-.78,0,.43.52,1.36.75,1.78l.84,1.55c.1.2.16.43.26.59.09.15.32.37.32.02h0Zm-26.98-.7c0-.74-.03-.84-.22-1.4l-.98-2.19c-.18-.3-.34-.75-.7-.85-.15.31.66,1.82.85,2.18.24.48.72,1.71.84,2.26h.21Zm-2.04-11.77c-.39.09-.3.11-.68-.66-.29-.59-1.29-2.85-1.29-3.29,0-.35.23-.13.32.02.13.19.17.33.25.53.27.67,1.35,2.84,1.4,3.39h0Zm32.12-1.76c0,.45,1.33,2.76,1.67,3.33.11.18.51.99.73.76.15-.15-.33-.95-.43-1.14l-1.51-2.65c-.14-.2-.2-.28-.47-.31h0Zm-10.92-6.77c0-.96-.71-2.42-1.1-3.27-.17-.36-.2-.72-.59-.82-.16.34.55,1.79.71,2.18l.77,2.26c.11-.08.21-.16.21-.35h0Zm8.73,17.97c-.28-.08-.27-.18-.4-.45l-1.38-2.84c-.11-.21-.17-.35-.28-.56-.04-.07-.13-.23-.15-.29-.06-.2-.09-.18.03-.29.34-.32,1.66,2.74,1.83,3.1.19.38.35.76.35,1.34h0Zm-23.53,24.46c0-.72-.83-4.1-1.55-4.58-.08.13-.07.01-.07.14l.71,2.39c.15.52.43,1.99.84,2.26.09-.19.07.06.07-.21h0Zm24.37-25.66c0-.9-.54-1.96-.89-2.56-.23-.39-1.06-1.84-1.57-1.88.04.49,1.32,2.16,1.82,3.39.2.49.28.95.64,1.05h0Zm-32.05,27.35c.19-.83-.61-3.06-.94-3.99-.15-.42-.3-1-.61-1.08,0,.61.14.97.27,1.42.13.42.25.81.37,1.25.14.49.55,2.18.9,2.41h0Zm1.27-13.46c0,.27.02.03-.07.21-.36-.1-.27-.42-.54-1.08l-1.12-2.19c-.12-.2-.18-.35-.3-.55-.13-.21-.2-.32-.22-.62.55.05,1.15,1.38,1.41,1.83.31.53.84,1.58.84,2.4h0Zm24.87-5.92c-.06-.25-.18-.36-.28-.56l-1.62-3.88h-.28c0,.83.92,2.86,1.34,3.67.18.36.38.76.85.77h0Zm8.8-12.97c-.01-.63-2.24-4.25-2.96-4.44,0,.43.34.72.68,1.23.27.4.46.7.71,1.12.27.44.96,2.04,1.57,2.09h0Zm-9.93,17.9c0-.9-.73-1.78-1.17-2.5l-1.13-1.62c-.1-.13-.31-.42-.46-.26-.16.16.44.98.55,1.15l1.79,2.79c.15.25.12.36.41.44h0Zm.84-3.38c0-.17-.47-1.01-.58-1.18-.23-.38-.39-.75-.6-1.16-.02-.04-1.29-2.72-1.29-1.74,0,.27.89,2.04,1.06,2.32.22.38.87,1.85,1.33,1.98.09-.19.07.06.07-.21h0Zm-29.3-13.74c0-.83-2.22-4.3-2.75-4.65-.09.19-.07-.06-.07.21,0,.33,1.68,2.85,2.04,3.46.27.45.46.96.71,1.12.07-.13.07-.01.07-.14h0Zm1.9-6.98c0,.7.68,2.07.92,2.74.11.32.94,2.53,1.2,2.27.16-.16-.74-2.35-.87-2.67l-.54-1.29c-.1-.24-.18-.41-.29-.62-.11-.19-.18-.36-.42-.42h0Zm28.39-2.89c0-1.16-.44-2.13-.84-3.03l-.49-1.06c-.11-.23-.09-.28-.36-.35,0,.53.23.96.38,1.38.38,1.06.62,1.35.85,2.6.05.28.08.47.11.73.04.33,0,.49.28.57.11-.46.07-.3.07-.85h0Zm-32.68,27.42c0,.27.02.03-.07.21-.31-.2-.48-.76-.64-1.13-.23-.54-1.64-3.45-1.41-3.95.35.24.99,1.79,1.19,2.27.17.42.93,2.19.93,2.6h0Zm17.89-.07c0-.42-.36-.94-.54-1.29-.21-.42-.35-.78-.56-1.2-.24-.48-.82-2.05-1.29-2.3-.07.13-.07.01-.07.14,0,.59,1.43,3.44,1.99,4.29.14.22.17.34.48.36h0Zm8.83-22.56c-.16-.05-.11-.05-.02,0h.02Zm.05.14c.09.39,1.14,2.42,1.5,3.22l.26.45c-.02-.26-.62-1.57-.76-1.92-.16-.4-.24-.57-.44-.9-.14-.24-.37-.7-.57-.84h0Zm1.83,3.81c.07.11.02.1.07-.02l-.07.02h0Zm.21,34.82c0-.18-1.45-3.25-1.71-3.78-.25-.51-.38-.98-.75-1.08-.07.13-.07.01-.07.14,0,.36.91,2.18,1.11,2.63l.91,1.84c.18.3.1.43.45.46.09-.19.07.06.07-.21h0Zm-27.4-16.49c.13-.27-.03-.47-.14-.71l-1.73-4.05c-.17-.39-.24-.34-.31-.6h-.21c0,.57.75,2.28,1.01,2.87.21.47.82,2.34,1.38,2.49h0Zm22.68-45.25c-.21-.06-.16-.03-.3-.2l-2.78-4.12c-.16-.27-.38-.46-.23-.75.27.07.37.25.53.46.68.91,2.77,3.81,2.79,4.61h0Zm-32.12,23.89c0-.79,1.69,1.61,1.92,1.89.18.21.29.37.45.61.26.37,1.25,1.61,1.26,1.91.04.6-.72-.5-.93-.76-.18-.22-.3-.37-.47-.59-.3-.41-2.23-2.78-2.23-3.05h0Zm.77-4.23c-.08-.05,0-.13-.15,0-.13.12-.05,0-.02.15.06.26,1.25,1.88,1.48,2.19.27.36,1.63,2.25,1.91,2.33.58.18-.36-.99-.45-1.12-.46-.64-2.29-3.26-2.78-3.56h0Zm49.24,5.29c.26-.53-1.04-2.22-1.34-2.61-.28-.37-1.47-2.07-1.97-2.11,0,.38.16.49.33.73l2.13,2.87c.34.5.54,1.05.84,1.13h0Zm-19.93-12.97c0-.76-1.33-3.37-1.71-4.13-.27-.53-.42-1.06-.75-1.15-.15.31.3,1.14.43,1.47l.65,1.4c.24.47.42.92.63,1.41.22.49.39,1.17.68,1.36.1-.2.07.11.07-.35h0Zm-15.85,17.06c.1-1.18-.31-2.15-.94-3.21-.11-.19-1.5-2.49-1.79-2.38-.36.15,1.89,2.93,2.37,4.9.15.62.09.62.37.69h0Zm5,29.11c0-.75-.69-2.36-.93-3.02l-.86-2.1c-.03-.08-.12-.27-.16-.33-.12-.18-.02-.13-.24-.18-.15.32.22,1.23.35,1.55.2.49.37.99.56,1.48.2.49.38.99.56,1.49.1.27.2.51.28.78.16.5.13.54.36.62.09-.19.07.09.07-.28h0Zm7.25-44.97c0-.32-.2-.71-.34-.93l-2.26-4.09c-.29-.36-.85-1.09-1.28-1.19.08.35.27.53.47.8,1.61,2.14,1.74,3.16,2.81,4.8.17.26.28.52.59.6h0Zm7.19-14.02c0-1.18-1.48-3.27-2.14-4.27-.29-.44-.63-1.05-1.03-1.09.03.41.54,1.1.75,1.44l1.27,2.04c.14.24.27.46.38.67.47.92.3,1.3.7,1.41.09-.19.07.06.07-.21h0Zm-14.51,1.41c-.59-.05-1.64-2.06-1.93-2.51-.16-.24-.28-.44-.44-.69l-.87-1.38c-.54-.8-.42-1.03.23-.3.67.76,2.27,3.39,2.89,4.44.12.2.12.15.12.44h0Zm18.24,60.19c-.03-.37-1.2-2.4-1.45-2.91-.26-.52-.47-.94-.75-1.43-.47-.84-.42-1.21-.89-1.22.02.62,1.05,2.54,1.34,3.03.27.47.48.94.76,1.42l.63.99c.17.17.07.12.37.12h0Zm-20.85-54.06h-.21l-2.28-4.27c-.17-.29-.25-.3-.25-.73.54.13,1.42,1.83,1.68,2.27.36.61,1.22,2.04,1.07,2.74h0Zm28.39-5.57c.37.03.72.63,1.14,1.11.18.21.32.41.5.63.3.37,2.55,3.18,2.23,3.49-.2.2-.74-.79-1-1.13l-2.5-3.28c-.19-.26-.37-.44-.38-.82h0Zm1.55,29.11c.31-.66-2.28-4.3-2.72-4.89-.17-.22-.26-.43-.6-.46,0,.41.43.95.75,1.44l1.7,2.67c.18.34.49,1.14.87,1.24h0Zm-26.13,28.19c-.26-.07-.19-.04-.41-.64-.58-1.59-.68-2.14-1.45-3.98-.18-.42-.57-1.11-.61-1.58.27.07.38.29.52.54.14.26.24.43.38.68l.69,1.5c.29.72.88,2.59.88,3.48h0Zm24.51-23.54c0,.16-.08.23-.22.25-.39.03-1.52-2.71-1.73-3.16-.12-.27-.23-.51-.35-.78-.18-.42-.58-1.12-.59-1.59.38.09.62.68.87,1.18l1.81,3.75c.09.15.21.19.21.36h0Zm-34.51-14.66c.13-.27-.05-.53-.19-.8-.46-.9-2.43-4.42-3.05-4.84-.09.19-.07-.06-.07.21,0,.3,2,3.48,2.39,4.16.15.25.26.46.41.71.36.59.15.52.51.55h0Zm18.24-7.05c0-1.17-.75-2.67-1.21-3.44-.28-.46-1.45-2.31-2.1-2.48.01.47.5.86.89,1.44.33.5.59.9.9,1.42.8,1.32.84,1.97,1.22,2.79.1.23.05.2.3.27h0Zm15.28,25.73c0-.32-1.62-3.88-1.95-4.53-.41-.81-.36-1.23-.87-1.25,0,.49.39,1.24.56,1.62.23.52.44.98.66,1.52l1.03,2.22c.3.6.18.54.49.56.07-.13.07-.01.07-.14h0Zm-28.53-21c-.4-.11-.75-.94-.94-1.32-.47-.94-2.09-4.01-2.09-4.89.38.1.62.82.89,1.36l1.5,3.15c.2.4.63,1.27.63,1.69h0Zm20.57,46.38c0-1.51-1.36-3.89-2.04-5.14-.17-.32-.6-1.24-.98-1.34,0,.47.51,1.31.7,1.69.54,1.09,1.08,2.11,1.54,3.25l.5,1.27c.12.24.03.21.29.27h0Zm-23.53-4.09c-.23-.02-.25.06-.48-.57l-.81-2.5c-.15-.53-.99-3.05-.81-3.41.37.1.52.86.71,1.47l1.26,4.17c.09.31.26.59.14.85h0Zm3.59-51.73c0-1.14-1.69-3.59-2.33-4.65l-.68-1.01c-.14-.16-.11-.17-.37-.2.01.58,1.39,2.59,1.69,3.1.36.6.99,1.68,1.25,2.34.21.52.11.58.36.77.1-.2.07.11.07-.35h0Zm1.76,38.62c0-.78-1.95-4.6-2.59-5.66-.09-.15-.48-.64-.49-.21,0,.23,1.33,2.78,1.53,3.19l1.32,2.78c.12.11.23.14.23-.1h0Zm11.76-42.22c0-.69-2.02-3.84-2.56-4.56-.38-.5-.67-1.18-1.11-1.22,0,.43.53,1.16.82,1.58l1.85,2.95c.37.61.56,1.2.93,1.4.08-.13.07-.01.07-.14h0Zm-10-5.78c0-.72-1.21-2.59-1.63-3.3-.25-.42-1.54-2.77-2.03-2.9,0,.41.17.65.33.94l2.29,3.84c.39.65.64,1.39,1.04,1.42h0Zm-7.89,39.05c0-1.63-.72-3.1-1.32-4.53-.2-.47-.99-1.91-1.5-1.95,0,.59.49,1.06.78,1.55.14.24.3.51.42.78l.34.79c.23.51.39,1.22.57,1.76.34,1.01.27,1.57.72,1.61h0Zm26.34,8.53c0-1.32-1.52-4.01-2.22-5.18-.22-.38-.66-1.2-1.09-1.31,0,.37.21.64.37.9.53.89.83,1.55,1.28,2.39l.82,1.64c.25.56.51,1.46.85,1.55h0Zm-38.25-26.15c.02.73,2.5,3.78,3.07,4.54.21.27.35.48.52.75.1.15.4.74.58.57.38-.38-2.51-3.91-2.96-4.52-.24-.33-.85-1.23-1.21-1.33h0Zm50.93,3.59c-.4-.11-.56-.74-.75-1.08l-1.48-2.82c-.35-.69-1.15-1.91-1.15-2.65.43.04.64.8,1.03,1.44.55.92,1.59,3.14,2.07,4.13.13.28.28.58.28.99h0Zm-34.94-8.88c0-1.69-1.66-4.74-2.72-6.15-.35-.47-.29-.53-.66-.61.04.52,1,1.97,1.31,2.5.71,1.19,1.32,2.51,1.72,3.85.06.21.09.22.14.42h.21Zm34.02-5.57c-.09-.4-.75-1.25-1.04-1.71l-2.18-3.31c-.2-.3-.38-.55-.58-.83-.27-.38-.36-.56-.7-.63.03.4.73,1.41.97,1.78l1.09,1.66c.36.58,1.52,2.29,2.01,2.85.12.14.2.18.44.2h0Zm-25.45,8.13c.12-.1.09.09.09-.16l-.09.16h0Zm-.07-.23c.11-.09.14-.01.02-.14l-.02.14h0Zm12.35,45.67c0-1.07-1.66-4.08-2.3-5.24-.16-.29-.3-.51-.48-.79-.22-.37-.31-.52-.6-.59,0,.55.5,1.21.77,1.76l1.71,3.36c.27.53.61,1.56.82,1.72.09-.19.07.06.07-.21h0Zm-30.01-25.37c-.33-.09-.22-.2-.45-.82-.53-1.39-2.13-4-2.99-5.4-.15-.24-.15-.18-.15-.55.54.14,1.92,2.58,2.18,3.03.3.53,1.74,3.04,1.41,3.73h0Zm28.25-18.04c0-.26-.59-1.61-.73-1.88-.56-1.12-1.69-3.78-2.28-4.77-.11-.18-.11-.24-.37-.26,0,.4.16.73.31,1.03l2.47,5.29c.17.35.16.63.54.73.07-.13.07-.01.07-.14h0Zm-18.95,20.65c0,.9,1.35,3.11,1.76,3.8.11.19,1.93,3.44,2.11,3.26.25-.25-1.57-3.25-1.81-3.64-.19-.32-.34-.58-.53-.88-.35-.58-1.11-2.25-1.55-2.54h0Zm20.43,8.6c0,.65.02.38-.07.56-.27-.2-.36-1.17-.68-1.99-.37-.95-1.32-2.58-1.86-3.5-.3-.51-.77-1.27-.77-1.91.41.27,1.64,2.52,1.97,3.1.48.83,1.41,2.49,1.41,3.74h0Zm-17.4-46.73c-.42-.11-.97-1.29-1.17-1.64-.37-.61-.69-1.15-1.06-1.76-.19-.32-.34-.57-.53-.88-.24-.4-1.59-2.58-1.41-2.77.19-.19,1.06,1.32,1.18,1.51l2.11,3.52c.1.17.16.3.24.46.23.45.63,1.02.63,1.55h0Zm18.81,46.09c.29-.6-2.19-5.15-2.77-6.18-.3-.53-.44-1.11-.89-1.15.04.52.59,1.47.82,1.93l2.32,4.58c.36.7.19.74.51.82h0Zm-1.48-29.04c0-.46-.49-1.52-.68-2l-1.44-3.92c-.21-.54-.52-1.66-.91-1.76,0,.76.97,3.23,1.28,4.08.23.65.45,1.29.74,1.94.19.42.58,1.55,1.01,1.67h0Zm.07,32.42c0,.13,0,0-.07.14-.16-.06-.1-.02-.19-.16l-.7-1.84c-.69-1.49-1.63-3.29-2.53-4.66-.12-.18-.16-.25-.27-.43-.15-.25-.18-.22-.18-.6,1.06.56,3.95,6.04,3.95,7.54h0Zm-25.57-27.06l-3.3-5.3c-.2-.32-.83-1.51-1.21-1.61-.17.35.71,1.62.92,1.97.19.32.38.62.58.97l1.72,2.78c.21.32.38.6.58.9.36.54.33.61.55.55.16-.04.16,0,.16-.27h0Zm6.97-18.33c-.02-.7-2.17-4.21-2.71-5.12-.21-.35-.35-.63-.56-.99-.21-.35-1-1.98-1.18-1.8-.34.34,3.09,6.05,3.73,7.07.23.37.42.75.72.83h0Zm16.2,45.81c-.16-.06-.1-.02-.19-.16-.11-.16-.43-1.84-1.73-3.98-.39-.65-.74-1.27-1.12-1.91-.26-.45-.91-1.55-.91-2.19.31.08.92,1.36,1.2,1.83,1.16,1.94,2.74,4.07,2.74,6.42h0Zm-.91-48.14c0-.6-.74-1.66-1.03-2.21-.21-.38-.39-.66-.6-1.02l-2.1-3.47c-.4-.6-.64-1.23-1.06-1.27.01.47.81,1.71,1.08,2.16l1.2,1.97c.21.36.41.68.61,1.01.2.33.39.62.59.96.21.36.41.65.63,1,.16.25.37.77.69.86h0Zm.56,48.14c-.01-.58-1.78-3.65-2.16-4.32-.2-.36-.39-.67-.6-1.02-.22-.37-.38-.66-.61-1.01-.35-.55-.86-1.56-1.35-1.89,0,.47.27.83.46,1.16.21.36.37.69.58,1.04.42.69.75,1.36,1.17,2.07.49.82,1.54,2.8,2.1,3.61.12.18.17.31.4.37h0Zm-17.25-39.89c0-1.51-2.85-5.64-3.75-6.96-.27-.4-.42-.69-.76-.72.01.53,1.35,2.37,1.69,2.96l2.47,4.36c.14.24.09.3.34.36h0Zm-4.23,2.33c.03.37.81,1.69,1.06,2.18l1.6,3.2c.2.39.35.63.54,1.01.14.28.97,2.08,1.25,1.8.16-.16-.81-1.91-.94-2.17-.37-.73-.69-1.38-1.06-2.11-.19-.38-.35-.72-.54-1.08-.1-.19-.19-.3-.28-.49-.25-.47-1.06-2.28-1.62-2.33h0Zm-.77,45.81c.07-.82-.18-1.76-.41-2.55-.23-.78-.45-1.61-.74-2.36-.3-.78-.53-1.5-.84-2.27-.16-.4-.28-.7-.45-1.1-.15-.36-.29-.7-.58-.9-.05.25-.03.3.06.57.65,2.03,1.54,4.06,2.18,6.35.12.43.23.76.34,1.21.16.65.14.95.45,1.03h0Zm20.22-55.47c-.02-.87-4.45-8.36-5.35-8.6.14.62,2.12,3.48,2.63,4.34.34.57,2.22,3.93,2.72,4.26h0Zm-12.89-.63c0-.48-.29-.85-.47-1.22-.72-1.45-2.93-4.89-3.8-6.21-.31-.47-.45-.79-.8-.82.01.45.34.82.54,1.15l3.79,6.22c.39.65.38.84.75.88h0Zm31.06,16.28c-.05.2-.04.04,0,.21,0,.02.06.13.09.19.25.49.93,2.01,1.49,2.04.31.02.04-.35-.23-.91l-.86-1.58c-.06-.29-.42-.81-.56-1.08l-2.79-5.31c-.26-.52-.88-1.84-1.29-1.95,0,.51.25.85.42,1.2.17.35.33.66.52,1.03.36.72.69,1.32,1.06,2.04l1.97,3.88c.1.17.04.12.19.23h0Zm-7.82-2.47c0-1.1-.63-2.79-.94-3.92-.12-.43-.27-.79-.38-1.17-.23-.84-.53-1.63-.8-2.44-.13-.39-.27-.83-.4-1.22-.18-.55-.24-.89-.57-.98,0,.71.42,1.94.64,2.6l2.11,6.7c.09.28.05.35.35.43h0Zm1.41-2.04c-.18-.06-.15-.03-.35-.49l-3.09-7.9c-.18-.44-.43-.74-.43-1.33.42.11,1.08,1.76,1.25,2.14.52,1.21,2.97,6.88,2.63,7.59h0Zm-33.46,46.38c-.34-.09-.37-.62-.51-1.18l-2.18-7.96c-.14-.49-.34-.78-.34-1.43.36.1.42.52.64,1.06.37.94.93,2.88,1.19,3.88.23.88.48,1.77.71,2.68.22.9.49,1.86.49,2.96h0Zm36.06-44.9c-.53-.35-2.29-5.47-2.63-6.53-.16-.49-.31-.87-.48-1.36-.15-.45-.3-.89-.46-1.37-.11-.33-.38-1.13-.38-1.45,0-.27-.02-.03.07-.21.34.09.44.72.61,1.23l2.94,8.26c.12.37.5,1.07.33,1.44h0Zm-36.98,45.18c0-.76-.58-2.75-.81-3.55l-.99-3.38c-.49-1.72-1.06-3.25-1.66-4.9-.14-.38-.41-1.21-.7-1.42,0,.64.26,1.24.43,1.75.79,2.37,1.88,5.86,2.54,8.24l1.18,3.26h0Zm16.62-33.55l-.02.02s.03-.01.02-.02h0Zm-.14-.21l.04.15-.04-.15Zm0,0c-.03-.35-.42-1.29-.55-1.78l-.15-.48c-.07-.14-.02-.06-.07-.14,0,.35.07.17,0,.49l-.02.12c0,.26.69,1.68.79,1.79h0Zm-.77-2.54c0-.18-.11-.01-.04,0,0,0,.04.2.04,0h0Zm-.07-.28l-.02.02s.03-.01.02-.02h0Zm-.7-.42c0-.18-.11-.01-.04,0,0,0,.04.2.04,0h0Zm-.63,0l-.04-.15.04.15h0Zm.56-.21c0-.18-.11-.01-.04,0,0,0,.04.2.04,0h0Zm-.21-.14h.07-.07Zm.07,0l.08-.14-.08.14h0Zm-.05-.59l-.09.02.06.08.04-.11h0Zm2.04,5.66l-.12-.18c-.05-.08-.08-.17-.12-.24-.21-.45-.47-1.16-.73-1.52-.08-.11-.08-.09-.13-.22l-.61-1.45c-.05-.05-.03.04-.12-.14-.07-.14-.06-.1-.07-.26-.01-.01-.03-.05-.04-.04-.03.06-.28-.52-.48-.66l.07.56c.07.08.07-.12.07.21.13.2-.05.11.04.38.07.21.14.11.25.39l.34.86c.24.54.51,1.06.75,1.65.16.4,1.2,3.05,1.38,3.21l.13.08c-.02-.25-.1-.33-.13-.51-.04-.22-.01-.31.07-.46.09-.17.07-.12-.08-.44-.11-.25-.45-.98-.47-1.2h0Zm-2.35-4.16c-.1,0-.07-.02-.07.09l.07.05v-.15h0Zm-.3-.63c.15-.07.12-.02-.05-.07l.05.07h0Zm-9.06,7.12c.34-.74-2-4.98-2.54-6.12-.33-.7-.15-.38-.67-1.1l-2.47-3.37c-.25-.33-.74-1.14-1.15-1.18,0,.44.17.54.37.83.3.45,3.11,4.34,3.46,4.65.29.26.19.05.26.37l2.46,5.65c.12.24.03.21.29.28h0Zm37.33-13.81c0-.8-.27-1.32-.5-1.89-.2-.49-.47-1.1-.74-1.58-1.21-2.17-2.13-3.77-3.54-5.9l-.97-1.42c-.18-.26-.31-.46-.5-.7-.21-.27-.26-.39-.57-.55,0,.38.2.61.35.85l1.38,2.14c1.01,1.65,2.72,4.29,3.53,5.91.27.54.56,1.07.8,1.6l.49,1.27c.09.21.05.21.29.28h0Zm-46.49,43.2c-.28-.07-.11-.06-.3-.18-.2-.13-.16-.02-.25-.18-.21-.38-1.46-5.28-1.64-6.04-.28-1.14-1.68-6.08-1.68-7.13h.21l3.66,13.53h0Zm2.68,1.76c0-1.06-.53-2.88-.76-3.96-.26-1.24-2.41-10.1-3.4-10.77,0,.54.87,2.91,1.08,3.64.75,2.52,1.33,4.94,1.96,7.48.22.87.47,1.99.75,2.84.1.3.14.6.36.77h0Zm-1.48-2.04c0-.39-.91-2.98-1.1-3.55-.62-1.84-1.52-5.22-2.09-7.22-.14-.5-.81-3.1-1.25-3.4,0,.75.21,1.31.39,1.93.85,2.97,1.62,6.12,2.59,9.03.17.51.87,3.04,1.45,3.2h0Zm45.57-46.73c-.3-1.31-1.12-2.64-1.71-3.85-.83-1.68-2.22-3.43-3.37-4.88l-1.88-2.27c-.21-.26-.38-.48-.6-.74l-.95-1.16c-.13-.16-.16-.21-.37-.27.21.91,3.78,5.09,4.72,6.34,2.19,2.92,2.36,3.96,3.84,6.52.15.26.05.25.31.32h0Zm.56,7.4c-.04-.5-.61-1.29-.91-1.9-.31-.62-.62-1.16-.94-1.81l-1.43-2.73c-.84-1.7-2.45-4.64-3.48-6.18-.32-.48-.74-1.24-1.2-1.55.04.44,1.64,3.06,1.95,3.62l3.84,7.22c.18.29.33.6.5.91l1.01,1.74c.18.28.33.59.66.68h0Zm.56-3.24c0-.51-1.28-2.94-1.62-3.52-2.39-4.11-3.1-5.08-5.91-9.31l-2.37-3.55c-.16-.22-.17-.33-.44-.4.11.23.15.41.28.63l1.59,2.64c.24.36.43.69.66,1.03l2.69,4.07c.92,1.38,1.74,2.73,2.61,4.16.39.65,2.23,4.03,2.52,4.24h0Zm-31.56-4.37c0-.18-.11-.01-.04,0,0,0,.04.2.04,0h0Zm.56-.56l-.04-.15.04.15h0Zm-.07-.28l-.02.02s.03-.01.02-.02h0Zm-.07-.14l-.02.02s.03-.01.02-.02h0Zm-.07-.21l-.02.02s.03-.01.02-.02h0Zm-.42-.77h0Zm-21.69,37.21c0-.36,0-.12-.07-.21,0,.37,0,.11.07.21Zm0,0l3.54,11.75c.12.29-.03.14.19.23.32-.68-1.57-6.45-1.83-7.4l-2.11-6.7c-.09-.2-.06-.22-.29-.28v.02c0,.44.04.64.13.97.42,1.47.26.8.11,1.22-.05.16-.04.35-.04.53.05,5.03,1.58,6.66,2.27,10.85.05.3.06.63.27.78.56-1.17-1.52-6.6-1.88-8.76-.14-.8-.37-2.42-.37-3.22h0Zm30.05-13.84l-.49.07h.49v-.07h0Zm-16.46,13.63c0-.37-.17-.76-.31-1.03-.08-.17-.33-.91-.57-.55-.13.21.17.8.26.99.15.33.2.62.47.8.05-.07.14-.17.14-.21h0Zm-2.75-28.05h0Zm13.74,34.68c-.33-.03-.4-.34-.68-.94-.12-.26-.5-1.03-.27-1.14.14-.07.18-.07.39.32.22.4.75,1.37.56,1.76h0Zm-7.61-19.1c-.32-.03-.33-.19-.42-.42-.09-.22-.17-.42-.26-.66-.13-.33-.47-.98-.3-1.32.6.16.99,1.9.99,2.4h0Zm21.13-24.46c0-.22-.34-1.05-.43-1.33-.14-.47-.24-1.1-.48-1.28-.3.2-.2.35-.12.76.09.49.45,1.85.97,1.99.08-.13.07-.01.07-.14h0Zm0,43.28c-.35-.03-.5-.56-.8-1.17-.2-.41-.54-1.09-.54-1.5.48.01.46.28.89,1.15.16.31.59,1.22.45,1.53h0Zm-3.52,6.63l-.02.02s.03-.01.02-.02h0Zm-.14-.14h0Zm4.65-3.17c0,.61-.37.43-.58.23-.2-.18-.45-.33-.47-.66.25.06.36.18.56.28-.08-.33-.46-.99-.63-1.27-.24-.4-.47-.81-.7-1.2l-1.08-1.81c-.15-.25-.26-.33-.26-.73.42.04.58.48.97,1.07.47.7,2.2,3.51,2.2,4.07h0Zm-15.5-25.37c0-.36,0-.12-.07-.21,0,.37,0,.11.07.21h0Zm-.07-.35c0-.18-.11-.01-.04,0,0,0,.04.2.04,0h0Zm-3.95-9.09h0Zm1.06-2.82s-.13-.13-.14-.14c.05.58,1.46,6.23,1.64,6.61,0,.01.02.04.02.05,0,0,.02.03.03.04l-.73-3.14c-.14-.55-.24-1.05-.37-1.61-.11-.49-.21-1.23-.38-1.59-.07-.08-.07.12-.07-.21h0Zm1.55,6.55s0,.12,0,.14c.04.13.02.08.07.14,0-.04,0-.12,0-.14-.04-.13-.02-.08-.07-.15h0Zm.07.28s0,.12,0,.14c.04.13.02.08.07.15,0-.04,0-.12,0-.14-.04-.13-.02-.08-.07-.15h0Zm.07.28c.01.47.51,2.08.69,2.69.07.24.17.71.3.9,0-.33-.58-2.19-.71-2.68l-.2-.78c-.04-.1-.04-.08-.08-.14h0Zm.99,3.59c0,.14,0,.12.03.25,0,.02.03.09.03.11.04.1.04.08.08.13,0-.13,0-.13-.02-.24,0-.02-.03-.09-.04-.11-.1-.24,0,0-.08-.14h0Zm.14.49c0,.34,0,.13.07.21,0-.34,0-.13-.07-.21h0Zm.07.21s0,.11,0,.14c.04.13.02.08.07.14,0-.04,0-.12,0-.14-.04-.13-.02-.08-.07-.15h0Zm.07.28c0,.34,0,.13.07.21,0-.34,0-.13-.07-.21h0Zm.07.21s0,.12,0,.14c.04.13.02.08.07.15,0-.04,0-.11,0-.14-.04-.13-.02-.08-.07-.15h0Zm.07.28c.07.08.07-.12.07.21-.07-.08-.07.12-.07-.21h0Zm16.76-5.71l.07.14-.07-.14Zm0,0l-.04-.15.04.15h0Zm-.07-.28c-.11-.11-.06.06-.05.05,0,0,.16.07.05-.05h0Zm-.07-.14l-.04.02s.06-.01.04-.02h0Zm-.92-1.83c.13.13-.13-.13,0,0h0Zm-.07-.14c-.13-.13.12.13,0,0h0Zm-.07-.14c-.13-.13.12.13,0,0h0Zm.85-.07c0-.26.02-.08-.07-.07,0,.17-.02,0,.07.07h0Zm-.07-.28c-.11-.11-.06.06-.05.05,0,0,.16.07.05-.05h0Zm-.07-.14c-.11-.11-.06.06-.05.05,0,0,.17.07.05-.05h0Zm-1.13-1.55h0Zm-1.62-.99l-.04-.15.04.15h0Zm-12.54,12.19c-.09-.24-.24,0-.06,0,0,0,.13.18.06,0h0Zm.7,0c0-.18-.11-.02-.04,0,0,0,.04.2.04,0h0Zm1.41-.14l-.02.02s.03-.01.02-.02h0Zm-2.54,0v-.21h-.07c0,.37,0,.11.07.21h0Zm.28-.07s0,.01,0,.02h0s0,.12,0-.02h0Zm2.18-.14l-.02.02s.03-.01.02-.02h0Zm-2.25,0c-.13-.13.12.13,0,0h0Zm2.89-.07c0-.26.03-.07-.14-.14l.14.14h0Zm-.71-.14l-.02.02s.03-.01.02-.02h0Zm.56-.14s0,.01,0,.02h0s0,.12,0-.02h0Zm-.63-.07c0-.17-.11-.02-.04,0,0,0,.04.2.04,0h0Zm-.07-.21c0-.18-.11-.02-.05,0,0,0,.05.2.05,0h0Zm-.14-.35v.21s.03-.05.03-.04c0,0,.06-.01-.03-.17h0Zm-.07-.21c0,.34,0,.13.07.21,0-.34,0-.13-.07-.21h0Zm.56-.49v.07l.08-.06h-.08Zm-2.96-.92c-.11-.11-.06.06-.05.05,0,0,.17.07.05-.05h0Zm2.4,1.41c0-.28-.31-1.04-.42-1.34l-.12-.3c-.05-.09-.05-.07-.09-.12l.5,1.55c.07.18.03.11.14.22h0Zm-.63-1.76c0-.11.02-.07-.03-.18-.09-.23-.06-.1-.11-.17,0,.11-.02.07.03.18.09.23.06.1.11.17h0Zm-.21-.56c0,.34,0,.13.07.21,0-.34,0-.13-.07-.21h0Zm-.07-.14l.07.14-.07-.14Zm0,0l-.04-.15c-.03.4-.08.04.04.15h0Zm-.91-.14l-.02.02s.03-.01.02-.02h0Zm-.14-.21l.04.15-.04-.15h0Zm.99.07c.05-.2-.15.01-.06.01h0c.13-.02,0,.15.05-.01h0Zm-.07-.21c-.11-.11-.07.06-.05.05,0,0,.17.07.05-.05h0Zm-.92.14c-.02-.18.02-.08-.04-.24-.1-.3-.02-.06-.1-.18l-.04.29c.14.11.02-.02.19.14h0Zm.84-.28c-.11-.11-.06.06-.05.05,0,0,.16.07.05-.05h0Zm-1.06-.35c0,.33,0,.13.07.21,0-.34,0-.13-.07-.21h0Zm.99.14c-.11-.11-.06.06-.05.05,0,0,.17.07.05-.05h0Zm-.07-.14c-.11-.11-.06.06-.05.05,0,0,.16.07.05-.05h0Zm-.92,0l-.05-.22c-.02.38-.02.11.05.22h0Zm-.07-.35c-.04-.19-.14,0-.05,0,0,0,.09.18.05,0h0Zm-.07-.21c-.04-.19-.14,0-.05,0,0,0,.09.18.05,0h0Zm-.14-.35c0,.37,0,.11.07.21l-.07-.21h0Zm0-.14c0-.18-.11-.02-.04,0,0,0,.04.2.04,0h0Zm.7-.07c-.11-.11-.06.06-.05.05,0,0,.17.07.05-.05h0Zm-.77-.14c0-.17-.11-.02-.04,0,0,0,.04.2.04,0h0Zm.71,0l-.02.02s.03-.01.02-.02h0Zm-.07-.14l-.02.02s.03-.01.02-.02h0Zm-.7-.21h-.07v.21h.07v-.21h0Zm.63.07l-.02.02s.03-.01.02-.02h0Zm-.07-.14c0-.17-.11-.02-.04,0,0,0,.04.2.04,0h0Zm-.7-.21v.21h.07c0-.37,0-.11-.07-.21h0Zm.63,0l-.02.02s.03-.01.02-.02h0Zm-.7-.21c0,.33,0,.13.07.21,0-.34,0-.13-.07-.21Zm0,0c-.04-.14-.01-.11-.07-.21,0,.37,0,.11.07.21h0Zm-.07-.28c-.05-.3-.1-.12-.05-.06,0,0,0,0,0,.01,0,0,.05.08.04.05h0Zm-.07-.21c-.05-.3-.1-.12-.05-.06h0s.05.09.04.06h0Zm-.07-.21c-.04-.3-.11-.11-.05-.05,0,0,0,0,0,0,0,0,.05.06.04.04h0Zm-.14-.35h0Zm-.07-.21v.03s0-.04,0-.03h0Zm.92-.21l-.08.14.08-.14h0Zm-1.34-1.06c-.13-.12.12.13,0,0h0Zm-.07-.21c-.12-.13.13.13,0,0h0Zm-.07-.35v.21h.07c0-.37,0-.11-.07-.21h0Zm-.07-.21c0,.33,0,.13.07.21,0-.34,0-.13-.07-.21h0Zm-.07-.21c0,.33,0,.13.07.21,0-.34,0-.13-.07-.21h0Zm.21-1.13l-.02.02s.03-.01.02-.02h0Zm-.14-.28v.21h.07c0-.37,0-.1-.07-.21h0Zm-1.76-.85l.08-.14-.08.14h0Zm3.17,9.87c-.04-.46-.33-.98-.28-1.4.07-.53-.03-.53-.28-1.28-.28-.85-.57-1.73-.85-2.61-.16-.5-.23-.84-.38-1.3-.14-.42-.29-.88-.4-1.29-.23-.91-.33-1.11-.62-1.91l-.29-.62c.01.62.94,3.28,1.15,3.92.34,1.02.92,2.46,1.1,3.55l.38,1.74c.07.3.22,1.01.47,1.23h0Zm-3.1-10.57l-.02.02s.03-.01.02-.02h0Zm0-.85v.07l.08-.06h-.08Zm1.62,3.81c-.01-.61-.93-2.96-1.19-3.67-.08-.22-.14-.38-.23-.62l-.27-.57c0,.44,1.25,3.87,1.55,4.58,0,.01.06.15.07.15.07.14.03.07.08.13h0Zm-1.76-5.07c0,.34,0,.13.07.21,0-.34,0-.13-.07-.21h0Zm.28-.56l-.02.02s.03-.01.02-.02h0Zm-.14-.28l.04.15-.04-.15h0Zm13.1,17.69v.28h.07s0-.1,0-.12c-.03-.12-.05-.12-.07-.16h0Zm-.49.07l-.02.02s.03-.01.02-.02h0Zm-.14-.21l.04.15-.04-.15h0Zm3.52-1.69c-.11-.11-.06.06-.05.05,0,0,.17.07.05-.05h0Zm-1.83-.14l-.02.02s.03-.01.02-.02h0Zm-.14-.21l.04.15-.04-.15h0Zm1.27-.21l.04.15-.04-.15h0Zm-2.04-.42c-.11-.11-.07.06-.05.05,0,0,.17.07.05-.05h0Zm3.73,0l-.04-.15.04.15h0Zm-8.6-.85v-.21c-.26.39-.03.18,0,.21h0Zm5.35-.14l-.02.02s.03-.01.02-.02h0Zm2.32-.07l.07.14-.07-.14h0Zm-2.46-.21c0,.36,0,.12.07.21,0-.37,0-.11-.07-.21h0Zm2.46.21l-.04-.15.04.15h0Zm-3.59,3.74c-.02-.31-1.25-3.89-1.41-4.09,0,.38.78,2.99.9,3.19l.29.55s.01.03.02.05l.2.3h0Zm-1.48-4.3c0,.34,0,.13.07.21,0-.33,0-.13-.07-.21h0Zm4.3,2.04c0-.59-.62-1.91-.93-2.39l-.06-.08c.03.3.3.92.41,1.28.09.27.37.95.57,1.19h0Zm-1.06-2.61l.07.14-.07-.14Zm0,0h0Zm1.62-.07l-.02.02s.03-.01.02-.02h0Zm-5.07-.14c0-.18-.11-.01-.04,0,0,0,.04.2.04,0h0Zm5,0l-.02.02s.03-.01.02-.02h0Zm-.07-.14l-.02.02s.03-.01.02-.02h0Zm-5-.07c0-.18-.11-.01-.04,0,0,0,.04.2.04,0h0Zm4.93-.07c0-.18-.11-.01-.04,0,0,0,.04.2.04,0h0Zm-5-.14c0-.18-.11-.01-.04,0,0,0,.04.2.04,0h0Zm6.13-.07l.07.14-.07-.14h0Zm-1.2,0l-.02.02s.03-.01.02-.02h0Zm1.13-.14l.07.14-.07-.14h0Zm-6.13,0c-.03-.23-.13.02-.05.01h0s.06.14.04-.01h0Zm4.93,0l-.02.02s.03-.01.02-.02h0Zm1.2,0l-.04-.15.04.15h0Zm-1.27-.14l-.02.02s.03-.01.02-.02h0Zm-4.93-.07c-.04-.19-.14,0-.05,0,0,0,.09.18.05,0h0Zm4.86-.07c0-.18-.11-.01-.04,0,0,0,.04.2.04,0h0Zm1.27,0l-.02.02s.03-.01.02-.02h0Zm-.14-.21l.04.15-.04-.15h0Zm-6.13.07c.13.13-.13-.13,0,0h0Zm3.66,4.09c-.02-.24-.08-.31-.17-.53l-1.28-3.3c-.09-.25-.08-.35-.24-.53,0,.31.22,1.03.3,1.38l.11.47c.19.78.14.46.46,1.02l.82,1.5h0Zm1.27-4.16l-.02.02s.03-.01.02-.02h0Zm1.2,0l-.04-.15.04.15h0Zm-6.76-.21c-.13.28-.06.05.07.14l-.07-.14h0Zm5.49.07l-.02.02s.03-.01.02-.02h0Zm-2.89-.07c0-.36,0-.12-.07-.21,0,.37,0,.1.07.21h0Zm2.82-.07l-.02.02s.03-.01.02-.02h0Zm1.27,0l-.02.02s.03-.01.02-.02h0Zm-3.31,6.62c0-.35-.09-.57-.16-.9-.06-.29-.14-.57-.21-.92-.05-.26-.15-.56-.22-.91-.07-.3-.11-.73-.17-.96l-1.32-3.11s-.02-.03-.03-.04c.03.33,1.81,5.87,1.96,6.43l.16.41h0Zm1.97-6.77c0-.18-.11-.01-.04,0,0,0,.04.2.04,0h0Zm1.27,0l-.02.02s.03-.01.02-.02h0Zm-9.65-.07l-.02.02s.03-.01.02-.02h0Zm4.29,0l-.04-.15.04.15h0Zm1.27-.07l-.02.02s.03-.01.02-.02h0Zm4.02,0l-.02.02s.03-.01.02-.02h0Zm-9.72-.14l.04.15-.04-.15h0Zm2.39.07l-.02.02s.03-.01.02-.02h0Zm6.06,0l-.02.02s.03-.01.02-.02h0Zm-8.52-.28c0,.33,0,.13.07.21,0-.33,0-.13-.07-.21h0Zm1.41.14l-.02.02s.03-.01.02-.02h0Zm3.03,0l-.02.02s.03-.01.02-.02h0Zm4.02,0l-.02.02s.03-.01.02-.02h0Zm1.27,0l-.02.02s.03-.01.02-.02h0Zm-7.4-.14l.04.15-.04-.15h0Zm6.06,0l-.02.02s.03-.01.02-.02h0Zm1.27,0l-.02.02s.03-.01.02-.02h0Zm-5.28-.07l-.02.02s.03-.01.02-.02h0Zm3.95-.07c0-.18-.11-.01-.04,0,0,0,.04.2.04,0h0Zm-.07-.21l-.02.02s.03-.01.02-.02h0Zm-.07-.14l-.02.02s.03-.01.02-.02h0Zm-.07-.14c0-.18-.11-.01-.04,0,0,0,.04.2.04,0h0Zm1.27,0l-.02.02s.03-.01.02-.02h0Zm-1.34-.21l-.02.02s.03-.01.02-.02h0Zm-.07-.14l-.02.02s.03-.01.02-.02h0Zm-1.97,0c-.12-.13.13.12,0,0h0Zm1.9-.14c0-.18-.11-.01-.04,0,0,0,.04.2.04,0h0Zm1.27,0l-.02.02s.03-.01.02-.02h0Zm-3.24,0c.12.13-.13-.12,0,0h0Zm3.17-.14l-.02.02s.03-.01.02-.02h0Zm-3.24-.14l.04.15-.04-.15h0Zm1.97.07l-.02.02s.03-.01.02-.02h0Zm1.2-.07l-.02.02s.03-.01.02-.02h0Zm-1.27-.07l-.02.02s.03-.01.02-.02h0Zm-.07-.14c0-.18-.11-.01-.04,0,0,0,.04.2.04,0h0Zm1.27,0l-.02.02s.03-.01.02-.02h0Zm-.07-.14l-.02.02s.03-.01.02-.02h0Zm-3.66,0l-.04-.15.04.15h0Zm2.4-.07l-.02.02s.03-.01.02-.02h0Zm1.2-.07l-.02.02s.03-.01.02-.02h0Zm-1.27-.07l-.02.02s.03-.01.02-.02h0Zm1.2-.07c0-.18-.11-.01-.04,0,0,0,.04.2.04,0h0Zm-1.27-.14l-.02.02s.03-.01.02-.02h0Zm1.2-.07l-.02.02s.03-.01.02-.02h0Zm-1.27-.07l-.02.02s.03-.01.02-.02h0Zm.56-.14l.07.14-.07-.14h0Zm.63.07l-.02.02s.03-.01.02-.02h0Zm-5.35,3.1c0-.34-.73-2.8-.94-3.15l-.12-.16.69,2.55c.11.18.1.14.19.38l.18.38h0Zm4.65-3.31l.07.14-.07-.14h0Zm.63.07c0-.18-.11-.01-.04,0,0,0,.04.2.04,0h0Zm-8.45-.07c-.13-.13.12.13,0,0h0Zm2.11,0c0-.12.02-.07-.14-.07l.14.07h0Zm5.07-.07c-.11-.11-.07.06-.05.05,0,0,.17.07.05-.05h0Zm.56-.07l.07.14-.07-.14h0Zm.63,0l-.02.02s.03-.01.02-.02h0Zm-.63,0l-.04-.15.04.15h0Zm.56-.14l-.02.02s.03-.01.02-.02h0Zm-1.27-.14c-.11-.11-.07.06-.05.05,0,0,.17.07.05-.05h0Zm.56-.07l.04.15-.04-.15h0Zm.56,0l.04.15-.04-.15h0Zm-.63-.14l.07.14-.07-.14h0Zm.63.14l-.04-.15.04.15h0Zm-.7-.28l.07.14-.07-.14h0Zm.56-.07l.04.15-.04-.15h0Zm-.56.07l-.04-.15.04.15h0Zm-3.1-.14l-.02.02s.03-.01.02-.02h0Zm3.66.07l-.04-.15.04.15h0Zm-.63-.21l-.02.02s.03-.01.02-.02h0Zm.49-.14l.04.15-.04-.15h0Zm-4.02-.21c0,.28.09.47.14.71.14.7.44,1.66.29,2.32-.22-.15-.16-.09-.26-.37l-.45-1.74c0,.55-.18.35.05.87.2.44.01.17.03.53l.12.3c.71,1.05.9,1.5,1.44,2.66l.21.42s.05.07.06.08l-.27-1.42c-.26-1.24-.57-2.5-1.04-3.68l-.31-.67h0Zm3.45.21l-.02.02s.03-.01.02-.02h0Zm.49-.14l.07.14-.07-.14Zm0,0l-.04-.15.04.15h0Zm-3.95-.07c0-.36,0-.12-.07-.21,0,.37,0,.11.07.21h0Zm2.18-.21l-.02.02s.03-.01.02-.02h0Zm1.69,0l-.02.02s.03-.01.02-.02h0Zm-3.8-.14l.04.15-.04-.15h0Zm1.48.14h0Zm-6.62-.07l-.04-.15.04.15h0Zm8.87-.07l-.02.02s.03-.01.02-.02h0Zm-5.99-.28l.04.15-.04-.15h0Zm-2.61-.21l-.02.02s.03-.01.02-.02h0Zm-.56-.21c0,.36,0,.12.07.21,0-.37,0-.11-.07-.21h0Zm.42,0v.14c.06-.06.13.13,0-.14h0Zm4.02-.7l-.02.02s.03-.01.02-.02h0Zm-.07-.21c0-.18-.11-.01-.04,0,0,0,.04.2.04,0h0Zm-1.2-.35c.03.41.25.65.28,1.06l-.28-1.06h0Zm1.13.14c0-.18-.11-.01-.04,0,0,0,.04.2.04,0h0Zm-1.2-.35c0,.33,0,.13.07.21,0-.33,0-.13-.07-.21h0Zm1.13.07c0-.18-.11-.01-.04,0,0,0,.04.2.04,0h0Zm-1.13-.07l-.04-.15.04.15h0Zm.99-.28c0,.36,0,.12.07.21,0-.37,0-.11-.07-.21h0Zm-1.06,0c0-.18-.11-.01-.04,0,0,0,.04.2.04,0h0Zm.57,0l-.02.02s.03-.01.02-.02h0Zm.42-.21c0,.33,0,.13.07.21,0-.33,0-.13-.07-.21h0Zm-1.06,0c0-.18-.11-.01-.04,0,0,0,.04.2.04,0h0Zm.56,0l-.02.02s.03-.01.02-.02h0Zm-.07-.14c0-.18-.11-.01-.04,0,0,0,.04.2.04,0h0Zm-.56-.07l-.02.02s.03-.01.02-.02h0Zm.42-.21l.04.15-.04-.15h0Zm-.49,0l-.02.02s.03-.01.02-.02h0Zm.42-.21c0,.34,0,.13.07.21,0-.34,0-.13-.07-.21h0Zm-2.89-5.92l-.02.02s.03-.01.02-.02h0Zm2.82,8.95c-.03-.3-.68-2.2-.78-2.53-.16-.48-1.49-4.6-1.72-4.97l-.61-1.08c-.47-.74-.29-.69-.69-.86.1.42.28.8.43,1.19.15.38.32.84.47,1.22l2.81,6.92c.09.14.03.05.09.12h0Zm-3.81-9.44"/>
    </g>
  </g>
</svg>